<svg width="161" height="161" viewBox="0 0 161 161" fill="none" xmlns="http://www.w3.org/2000/svg">
<g clip-path="url(#clip0_1568_7818)">
<g clip-path="url(#clip1_1568_7818)">
<path d="M54.031 58.0429L63.43 52.6168C64.6021 51.9401 66.0673 52.7861 66.0673 54.1396L66.0673 56.1519C66.0673 57.5054 67.5324 58.3513 68.7046 57.6746L90.1399 45.3L99.5385 39.8742C100.711 39.1974 100.711 37.5055 99.5385 36.8287L78.1036 24.4544L66.0673 17.5059" stroke="#1A1B1D" stroke-width="0.586081" stroke-linejoin="bevel"/>
<path d="M81.4465 76.8158L89.427 72.2087C90.5483 71.5614 90.5483 70.5119 89.427 69.8645L83.3009 66.3279C82.1796 65.6806 82.1796 64.631 83.3009 63.9837L101.845 53.278C102.967 52.6307 104.785 52.6307 105.906 53.278L115.428 58.7749C116.549 59.4222 118.367 59.4222 119.488 58.7749L130.175 52.6056C131.296 51.9583 131.296 50.9087 130.175 50.2614L122.066 45.5803" stroke="#1A1B1D" stroke-width="0.586081" stroke-linejoin="bevel"/>
<path d="M73.2483 21.8131C75.2762 20.6916 75.2842 18.873 73.2722 17.7515C71.2602 16.63 67.9866 16.63 65.9586 17.7515C63.9307 18.873 63.9227 20.6916 65.9347 21.8131C67.9467 22.9421 71.2203 22.9421 73.2483 21.8131Z" fill="#5CC3C9" stroke="#1A1B1D" stroke-width="0.586081" stroke-linejoin="round"/>
<path d="M157.62 75.7537C159.648 74.6323 159.656 72.8137 157.644 71.6922C155.632 70.5707 152.358 70.5707 150.33 71.6922C148.302 72.8137 148.294 74.6323 150.307 75.7537C152.319 76.8828 155.592 76.8828 157.62 75.7537Z" fill="#FFC450" stroke="#1A1B1D" stroke-width="0.586081" stroke-linejoin="round"/>
<path d="M125.877 47.6082C127.905 46.4868 127.913 44.6681 125.901 43.5467C123.889 42.4252 120.616 42.4252 118.588 43.5467C116.56 44.6681 116.552 46.4868 118.564 47.6082C120.576 48.7373 123.849 48.7373 125.877 47.6082Z" fill="#BCF194" stroke="#1A1B1D" stroke-width="0.586081" stroke-linejoin="round"/>
<path d="M150.886 71.6491L147.035 69.4258C146.194 68.9403 144.83 68.9403 143.989 69.4258L132.607 75.9969C131.766 76.4824 131.766 77.2696 132.607 77.7551L135.583 79.473C136.423 79.9584 136.423 80.7456 135.583 81.2311L119.391 90.5787C118.55 91.0642 117.186 91.0642 116.345 90.5787L114.72 89.6405C113.879 89.155 112.515 89.155 111.674 89.6405L109.754 90.7494" stroke="#1A1B1D" stroke-width="0.586081" stroke-linejoin="bevel"/>
<path d="M54.031 58.0429L63.43 52.6168C64.6021 51.9401 66.0673 52.7861 66.0673 54.1396L66.0673 56.1519C66.0673 57.5054 67.5324 58.3513 68.7046 57.6746L90.1399 45.3L99.5385 39.8742C100.711 39.1974 100.711 37.5055 99.5385 36.8287L78.1036 24.4544L66.0673 17.5059" stroke="#1A1B1D" stroke-width="0.586081" stroke-linejoin="bevel"/>
<path d="M81.4465 76.8158L89.427 72.2087C90.5483 71.5614 90.5483 70.5119 89.427 69.8645L83.3009 66.3279C82.1796 65.6806 82.1796 64.631 83.3009 63.9837L101.845 53.278C102.967 52.6307 104.785 52.6307 105.906 53.278L115.428 58.7749C116.549 59.4222 118.367 59.4222 119.488 58.7749L130.175 52.6056C131.296 51.9583 131.296 50.9087 130.175 50.2614L122.066 45.5803" stroke="#1A1B1D" stroke-width="0.586081" stroke-linejoin="bevel"/>
<path d="M73.2483 21.8131C75.2762 20.6916 75.2842 18.873 73.2722 17.7515C71.2602 16.63 67.9866 16.63 65.9586 17.7515C63.9307 18.873 63.9227 20.6916 65.9347 21.8131C67.9467 22.9421 71.2203 22.9421 73.2483 21.8131Z" fill="#5CC3C9" stroke="#1A1B1D" stroke-width="0.586081" stroke-linejoin="round"/>
<path d="M157.62 75.7537C159.648 74.6323 159.656 72.8137 157.644 71.6922C155.632 70.5707 152.358 70.5707 150.33 71.6922C148.302 72.8137 148.294 74.6323 150.307 75.7537C152.319 76.8828 155.592 76.8828 157.62 75.7537Z" fill="#FFC450" stroke="#1A1B1D" stroke-width="0.586081" stroke-linejoin="round"/>
<path d="M125.877 47.6082C127.905 46.4868 127.913 44.6681 125.901 43.5467C123.889 42.4252 120.616 42.4252 118.588 43.5467C116.56 44.6681 116.552 46.4868 118.564 47.6082C120.576 48.7373 123.849 48.7373 125.877 47.6082Z" fill="#BCF194" stroke="#1A1B1D" stroke-width="0.586081" stroke-linejoin="round"/>
<path d="M150.886 71.6491L147.035 69.4258C146.194 68.9403 144.83 68.9403 143.989 69.4258L132.607 75.9969C131.766 76.4824 131.766 77.2696 132.607 77.7551L135.583 79.473C136.423 79.9584 136.423 80.7456 135.583 81.2311L119.391 90.5787C118.55 91.0642 117.186 91.0642 116.345 90.5787L114.72 89.6405C113.879 89.155 112.515 89.155 111.674 89.6405L109.754 90.7494" stroke="#1A1B1D" stroke-width="0.586081" stroke-linejoin="bevel"/>
<path fill-rule="evenodd" clip-rule="evenodd" d="M57.7805 51.1919L44.1301 58.9818C44.4765 58.8273 44.8579 58.7662 45.2363 58.8039C45.6146 58.8415 45.9761 58.9773 46.2839 59.197L46.2841 59.197C47.1617 59.7603 47.8913 60.5196 48.413 61.4139C48.9346 62.3084 49.2335 63.3116 49.2851 64.3417C49.3251 64.7035 49.2653 65.069 49.112 65.4002C48.9587 65.7314 48.7175 66.0161 48.4139 66.2238L62.0645 58.4338C62.3664 58.2189 62.6059 57.9296 62.7588 57.5952C62.9117 57.2607 62.9726 56.8934 62.9358 56.5285C62.8803 55.4993 62.5799 54.4969 62.0586 53.6031C61.5372 52.7092 60.8096 51.9487 59.9346 51.3825L59.9345 51.3826C59.6276 51.1597 59.2647 51.0243 58.8848 50.9907C58.505 50.9571 58.1228 51.0264 57.7805 51.1919Z" fill="#5CC3C9"/>
<path d="M44.1301 58.9818L43.9849 58.7273L44.2496 59.2494L44.1301 58.9818ZM57.7805 51.1919L57.6529 50.9281L57.6439 50.9325L57.6352 50.9374L57.7805 51.1919ZM45.2363 58.8039L45.2073 59.0955L45.2363 58.8039ZM46.2839 59.197L46.1137 59.4356L46.2664 59.5445L46.4293 59.4515L46.2839 59.197ZM46.2841 59.197L46.4424 58.9503L46.2929 58.8544L46.1387 58.9425L46.2841 59.197ZM48.413 61.4139L48.1598 61.5616L48.1598 61.5616L48.413 61.4139ZM49.2851 64.3417L48.9925 64.3564L48.9929 64.3652L48.9939 64.3739L49.2851 64.3417ZM49.112 65.4002L49.3779 65.5233L49.3779 65.5233L49.112 65.4002ZM48.4139 66.2238L48.2484 65.9819L48.5591 66.4783L48.4139 66.2238ZM62.0645 58.4338L62.2097 58.6883L62.2225 58.6811L62.2344 58.6726L62.0645 58.4338ZM62.7588 57.5952L62.4923 57.4733L62.4923 57.4733L62.7588 57.5952ZM62.9358 56.5285L62.6428 56.5443L62.6442 56.5579L62.9358 56.5285ZM62.0586 53.6031L62.3117 53.4554L62.3117 53.4554L62.0586 53.6031ZM59.9346 51.3825L60.0938 51.1365L59.9439 51.0395L59.7889 51.1283L59.9346 51.3825ZM59.9345 51.3826L59.7622 51.6197L59.9156 51.7311L60.0801 51.6369L59.9345 51.3826ZM58.8848 50.9907L58.859 51.2826L58.8848 50.9907ZM44.2754 59.2364L57.9257 51.4464L57.6352 50.9374L43.9849 58.7273L44.2754 59.2364ZM45.2653 58.5123C44.8366 58.4696 44.4039 58.5387 44.0107 58.7142L44.2496 59.2494C44.549 59.1158 44.8792 59.0628 45.2073 59.0955L45.2653 58.5123ZM46.4542 58.9585C46.1045 58.709 45.6944 58.555 45.2653 58.5123L45.2073 59.0955C45.5349 59.1281 45.8476 59.2457 46.1137 59.4356L46.4542 58.9585ZM46.1387 58.9425L46.1386 58.9426L46.4293 59.4515L46.4295 59.4514L46.1387 58.9425ZM48.6661 61.2663C48.1209 60.3315 47.3586 59.5385 46.4424 58.9503L46.1258 59.4436C46.9648 59.9821 47.6618 60.7076 48.1598 61.5616L48.6661 61.2663ZM49.5778 64.327C49.5238 63.2499 49.2113 62.2011 48.6661 61.2663L48.1598 61.5616C48.658 62.4156 48.9432 63.3733 48.9925 64.3564L49.5778 64.327ZM49.3779 65.5233C49.5536 65.1438 49.6223 64.7246 49.5764 64.3095L48.9939 64.3739C49.028 64.6824 48.977 64.9943 48.8461 65.2771L49.3779 65.5233ZM48.5793 66.4656C48.9263 66.2283 49.2023 65.9027 49.3779 65.5233L48.8461 65.2771C48.7151 65.5601 48.5088 65.8038 48.2484 65.9819L48.5793 66.4656ZM61.9192 58.1793L48.2686 65.9692L48.5591 66.4783L62.2097 58.6883L61.9192 58.1793ZM62.4923 57.4733C62.3609 57.7606 62.1549 58.0098 61.8945 58.1951L62.2344 58.6726C62.5779 58.4281 62.8509 58.0985 63.0253 57.717L62.4923 57.4733ZM62.6442 56.5579C62.6758 56.871 62.6236 57.1861 62.4923 57.4733L63.0253 57.717C63.1998 57.3354 63.2694 56.9159 63.2273 56.4991L62.6442 56.5579ZM61.8054 53.7507C62.3034 54.6045 62.5902 55.5617 62.6431 56.5443L63.2284 56.5127C63.1704 55.4369 62.8564 54.3893 62.3117 53.4554L61.8054 53.7507ZM59.7754 51.6286C60.6121 52.1699 61.3075 52.8969 61.8054 53.7507L62.3117 53.4554C61.767 52.5216 61.007 51.7274 60.0938 51.1365L59.7754 51.6286ZM60.0801 51.6369L60.0803 51.6368L59.7889 51.1283L59.7888 51.1283L60.0801 51.6369ZM58.859 51.2826C59.1864 51.3115 59.4987 51.4282 59.7622 51.6197L60.1067 51.1455C59.7566 50.8912 59.343 50.737 58.9107 50.6988L58.859 51.2826ZM57.908 51.4557C58.2023 51.3134 58.5314 51.2536 58.859 51.2826L58.9107 50.6988C58.4785 50.6605 58.0433 50.7393 57.6529 50.9281L57.908 51.4557Z" fill="#1A1B1D"/>
<path d="M46.2839 59.1972C47.1616 59.7605 47.8913 60.5198 48.4129 61.4142C48.9346 62.3086 49.2334 63.3119 49.2851 64.342C49.2851 66.2239 47.9297 66.9862 46.2597 66.0333C45.3793 65.4728 44.6477 64.7136 44.1257 63.8185C43.6037 62.9235 43.3063 61.9194 43.2585 60.8884C43.3796 59.0065 44.6139 58.2443 46.2839 59.1972Z" fill="#5CC3C9" stroke="#1A1B1D" stroke-width="0.586081"/>
<path d="M37.8095 66.5364C38.0686 66.7091 38.2837 66.9402 38.4371 67.2112C38.5905 67.4822 38.6781 67.7856 38.6927 68.0966C38.6927 68.373 38.5956 68.5702 38.4371 68.6635C38.2747 68.7591 38.0479 68.7457 37.7948 68.5968C37.5356 68.4264 37.3198 68.1981 37.164 67.9299C37.0081 67.6617 36.9167 67.3605 36.897 67.051C36.897 66.7649 36.9993 66.5667 37.164 66.4745C37.3297 66.3816 37.5585 66.3961 37.8095 66.5364Z" fill="#5CC3C9" stroke="#1A1B1D" stroke-width="0.586081"/>
<path d="M38.4372 67.2112C38.2838 66.9402 38.0688 66.7091 37.8096 66.5364C37.5586 66.3961 37.3298 66.3816 37.1641 66.4745L45.3828 61.7179C45.5499 61.562 45.8159 61.5518 46.1131 61.7179C46.3722 61.8905 46.5873 62.1217 46.7406 62.3927C46.894 62.6637 46.9817 62.967 46.9963 63.2781C46.9963 63.6104 46.856 63.8283 46.637 63.8887L38.4372 68.6636C38.5958 68.5703 38.6928 68.373 38.6928 68.0966C38.6782 67.7856 38.5906 67.4822 38.4372 67.2112Z" fill="white" stroke="#1A1B1D" stroke-width="0.586081"/>
<path fill-rule="evenodd" clip-rule="evenodd" d="M57.7805 51.1919L44.1301 58.9818C44.4765 58.8273 44.8579 58.7662 45.2363 58.8039C45.6146 58.8415 45.9761 58.9773 46.2839 59.197L46.2841 59.1969C47.1618 59.7603 47.8914 60.5195 48.4131 61.4139C48.9347 62.3084 49.2336 63.3116 49.2852 64.3417C49.3252 64.7035 49.2654 65.069 49.1121 65.4002C48.9588 65.7314 48.7176 66.0161 48.414 66.2238L62.0646 58.4338C62.3665 58.2189 62.606 57.9296 62.7589 57.5952C62.9118 57.2607 62.9727 56.8934 62.9359 56.5285C62.8804 55.4993 62.58 54.4969 62.0587 53.6031C61.5373 52.7092 60.8097 51.9487 59.9347 51.3825L59.9345 51.3826C59.6277 51.1597 59.2647 51.0243 58.8848 50.9907C58.505 50.9571 58.1228 51.0264 57.7805 51.1919Z" fill="#5CC3C9"/>
<path d="M44.1301 58.9818L43.9849 58.7273L44.2496 59.2494L44.1301 58.9818ZM57.7805 51.1919L57.6529 50.9281L57.6439 50.9325L57.6352 50.9374L57.7805 51.1919ZM45.2363 58.8039L45.2073 59.0955L45.2363 58.8039ZM46.2839 59.197L46.1137 59.4356L46.2664 59.5445L46.4293 59.4515L46.2839 59.197ZM46.2841 59.1969L46.4424 58.9503L46.293 58.8544L46.1387 58.9425L46.2841 59.1969ZM48.4131 61.4139L48.1599 61.5616L48.1599 61.5616L48.4131 61.4139ZM49.2852 64.3417L48.9926 64.3564L48.993 64.3652L48.994 64.3739L49.2852 64.3417ZM49.1121 65.4002L49.378 65.5233L49.378 65.5233L49.1121 65.4002ZM48.414 66.2238L48.2485 65.9819L48.5592 66.4783L48.414 66.2238ZM62.0646 58.4338L62.2098 58.6883L62.2226 58.6811L62.2345 58.6726L62.0646 58.4338ZM62.7589 57.5952L62.4924 57.4733L62.4924 57.4733L62.7589 57.5952ZM62.9359 56.5285L62.6429 56.5443L62.6443 56.5579L62.9359 56.5285ZM62.0587 53.6031L62.3118 53.4554L62.3118 53.4554L62.0587 53.6031ZM59.9347 51.3825L60.0939 51.1365L59.9439 51.0394L59.7889 51.1283L59.9347 51.3825ZM59.9345 51.3826L59.7623 51.6197L59.9158 51.7312L60.0803 51.6368L59.9345 51.3826ZM58.8848 50.9907L58.9107 50.6988L58.9107 50.6988L58.8848 50.9907ZM44.2754 59.2364L57.9257 51.4464L57.6352 50.9374L43.9849 58.7273L44.2754 59.2364ZM45.2653 58.5123C44.8366 58.4696 44.4039 58.5387 44.0107 58.7142L44.2496 59.2494C44.549 59.1158 44.8792 59.0628 45.2073 59.0955L45.2653 58.5123ZM46.4542 58.9585C46.1045 58.709 45.6944 58.555 45.2653 58.5123L45.2073 59.0955C45.5349 59.1281 45.8476 59.2457 46.1137 59.4356L46.4542 58.9585ZM46.1387 58.9425L46.1386 58.9426L46.4293 59.4515L46.4295 59.4514L46.1387 58.9425ZM48.6662 61.2663C48.121 60.3315 47.3587 59.5384 46.4424 58.9503L46.1258 59.4435C46.9649 59.9821 47.6619 60.7076 48.1599 61.5616L48.6662 61.2663ZM49.5779 64.327C49.5239 63.2499 49.2114 62.2011 48.6662 61.2663L48.1599 61.5616C48.6581 62.4156 48.9433 63.3733 48.9926 64.3564L49.5779 64.327ZM49.378 65.5233C49.5537 65.1438 49.6224 64.7246 49.5765 64.3095L48.994 64.3739C49.0281 64.6824 48.9771 64.9943 48.8462 65.2771L49.378 65.5233ZM48.5794 66.4656C48.9264 66.2283 49.2024 65.9027 49.378 65.5233L48.8462 65.2771C48.7152 65.5601 48.5089 65.8038 48.2485 65.9819L48.5794 66.4656ZM61.9193 58.1793L48.2687 65.9692L48.5592 66.4783L62.2098 58.6883L61.9193 58.1793ZM62.4924 57.4733C62.361 57.7606 62.155 58.0098 61.8946 58.1951L62.2345 58.6726C62.578 58.4281 62.851 58.0985 63.0254 57.717L62.4924 57.4733ZM62.6443 56.5579C62.6759 56.871 62.6237 57.1861 62.4924 57.4733L63.0254 57.717C63.1999 57.3354 63.2695 56.9159 63.2274 56.4991L62.6443 56.5579ZM61.8055 53.7507C62.3035 54.6045 62.5903 55.5617 62.6433 56.5443L63.2285 56.5127C63.1705 55.4369 62.8565 54.3893 62.3118 53.4554L61.8055 53.7507ZM59.7755 51.6286C60.6122 52.1699 61.3076 52.8969 61.8055 53.7507L62.3118 53.4554C61.7671 52.5216 61.0071 51.7274 60.0939 51.1365L59.7755 51.6286ZM60.0803 51.6368L60.0805 51.6367L59.7889 51.1283L59.7887 51.1284L60.0803 51.6368ZM58.859 51.2826C59.1864 51.3115 59.4987 51.4282 59.7623 51.6197L60.1068 51.1456C59.7567 50.8912 59.343 50.737 58.9107 50.6988L58.859 51.2826ZM57.908 51.4557C58.2023 51.3134 58.5314 51.2536 58.859 51.2826L58.9107 50.6988C58.4785 50.6605 58.0433 50.7393 57.6529 50.9281L57.908 51.4557Z" fill="#1A1B1D"/>
<path d="M46.2839 59.1972C47.1616 59.7605 47.8913 60.5198 48.4129 61.4142C48.9346 62.3086 49.2334 63.3119 49.2851 64.342C49.2851 66.2239 47.9297 66.9862 46.2597 66.0333C45.3793 65.4728 44.6477 64.7136 44.1257 63.8185C43.6037 62.9235 43.3063 61.9194 43.2585 60.8884C43.3796 59.0065 44.6139 58.2443 46.2839 59.1972Z" fill="#5CC3C9" stroke="#1A1B1D" stroke-width="0.586081"/>
<path d="M37.8097 66.5364C38.0689 66.7091 38.2839 66.9402 38.4373 67.2112C38.5907 67.4822 38.6783 67.7856 38.693 68.0966C38.693 68.373 38.5959 68.5702 38.4373 68.6635C38.275 68.7591 38.0481 68.7457 37.795 68.5968C37.5358 68.4264 37.32 68.1981 37.1642 67.9299C37.0084 67.6617 36.9169 67.3605 36.8972 67.051C36.8972 66.7649 36.9996 66.5667 37.1642 66.4745C37.3299 66.3816 37.5587 66.3961 37.8097 66.5364Z" fill="#5CC3C9" stroke="#1A1B1D" stroke-width="0.586081"/>
<path d="M38.4374 67.2112C38.284 66.9402 38.069 66.7091 37.8098 66.5364C37.5588 66.3961 37.33 66.3816 37.1643 66.4745L45.3831 61.7179C45.5502 61.562 45.8162 61.5518 46.1133 61.7179C46.3725 61.8905 46.5875 62.1217 46.7409 62.3927C46.8943 62.6637 46.9819 62.967 46.9966 63.2781C46.9966 63.6104 46.8562 63.8283 46.6373 63.8887L38.4374 68.6636C38.596 68.5703 38.6931 68.373 38.6931 68.0966C38.6784 67.7856 38.5908 67.4822 38.4374 67.2112Z" fill="white" stroke="#1A1B1D" stroke-width="0.586081"/>
<path d="M65.6421 80.708L79.2924 72.9181C79.6347 72.7526 80.0169 72.6833 80.3968 72.7169C80.7767 72.7505 81.1397 72.8859 81.4465 73.1089L67.7959 80.9232C67.488 80.7035 67.1266 80.5677 66.7483 80.5301C66.3699 80.4924 65.9884 80.5534 65.6421 80.708V80.708Z" fill="#BCF194" stroke="#1A1B1D" stroke-width="0.586081"/>
<path d="M83.5767 80.16L69.926 87.9499C70.2297 87.7423 70.4708 87.4576 70.6242 87.1264C70.7775 86.7952 70.8373 86.4297 70.7973 86.0679C70.7456 85.0378 70.4468 84.0345 69.9251 83.1401C69.4035 82.2457 68.6738 81.4864 67.7961 80.9231L81.4468 73.1087C82.3218 73.6749 83.0494 74.4354 83.5707 75.3292C84.0921 76.2231 84.3924 77.2255 84.4479 78.2547C84.4847 78.6196 84.4239 78.9869 84.271 79.3213C84.1181 79.6557 83.8786 79.9451 83.5767 80.16Z" fill="#BCF194" stroke="#1A1B1D" stroke-width="0.586081"/>
<path d="M67.7961 80.9234C68.6738 81.4867 69.4035 82.246 69.9252 83.1404C70.4468 84.0348 70.7456 85.0381 70.7973 86.0682C70.7973 87.9501 69.4419 88.7124 67.7719 87.7595C66.8915 87.199 66.1599 86.4398 65.6379 85.5447C65.1159 84.6497 64.8185 83.6456 64.7708 82.6146C64.8918 80.7327 66.1261 79.9705 67.7961 80.9234Z" fill="#4D8622" stroke="#1A1B1D" stroke-width="0.586081"/>
<path d="M59.3217 88.2627C59.5809 88.4353 59.7959 88.6665 59.9493 88.9375C60.1027 89.2085 60.1903 89.5118 60.2049 89.8229C60.2049 90.0992 60.1079 90.2965 59.9493 90.3898C59.7869 90.4853 59.5601 90.472 59.307 90.3231C59.0478 90.1526 58.832 89.9243 58.6762 89.6561C58.5204 89.3879 58.4289 89.0868 58.4092 88.7772C58.4092 88.4911 58.5115 88.293 58.6762 88.2007C58.8419 88.1079 59.0707 88.1224 59.3217 88.2627Z" fill="#BCF194" stroke="#1A1B1D" stroke-width="0.586081"/>
<path d="M59.9494 88.9375C59.796 88.6665 59.581 88.4353 59.3218 88.2627C59.0708 88.1224 58.842 88.1079 58.6763 88.2007L66.8951 83.4441C67.0621 83.2883 67.3281 83.2781 67.6253 83.4441C67.8844 83.6168 68.0995 83.8479 68.2529 84.1189C68.4063 84.3899 68.4939 84.6933 68.5085 85.0043C68.5085 85.3366 68.3682 85.5546 68.1493 85.615L59.9494 90.3898C60.108 90.2965 60.205 90.0993 60.205 89.8229C60.1904 89.5118 60.1028 89.2085 59.9494 88.9375Z" fill="white" stroke="#1A1B1D" stroke-width="0.586081"/>
<path d="M65.6421 80.708L79.2924 72.9181C79.6347 72.7526 80.0169 72.6833 80.3968 72.7169C80.7767 72.7505 81.1397 72.8859 81.4465 73.1089L67.7959 80.9232C67.488 80.7035 67.1266 80.5677 66.7483 80.5301C66.3699 80.4924 65.9884 80.5534 65.6421 80.708V80.708Z" fill="#BCF194" stroke="#1A1B1D" stroke-width="0.586081"/>
<path d="M83.5767 80.16L69.926 87.9499C70.2297 87.7423 70.4708 87.4576 70.6242 87.1264C70.7775 86.7952 70.8373 86.4297 70.7973 86.0679C70.7456 85.0378 70.4468 84.0345 69.9251 83.1401C69.4035 82.2457 68.6738 81.4864 67.7961 80.9231L81.4468 73.1087C82.3218 73.6749 83.0494 74.4354 83.5707 75.3292C84.0921 76.2231 84.3924 77.2255 84.4479 78.2547C84.4847 78.6196 84.4239 78.9869 84.271 79.3213C84.1181 79.6557 83.8786 79.9451 83.5767 80.16Z" fill="#BCF194" stroke="#1A1B1D" stroke-width="0.586081"/>
<path d="M67.7961 80.9234C68.6738 81.4867 69.4035 82.246 69.9252 83.1404C70.4468 84.0348 70.7456 85.0381 70.7973 86.0682C70.7973 87.9501 69.4419 88.7124 67.7719 87.7595C66.8915 87.199 66.1599 86.4398 65.6379 85.5447C65.1159 84.6497 64.8185 83.6456 64.7708 82.6146C64.8918 80.7327 66.1261 79.9705 67.7961 80.9234Z" fill="#4D8622" stroke="#1A1B1D" stroke-width="0.586081"/>
<path d="M59.3217 88.2627C59.5809 88.4353 59.7959 88.6665 59.9493 88.9375C60.1027 89.2085 60.1903 89.5118 60.2049 89.8229C60.2049 90.0992 60.1079 90.2965 59.9493 90.3898C59.7869 90.4853 59.5601 90.472 59.307 90.3231C59.0478 90.1526 58.832 89.9243 58.6762 89.6561C58.5204 89.3879 58.4289 89.0868 58.4092 88.7772C58.4092 88.4911 58.5115 88.293 58.6762 88.2007C58.8419 88.1079 59.0707 88.1224 59.3217 88.2627Z" fill="#BCF194" stroke="#1A1B1D" stroke-width="0.586081"/>
<path d="M59.9494 88.9375C59.796 88.6665 59.581 88.4353 59.3218 88.2627C59.0708 88.1224 58.842 88.1079 58.6763 88.2007L66.8951 83.4441C67.0621 83.2883 67.3281 83.2781 67.6253 83.4441C67.8844 83.6168 68.0995 83.8479 68.2529 84.1189C68.4063 84.3899 68.4939 84.6933 68.5085 85.0043C68.5085 85.3366 68.3682 85.5546 68.1493 85.615L59.9494 90.3898C60.108 90.2965 60.205 90.0993 60.205 89.8229C60.1904 89.5118 60.1028 89.2085 59.9494 88.9375Z" fill="white" stroke="#1A1B1D" stroke-width="0.586081"/>
<path d="M105.342 88.103L91.6914 95.8929C92.0377 95.7383 92.4192 95.6773 92.7976 95.7149C93.1759 95.7526 93.5374 95.8884 93.8452 96.1081C94.7229 96.6714 95.4526 97.4306 95.9743 98.325C96.496 99.2194 96.7948 100.223 96.8465 101.253C96.8865 101.615 96.8266 101.98 96.6733 102.311C96.52 102.642 96.2788 102.927 95.9752 103.135L109.626 95.3449C109.928 95.13 110.167 94.8406 110.32 94.5062C110.473 94.1718 110.534 93.8045 110.497 93.4396C110.442 92.4104 110.141 91.408 109.62 90.5141C109.099 89.6203 108.371 88.8597 107.496 88.2936C107.189 88.0707 106.826 87.9354 106.446 87.9018C106.066 87.8681 105.684 87.9375 105.342 88.103Z" fill="#FFC450" stroke="#1A1B1D" stroke-width="0.586081"/>
<path d="M93.8452 96.1082C94.7229 96.6716 95.4526 97.4309 95.9742 98.3253C96.4959 99.2197 96.7947 100.223 96.8464 101.253C96.8464 103.135 95.491 103.897 93.821 102.944C92.9406 102.384 92.209 101.625 91.687 100.73C91.1649 99.8346 90.8676 98.8305 90.8198 97.7995C90.9408 95.9176 92.1752 95.1553 93.8452 96.1082Z" fill="#EC9C00" stroke="#1A1B1D" stroke-width="0.586081"/>
<path d="M85.3708 103.448C85.6299 103.62 85.8449 103.851 85.9983 104.122C86.1517 104.393 86.2394 104.697 86.254 105.008C86.254 105.284 86.1569 105.481 85.9983 105.575C85.836 105.67 85.6092 105.657 85.356 105.508C85.0969 105.338 84.881 105.109 84.7252 104.841C84.5694 104.573 84.4779 104.272 84.4583 103.962C84.4583 103.676 84.5606 103.478 84.7252 103.386C84.8909 103.293 85.1197 103.307 85.3708 103.448Z" fill="#FFC450" stroke="#1A1B1D" stroke-width="0.586081"/>
<path d="M85.9984 104.122C85.8451 103.851 85.63 103.62 85.3709 103.448C85.1199 103.307 84.891 103.293 84.7253 103.386L92.9441 98.629C93.1112 98.4731 93.3772 98.4629 93.6744 98.629C93.9335 98.8016 94.1485 99.0328 94.3019 99.3038C94.4553 99.5748 94.5429 99.8781 94.5576 100.189C94.5576 100.522 94.4172 100.739 94.1983 100.8L85.9984 105.575C86.157 105.481 86.2541 105.284 86.2541 105.008C86.2395 104.697 86.1518 104.393 85.9984 104.122Z" fill="white" stroke="#1A1B1D" stroke-width="0.586081"/>
<path d="M105.342 88.103L91.6914 95.8929C92.0377 95.7383 92.4192 95.6773 92.7976 95.7149C93.1759 95.7526 93.5374 95.8884 93.8452 96.1081C94.7229 96.6714 95.4526 97.4306 95.9743 98.325C96.496 99.2194 96.7948 100.223 96.8465 101.253C96.8865 101.615 96.8266 101.98 96.6733 102.311C96.52 102.642 96.2788 102.927 95.9752 103.135L109.626 95.3449C109.928 95.13 110.167 94.8406 110.32 94.5062C110.473 94.1718 110.534 93.8045 110.497 93.4396C110.442 92.4104 110.141 91.408 109.62 90.5141C109.099 89.6203 108.371 88.8597 107.496 88.2936C107.189 88.0707 106.826 87.9354 106.446 87.9018C106.066 87.8681 105.684 87.9375 105.342 88.103Z" fill="#FFC450" stroke="#1A1B1D" stroke-width="0.586081"/>
<path d="M93.8452 96.1082C94.7229 96.6716 95.4526 97.4309 95.9742 98.3253C96.4959 99.2197 96.7947 100.223 96.8464 101.253C96.8464 103.135 95.491 103.897 93.821 102.944C92.9406 102.384 92.209 101.625 91.687 100.73C91.1649 99.8346 90.8676 98.8305 90.8198 97.7995C90.9408 95.9176 92.1752 95.1553 93.8452 96.1082Z" fill="#EC9C00" stroke="#1A1B1D" stroke-width="0.586081"/>
<path d="M85.3708 103.448C85.6299 103.62 85.8449 103.851 85.9983 104.122C86.1517 104.393 86.2394 104.697 86.254 105.008C86.254 105.284 86.1569 105.481 85.9983 105.575C85.836 105.67 85.6092 105.657 85.356 105.508C85.0969 105.338 84.881 105.109 84.7252 104.841C84.5694 104.573 84.4779 104.272 84.4583 103.962C84.4583 103.676 84.5606 103.478 84.7252 103.386C84.8909 103.293 85.1197 103.307 85.3708 103.448Z" fill="#FFC450" stroke="#1A1B1D" stroke-width="0.586081"/>
<path d="M85.9984 104.122C85.8451 103.851 85.63 103.62 85.3709 103.448C85.1199 103.307 84.891 103.293 84.7253 103.386L92.9441 98.629C93.1112 98.4731 93.3772 98.4629 93.6744 98.629C93.9335 98.8016 94.1485 99.0328 94.3019 99.3038C94.4553 99.5748 94.5429 99.8781 94.5576 100.189C94.5576 100.522 94.4172 100.739 94.1983 100.8L85.9984 105.575C86.157 105.481 86.2541 105.284 86.2541 105.008C86.2395 104.697 86.1518 104.393 85.9984 104.122Z" fill="white" stroke="#1A1B1D" stroke-width="0.586081"/>
<rect opacity="0.4" width="100.128" height="28.7833" transform="matrix(0.866044 0.499967 -0.866044 0.499967 25.938 86.0167)" fill="#4C99A4"/>
<path d="M100.158 143.288C96.9026 145.17 93.7808 145.485 91.4743 144.167C89.1679 142.848 87.8637 140.015 87.8541 136.274L100.123 129.187L112.392 122.099C112.402 125.84 111.121 130.17 108.825 134.146C106.529 138.122 103.414 141.407 100.158 143.288Z" fill="#BCF194" stroke="#1A1B1D" stroke-width="0.586081" stroke-linejoin="round"/>
<path d="M91.4773 144.168L66.0116 129.369L40.5458 114.57C38.2393 113.251 36.9351 110.419 36.9256 106.678L62.3913 121.477L87.8571 136.276C87.857 140.011 89.1653 142.859 91.4773 144.168Z" fill="#BCF194"/>
<path d="M40.5458 114.57L4.59491 93.7018C2.28844 92.383 0.984249 89.5505 0.974708 85.8096L36.9256 106.678C36.9255 110.413 38.2338 113.261 40.5458 114.57Z" fill="#BCF194"/>
<path d="M40.5458 114.57C38.2393 113.251 36.9351 110.419 36.9256 106.678M40.5458 114.57L66.0116 129.369L91.4773 144.168C89.1653 142.859 87.857 140.011 87.8571 136.276L62.3913 121.477L36.9256 106.678M40.5458 114.57C38.2338 113.261 36.9255 110.413 36.9256 106.678M40.5458 114.57L4.59491 93.7018C2.28844 92.383 0.984249 89.5505 0.974708 85.8096L36.9256 106.678" stroke="#1A1B1D" stroke-width="0.586081" stroke-linejoin="round"/>
<path fill-rule="evenodd" clip-rule="evenodd" d="M100.124 129.186L100.122 129.185L87.8439 136.267L51.9155 115.388L51.9001 115.397L0.978256 85.8049L13.2472 78.717L13.2487 78.7179L25.5173 71.6302L61.4457 92.5093L61.4611 92.5005L112.393 122.098L100.124 129.186Z" fill="#4D8622"/>
<path d="M100.122 129.185L100.269 128.932C100.179 128.879 100.067 128.879 99.9757 128.931L100.122 129.185ZM100.124 129.186L99.9765 129.44C100.067 129.492 100.179 129.492 100.27 129.44L100.124 129.186ZM87.8439 136.267L87.6966 136.521C87.7874 136.573 87.8994 136.574 87.9903 136.521L87.8439 136.267ZM51.9155 115.388L52.0628 115.135C51.972 115.082 51.86 115.082 51.7691 115.134L51.9155 115.388ZM51.9001 115.397L51.7529 115.651C51.8436 115.703 51.9556 115.703 52.0465 115.651L51.9001 115.397ZM0.978256 85.8049L0.831667 85.5511C0.741155 85.6034 0.68535 85.7 0.685216 85.8045C0.685082 85.909 0.740639 86.0057 0.831018 86.0582L0.978256 85.8049ZM13.2472 78.717L13.3944 78.4636C13.3036 78.4109 13.1915 78.4107 13.1006 78.4633L13.2472 78.717ZM13.2487 78.7179L13.1015 78.9713C13.1923 79.024 13.3044 79.0242 13.3953 78.9716L13.2487 78.7179ZM25.5173 71.6302L25.6645 71.3768C25.5737 71.3241 25.4616 71.3239 25.3707 71.3765L25.5173 71.6302ZM61.4457 92.5093L61.2985 92.7627C61.3893 92.8155 61.5014 92.8156 61.5923 92.7631L61.4457 92.5093ZM61.4611 92.5005L61.6083 92.2471C61.5175 92.1943 61.4054 92.1942 61.3145 92.2467L61.4611 92.5005ZM112.393 122.098L112.539 122.352C112.63 122.3 112.685 122.203 112.686 122.099C112.686 121.994 112.63 121.897 112.54 121.845L112.393 122.098ZM99.9749 129.439L99.9765 129.44L100.271 128.933L100.269 128.932L99.9749 129.439ZM87.9903 136.521L100.269 129.439L99.9757 128.931L87.6975 136.014L87.9903 136.521ZM51.7683 115.642L87.6966 136.521L87.9911 136.014L52.0628 115.135L51.7683 115.642ZM52.0465 115.651L52.0619 115.642L51.7691 115.134L51.7537 115.143L52.0465 115.651ZM0.831018 86.0582L51.7529 115.651L52.0474 115.144L1.12549 85.5515L0.831018 86.0582ZM13.1006 78.4633L0.831667 85.5511L1.12484 86.0586L13.3938 78.9707L13.1006 78.4633ZM13.3959 78.4645L13.3944 78.4636L13.1 78.9704L13.1015 78.9713L13.3959 78.4645ZM25.3707 71.3765L13.1021 78.4641L13.3953 78.9716L25.6639 71.884L25.3707 71.3765ZM61.593 92.256L25.6645 71.3768L25.3701 71.8836L61.2985 92.7627L61.593 92.256ZM61.3145 92.2467L61.2992 92.2556L61.5923 92.7631L61.6077 92.7542L61.3145 92.2467ZM112.54 121.845L61.6083 92.2471L61.3139 92.7538L112.245 122.352L112.54 121.845ZM100.27 129.44L112.539 122.352L112.246 121.845L99.9771 128.932L100.27 129.44Z" fill="#1A1B1D"/>
<path d="M22.6419 61.4437L108.881 111.763C106.648 110.458 103.559 110.642 100.148 112.623L13.9248 62.3037C17.3352 60.3229 20.4244 60.1385 22.6419 61.4437Z" fill="white" stroke="#1A1B1D" stroke-width="0.586081" stroke-linejoin="round"/>
<path d="M100.148 112.623C106.923 108.692 112.383 111.84 112.383 119.656L87.9139 133.874C87.8374 126.059 93.3736 116.539 100.148 112.623Z" fill="white" stroke="#1A1B1D" stroke-width="0.586081" stroke-linejoin="round"/>
<path d="M87.9137 133.875L1.69019 83.5711C1.69019 75.7553 7.14989 66.2348 13.9248 62.3039L100.148 112.623C93.3734 116.539 87.8372 126.059 87.9137 133.875Z" fill="white" stroke="#1A1B1D" stroke-width="0.586081" stroke-linejoin="round"/>
<rect opacity="0.4" width="100.128" height="28.7833" transform="matrix(0.866044 0.499967 -0.866044 0.499967 25.938 86.0167)" fill="#4C99A4"/>
<path d="M100.158 143.288C96.9026 145.17 93.7808 145.485 91.4743 144.167C89.1679 142.848 87.8637 140.015 87.8541 136.274L100.123 129.187L112.392 122.099C112.402 125.84 111.121 130.17 108.825 134.146C106.529 138.122 103.414 141.407 100.158 143.288Z" fill="#BCF194" stroke="#1A1B1D" stroke-width="0.586081" stroke-linejoin="round"/>
<path d="M91.4773 144.168L66.0116 129.369L40.5458 114.57C38.2393 113.251 36.9351 110.419 36.9256 106.678L62.3913 121.477L87.8571 136.276C87.857 140.011 89.1653 142.859 91.4773 144.168Z" fill="#BCF194"/>
<path d="M40.5458 114.57L4.59491 93.7018C2.28844 92.383 0.984249 89.5505 0.974708 85.8096L36.9256 106.678C36.9255 110.413 38.2338 113.261 40.5458 114.57Z" fill="#BCF194"/>
<path d="M40.5458 114.57C38.2393 113.251 36.9351 110.419 36.9256 106.678M40.5458 114.57L66.0116 129.369L91.4773 144.168C89.1653 142.859 87.857 140.011 87.8571 136.276L62.3913 121.477L36.9256 106.678M40.5458 114.57C38.2338 113.261 36.9255 110.413 36.9256 106.678M40.5458 114.57L4.59491 93.7018C2.28844 92.383 0.984249 89.5505 0.974708 85.8096L36.9256 106.678" stroke="#1A1B1D" stroke-width="0.586081" stroke-linejoin="round"/>
<path fill-rule="evenodd" clip-rule="evenodd" d="M100.124 129.186L100.122 129.185L87.8439 136.267L51.9155 115.388L51.9001 115.397L0.978256 85.8049L13.2472 78.717L13.2487 78.7179L25.5173 71.6302L61.4457 92.5093L61.4611 92.5005L112.393 122.098L100.124 129.186Z" fill="#4D8622"/>
<path d="M100.122 129.185L100.269 128.932C100.179 128.879 100.067 128.879 99.9757 128.931L100.122 129.185ZM100.124 129.186L99.9765 129.44C100.067 129.492 100.179 129.492 100.27 129.44L100.124 129.186ZM87.8439 136.267L87.6966 136.521C87.7874 136.573 87.8994 136.574 87.9903 136.521L87.8439 136.267ZM51.9155 115.388L52.0628 115.135C51.972 115.082 51.86 115.082 51.7691 115.134L51.9155 115.388ZM51.9001 115.397L51.7529 115.651C51.8436 115.703 51.9556 115.703 52.0465 115.651L51.9001 115.397ZM0.978256 85.8049L0.831667 85.5511C0.741155 85.6034 0.68535 85.7 0.685216 85.8045C0.685082 85.909 0.740639 86.0057 0.831018 86.0582L0.978256 85.8049ZM13.2472 78.717L13.3944 78.4636C13.3036 78.4109 13.1915 78.4107 13.1006 78.4633L13.2472 78.717ZM13.2487 78.7179L13.1015 78.9713C13.1923 79.024 13.3044 79.0242 13.3953 78.9716L13.2487 78.7179ZM25.5173 71.6302L25.6645 71.3768C25.5737 71.3241 25.4616 71.3239 25.3707 71.3765L25.5173 71.6302ZM61.4457 92.5093L61.2985 92.7627C61.3893 92.8155 61.5014 92.8156 61.5923 92.7631L61.4457 92.5093ZM61.4611 92.5005L61.6083 92.2471C61.5175 92.1943 61.4054 92.1942 61.3145 92.2467L61.4611 92.5005ZM112.393 122.098L112.539 122.352C112.63 122.3 112.685 122.203 112.686 122.099C112.686 121.994 112.63 121.897 112.54 121.845L112.393 122.098ZM99.9749 129.439L99.9765 129.44L100.271 128.933L100.269 128.932L99.9749 129.439ZM87.9903 136.521L100.269 129.439L99.9757 128.931L87.6975 136.014L87.9903 136.521ZM51.7683 115.642L87.6966 136.521L87.9911 136.014L52.0628 115.135L51.7683 115.642ZM52.0465 115.651L52.0619 115.642L51.7691 115.134L51.7537 115.143L52.0465 115.651ZM0.831018 86.0582L51.7529 115.651L52.0474 115.144L1.12549 85.5515L0.831018 86.0582ZM13.1006 78.4633L0.831667 85.5511L1.12484 86.0586L13.3938 78.9707L13.1006 78.4633ZM13.3959 78.4645L13.3944 78.4636L13.1 78.9704L13.1015 78.9713L13.3959 78.4645ZM25.3707 71.3765L13.1021 78.4641L13.3953 78.9716L25.6639 71.884L25.3707 71.3765ZM61.593 92.256L25.6645 71.3768L25.3701 71.8836L61.2985 92.7627L61.593 92.256ZM61.3145 92.2467L61.2992 92.2556L61.5923 92.7631L61.6077 92.7542L61.3145 92.2467ZM112.54 121.845L61.6083 92.2471L61.3139 92.7538L112.245 122.352L112.54 121.845ZM100.27 129.44L112.539 122.352L112.246 121.845L99.9771 128.932L100.27 129.44Z" fill="#1A1B1D"/>
<path d="M22.6419 61.4437L108.881 111.763C106.648 110.458 103.559 110.642 100.148 112.623L13.9248 62.3037C17.3352 60.3229 20.4244 60.1385 22.6419 61.4437Z" fill="white" stroke="#1A1B1D" stroke-width="0.586081" stroke-linejoin="round"/>
<path d="M100.148 112.623C106.923 108.692 112.383 111.84 112.383 119.656L87.9139 133.874C87.8374 126.059 93.3736 116.539 100.148 112.623Z" fill="white" stroke="#1A1B1D" stroke-width="0.586081" stroke-linejoin="round"/>
<path d="M87.9137 133.875L1.69019 83.5711C1.69019 75.7553 7.14989 66.2348 13.9248 62.3039L100.148 112.623C93.3734 116.539 87.8372 126.059 87.9137 133.875Z" fill="white" stroke="#1A1B1D" stroke-width="0.586081" stroke-linejoin="round"/>
<path d="M73.2483 21.8129C75.2762 20.6915 75.2842 18.8729 73.2722 17.7514C71.2602 16.6299 67.9866 16.6299 65.9586 17.7514C63.9307 18.8729 63.9227 20.6915 65.9347 21.8129C67.9467 22.942 71.2203 22.942 73.2483 21.8129Z" stroke="#1A1B1D" stroke-width="0.586081" stroke-linejoin="round"/>
</g>
</g>
<defs>
<clipPath id="clip0_1568_7818">
<rect width="160" height="160" fill="white" transform="translate(0.5 0.5)"/>
</clipPath>
<clipPath id="clip1_1568_7818">
<rect width="225.641" height="225.641" fill="white" transform="translate(-66.3132 -10.0494)"/>
</clipPath>
</defs>
</svg>
