<svg width="160" height="161" viewBox="0 0 160 161" fill="none" xmlns="http://www.w3.org/2000/svg">
<path opacity="0.35" fill-rule="evenodd" clip-rule="evenodd" d="M75.791 107.625C75.6359 107.536 75.4448 107.536 75.2899 107.626L44.8943 125.287C44.7401 125.376 44.6452 125.541 44.6455 125.72C44.6458 125.898 44.7411 126.063 44.8956 126.152L60.8906 135.383C61.0457 135.473 61.2369 135.473 61.3917 135.383L91.7873 117.722C91.9416 117.632 92.0364 117.467 92.0361 117.289C92.0359 117.111 91.9406 116.946 91.786 116.857L75.791 107.625Z" fill="#0A6190"/>
<path fill-rule="evenodd" clip-rule="evenodd" d="M126.339 69.4387L115.794 75.5613L115.608 142.247L115.633 142.237L115.616 142.246C115.662 142.734 115.579 143.226 115.376 143.672C115.173 144.118 114.856 144.503 114.457 144.789L124.992 138.666C125.392 138.38 125.71 137.993 125.913 137.545C126.117 137.098 126.199 136.604 126.151 136.115L126.152 136.115L126.339 69.4387Z" fill="#F5F6F6"/>
<path d="M115.794 75.5613L115.543 75.1289C115.39 75.2182 115.295 75.3822 115.294 75.5599L115.794 75.5613ZM126.339 69.4387L126.839 69.4401C126.839 69.261 126.744 69.0953 126.589 69.0057C126.433 68.9161 126.242 68.9164 126.087 69.0063L126.339 69.4387ZM115.608 142.247L115.108 142.245C115.107 142.411 115.188 142.565 115.325 142.659C115.461 142.752 115.634 142.773 115.788 142.713L115.608 142.247ZM115.633 142.237L115.884 142.669C116.11 142.538 116.196 142.255 116.083 142.02C115.97 141.785 115.695 141.676 115.452 141.771L115.633 142.237ZM115.616 142.246L115.365 141.814C115.196 141.912 115.1 142.099 115.119 142.293L115.616 142.246ZM115.376 143.672L115.831 143.88H115.831L115.376 143.672ZM114.457 144.789L114.166 144.382C113.949 144.538 113.893 144.836 114.037 145.06C114.182 145.284 114.478 145.355 114.709 145.221L114.457 144.789ZM124.992 138.666L125.243 139.098C125.257 139.091 125.27 139.082 125.283 139.073L124.992 138.666ZM125.913 137.545L125.458 137.339V137.339L125.913 137.545ZM126.151 136.115L125.844 135.721C125.709 135.826 125.637 135.993 125.654 136.163L126.151 136.115ZM126.152 136.115L126.459 136.509C126.58 136.415 126.651 136.27 126.652 136.116L126.152 136.115ZM116.046 75.9937L126.59 69.8711L126.087 69.0063L115.543 75.1289L116.046 75.9937ZM116.108 142.248L116.294 75.5627L115.294 75.5599L115.108 142.245L116.108 142.248ZM115.452 141.771L115.427 141.781L115.788 142.713L115.814 142.703L115.452 141.771ZM115.868 142.678L115.884 142.669L115.381 141.805L115.365 141.814L115.868 142.678ZM115.831 143.88C116.071 143.354 116.168 142.775 116.114 142.2L115.119 142.293C115.156 142.694 115.088 143.098 114.921 143.465L115.831 143.88ZM114.748 145.195C115.218 144.859 115.591 144.405 115.831 143.88L114.921 143.465C114.754 143.831 114.494 144.148 114.166 144.382L114.748 145.195ZM124.741 138.234L114.206 144.357L114.709 145.221L125.243 139.098L124.741 138.234ZM125.458 137.339C125.291 137.707 125.03 138.024 124.701 138.26L125.283 139.073C125.754 138.735 126.129 138.28 126.369 137.752L125.458 137.339ZM125.654 136.163C125.693 136.565 125.625 136.971 125.458 137.339L126.369 137.752C126.608 137.225 126.705 136.643 126.649 136.067L125.654 136.163ZM125.844 135.72L125.844 135.721L126.459 136.509L126.459 136.509L125.844 135.72ZM125.839 69.4373L125.652 136.113L126.652 136.116L126.839 69.4401L125.839 69.4373Z" fill="#1A1B1D"/>
<path fill-rule="evenodd" clip-rule="evenodd" d="M39.9292 16.3354L29.3945 22.458C29.8439 22.2549 30.3389 22.1737 30.8296 22.223C31.3203 22.2722 31.7894 22.4501 32.1894 22.7385L35.5499 24.662L111.831 68.7003L122.375 62.5777L42.7621 16.6065L42.7396 16.6195L42.7334 16.6158C42.3323 16.3257 41.8616 16.147 41.3691 16.0978C40.8765 16.0485 40.3798 16.1304 39.9292 16.3354Z" fill="#F5F6F6"/>
<path d="M29.3945 22.458L29.1433 22.0257L29.6005 22.9136L29.3945 22.458ZM39.9292 16.3354L39.7222 15.8802L39.6995 15.8905L39.6779 15.9031L39.9292 16.3354ZM30.8296 22.223L30.7797 22.7205L30.7797 22.7205L30.8296 22.223ZM32.1894 22.7385L31.8971 23.1441L31.9183 23.1594L31.9411 23.1725L32.1894 22.7385ZM35.5499 24.662L35.7999 24.229L35.7983 24.2281L35.5499 24.662ZM111.831 68.7003L111.581 69.1333L111.832 69.2781L112.082 69.1327L111.831 68.7003ZM122.375 62.5777L122.626 63.01L123.373 62.5765L122.625 62.1447L122.375 62.5777ZM42.7621 16.6065L43.0121 16.1735L42.7612 16.0286L42.5107 16.1742L42.7621 16.6065ZM42.7396 16.6195L42.4845 17.0495L42.7371 17.1994L42.991 17.0517L42.7396 16.6195ZM42.7334 16.6158L42.4404 17.021L42.4588 17.0343L42.4783 17.0458L42.7334 16.6158ZM29.6458 22.8903L40.1804 16.7676L39.6779 15.9031L29.1433 22.0257L29.6458 22.8903ZM30.8796 21.7255C30.3013 21.6675 29.718 21.7631 29.1886 22.0024L29.6005 22.9136C29.9698 22.7467 30.3766 22.68 30.7797 22.7205L30.8796 21.7255ZM32.4818 22.3329C32.0105 21.9932 31.4579 21.7835 30.8796 21.7255L30.7797 22.7205C31.1828 22.7609 31.5682 22.9071 31.8971 23.1441L32.4818 22.3329ZM35.7983 24.2281L32.4378 22.3046L31.9411 23.1725L35.3015 25.0959L35.7983 24.2281ZM112.081 68.2673L35.7999 24.229L35.2999 25.095L111.581 69.1333L112.081 68.2673ZM122.124 62.1453L111.58 68.2679L112.082 69.1327L122.626 63.01L122.124 62.1453ZM42.512 17.0395L122.125 63.0107L122.625 62.1447L43.0121 16.1735L42.512 17.0395ZM42.991 17.0517L43.0134 17.0387L42.5107 16.1742L42.4883 16.1873L42.991 17.0517ZM42.4783 17.0458L42.4845 17.0495L42.9947 16.1895L42.9885 16.1858L42.4783 17.0458ZM41.3193 16.5953C41.7241 16.6358 42.1109 16.7826 42.4404 17.021L43.0264 16.2107C42.5538 15.8689 41.9991 15.6583 41.4188 15.6003L41.3193 16.5953ZM40.1362 16.7905C40.5063 16.6221 40.9145 16.5548 41.3193 16.5953L41.4188 15.6003C40.8385 15.5422 40.2532 15.6387 39.7222 15.8802L40.1362 16.7905Z" fill="#1A1B1D"/>
<path d="M111.83 68.7002C112.988 69.4481 113.952 70.4598 114.643 71.6526C115.333 72.8453 115.731 74.185 115.803 75.5614L115.616 142.247C115.616 144.77 113.822 145.78 111.616 144.509L32.0025 98.5468C30.8469 97.7967 29.8847 96.7844 29.1944 95.5922C28.5041 94.3999 28.105 93.0615 28.0298 91.6859L28.2261 25.0098C28.2261 22.486 30.0208 21.4672 32.2175 22.7384L111.83 68.7002Z" fill="#8FE3E8" stroke="#1A1B1D"/>
<mask id="mask0_884_6567" style="mask-type:alpha" maskUnits="userSpaceOnUse" x="27" y="21" width="90" height="125">
<path d="M111.83 68.7001C112.988 69.4479 113.952 70.4597 114.642 71.6524C115.333 72.8452 115.731 74.1849 115.803 75.5613L115.616 142.246C115.616 144.77 113.821 145.78 111.615 144.508L32.0022 98.5467C30.8466 97.7966 29.8845 96.7843 29.1942 95.592C28.5038 94.3998 28.1048 93.0614 28.0295 91.6858L28.2259 25.0097C28.2259 22.4859 30.0205 21.467 32.2172 22.7383L111.83 68.7001Z" fill="#F5F7FA" stroke="black"/>
</mask>
<g mask="url(#mask0_884_6567)">
<path d="M112.993 60.6949L39.5984 103.066M129.132 70.0116L55.7369 112.382M145.27 79.3284L71.8754 121.699M161.408 88.6451L88.0138 131.016M162.868 106.436L82.1757 59.8523M148.189 114.91L67.4968 68.3265M133.51 123.384L52.8178 76.8006M118.831 131.858L38.1389 85.2747M96.8546 51.3782L23.46 93.7489L104.152 140.333L177.547 97.9618L96.8546 51.3782Z" stroke="#E7FAFB"/>
<path d="M111.83 68.7001C112.988 69.4479 113.952 70.4597 114.642 71.6524C115.333 72.8452 115.731 74.1849 115.803 75.5613L115.616 142.246C115.616 144.77 113.821 145.78 111.615 144.508L32.0022 98.5467C30.8466 97.7966 29.8845 96.7843 29.1942 95.592C28.5038 94.3998 28.1048 93.0614 28.0295 91.6858L28.2259 25.0097C28.2259 22.4859 30.0205 21.467 32.2172 22.7383L111.83 68.7001Z" stroke="#1A1B1D"/>
</g>
<path d="M115.827 85.2162L126.329 79.1543" stroke="#F5F6F6"/>
<path d="M126.348 79.1548L115.827 85.2167L115.804 75.5614C115.731 74.185 115.333 72.8453 114.643 71.6526C113.952 70.4598 112.989 69.4481 111.831 68.7002L122.375 62.5775C123.532 63.3265 124.494 64.3385 125.185 65.531C125.875 66.7235 126.274 68.0627 126.348 69.4387V79.1548Z" fill="#F5F6F6"/>
<path d="M115.827 85.2167L115.327 85.2179L115.329 86.0807L116.076 85.65L115.827 85.2167ZM126.348 79.1548L126.597 79.588L126.848 79.4438V79.1548H126.348ZM111.831 68.7002L111.58 68.2678C111.429 68.3552 111.335 68.5144 111.331 68.6883C111.327 68.8622 111.413 69.0258 111.56 69.1202L111.831 68.7002ZM122.375 62.5775L122.647 62.1578C122.489 62.0555 122.287 62.0506 122.124 62.1451L122.375 62.5775ZM125.185 65.531L125.618 65.2805V65.2805L125.185 65.531ZM126.348 69.4387H126.848C126.848 69.4298 126.847 69.4208 126.847 69.4119L126.348 69.4387ZM115.804 75.5614L116.304 75.5602C116.303 75.5518 116.303 75.5435 116.303 75.5352L115.804 75.5614ZM116.076 85.65L126.597 79.588L126.098 78.7216L115.577 84.7835L116.076 85.65ZM112.082 69.1326L122.626 63.0099L122.124 62.1451L111.58 68.2678L112.082 69.1326ZM122.103 62.9972C123.194 63.7033 124.101 64.6574 124.752 65.7816L125.618 65.2805C124.888 64.0197 123.87 62.9497 122.647 62.1578L122.103 62.9972ZM124.752 65.7816C125.403 66.9058 125.779 68.1683 125.848 69.4654L126.847 69.4119C126.769 67.9571 126.348 66.5413 125.618 65.2805L124.752 65.7816ZM116.303 75.5352C116.226 74.0798 115.806 72.6632 115.076 71.402L114.21 71.9031C114.861 73.0274 115.236 74.2902 115.304 75.5876L116.303 75.5352ZM115.076 71.402C114.345 70.1408 113.326 69.071 112.102 68.2802L111.56 69.1202C112.651 69.8251 113.559 70.7788 114.21 71.9031L115.076 71.402ZM115.304 75.5626L115.327 85.2179L116.327 85.2155L116.304 75.5602L115.304 75.5626ZM125.848 69.4387V79.1548H126.848V69.4387H125.848Z" fill="#1A1B1D"/>
<path d="M111.831 68.7002L122.375 62.5775C123.532 63.3265 124.494 64.3385 125.185 65.531C125.875 66.7235 126.274 68.0627 126.348 69.4387L115.804 75.5614C115.731 74.185 115.333 72.8453 114.643 71.6526C113.952 70.4598 112.989 69.4481 111.831 68.7002Z" fill="#F5F6F6" stroke="#1A1B1D" stroke-linejoin="round"/>
<path fill-rule="evenodd" clip-rule="evenodd" d="M75.7626 77.5445C75.6176 77.4608 75.4389 77.4611 75.2942 77.5452L44.8986 95.2057C44.7544 95.2895 44.6658 95.4438 44.666 95.6105C44.6663 95.7773 44.7553 95.9313 44.8998 96.0146L60.8948 105.246C61.0398 105.33 61.2185 105.329 61.3632 105.245L91.7588 87.5848C91.903 87.5011 91.9916 87.3468 91.9914 87.18C91.9911 87.0133 91.9021 86.8593 91.7576 86.7759L75.7626 77.5445Z" fill="#018BFF" fill-opacity="0.2"/>
<path d="M89.8523 69.5202L59.4567 87.1807L43.4617 77.9493L73.8573 60.2888L89.8523 69.5202Z" fill="#8FE3E8" stroke="#0A6190" stroke-linejoin="round"/>
<path d="M89.8523 69.5203L89.8219 81.1179L59.4263 98.7784L59.4567 87.1808L89.8523 69.5203Z" fill="#8FE3E8" stroke="#8FE3E8" stroke-linejoin="round"/>
<path d="M59.4566 87.1807L59.4262 98.7784L43.4312 89.5368L43.4616 77.9493L59.4566 87.1807Z" fill="#F5F6F6" stroke="#0A6190" stroke-linejoin="round"/>
<path d="M66.7171 75.0818V78.0233C66.7171 78.899 66.1401 79.7725 64.9906 80.44C62.6781 81.784 58.9174 81.784 56.5891 80.44C55.417 79.7612 54.8332 78.8764 54.8355 77.9894V75.0479C54.8355 75.9348 55.4192 76.8219 56.5891 77.4984C58.9197 78.8425 62.6804 78.8425 64.9929 77.4984C66.1401 76.8309 66.7148 75.9575 66.7171 75.0818Z" fill="#0A6190" stroke="#0A6190" stroke-linejoin="round"/>
<path d="M64.9566 72.6312C67.285 73.9753 67.2963 76.1544 64.9838 77.4984C62.6713 78.8425 58.9106 78.8425 56.58 77.4984C54.2494 76.1544 54.2403 73.9753 56.5528 72.6312C58.8653 71.2872 62.6351 71.2872 64.9566 72.6312Z" fill="#F5F6F6" stroke="#0A6190" stroke-linejoin="round"/>
<path d="M79.6053 67.7003V70.6419C79.6053 71.5175 79.0283 72.391 77.8788 73.0585C75.5663 74.4026 71.8056 74.4026 69.4773 73.0585C68.3052 72.3797 67.7214 71.4949 67.7236 70.6079V67.6664C67.7236 68.5534 68.3074 69.4404 69.4773 70.1169C71.8079 71.461 75.5686 71.461 77.8811 70.1169C79.0283 69.4494 79.603 68.576 79.6053 67.7003Z" fill="#F5F6F6" stroke="#8FE3E8" stroke-linejoin="round"/>
<path d="M77.8451 65.2498C80.1734 66.5938 80.1847 68.7729 77.8722 70.117C75.5597 71.461 71.799 71.461 69.4684 70.117C67.1378 68.7729 67.1287 66.5938 69.4413 65.2498C71.7538 63.9057 75.5235 63.9057 77.8451 65.2498Z" fill="#F5F6F6" stroke="#8FE3E8" stroke-linejoin="round"/>
<path d="M79.4997 64.0172L75.4818 66.3517L59.4868 57.1203L63.4613 54.811L79.4997 64.0172Z" fill="#8FE3E8" stroke="#0A6190" stroke-linejoin="round"/>
<path d="M79.5162 64.0078L89.3994 69.8454L75.4515 77.9494L75.482 66.3518L79.5162 64.0078Z" fill="#0A6190" stroke="#0A6190" stroke-linejoin="round"/>
<path d="M75.482 66.3516L75.4516 77.9493L59.4565 68.7077L59.487 57.1202L75.482 66.3516Z" fill="#F5F6F6" stroke="#0A6190" stroke-linejoin="round"/>
<path d="M112.895 60.4014C114.238 61.1771 114.245 62.4387 112.911 63.2137C111.576 63.9888 109.398 63.9894 108.055 63.2137C106.712 62.4381 106.705 61.1759 108.039 60.4008C109.374 59.6257 111.551 59.6257 112.895 60.4014Z" fill="#0A6190" stroke="#1A1B1D" stroke-linejoin="round"/>
<path d="M108.892 39.0923L108.895 61.2328C108.895 61.4666 109.048 61.6999 109.355 61.8783C109.971 62.2372 110.974 62.2372 111.594 61.8783C111.906 61.6977 112.062 61.4606 112.062 61.2238L112.059 39.0833C112.059 39.32 111.904 39.5571 111.592 39.7377C110.971 40.0967 109.969 40.0967 109.352 39.7377C109.046 39.5593 108.893 39.3265 108.892 39.0923Z" fill="#F5F6F6" stroke="#1A1B1D" stroke-linejoin="round"/>
<path d="M108.89 39.0879C108.888 38.5628 109.597 38.1351 110.472 38.1327C111.347 38.1302 112.058 38.5539 112.059 39.0791C112.061 39.6042 111.352 40.0319 110.477 40.0343C109.602 40.0368 108.891 39.6131 108.89 39.0879Z" fill="#F5F6F6" stroke="#1A1B1D" stroke-linejoin="round"/>
<path fill-rule="evenodd" clip-rule="evenodd" d="M95.1777 86.8584C95.0327 86.7747 94.854 86.7749 94.7092 86.859L64.3136 104.52C64.1694 104.603 64.0808 104.758 64.0811 104.924C64.0813 105.091 64.1704 105.245 64.3148 105.328L80.3098 114.56C80.4548 114.644 80.6335 114.643 80.7782 114.559L111.174 96.8987C111.318 96.8149 111.407 96.6606 111.406 96.4939C111.406 96.3271 111.317 96.1731 111.173 96.0898L95.1777 86.8584Z" fill="#018BFF" fill-opacity="0.2"/>
<path d="M89.8645 99.6291L59.4689 117.29L43.4739 108.058L73.8695 90.3977L89.8645 99.6291Z" fill="#8FE3E8" stroke="#0A6190" stroke-linejoin="round"/>
<path d="M89.8648 99.6292L89.8343 111.227L59.4387 128.887L59.4692 117.29L89.8648 99.6292Z" fill="#0A6190" stroke="#0A6190" stroke-linejoin="round"/>
<path d="M59.4691 117.29L59.4386 128.887L43.4436 119.646L43.4741 108.058L59.4691 117.29Z" fill="#F5F6F6" stroke="#0A6190" stroke-linejoin="round"/>
<path d="M66.7293 105.191V108.132C66.7293 109.008 66.1523 109.881 65.0028 110.549C62.6903 111.893 58.9296 111.893 56.6013 110.549C55.4292 109.87 54.8454 108.985 54.8477 108.098V105.157C54.8477 106.044 55.4314 106.931 56.6013 107.607C58.9319 108.951 62.6926 108.951 65.0051 107.607C66.1523 106.94 66.7271 106.066 66.7293 105.191Z" fill="#0A6190" stroke="#0A6190" stroke-linejoin="round"/>
<path d="M64.9689 102.74C67.2972 104.084 67.3085 106.263 64.996 107.607C62.6835 108.951 58.9228 108.951 56.5922 107.607C54.2616 106.263 54.2525 104.084 56.565 102.74C58.8776 101.396 62.6473 101.396 64.9689 102.74Z" fill="#F5F6F6" stroke="#0A6190" stroke-linejoin="round"/>
<path d="M79.6177 97.8092V100.751C79.6177 101.626 79.0407 102.5 77.8913 103.167C75.5788 104.511 71.8181 104.511 69.4897 103.167C68.3176 102.489 67.7338 101.604 67.7361 100.717V97.7753C67.7361 98.6623 68.3199 99.5493 69.4897 100.226C71.8203 101.57 75.581 101.57 77.8935 100.226C79.0407 99.5583 79.6155 98.6849 79.6177 97.8092Z" fill="#F5F6F6" stroke="#8FE3E8" stroke-linejoin="round"/>
<path d="M77.857 95.3586C80.1854 96.7027 80.1967 98.8818 77.8842 100.226C75.5717 101.57 71.811 101.57 69.4804 100.226C67.1497 98.8818 67.1407 96.7027 69.4532 95.3586C71.7657 94.0146 75.5355 94.0146 77.857 95.3586Z" fill="#F5F6F6" stroke="#8FE3E8" stroke-linejoin="round"/>
<path d="M105.89 78.8001L75.4943 96.4607L59.4993 87.2292L89.8949 69.5687L105.89 78.8001Z" fill="#8FE3E8" stroke="#0A6190" stroke-linejoin="round"/>
<path d="M105.89 78.8002L105.86 90.3978L75.464 108.058L75.4945 96.4607L105.89 78.8002Z" fill="#0A6190" stroke="#0A6190" stroke-linejoin="round"/>
<path d="M75.4945 96.4607L75.464 108.058L59.469 98.8167L59.4995 87.2292L75.4945 96.4607Z" fill="#F5F6F6" stroke="#0A6190" stroke-linejoin="round"/>
<path d="M82.755 84.3617V87.3032C82.755 88.1789 82.178 89.0524 81.0285 89.7199C78.716 91.064 74.9553 91.064 72.6269 89.7199C71.4548 89.0411 70.871 88.1563 70.8733 87.2693V84.3278C70.8733 85.2148 71.4571 86.1018 72.6269 86.7783C74.9575 88.1224 78.7182 88.1224 81.0307 86.7783C82.1779 86.1108 82.7527 85.2374 82.755 84.3617Z" fill="#0A6190" stroke="#0A6190" stroke-linejoin="round"/>
<path d="M80.9945 81.9111C83.3229 83.2552 83.3342 85.4343 81.0216 86.7783C78.7091 88.1224 74.9484 88.1224 72.6178 86.7783C70.2872 85.4343 70.2781 83.2552 72.5907 81.9111C74.9032 80.5671 78.6729 80.5671 80.9945 81.9111Z" fill="#F5F6F6" stroke="#0A6190" stroke-linejoin="round"/>
<path d="M95.6433 76.9802V79.9218C95.6433 80.7975 95.0663 81.6709 93.9168 82.3384C91.6043 83.6825 87.8436 83.6825 85.5152 82.3384C84.3431 81.6596 83.7593 80.7748 83.7616 79.8879V76.9463C83.7616 77.8333 84.3454 78.7203 85.5152 79.3969C87.8459 80.7409 91.6065 80.7409 93.919 79.3969C95.0662 78.7293 95.641 77.8559 95.6433 76.9802Z" fill="#0A6190" stroke="#0A6190" stroke-linejoin="round"/>
<path d="M93.8827 74.5297C96.211 75.8737 96.2223 78.0528 93.9098 79.3969C91.5973 80.7409 87.8366 80.7409 85.506 79.3969C83.1754 78.0528 83.1663 75.8737 85.4789 74.5297C87.7914 73.1856 91.5611 73.1856 93.8827 74.5297Z" fill="#F5F6F6" stroke="#0A6190" stroke-linejoin="round"/>
<path d="M115.803 75.5613L115.616 142.246" stroke="#1A1B1D"/>
<path d="M114.642 71.6529C113.952 70.4602 112.988 69.4484 111.83 68.7006L32.2174 22.7388C30.0208 21.4675 28.2261 22.4863 28.2261 25.0102L28.2014 34.5057L115.78 85.0584L115.803 75.5617C115.731 74.1854 115.333 72.8457 114.642 71.6529Z" stroke="#1A1B1D"/>
<path d="M114.642 71.6529C113.952 70.4602 112.988 69.4484 111.83 68.7006L32.2174 22.7388C30.0208 21.4675 28.2261 22.4863 28.2261 25.0102L28.2014 34.5057L115.78 85.0584L115.803 75.5617C115.731 74.1854 115.333 72.8457 114.642 71.6529Z" fill="#F5F6F6" stroke="#1A1B1D"/>
<circle cx="34.4024" cy="30.9018" r="2.80426" fill="#FFB422" stroke="#1A1B1D"/>
<circle cx="42.4517" cy="35.5692" r="2.80426" fill="#80BB53" stroke="#1A1B1D"/>
<circle cx="50.5013" cy="40.2365" r="2.80426" fill="#8FE3E8" stroke="#1A1B1D"/>
</svg>
