<svg width="160" height="161" viewBox="0 0 160 161" fill="none" xmlns="http://www.w3.org/2000/svg">
<path opacity="0.1" d="M122.342 90.612C146.113 104.479 146.206 126.966 122.623 140.833C99.0389 154.7 60.6686 154.7 36.8977 140.833C13.1268 126.966 13.0332 104.479 36.6169 90.612C60.2006 76.6515 98.571 76.6515 122.342 90.612Z" fill="#0A6190"/>
<path d="M139.942 90.9882L139.942 102.7C139.942 111.507 134.104 120.408 122.334 127.248C98.9836 140.928 60.4737 140.928 36.8405 127.248C24.9768 120.408 19.0449 111.414 19.0449 102.606L19.0449 90.8008C19.0449 99.8892 24.8826 108.697 36.8405 115.443C60.4737 129.122 98.7953 129.122 122.334 115.443C134.104 108.697 139.942 99.8892 139.942 90.9882Z" fill="#0A6190" stroke="#1A1B1D" stroke-linejoin="round"/>
<path d="M122.343 65.2234C146.114 79.0902 146.207 101.577 122.624 115.444C99.0399 129.311 60.6695 129.311 36.8986 115.444C13.1277 101.577 13.0341 79.0902 36.6179 65.2234C60.2016 51.2628 98.572 51.2628 122.343 65.2234Z" fill="#8FE3E8" stroke="#1A1B1D" stroke-linejoin="round"/>
<path fill-rule="evenodd" clip-rule="evenodd" d="M65.8567 97.3075C72.6309 94.2284 80.7664 88.4654 88.5473 80.6846C96.3282 72.9037 102.091 64.7682 105.17 57.994C106.715 54.5961 107.514 51.6925 107.65 49.4369C107.786 47.1767 107.249 45.9359 106.584 45.2708C105.918 44.6056 104.678 44.0685 102.417 44.2043C100.162 44.3399 97.2582 45.1396 93.8603 46.6841C87.0861 49.7632 78.9506 55.5261 71.1697 63.307C63.3889 71.0879 57.6259 79.2234 54.5468 85.9976C53.0023 89.3955 52.2026 92.2991 52.067 94.5546C51.9312 96.8148 52.4683 98.0557 53.1335 98.7208C53.7986 99.386 55.0395 99.9231 57.2997 99.7873C59.5552 99.6517 62.4588 98.852 65.8567 97.3075ZM57.6616 105.809C54.4118 106.005 51.1908 105.31 48.8676 102.987C46.5444 100.664 45.8497 97.4424 46.045 94.1927C46.2406 90.9382 47.3352 87.2838 49.0546 83.5011C52.5033 75.9141 58.7469 67.1981 66.9038 59.0411C75.0608 50.8841 83.7768 44.6406 91.3638 41.1919C95.1466 39.4725 98.8009 38.3779 102.055 38.1823C105.305 37.987 108.526 38.6817 110.849 41.0049C113.173 43.3281 113.867 46.5491 113.672 49.7989C113.476 53.0534 112.382 56.7078 110.662 60.4905C107.214 68.0775 100.97 76.7935 92.8132 84.9505C84.6562 93.1075 75.9402 99.351 68.3532 102.8C64.5705 104.519 60.9161 105.614 57.6616 105.809Z" fill="white" stroke="#1A1B1D" stroke-linejoin="round"/>
<path fill-rule="evenodd" clip-rule="evenodd" d="M54.547 57.9944C57.6261 64.7686 63.389 72.9041 71.1699 80.685C78.9508 88.4658 87.0863 94.2288 93.8605 97.3079C97.2584 98.8524 100.162 99.6521 102.418 99.7877C104.678 99.9235 105.919 99.3864 106.584 98.7212C107.249 98.0561 107.786 96.8152 107.65 94.555C107.515 92.2995 106.715 89.3959 105.17 85.998C102.091 79.2238 96.3283 71.0883 88.5475 63.3074C80.7666 55.5265 72.6311 49.7636 65.8569 46.6845C62.459 45.14 59.5554 44.3403 57.2998 44.2047C55.0396 44.0689 53.7988 44.606 53.1337 45.2712C52.4685 45.9363 51.9314 47.1771 52.0672 49.4373C52.2028 51.6929 53.0025 54.5965 54.547 57.9944ZM46.0452 49.7993C45.8499 46.5495 46.5446 43.3285 48.8678 41.0053C51.191 38.6821 54.412 37.9874 57.6618 38.1827C60.9163 38.3783 64.5707 39.4729 68.3534 41.1923C75.9404 44.641 84.6564 50.8845 92.8134 59.0415C100.97 67.1985 107.214 75.9145 110.663 83.5015C112.382 87.2842 113.477 90.9386 113.672 94.1931C113.868 97.4428 113.173 100.664 110.85 102.987C108.526 105.31 105.305 106.005 102.056 105.81C98.8011 105.614 95.1467 104.519 91.364 102.8C83.777 99.3514 75.061 93.1078 66.904 84.9509C58.747 76.7939 52.5035 68.0779 49.0548 60.4909C47.3354 56.7082 46.2408 53.0538 46.0452 49.7993Z" fill="#90CB62" stroke="#1A1B1D" stroke-linejoin="round"/>
<path d="M26.2215 87.4781C26.2215 95.5359 31.4623 103.313 41.9439 109.403C62.8136 121.489 96.4111 121.489 117.094 109.403C127.856 103.125 132.91 94.6926 132.535 86.4475C132.161 50.2811 108.39 21.1419 79.472 21.1419C50.0859 21.2356 26.2215 50.8433 26.2215 87.4781Z" stroke="#1A1B1D"/>
<circle cx="79.621" cy="71.9959" r="9.7732" transform="rotate(60 79.621 71.9959)" fill="#90CB62"/>
<path opacity="0.5" fill-rule="evenodd" clip-rule="evenodd" d="M74.2824 72.7265C76.9812 77.401 82.9584 79.0026 87.6328 76.3038C88.0134 76.0841 88.3736 75.8426 88.7127 75.5819C87.9315 77.5665 86.4981 79.3104 84.5074 80.4598C79.8329 83.1585 73.8557 81.557 71.157 76.8825C68.6779 72.5886 69.8275 67.1955 73.6543 64.2539C72.601 66.9296 72.7329 70.0428 74.2824 72.7265Z" fill="#4D8622"/>
<circle cx="79.621" cy="71.9959" r="9.2732" transform="rotate(60 79.621 71.9959)" stroke="#1A1B1D"/>
<path d="M106.583 45.2707C105.918 44.6055 104.677 44.0684 102.417 44.2042C100.162 44.3398 97.2581 45.1395 93.8602 46.684C87.086 49.7631 78.9505 55.526 71.1696 63.3069C63.3888 71.0878 57.6258 79.2233 54.5467 85.9974C53.0022 89.3954 52.2025 92.299 52.0669 94.5545C51.9311 96.8147 52.4682 98.0556 53.1334 98.7207L48.8675 102.987C46.5443 100.663 45.8496 97.4423 46.0449 94.1926C46.2405 90.9381 47.3351 87.2837 49.0545 83.501C52.5032 75.914 58.7467 67.198 66.9037 59.041C75.0607 50.884 83.7767 44.6405 91.3637 41.1918C95.1464 39.4724 98.8008 38.3778 102.055 38.1822C105.305 37.9869 108.526 38.6816 110.849 41.0048L106.583 45.2707Z" fill="white"/>
<path d="M53.1334 98.7207C52.4682 98.0556 51.9311 96.8147 52.0669 94.5545C52.2025 92.299 53.0022 89.3954 54.5467 85.9974C57.6258 79.2233 63.3887 71.0878 71.1696 63.3069C78.9505 55.526 87.086 49.7631 93.8602 46.684C97.2581 45.1395 100.162 44.3398 102.417 44.2042C104.677 44.0684 105.918 44.6055 106.583 45.2707L110.849 41.0048C108.526 38.6816 105.305 37.9869 102.055 38.1822C98.8008 38.3778 95.1464 39.4724 91.3637 41.1918C83.7767 44.6405 75.0607 50.884 66.9037 59.041C58.7467 67.198 52.5032 75.914 49.0545 83.501C47.3351 87.2837 46.2405 90.9381 46.0449 94.1926C45.8496 97.4423 46.5443 100.663 48.8675 102.987M53.1334 98.7207C53.7985 99.3859 55.0393 99.923 57.2995 99.7872M53.1334 98.7207L48.8675 102.987M48.8675 102.987C51.1907 105.31 54.4117 106.005 57.6615 105.809" stroke="#1A1B1D" stroke-linejoin="round"/>
<path d="M106.583 98.7208C107.248 98.0557 107.785 96.8149 107.65 94.5547C107.514 92.2991 106.714 89.3955 105.17 85.9976C102.091 79.2234 96.3278 71.0879 88.5469 63.307C80.7661 55.5262 72.6305 49.7632 65.8564 46.6841C62.4585 45.1396 59.5548 44.3399 57.2993 44.2043C55.0391 44.0685 53.7982 44.6056 53.1331 45.2708L48.8672 41.0049C51.1904 38.6817 54.4115 37.987 57.6612 38.1823C60.9157 38.3779 64.5701 39.4725 68.3528 41.1919C75.9399 44.6406 84.6558 50.8842 92.8128 59.0411C100.97 67.1981 107.213 75.9141 110.662 83.5011C112.381 87.2839 113.476 90.9382 113.672 94.1927C113.867 97.4425 113.172 100.664 110.849 102.987L106.583 98.7208Z" fill="#90CB62" stroke="#1A1B1D" stroke-linejoin="round"/>
</svg>
