<svg width="160" height="158" viewBox="0 0 160 158" fill="none" xmlns="http://www.w3.org/2000/svg">
<path opacity="0.2" d="M145.973 102.644C155.933 108.386 155.984 117.686 145.973 123.453L97.879 151.4C92.3102 154.232 86.151 155.708 79.9037 155.708C73.6564 155.708 67.4975 154.232 61.9287 151.4L13.504 123.453C3.57002 117.711 3.4938 108.411 13.504 102.644L61.6238 74.6969C67.1882 71.8656 73.3429 70.3897 79.5861 70.3897C85.8294 70.3897 91.9844 71.8656 97.5487 74.6969L145.973 102.644Z" fill="#4C99A4"/>
<path fill-rule="evenodd" clip-rule="evenodd" d="M5.92554 58.1252V99.5387C5.92554 103.293 8.37443 107.072 13.4209 109.959L13.4208 110.006L61.871 137.978L61.9727 96.5658L13.5478 68.5932L13.5475 68.6916V68.593C8.46619 65.7475 5.92554 61.9108 5.92554 58.1252Z" fill="#5CC3C9"/>
<path d="M6.66628 58.1252C6.66628 57.7161 6.33464 57.3845 5.92554 57.3845C5.51644 57.3845 5.1848 57.7161 5.1848 58.1252H6.66628ZM13.4209 109.959L14.1616 109.962C14.1625 109.695 14.0201 109.449 13.7888 109.316L13.4209 109.959ZM13.4208 110.006L12.68 110.004C12.6792 110.269 12.8205 110.515 13.0504 110.647L13.4208 110.006ZM61.871 137.978L61.5007 138.62C61.7296 138.752 62.0116 138.752 62.2406 138.62C62.4697 138.489 62.6111 138.245 62.6118 137.98L61.871 137.978ZM61.9727 96.5658L62.7134 96.5676C62.7141 96.3024 62.5729 96.057 62.3432 95.9243L61.9727 96.5658ZM13.5478 68.5932L13.9183 67.9517C13.6895 67.8196 13.4076 67.8193 13.1785 67.9511C12.9494 68.0828 12.8079 68.3266 12.8071 68.5909L13.5478 68.5932ZM13.5475 68.6916H12.8068C12.8068 69.1002 13.1377 69.4317 13.5464 69.4323C13.955 69.4329 14.287 69.1025 14.2882 68.6938L13.5475 68.6916ZM13.5475 68.593H14.2882C14.2882 68.3249 14.1434 68.0777 13.9094 67.9467L13.5475 68.593ZM6.66628 99.5387V58.1252H5.1848V99.5387H6.66628ZM13.7888 109.316C8.88215 106.509 6.66628 102.937 6.66628 99.5387H5.1848C5.1848 103.649 7.86671 107.635 13.0531 110.602L13.7888 109.316ZM14.1615 110.008L14.1616 109.962L12.6802 109.957L12.68 110.004L14.1615 110.008ZM62.2414 137.337L13.7911 109.364L13.0504 110.647L61.5007 138.62L62.2414 137.337ZM61.2319 96.5639L61.1303 137.977L62.6118 137.98L62.7134 96.5676L61.2319 96.5639ZM13.1773 69.2346L61.6022 97.2072L62.3432 95.9243L13.9183 67.9517L13.1773 69.2346ZM14.2882 68.6938L14.2885 68.5954L12.8071 68.5909L12.8068 68.6893L14.2882 68.6938ZM12.8068 68.593V68.6916H14.2882V68.593H12.8068ZM5.1848 58.1252C5.1848 62.2716 7.9642 66.3154 13.1856 69.2393L13.9094 67.9467C8.96819 65.1796 6.66628 61.5501 6.66628 58.1252H5.1848Z" fill="#0A6190"/>
<path fill-rule="evenodd" clip-rule="evenodd" d="M153.379 58.431V99.8444C153.379 103.599 150.93 107.378 145.884 110.265L145.884 110.311L97.4339 138.284L97.3323 96.8712L145.757 68.8986L145.757 68.8987C150.838 66.0532 153.379 62.2165 153.379 58.431Z" fill="#C3F8FB"/>
<path d="M152.638 58.431C152.638 58.0219 152.97 57.6903 153.379 57.6903C153.788 57.6903 154.12 58.0219 154.12 58.431H152.638ZM145.884 110.265L145.143 110.267C145.143 110.001 145.285 109.754 145.516 109.622L145.884 110.265ZM145.884 110.311L146.625 110.309C146.626 110.574 146.484 110.82 146.255 110.953L145.884 110.311ZM97.4339 138.284L97.8043 138.925C97.5754 139.058 97.2934 139.058 97.0643 138.926C96.8353 138.794 96.6938 138.55 96.6932 138.286L97.4339 138.284ZM97.3323 96.8712L96.5916 96.873C96.5909 96.6078 96.7321 96.3625 96.9618 96.2298L97.3323 96.8712ZM145.757 68.8986L145.387 68.2572C145.615 68.1251 145.897 68.1247 146.126 68.2561C146.355 68.3875 146.497 68.6309 146.498 68.8949L145.757 68.8986ZM145.757 68.8987L146.119 69.545C145.89 69.6731 145.611 69.6707 145.384 69.5387C145.158 69.4067 145.018 69.1647 145.016 68.9024L145.757 68.8987ZM152.638 99.8444V58.431H154.12V99.8444H152.638ZM145.516 109.622C150.422 106.815 152.638 103.243 152.638 99.8444H154.12C154.12 103.954 151.438 107.94 146.252 110.908L145.516 109.622ZM145.143 110.314L145.143 110.267L146.625 110.263L146.625 110.309L145.143 110.314ZM97.0636 137.642L145.514 109.67L146.255 110.953L97.8043 138.925L97.0636 137.642ZM98.073 96.8694L98.1747 138.282L96.6932 138.286L96.5916 96.873L98.073 96.8694ZM146.128 69.54L97.7028 97.5126L96.9618 96.2298L145.387 68.2572L146.128 69.54ZM145.016 68.9024L145.016 68.9023L146.498 68.8949L146.498 68.895L145.016 68.9024ZM154.12 58.431C154.12 62.5773 151.34 66.621 146.119 69.545L145.395 68.2524C150.336 65.4853 152.638 61.8558 152.638 58.431H154.12Z" fill="#0A6190"/>
<path d="M145.89 47.8101C155.85 53.552 155.9 62.8518 145.89 68.6191L97.7958 96.5663C92.2269 99.3978 86.0678 100.874 79.8204 100.874C73.5731 100.874 67.4143 99.3978 61.8454 96.5663L13.4207 68.6191C3.48677 62.8772 3.41055 53.5774 13.4207 47.8101L61.5406 19.8629C67.1049 17.0316 73.2596 15.5557 79.5029 15.5557C85.7461 15.5557 91.9011 17.0316 97.4655 19.8629L145.89 47.8101Z" fill="white" stroke="#0A6190" stroke-width="1.48148" stroke-linejoin="round"/>
<path d="M97.9224 96.5663V137.979C92.3617 140.822 86.2055 142.304 79.9601 142.304C73.7146 142.304 67.5585 140.822 61.9978 137.979V96.7122C67.5633 99.5395 73.7176 100.866 79.9601 100.866C86.2026 100.866 92.3568 99.3937 97.9224 96.5663Z" fill="#5CC3C9" stroke="#0A6190" stroke-width="1.48148" stroke-linejoin="round"/>
<path d="M93.3454 31.2672C85.778 26.8985 73.5087 26.8985 65.9412 31.2672L23.6602 55.6761C21.1377 57.1323 21.1377 59.4933 23.6602 60.9496L65.9412 85.3584C73.5087 89.7271 85.7779 89.7271 93.3454 85.3584L135.626 60.9496C138.149 59.4933 138.149 57.1323 135.626 55.6761L93.3454 31.2672Z" fill="#C3F8FB" stroke="#0A6190" stroke-width="1.48148"/>
<path fill-rule="evenodd" clip-rule="evenodd" d="M72.1669 27.673C76.2958 25.2894 82.9902 25.2894 87.1191 27.673L136.455 56.1549C138.52 57.3467 138.52 59.279 136.455 60.4709L129.546 64.4597L83.3811 37.8086C81.3166 36.6168 77.9694 36.6168 75.905 37.8086L29.74 64.4597L22.8306 60.4709C20.7661 59.279 20.7661 57.3467 22.8306 56.1549L72.1669 27.673Z" fill="#5CC3C9"/>
<path d="M87.1191 27.673L87.4895 27.0315L87.4895 27.0315L87.1191 27.673ZM72.1669 27.673L71.7966 27.0315L71.7966 27.0315L72.1669 27.673ZM136.455 56.1549L136.085 56.7964L136.085 56.7964L136.455 56.1549ZM136.455 60.4709L136.085 59.8293L136.085 59.8293L136.455 60.4709ZM129.546 64.4597L129.176 65.1012L129.546 65.315L129.916 65.1012L129.546 64.4597ZM83.3811 37.8086L83.7514 37.1671L83.7514 37.1671L83.3811 37.8086ZM75.905 37.8086L76.2753 38.4501L76.2753 38.4501L75.905 37.8086ZM29.74 64.4597L29.3696 65.1012L29.74 65.315L30.1103 65.1012L29.74 64.4597ZM22.8306 60.4709L23.2009 59.8293L23.2009 59.8293L22.8306 60.4709ZM22.8306 56.1549L23.2009 56.7964L23.2009 56.7964L22.8306 56.1549ZM87.4895 27.0315C85.2859 25.7594 82.4444 25.1446 79.643 25.1446C76.8416 25.1446 74.0001 25.7594 71.7966 27.0315L72.5372 28.3146C74.4626 27.203 77.0328 26.6261 79.643 26.6261C82.2533 26.6261 84.8234 27.203 86.7488 28.3146L87.4895 27.0315ZM136.826 55.5134L87.4895 27.0315L86.7488 28.3146L136.085 56.7964L136.826 55.5134ZM136.826 61.1124C137.993 60.4386 138.745 59.4519 138.745 58.3129C138.745 57.1739 137.993 56.1872 136.826 55.5134L136.085 56.7964C136.982 57.3144 137.263 57.8898 137.263 58.3129C137.263 58.736 136.982 59.3113 136.085 59.8293L136.826 61.1124ZM129.916 65.1012L136.826 61.1124L136.085 59.8293L129.176 63.8181L129.916 65.1012ZM129.916 63.8181L83.7514 37.1671L83.0107 38.4501L129.176 65.1012L129.916 63.8181ZM83.7514 37.1671C82.5801 36.4909 81.0915 36.174 79.643 36.174C78.1945 36.174 76.7059 36.4909 75.5346 37.1671L76.2753 38.4501C77.1684 37.9345 78.3857 37.6555 79.643 37.6555C80.9004 37.6555 82.1176 37.9345 83.0107 38.4501L83.7514 37.1671ZM75.5346 37.1671L29.3696 63.8181L30.1103 65.1012L76.2753 38.4501L75.5346 37.1671ZM22.4602 61.1124L29.3696 65.1012L30.1103 63.8181L23.2009 59.8293L22.4602 61.1124ZM22.4602 55.5134C21.2931 56.1872 20.5415 57.1739 20.5415 58.3129C20.5415 59.4519 21.2931 60.4386 22.4602 61.1124L23.2009 59.8293C22.3036 59.3113 22.023 58.736 22.023 58.3129C22.023 57.8898 22.3036 57.3144 23.2009 56.7964L22.4602 55.5134ZM71.7966 27.0315L22.4602 55.5134L23.2009 56.7964L72.5372 28.3146L71.7966 27.0315Z" fill="#0A6190"/>
<path d="M78.834 47.2198L110.29 66.1324L91.3389 76.1054L71.4908 75.9773M78.834 47.2198L48.8501 64.531L71.4908 75.9773M78.834 47.2198L86.3547 63.6397L71.4908 75.9773" stroke="#0A6190" stroke-width="1.48148"/>
<circle cx="78.652" cy="48.4857" r="5.35254" transform="rotate(15 78.652 48.4857)" fill="#5CC3C9"/>
<path opacity="0.5" fill-rule="evenodd" clip-rule="evenodd" d="M83.9152 47.5064C82.9596 49.235 80.9185 50.1592 78.9247 49.6249C76.5766 48.9957 75.1831 46.5822 75.8123 44.2341C75.8445 44.1139 75.8813 43.9963 75.9226 43.8812C74.7618 44.5692 73.8585 45.694 73.4816 47.1004C72.7165 49.9558 74.4111 52.8908 77.2665 53.6559C80.1219 54.421 83.0569 52.7265 83.822 49.8711C84.0359 49.0727 84.0575 48.268 83.9152 47.5064Z" fill="#51A6B1"/>
<circle cx="78.652" cy="48.4857" r="4.6118" transform="rotate(15 78.652 48.4857)" stroke="#0A6190" stroke-width="1.48148"/>
<circle cx="108.653" cy="66.1041" r="5.35254" transform="rotate(15 108.653 66.1041)" fill="#5CC3C9"/>
<path opacity="0.5" fill-rule="evenodd" clip-rule="evenodd" d="M113.996 66.444C112.707 67.5091 110.938 67.9554 109.199 67.4894C106.693 66.8177 105.08 64.4738 105.242 61.9795C104.414 62.6633 103.783 63.6023 103.484 64.7188C102.718 67.5742 104.413 70.5092 107.268 71.2743C110.124 72.0394 113.059 70.3449 113.824 67.4895C113.917 67.1408 113.974 66.791 113.996 66.444Z" fill="#51A6B1"/>
<circle cx="108.653" cy="66.1041" r="4.6118" transform="rotate(15 108.653 66.1041)" stroke="#0A6190" stroke-width="1.48148"/>
<circle cx="49.6582" cy="64.3323" r="4.0987" transform="rotate(15 49.6582 64.3323)" fill="#51A6B1"/>
<circle cx="49.6582" cy="64.3323" r="3.35796" transform="rotate(15 49.6582 64.3323)" stroke="#0A6190" stroke-width="1.48148"/>
<circle cx="91.0407" cy="75.8249" r="5.35254" transform="rotate(15 91.0407 75.8249)" fill="#5CC3C9"/>
<path opacity="0.5" fill-rule="evenodd" clip-rule="evenodd" d="M96.3947 75.7971C95.0879 77.192 93.0745 77.8398 91.0992 77.3105C88.7161 76.672 87.1416 74.522 87.1307 72.1683C86.5485 72.7898 86.1065 73.5596 85.8707 74.4397C85.1056 77.2951 86.8001 80.2301 89.6555 80.9952C92.5109 81.7603 95.4459 80.0658 96.211 77.2104C96.3376 76.7381 96.3968 76.2636 96.3947 75.7971Z" fill="#51A6B1"/>
<circle cx="91.0407" cy="75.8249" r="4.6118" transform="rotate(15 91.0407 75.8249)" stroke="#0A6190" stroke-width="1.48148"/>
<circle cx="71.0971" cy="76.1793" r="3.96979" transform="rotate(15 71.0971 76.1793)" fill="#51A6B1"/>
<circle cx="71.0971" cy="76.1793" r="3.22905" transform="rotate(15 71.0971 76.1793)" stroke="#0A6190" stroke-width="1.48148"/>
<circle cx="85.9289" cy="63.4936" r="3.96979" transform="rotate(15 85.9289 63.4936)" fill="#51A6B1"/>
<circle cx="85.9289" cy="63.4936" r="3.22905" transform="rotate(15 85.9289 63.4936)" stroke="#0A6190" stroke-width="1.48148"/>
</svg>
