<svg width="48" height="48" viewBox="0 0 48 48" fill="none" xmlns="http://www.w3.org/2000/svg">
<g clip-path="url(#clip0_1396_9568)">
<path d="M31.5 46.5H16.5L18 37.5H30L31.5 46.5Z" stroke="#4C99A4" stroke-width="2" stroke-linecap="round" stroke-linejoin="round"/>
<path d="M12 46.5H36" stroke="#5CC3C9" stroke-width="2" stroke-linecap="round" stroke-linejoin="round"/>
<path d="M40.5 1.5H7.5C4.18629 1.5 1.5 4.18629 1.5 7.5V31.5C1.5 34.8137 4.18629 37.5 7.5 37.5H40.5C43.8137 37.5 46.5 34.8137 46.5 31.5V7.5C46.5 4.18629 43.8137 1.5 40.5 1.5Z" stroke="#5CC3C9" stroke-width="2" stroke-linecap="round" stroke-linejoin="round"/>
<path d="M17.2005 23.7174L21.6465 16.7871" stroke="#4C99A4" stroke-width="2"/>
<path d="M31.3226 22.9322L26.746 17.3096" stroke="#4C99A4" stroke-width="2"/>
<circle cx="15.1738" cy="25.8747" r="2.63451" stroke="#4C99A4" stroke-width="2"/>
<circle cx="32.8262" cy="25.8747" r="2.63451" stroke="#4C99A4" stroke-width="2"/>
<circle cx="23.8693" cy="14.041" r="3.54983" stroke="#4C99A4" stroke-width="2"/>
</g>
<defs>
<clipPath id="clip0_1396_9568">
<rect width="48" height="48" fill="white"/>
</clipPath>
</defs>
</svg>
