<svg width="48" height="48" viewBox="0 0 48 48" fill="none" xmlns="http://www.w3.org/2000/svg">
<g clip-path="url(#clip0_1420_11340)">
<path d="M1 41H2H1ZM13 41H12H13ZM35 7H34H35ZM41 13V14V13ZM47 7H48H47ZM41 1V0V1ZM7 26.09L6 26.089V26.09H7ZM9.046 24.046L9.046 25.046H9.046V24.046ZM38.954 24.046V25.046V24.046ZM42 13.272C42 12.7197 41.5523 12.272 41 12.272C40.4477 12.272 40 12.7197 40 13.272H42ZM0 41C0 41.9193 0.18106 42.8295 0.532843 43.6788L2.3806 42.9134C2.12933 42.3068 2 41.6566 2 41H0ZM0.532843 43.6788C0.884626 44.5281 1.40024 45.2997 2.05025 45.9497L3.46447 44.5355C3.00017 44.0712 2.63188 43.52 2.3806 42.9134L0.532843 43.6788ZM2.05025 45.9497C2.70026 46.5998 3.47194 47.1154 4.32122 47.4672L5.08658 45.6194C4.47995 45.3681 3.92876 44.9998 3.46447 44.5355L2.05025 45.9497ZM4.32122 47.4672C5.1705 47.8189 6.08075 48 7 48V46C6.34339 46 5.69321 45.8707 5.08658 45.6194L4.32122 47.4672ZM7 48C7.91925 48 8.8295 47.8189 9.67878 47.4672L8.91342 45.6194C8.30679 45.8707 7.65661 46 7 46V48ZM9.67878 47.4672C10.5281 47.1154 11.2997 46.5998 11.9497 45.9497L10.5355 44.5355C10.0712 44.9998 9.52005 45.3681 8.91342 45.6194L9.67878 47.4672ZM11.9497 45.9497C12.5998 45.2997 13.1154 44.5281 13.4672 43.6788L11.6194 42.9134C11.3681 43.52 10.9998 44.0712 10.5355 44.5355L11.9497 45.9497ZM13.4672 43.6788C13.8189 42.8295 14 41.9193 14 41H12C12 41.6566 11.8707 42.3068 11.6194 42.9134L13.4672 43.6788ZM14 41C14 40.0807 13.8189 39.1705 13.4672 38.3212L11.6194 39.0866C11.8707 39.6932 12 40.3434 12 41H14ZM13.4672 38.3212C13.1154 37.4719 12.5998 36.7003 11.9497 36.0503L10.5355 37.4645C10.9998 37.9288 11.3681 38.48 11.6194 39.0866L13.4672 38.3212ZM11.9497 36.0503C11.2997 35.4002 10.5281 34.8846 9.67878 34.5328L8.91342 36.3806C9.52005 36.6319 10.0712 37.0002 10.5355 37.4645L11.9497 36.0503ZM9.67878 34.5328C8.8295 34.1811 7.91925 34 7 34V36C7.65661 36 8.30679 36.1293 8.91342 36.3806L9.67878 34.5328ZM7 34C6.08075 34 5.1705 34.1811 4.32122 34.5328L5.08658 36.3806C5.69321 36.1293 6.34339 36 7 36V34ZM4.32122 34.5328C3.47194 34.8846 2.70026 35.4002 2.05025 36.0503L3.46447 37.4645C3.92876 37.0002 4.47995 36.6319 5.08658 36.3806L4.32122 34.5328ZM2.05025 36.0503C1.40024 36.7003 0.884626 37.4719 0.532843 38.3212L2.3806 39.0866C2.63188 38.48 3.00017 37.9288 3.46447 37.4645L2.05025 36.0503ZM0.532843 38.3212C0.18106 39.1705 0 40.0807 0 41H2C2 40.3434 2.12933 39.6932 2.3806 39.0866L0.532843 38.3212ZM34 7C34 8.85651 34.7375 10.637 36.0503 11.9497L37.4645 10.5355C36.5268 9.59785 36 8.32608 36 7H34ZM36.0503 11.9497C37.363 13.2625 39.1435 14 41 14V12C39.6739 12 38.4021 11.4732 37.4645 10.5355L36.0503 11.9497ZM41 14C42.8565 14 44.637 13.2625 45.9497 11.9497L44.5355 10.5355C43.5979 11.4732 42.3261 12 41 12V14ZM45.9497 11.9497C47.2625 10.637 48 8.85651 48 7H46C46 8.32608 45.4732 9.59785 44.5355 10.5355L45.9497 11.9497ZM48 7C48 5.14349 47.2625 3.36301 45.9497 2.05025L44.5355 3.46447C45.4732 4.40215 46 5.67392 46 7H48ZM45.9497 2.05025C44.637 0.737498 42.8565 0 41 0V2C42.3261 2 43.5979 2.52678 44.5355 3.46447L45.9497 2.05025ZM41 0C39.1435 0 37.363 0.737498 36.0503 2.05025L37.4645 3.46447C38.4021 2.52678 39.6739 2 41 2V0ZM36.0503 2.05025C34.7375 3.36301 34 5.14349 34 7H36C36 5.67392 36.5268 4.40215 37.4645 3.46447L36.0503 2.05025ZM8 35L8 26.09H6L6 35H8ZM8 26.091C8.00027 25.8137 8.11059 25.5479 8.30673 25.352L6.8932 23.9371C6.32205 24.5077 6.00079 25.2817 6 26.089L8 26.091ZM8.30673 25.352C8.50286 25.1561 8.76876 25.046 9.046 25.046L9.046 23.046C8.23866 23.046 7.46435 23.3665 6.8932 23.9371L8.30673 25.352ZM9.046 25.046H38.954V23.046H9.046V25.046ZM38.954 25.046C39.7618 25.046 40.5366 24.7251 41.1078 24.1538L39.6936 22.7396C39.4975 22.9358 39.2314 23.046 38.954 23.046V25.046ZM41.1078 24.1538C41.6791 23.5826 42 22.8078 42 22H40C40 22.2774 39.8898 22.5435 39.6936 22.7396L41.1078 24.1538ZM42 22V13.272H40V22H42Z" fill="#4C99A4"/>
</g>
<defs>
<clipPath id="clip0_1420_11340">
<rect width="48" height="48" fill="white"/>
</clipPath>
</defs>
</svg>
