<svg width="48" height="48" viewBox="0 0 48 48" fill="none" xmlns="http://www.w3.org/2000/svg">
<g clip-path="url(#clip0_1396_9508)">
<path d="M16.8146 14.4058C20.4214 16.5 23.3424 18.9079 25.1574 21.0762C26.0677 22.1637 26.6635 23.1478 26.95 23.9647C27.238 24.7858 27.1738 25.3074 26.989 25.6293C26.8042 25.9511 26.3872 26.2679 25.5361 26.4276C24.6894 26.5864 23.5441 26.5596 22.1525 26.3105C19.3779 25.8138 15.844 24.4736 12.2372 22.3794C8.63046 20.2851 5.70945 17.8772 3.89446 15.709C2.98415 14.6215 2.38839 13.6374 2.10186 12.8205C1.81388 11.9994 1.87807 11.4778 2.06285 11.1559C2.24764 10.834 2.6647 10.5173 3.51572 10.3576C4.36242 10.1987 5.50774 10.2255 6.89934 10.4746C9.67391 10.9713 13.2079 12.3115 16.8146 14.4058Z" stroke="#5CC3C9" stroke-width="2"/>
<path d="M16.8147 22.3795C13.2079 24.4737 9.67395 25.8139 6.89938 26.3106C5.50778 26.5597 4.36245 26.5865 3.51575 26.4277C2.66474 26.268 2.24768 25.9512 2.06289 25.6294C1.8781 25.3075 1.81391 24.7859 2.1019 23.9648C2.38843 23.1479 2.98418 22.1638 3.8945 21.0763C5.70949 18.908 8.63049 16.5001 12.2373 14.4059C15.844 12.3116 19.378 10.9714 22.1525 10.4747C23.5441 10.2256 24.6895 10.1988 25.5362 10.3577C26.3872 10.5174 26.8043 10.8341 26.989 11.156C27.1738 11.4779 27.238 11.9995 26.95 12.8206C26.6635 13.6375 26.0677 14.6216 25.1574 15.7091C23.3424 17.8773 20.4214 20.2852 16.8147 22.3795Z" stroke="#5CC3C9" stroke-width="2"/>
<path fill-rule="evenodd" clip-rule="evenodd" d="M17.3463 25.9552C17.1295 26.9528 16.8726 27.8608 16.585 28.6594C16.1262 29.9338 15.6267 30.8239 15.1724 31.3575C14.9505 31.6182 14.774 31.7528 14.661 31.817C14.6069 31.8478 14.571 31.8604 14.5529 31.8655C14.5359 31.8703 14.5284 31.8703 14.526 31.8703C14.5236 31.8703 14.516 31.8703 14.4991 31.8655C14.4809 31.8604 14.4451 31.8478 14.391 31.817C14.2779 31.7528 14.1015 31.6182 13.8795 31.3575C13.4253 30.8239 12.9258 29.9338 12.4669 28.6594C12.1793 27.8608 11.9225 26.9528 11.7057 25.9552C11.0563 26.2049 10.4209 26.4261 9.80408 26.6179C10.7901 30.9746 12.5363 33.8703 14.526 33.8703C16.5157 33.8703 18.2618 30.9746 19.2479 26.6178C18.631 26.4261 17.9956 26.2049 17.3463 25.9552ZM17.3463 10.83C17.9956 10.5803 18.631 10.3591 19.2478 10.1673C18.2618 5.81068 16.5156 2.91504 14.526 2.91504C12.5363 2.91504 10.7902 5.81066 9.80412 10.1673C10.421 10.3591 11.0564 10.5802 11.7057 10.83C11.9225 9.83241 12.1793 8.92453 12.4669 8.1259C12.9258 6.85151 13.4253 5.96144 13.8795 5.42781C14.1015 5.16715 14.2779 5.03257 14.391 4.96832C14.4451 4.93757 14.4809 4.92497 14.4991 4.91985C14.516 4.91506 14.5236 4.91504 14.526 4.91504C14.5284 4.91504 14.5359 4.91506 14.5529 4.91985C14.571 4.92497 14.6069 4.93757 14.661 4.96832C14.774 5.03257 14.9505 5.16715 15.1724 5.42781C15.6267 5.96144 16.1262 6.85151 16.585 8.1259C16.8726 8.92454 17.1294 9.83243 17.3463 10.83Z" fill="#5CC3C9"/>
<ellipse cx="14.526" cy="18.3927" rx="1.92177" ry="1.93275" fill="#4C99A4"/>
<path d="M14.6089 45.0857V36.5629M25.5149 6.59375C38.3456 6.59375 40.6089 17.7136 45.4024 29.6889H40.2702V34.8212C40.2702 36.1823 39.7295 37.4877 38.767 38.4502C37.8045 39.4127 36.4991 39.9534 35.1379 39.9534H32.5718V45.0857" stroke="#4C99A4" stroke-width="2" stroke-linecap="round" stroke-linejoin="round"/>
</g>
<defs>
<clipPath id="clip0_1396_9508">
<rect width="48" height="48" fill="white"/>
</clipPath>
</defs>
</svg>
