<svg width="160" height="160" viewBox="0 0 160 160" fill="none" xmlns="http://www.w3.org/2000/svg">
<path d="M141.444 43.0091C141.491 43.0234 141.554 43.0116 141.595 43.0353L133.659 38.4235C132.831 33.8869 130.694 30.6423 127.651 28.9623C127.676 28.9744 127.7 28.973 127.725 28.9879L112.466 20.2559C108.595 18.0066 103.235 18.3247 97.3159 21.7419C95.5235 22.7767 93.7888 24.0538 92.1275 25.4933L83.7858 20.5811C66.9347 10.7882 37.9558 41.324 38.0337 68.6823C38.0437 72.2482 38.58 75.3586 39.5668 77.971L54.7644 86.9203C54.7612 86.921 54.7579 86.9227 54.7548 86.9234L39.5623 77.9784C37.6305 78.4329 35.5851 79.2569 33.4829 80.4784C14.7665 91.2239 5.09126 123.126 18.4542 130.905L33.6533 139.854C33.6098 139.829 33.6051 139.805 33.5671 139.78C37.446 142.096 42.8409 141.816 48.8068 138.372L126.557 93.4832C138.33 86.6857 147.835 70.2236 147.796 56.695C147.777 49.8975 145.335 45.1967 141.444 43.0091Z" fill="#5DB3BF" stroke="#1A1B1D" stroke-width="0.677966"/>
<path d="M54.7615 86.9264C52.8297 87.381 60.4449 93.2949 58.3426 94.5165C50.8709 98.8063 59.0616 112.65 55.2547 121.514C53.0957 126.627 47.5941 124.772 47.6225 129.715C47.6225 136.419 29.8465 137.637 33.6534 139.853L18.4543 130.904C4.89338 123.01 14.9903 91.0947 33.483 80.4776C35.5853 79.256 37.6306 78.432 39.5625 77.9775L54.7615 86.9264Z" fill="#5DB3BF" stroke="#1A1B1D" stroke-width="0.677966"/>
<path d="M131.214 37.0026L141.595 43.0352C139.474 41.8026 129.104 53.5479 126.239 53.9419L123.659 35.7026C126.524 35.3086 129.093 35.77 131.214 37.0026Z" fill="#5DB3BF" stroke="#1A1B1D" stroke-width="0.677966"/>
<path d="M112.466 20.2553L127.725 28.9875C123.855 26.7382 124.499 55.6594 118.58 59.0765C115.853 60.651 107.174 34.3582 104.788 36.8178L89.5907 27.8683C91.9762 25.4087 94.5887 23.3159 97.3159 21.7414C103.235 18.3243 108.595 18.0061 112.466 20.2553Z" fill="#5DB3BF" stroke="#1A1B1D" stroke-width="0.677966"/>
<path d="M83.7855 20.5811C66.9342 10.7883 37.9556 41.3239 38.0334 68.6823C38.0435 72.2482 38.5798 75.3586 39.5667 77.971L54.7644 86.9204C53.7775 84.308 71.5135 94.761 71.5033 91.1952C71.4551 74.1872 83.3964 53.504 98.1978 44.9584C105.64 40.6615 94.1144 26.7012 98.9832 29.5306L83.7855 20.5811Z" fill="#5DB3BF" stroke="#1A1B1D" stroke-width="0.677966"/>
<path d="M79.9259 31.3936C91.3231 24.8133 101.089 27.3792 104.977 36.672C107.362 34.2124 109.975 32.1196 112.702 30.5451C124.175 23.9214 133.551 28.9414 134.04 41.734C142.062 40.6308 147.767 46.2338 147.796 56.6936C147.835 70.2222 138.33 86.6844 126.557 93.4817L48.8069 138.371C37.0523 145.157 27.4859 139.706 27.4475 126.177C27.4091 112.648 36.9135 96.208 48.6682 89.4214C50.7747 88.2052 52.8256 87.3675 54.7647 86.919C53.7778 84.3067 53.2415 81.1962 53.2314 77.6304C53.1831 60.6224 65.1244 39.9392 79.9259 31.3936Z" fill="#8FE3E8" stroke="#1A1B1D" stroke-width="0.677966"/>
<path d="M69.1421 72.4724L103.12 52.8643L103.227 85.4637L69.2478 105.088L69.1421 72.4724Z" fill="#0A6190" stroke="#1A1B1D" stroke-width="0.677966"/>
<path d="M78.4857 67.2881L69.2843 72.6008L69.3616 90.6695L111.692 115.101L136.427 100.731L78.4857 67.2881Z" fill="#0A6190" stroke="#1A1B1D" stroke-width="0.677966"/>
<path d="M140.586 98.3138L82.6578 64.8789L78.4852 67.288L136.426 100.73L140.586 98.3138Z" fill="#0A6190" stroke="#1A1B1D" stroke-width="0.677966"/>
<path d="M110.201 117.815L110.2 114.245L69.3525 90.6699L69.3514 94.2358L69.3603 94.2409L69.3424 105.076L110.192 128.661L110.21 117.82L110.201 117.815Z" fill="#5DB3BF" stroke="#1A1B1D" stroke-width="0.677966"/>
<path d="M110.21 117.82L110.192 128.66L69.3427 105.076L69.3605 94.2354L110.21 117.82Z" fill="#5DB3BF" stroke="#1A1B1D" stroke-width="0.677966"/>
<path d="M110.2 114.243L69.3524 90.668L69.3512 94.2339L110.201 117.818L110.2 114.243Z" fill="#5DB3BF" stroke="#1A1B1D" stroke-width="0.677966"/>
<path d="M141.579 101.881C141.608 103.074 140.784 104.494 139.733 105.091C139.051 105.488 138.483 105.375 138.17 104.949C138.255 105.034 138.312 105.176 138.426 105.233L137.602 104.722C137.261 104.551 137.062 104.125 137.062 103.528C137.062 102.364 137.886 100.915 138.909 100.318C139.42 100.034 139.903 100.006 140.215 100.204L141.039 100.687C141.38 100.886 141.579 101.312 141.579 101.881Z" fill="#FFA901" stroke="#1A1B1D" stroke-width="0.677966"/>
<path d="M124.392 110.516C124.733 110.715 124.932 111.141 124.932 111.71C124.932 112.903 124.108 114.323 123.085 114.92C122.488 115.261 121.977 115.232 121.636 114.92C121.664 114.977 121.721 115.034 121.778 115.062L120.954 114.55C120.613 114.38 120.414 113.954 120.414 113.357C120.386 112.193 121.238 110.744 122.261 110.147C122.772 109.863 123.227 109.835 123.568 110.034L124.392 110.516Z" fill="#FFA901" stroke="#1A1B1D" stroke-width="0.677966"/>
<path d="M140.228 100.201C139.891 100.006 139.426 100.033 138.911 100.33C137.884 100.923 137.055 102.36 137.058 103.539C137.06 104.127 137.266 104.539 137.599 104.732L138.422 105.229C138.089 105.035 137.882 104.623 137.881 104.035C137.877 102.856 138.707 101.419 139.733 100.827C140.248 100.529 140.714 100.502 141.05 100.697L140.228 100.201Z" fill="#BCF194" stroke="#1A1B1D" stroke-width="0.677966"/>
<path d="M139.733 100.828C140.759 100.236 141.589 100.715 141.592 101.894C141.596 103.079 140.771 104.507 139.745 105.099C138.719 105.692 137.884 105.222 137.88 104.037C137.877 102.858 138.707 101.421 139.733 100.828Z" fill="#6FA646" stroke="#1A1B1D" stroke-width="0.677966"/>
<path d="M123.572 110.031C123.236 109.836 122.77 109.863 122.255 110.16C121.229 110.753 120.399 112.19 120.403 113.369C120.404 113.957 120.611 114.369 120.944 114.562L121.766 115.059C121.433 114.865 121.227 114.453 121.225 113.865C121.222 112.686 122.052 111.249 123.078 110.657C123.593 110.36 124.059 110.332 124.395 110.528L123.572 110.031Z" fill="#6FA646" stroke="#1A1B1D" stroke-width="0.677966"/>
<path d="M123.078 110.656C124.104 110.063 124.934 110.542 124.937 111.721C124.941 112.906 124.116 114.334 123.09 114.927C122.064 115.519 121.229 115.049 121.225 113.864C121.222 112.685 122.052 111.248 123.078 110.656Z" fill="#FFA901" stroke="#1A1B1D" stroke-width="0.677966"/>
<path d="M144.923 104.17L141.076 101.947L140.889 101.838C140.702 101.775 140.468 101.807 140.203 101.962C139.58 102.321 139.097 103.178 139.097 103.879C139.097 104.206 139.206 104.455 139.393 104.58C142.64 106.456 141.518 105.808 141.761 105.948C142.239 106.225 142.24 106.915 141.762 107.192L130.399 113.794C129.885 114.09 128.888 114.09 128.373 113.794L124.401 111.508L124.214 111.399C124.199 111.399 124.199 111.399 124.183 111.399C123.996 111.337 123.778 111.384 123.529 111.524C122.906 111.882 122.423 112.739 122.423 113.44C122.423 113.674 122.485 113.877 122.594 114.017V114.032C122.641 114.079 122.672 114.095 122.719 114.126C123.003 114.29 127.1 116.653 126.815 116.489C127.563 116.91 128.467 117.128 129.386 117.128C130.306 117.128 131.225 116.91 131.957 116.489L144.955 108.937C145.905 108.377 146.45 107.52 146.45 106.569C146.45 105.603 145.905 104.731 144.923 104.17Z" fill="#FFC450" stroke="#1A1B1D" stroke-width="0.677966"/>
<path d="M91.049 95.6504L86.9025 69.8987L100.989 75.3286M91.049 95.6504L97.305 84.3022L104.963 94.6484L118.939 89.7269M91.049 95.6504L82.4579 80.9174M100.989 75.3286L118.939 89.7269M100.989 75.3286L124.58 64.3965L118.939 89.7269M100.989 75.3286L107.798 66.6633M118.939 89.7269L111.767 100.766" stroke="#1A1B1D" stroke-width="0.677966"/>
<circle cx="86.8228" cy="70.4956" r="4.12594" transform="rotate(105 86.8228 70.4956)" fill="#BCF194"/>
<path opacity="0.5" fill-rule="evenodd" clip-rule="evenodd" d="M82.8209 69.4902C82.2729 71.6711 83.5751 73.8957 85.7549 74.4798C87.9559 75.0695 90.2183 73.7633 90.8081 71.5623C90.9968 70.8579 90.9914 70.1473 90.8247 69.4872C90.8193 69.5084 90.8138 69.5297 90.8081 69.5509C90.2183 71.7519 87.9559 73.0581 85.7549 72.4684C84.2582 72.0673 83.1753 70.8929 82.8209 69.4902Z" fill="#4D8622"/>
<circle cx="86.8228" cy="70.4956" r="4.12594" transform="rotate(105 86.8228 70.4956)" stroke="#1A1B1D" stroke-width="0.677966"/>
<circle cx="91.371" cy="95.1747" r="4.88951" transform="rotate(90 91.371 95.1747)" fill="#FFC450"/>
<path opacity="0.5" fill-rule="evenodd" clip-rule="evenodd" d="M86.5905 94.1445C87.0642 96.3492 89.0245 98.0019 91.3708 98.0019C93.7171 98.0019 95.6774 96.3492 96.1512 94.1445C96.2227 94.4773 96.2603 94.8226 96.2603 95.1767C96.2603 97.8771 94.0712 100.066 91.3708 100.066C88.6704 100.066 86.4813 97.8771 86.4813 95.1767C86.4813 94.8226 86.5189 94.4773 86.5905 94.1445Z" fill="#EC9C00"/>
<circle cx="91.371" cy="95.1747" r="4.88951" transform="rotate(90 91.371 95.1747)" stroke="#1A1B1D" stroke-width="0.677966"/>
<circle cx="124.048" cy="65.1047" r="4.39175" transform="rotate(60 124.048 65.1047)" fill="#FFC450"/>
<path opacity="0.5" fill-rule="evenodd" clip-rule="evenodd" d="M120.292 65.1742C121.504 67.2747 124.19 67.9944 126.291 66.7817C127.335 66.1788 128.038 65.2118 128.332 64.1336C128.746 65.9609 127.951 67.9209 126.244 68.9069C124.143 70.1197 121.457 69.4 120.244 67.2995C119.634 66.2432 119.513 65.0389 119.811 63.9483C119.906 64.3684 120.065 64.7815 120.292 65.1742Z" fill="#EC9C00"/>
<circle cx="124.048" cy="65.1047" r="4.39175" transform="rotate(60 124.048 65.1047)" stroke="#1A1B1D" stroke-width="0.677966"/>
<circle cx="101.011" cy="75.1191" r="4.12594" transform="rotate(90 101.011 75.1191)" fill="#C3F8FB"/>
<path opacity="0.5" fill-rule="evenodd" clip-rule="evenodd" d="M97.0621 73.9199C97.576 75.6135 99.1495 76.8462 101.011 76.8462C102.872 76.8462 104.446 75.6135 104.96 73.9199C105.075 74.2996 105.137 74.7023 105.137 75.1196C105.137 77.3983 103.29 79.2455 101.011 79.2455C98.7322 79.2455 96.885 77.3983 96.885 75.1196C96.885 74.7023 96.9469 74.2996 97.0621 73.9199Z" fill="#51A6B1"/>
<circle cx="101.011" cy="75.1191" r="4.12594" transform="rotate(90 101.011 75.1191)" stroke="#1A1B1D" stroke-width="0.677966"/>
<circle cx="97.2295" cy="84.5289" r="2.83066" transform="rotate(90 97.2295 84.5289)" fill="#5DB3BF"/>
<path opacity="0.5" fill-rule="evenodd" clip-rule="evenodd" d="M94.521 83.7061C94.8735 84.868 95.9531 85.7138 97.2302 85.7138C98.5073 85.7138 99.5868 84.868 99.9393 83.7061C100.018 83.9665 100.061 84.2428 100.061 84.529C100.061 86.0923 98.7935 87.3597 97.2302 87.3597C95.6668 87.3597 94.3995 86.0923 94.3995 84.529C94.3995 84.2428 94.442 83.9665 94.521 83.7061Z" fill="#51A6B1"/>
<circle cx="97.2295" cy="84.5289" r="2.83066" transform="rotate(90 97.2295 84.5289)" stroke="#1A1B1D" stroke-width="0.677966"/>
<circle cx="82.4814" cy="80.583" r="2.18455" transform="rotate(90 82.4814 80.583)" fill="#BCF194"/>
<path opacity="0.5" fill-rule="evenodd" clip-rule="evenodd" d="M80.3912 79.9473C80.6634 80.8438 81.4964 81.4962 82.4818 81.4962C83.4672 81.4962 84.3003 80.8438 84.5725 79.9473C84.6335 80.1484 84.6664 80.3618 84.6664 80.5829C84.6664 81.7894 83.6883 82.7674 82.4818 82.7674C81.2753 82.7674 80.2973 81.7894 80.2973 80.5829C80.2973 80.3618 80.3301 80.1484 80.3912 79.9473Z" fill="#4D8622"/>
<circle cx="82.4814" cy="80.583" r="2.18455" transform="rotate(90 82.4814 80.583)" stroke="#1A1B1D" stroke-width="0.677966"/>
<circle cx="105.137" cy="94.0103" r="2.1148" transform="rotate(90 105.137 94.0103)" fill="#C3F8FB"/>
<path opacity="0.5" fill-rule="evenodd" clip-rule="evenodd" d="M103.113 93.3945C103.376 94.2627 104.183 94.8946 105.137 94.8946C106.091 94.8946 106.898 94.2627 107.161 93.3945C107.22 93.5891 107.252 93.7955 107.252 94.0093C107.252 95.1772 106.305 96.1241 105.137 96.1241C103.969 96.1241 103.022 95.1772 103.022 94.0093C103.022 93.7955 103.054 93.5891 103.113 93.3945Z" fill="#51A6B1"/>
<circle cx="105.137" cy="94.0103" r="2.1148" transform="rotate(90 105.137 94.0103)" stroke="#1A1B1D" stroke-width="0.677966"/>
<circle cx="111.685" cy="100.766" r="2.1148" transform="rotate(90 111.685 100.766)" fill="#5DB3BF"/>
<path opacity="0.5" fill-rule="evenodd" clip-rule="evenodd" d="M109.661 100.151C109.924 101.02 110.731 101.651 111.685 101.651C112.639 101.651 113.445 101.02 113.709 100.151C113.768 100.346 113.8 100.552 113.8 100.766C113.8 101.934 112.853 102.881 111.685 102.881C110.517 102.881 109.57 101.934 109.57 100.766C109.57 100.552 109.602 100.346 109.661 100.151Z" fill="#51A6B1"/>
<circle cx="111.685" cy="100.766" r="2.1148" transform="rotate(90 111.685 100.766)" stroke="#1A1B1D" stroke-width="0.677966"/>
<circle cx="107.856" cy="66.3687" r="2.1148" transform="rotate(90 107.856 66.3687)" fill="#5DB3BF"/>
<path opacity="0.5" fill-rule="evenodd" clip-rule="evenodd" d="M105.832 65.7539C106.095 66.6219 106.902 67.2536 107.856 67.2536C108.81 67.2536 109.616 66.6219 109.88 65.7539C109.939 65.9485 109.97 66.155 109.97 66.369C109.97 67.5369 109.024 68.4838 107.856 68.4838C106.688 68.4838 105.741 67.5369 105.741 66.369C105.741 66.155 105.773 65.9485 105.832 65.7539Z" fill="#51A6B1"/>
<circle cx="107.856" cy="66.3687" r="2.1148" transform="rotate(90 107.856 66.3687)" stroke="#1A1B1D" stroke-width="0.677966"/>
<circle cx="118.793" cy="89.5244" r="5.57227" transform="rotate(90 118.793 89.5244)" fill="#BCF194"/>
<path opacity="0.5" fill-rule="evenodd" clip-rule="evenodd" d="M113.222 89.5242C113.222 92.6017 115.716 95.0964 118.794 95.0964C121.871 95.0964 124.366 92.6017 124.366 89.5242C124.366 89.0771 124.313 88.6422 124.214 88.2256C123.629 90.6773 121.424 92.5004 118.794 92.5004C116.163 92.5004 113.958 90.6779 113.373 88.2268C113.274 88.6431 113.222 89.0775 113.222 89.5242Z" fill="#4D8622"/>
<circle cx="118.793" cy="89.5244" r="5.57227" transform="rotate(90 118.793 89.5244)" stroke="#1A1B1D" stroke-width="0.677966"/>
<path d="M147.212 77.1047L145.175 75.9209L110.211 96.1077L110.302 128.531L112.339 129.715L147.304 109.528L147.212 77.1047Z" fill="#FFC450" stroke="#1A1B1D" stroke-width="0.677966"/>
<path d="M147.212 77.1047L145.175 75.9209L110.211 96.1077L110.302 128.531L112.339 129.715L147.304 109.528L147.212 77.1047Z" fill="#FFC450" stroke="#1A1B1D" stroke-width="0.677966"/>
<path d="M112.34 129.712L110.303 128.528L110.211 96.1045L112.248 97.2883L112.34 129.712Z" fill="#FFA901" stroke="#1A1B1D" stroke-width="0.677966"/>
<path d="M112.248 97.2906L110.211 96.1068L145.175 75.9199L147.212 77.1037L112.248 97.2906Z" fill="#FFA901" stroke="#1A1B1D" stroke-width="0.677966"/>
<path d="M147.212 77.1045L147.304 109.528L112.34 129.715L112.248 97.2914L147.212 77.1045Z" fill="#FFC450" stroke="#1A1B1D" stroke-width="0.677966"/>
<path d="M135.982 99.0365L123.703 106.134L123.68 97.7752L135.959 90.6777L135.982 99.0365Z" fill="white" stroke="#1A1B1D" stroke-width="0.677966"/>
</svg>
