<svg width="24" height="24" viewBox="0 0 24 24" fill="#fff" xmlns="http://www.w3.org/2000/svg">
<path d="M18.2771 18H13.187C12.2248 18 11.4489 17.2218 11.4489 16.2568C11.4489 15.2919 12.2248 14.5137 13.187 14.5137H18.2616C19.2238 14.5137 19.9997 15.2919 19.9997 16.2568C20.0152 17.2218 19.2238 18 18.2771 18Z"/>
<path d="M5.83121 17.4861C5.38117 17.4861 4.94664 17.3149 4.60523 16.9725C3.92241 16.2877 3.92241 15.1827 4.60523 14.5134L7.32101 11.7898L4.51212 8.9727C3.82929 8.28789 3.82929 7.18286 4.51212 6.51361C5.19494 5.8288 6.29677 5.8288 6.96408 6.51361L10.999 10.5602C11.6818 11.245 11.6818 12.3501 10.999 13.0193L7.05719 16.9725C6.71578 17.3149 6.28126 17.4861 5.83121 17.4861Z"/>
</svg>
