<svg width="24" height="24" viewBox="0 0 24 24" fill="none" xmlns="http://www.w3.org/2000/svg">
<path d="M12.0067 13.6942C12.9387 13.6942 13.6942 12.9387 13.6942 12.0067C13.6942 11.0748 12.9387 10.3192 12.0067 10.3192C11.0747 10.3192 10.3192 11.0748 10.3192 12.0067C10.3192 12.9387 11.0747 13.6942 12.0067 13.6942Z" stroke="#5db3bf" stroke-width="1.5" stroke-linecap="round" stroke-linejoin="round"/>
<path d="M14.7912 14.791C19.1846 10.3976 21.4996 5.58948 19.9619 4.05179C18.4242 2.5141 13.6161 4.82911 9.22272 9.22251C4.82932 13.6159 2.51431 18.424 4.052 19.9617C5.58969 21.4994 10.3978 19.1844 14.7912 14.791Z" stroke="#5db3bf" stroke-width="1.5" stroke-linecap="round" stroke-linejoin="round"/>
<path d="M19.9619 19.9617C21.4996 18.424 19.1846 13.6159 14.7912 9.22251C10.3978 4.82911 5.58969 2.5141 4.052 4.05179C2.51431 5.58948 4.82932 10.3976 9.22272 14.791C13.6161 19.1844 18.4242 21.4994 19.9619 19.9617Z" stroke="#5db3bf" stroke-width="1.5" stroke-linecap="round" stroke-linejoin="round"/>
</svg>
