<svg width="454" height="296" viewBox="0 0 454 296" fill="none" xmlns="http://www.w3.org/2000/svg">
<path fill-rule="evenodd" clip-rule="evenodd" d="M219.423 -51.3075C200.348 -74.8641 171.127 -89.8465 138.459 -89.6391C81.4219 -89.277 35.4774 -42.7455 35.8395 14.292C36.2016 71.3295 82.7332 117.274 139.771 116.912C170.547 116.717 198.094 103.079 216.879 81.6011C230.656 69.2312 252.771 50.1169 266.184 42.339C286.765 30.4049 313.302 27.2856 325.105 27.2107C336.908 27.1357 351.662 27.0421 372.411 41.6646C385.235 50.7026 401.477 65.3554 412.013 75.2294C431.062 99.421 460.683 114.876 493.858 114.665C550.896 114.303 596.84 67.7717 596.478 10.7342C596.116 -46.3033 549.584 -92.2478 492.547 -91.8857C457.659 -91.6642 426.921 -74.1686 408.392 -47.5608C396.867 -35.6134 380.821 -19.7348 372.055 -14.3992C357.357 -5.45341 339.69 0.56044 324.937 0.654105C310.183 0.74777 286.559 -2.05309 265.829 -13.7249C253.372 -20.7386 233.389 -38.3597 219.423 -51.3075Z" fill="#30839D"/>
<path fill-rule="evenodd" clip-rule="evenodd" d="M380.599 105.04C366.03 87.0411 343.708 75.5929 318.752 75.7513C275.188 76.0279 240.097 111.568 240.373 155.131C240.65 198.695 276.189 233.786 319.753 233.51C343.252 233.361 364.286 222.951 378.634 206.556C389.155 197.108 406.056 182.499 416.305 176.556C432.024 167.441 452.293 165.059 461.307 165.001C470.322 164.944 481.591 164.873 497.438 176.041C507.237 182.947 519.649 194.145 527.695 201.686C542.245 220.156 564.864 231.955 590.197 231.794C633.76 231.517 668.852 195.978 668.575 152.414C668.299 108.85 632.759 73.7586 589.195 74.0352C562.543 74.2044 539.062 87.5725 524.911 107.902C516.109 117.026 503.859 129.147 497.166 133.221C485.941 140.053 472.447 144.647 461.179 144.718C449.91 144.79 431.866 142.65 416.033 133.736C406.522 128.381 391.265 114.928 380.599 105.04Z" fill="#5CC3C9"/>
<path fill-rule="evenodd" clip-rule="evenodd" d="M481.531 239.143C471.401 226.632 455.882 218.675 438.532 218.785C408.241 218.977 383.841 243.689 384.033 273.98C384.226 304.271 408.937 328.671 439.229 328.479C455.572 328.375 470.201 321.133 480.177 309.729C487.493 303.16 499.24 293.007 506.364 288.876C517.294 282.538 531.387 280.881 537.655 280.841C543.924 280.801 551.759 280.752 562.778 288.517C569.588 293.317 578.213 301.098 583.808 306.342C593.925 319.19 609.657 327.399 627.276 327.287C657.567 327.094 681.967 302.383 681.775 272.092C681.582 241.8 656.871 217.4 626.579 217.593C608.052 217.71 591.729 227.001 581.888 241.131C575.768 247.476 567.245 255.909 562.589 258.743C554.784 263.494 545.401 266.688 537.566 266.738C529.731 266.787 517.184 265.3 506.175 259.101C499.56 255.377 488.948 246.019 481.531 239.143Z" fill="#FFCF72"/>
</svg>
