<svg width="503" height="326" viewBox="0 0 503 326" fill="none" xmlns="http://www.w3.org/2000/svg">
<g opacity="0.15" clip-path="url(#clip0_8_7233)">
<g clip-path="url(#clip1_8_7233)">
<path fill-rule="evenodd" clip-rule="evenodd" d="M690.262 138.859L744.262 170.05L690.265 201.24L636.264 170.048L690.262 138.859ZM690.262 137.858L636.254 106.663L690.684 75.223L689.819 74.7229L635.388 106.163L581.388 74.9714L635.818 43.5319L634.952 43.0318L580.522 74.4713L526.526 43.2822L580.957 11.8416L580.092 11.3415L525.66 42.7821L471.662 11.5924L526.092 -19.8472L525.227 -20.3473L470.796 11.0923L416.798 -20.0977L471.23 -51.5383L470.365 -52.0384L415.933 -20.5978L361.933 -51.7887L416.364 -83.2286L415.498 -83.7287L361.067 -52.2888L307.057 -83.4857L361.487 -114.925L360.621 -115.425L306.191 -83.9858L252.194 -115.175L306.626 -146.616L305.761 -147.116L251.328 -115.675L196.896 -147.116L196.031 -146.616L250.463 -115.175L196.466 -83.9858L142.036 -115.425L141.17 -114.925L195.6 -83.4857L141.59 -52.2888L87.1589 -83.7287L86.2931 -83.2286L140.724 -51.7887L86.723 -20.597L32.2924 -52.0369L31.4266 -51.5368L85.8572 -20.0969L31.8606 11.0923L-22.5696 -20.3473L-23.4354 -19.8472L30.9948 11.5924L-23.0027 42.7821L-77.4345 11.3415L-78.3004 11.8416L-23.8685 43.2822L-77.865 74.4713L-132.295 43.0318L-133.161 43.5319L-78.7308 74.9714L-132.73 106.162L-187.16 74.7229L-188.026 75.223L-133.596 106.662L-187.605 137.858L-242.034 106.419L-242.9 106.919L-188.47 138.359L-242.471 169.55L-296.901 138.11L-297.766 138.61L-243.336 170.05L-297.764 201.488L-296.898 201.988L-242.471 170.55L-188.473 201.74L-242.904 233.179L-242.038 233.679L-187.608 202.24L-133.598 233.437L-188.027 264.876L-187.161 265.376L-132.732 233.937L-78.7322 265.128L-133.16 296.566L-132.294 297.066L-77.8664 265.628L-23.8685 296.818L-78.2981 328.257L-77.4323 328.757L-23.0027 297.318L30.9948 328.507L-23.4331 359.946L-22.5673 360.446L31.8606 329.008L85.8571 360.197L31.4274 391.636L32.2932 392.136L86.7229 360.697L140.723 391.888L86.2939 423.327L87.1597 423.827L141.589 392.388L195.597 423.584L141.166 455.024L142.032 455.524L196.463 424.084L250.463 455.275L196.033 486.715L196.899 487.215L251.329 455.775L305.758 487.215L306.624 486.715L252.194 455.275L306.195 424.084L360.625 455.524L361.491 455.024L307.06 423.584L361.069 392.388L415.499 423.827L416.365 423.327L361.935 391.888L415.934 360.697L470.364 392.136L471.23 391.636L416.8 360.197L470.797 329.008L525.224 360.446L526.09 359.946L471.662 328.508L525.66 297.318L580.089 328.757L580.955 328.257L526.526 296.818L580.522 265.629L634.951 297.068L635.817 296.567L581.388 265.128L635.389 233.937L689.818 265.376L690.684 264.876L636.255 233.437L690.265 202.24L744.695 233.679L745.561 233.179L691.13 201.74L745.128 170.55L799.555 201.988L800.421 201.488L745.994 170.05L800.423 138.61L799.558 138.11L745.128 169.55L691.127 138.359L745.557 106.919L744.691 106.419L690.262 137.858ZM-241.605 170.05L-187.608 201.24L-133.607 170.048L-187.605 138.859L-241.605 170.05ZM-186.739 138.359L-132.742 169.548L-78.7331 138.352L-132.73 107.162L-186.739 138.359ZM-131.864 106.662L-77.8673 137.852L-23.8678 106.661L-77.865 75.4715L-131.864 106.662ZM-76.9991 74.9714L-23.002 106.161L30.9945 74.9718L-23.0027 43.7823L-76.9991 74.9714ZM-22.1369 43.2822L31.8603 74.4717L85.8577 43.282L31.8606 12.0925L-22.1369 43.2822ZM32.7264 11.5924L86.7235 42.7819L140.72 11.5927L86.723 -19.5968L32.7264 11.5924ZM87.5888 -20.0969L141.586 11.0926L195.587 -20.099L141.59 -51.2885L87.5888 -20.0969ZM142.455 -51.7887L196.453 -20.5991L250.463 -51.7961L196.466 -82.9856L142.455 -51.7887ZM197.331 -83.4857L251.328 -52.2962L305.326 -83.4857L251.328 -114.675L197.331 -83.4857ZM252.194 -51.7961L306.191 -82.9856L360.201 -51.7886L306.204 -20.5991L252.194 -51.7961ZM197.318 -20.099L251.328 -51.296L305.339 -20.099L251.328 11.0979L197.318 -20.099ZM142.452 11.5927L196.453 -19.5989L250.463 11.5981L196.462 42.7897L142.452 11.5927ZM87.5894 43.282L141.586 12.0928L195.596 43.2898L141.599 74.479L87.5894 43.282ZM32.7261 74.9718L86.7235 43.7821L140.734 74.9791L86.7362 106.169L32.7261 74.9718ZM-22.1362 106.661L31.8603 75.4719L85.8704 106.669L31.8739 137.858L-22.1362 106.661ZM-77.0015 138.352L-23.002 107.161L31.0081 138.358L-22.9914 169.549L-77.0015 138.352ZM-131.876 170.048L-77.8673 138.852L-23.8572 170.049L-77.8657 201.245L-131.876 170.048ZM-186.742 201.74L-132.742 170.548L-78.7315 201.745L-132.732 232.937L-186.742 201.74ZM-131.866 233.437L-77.8665 264.628L-23.8662 233.436L-77.8657 202.245L-131.866 233.437ZM-76.9998 201.745L-23.0003 232.936L31.0081 201.74L-22.9914 170.549L-76.9998 201.745ZM-22.1256 170.049L31.8739 201.24L85.8734 170.049L31.8739 138.858L-22.1256 170.049ZM32.7397 138.358L86.7392 169.549L140.736 138.36L86.7362 107.169L32.7397 138.358ZM87.602 106.669L141.602 137.86L195.599 106.67L141.599 75.4792L87.602 106.669ZM142.465 74.9791L196.465 106.17L250.461 74.9808L196.462 43.7899L142.465 74.9791ZM197.328 43.2898L251.327 74.4807L305.328 43.2891L251.328 12.0982L197.328 43.2898ZM252.194 11.5981L306.194 42.7889L360.204 11.592L306.204 -19.5989L252.194 11.5981ZM307.07 -20.099L361.07 11.0919L415.067 -20.0976L361.067 -51.2885L307.07 -20.099ZM361.935 11.592L415.933 -19.5975L469.931 11.5924L415.933 42.7819L361.935 11.592ZM307.06 43.289L361.07 12.0921L415.068 43.282L361.058 74.479L307.06 43.289ZM252.193 74.9808L306.194 43.7892L360.192 74.9791L306.191 106.171L252.193 74.9808ZM197.331 106.67L251.327 75.4809L305.325 106.671L251.328 137.86L197.331 106.67ZM142.467 138.36L196.465 107.17L250.463 138.36L196.465 169.55L142.467 138.36ZM87.605 170.049L141.602 138.86L195.599 170.05L141.603 201.239L87.605 170.049ZM32.7397 201.74L86.7392 170.549L140.737 201.739L86.7377 232.93L32.7397 201.74ZM-22.1345 233.436L31.874 202.24L85.8719 233.43L31.8634 264.626L-22.1345 233.436ZM-77.0006 265.128L-23.0003 233.936L30.9976 265.126L-23.0027 296.318L-77.0006 265.128ZM-22.1369 296.818L31.8605 328.007L85.8608 296.816L31.8634 265.626L-22.1369 296.818ZM32.7292 265.126L86.7267 296.316L140.735 265.12L86.7377 233.93L32.7292 265.126ZM87.6035 233.43L141.601 264.62L195.6 233.429L141.603 202.239L87.6035 233.43ZM142.469 201.739L196.466 232.929L250.463 201.74L196.465 170.55L142.469 201.739ZM197.331 170.05L251.328 201.24L305.326 170.05L251.328 138.86L197.331 170.05ZM252.194 138.36L306.192 169.55L360.188 138.361L306.191 107.171L252.194 138.36ZM307.057 106.671L361.054 137.861L415.055 106.669L361.058 75.4792L307.057 106.671ZM361.923 74.9791L415.921 106.169L469.931 74.9718L415.933 43.7822L361.923 74.9791ZM416.799 43.282L470.797 74.4717L524.794 43.2822L470.796 12.0925L416.799 43.282ZM471.663 74.9718L525.66 43.7823L579.656 74.9715L525.659 106.161L471.663 74.9718ZM416.787 106.669L470.797 75.4719L524.793 106.661L470.783 137.858L416.787 106.669ZM361.92 138.361L415.921 107.169L469.917 138.358L415.917 169.55L361.92 138.361ZM307.058 170.05L361.054 138.861L415.051 170.05L361.054 201.239L307.058 170.05ZM252.194 201.74L306.192 170.55L360.188 201.739L306.191 232.929L252.194 201.74ZM197.332 233.429L251.328 202.24L305.325 233.429L251.329 264.618L197.332 233.429ZM142.467 265.12L196.466 233.929L250.463 265.118L196.463 296.309L142.467 265.12ZM87.5925 296.816L141.601 265.62L195.598 296.809L141.589 328.005L87.5925 296.816ZM32.7263 328.508L86.7267 297.316L140.723 328.505L86.7229 359.697L32.7263 328.508ZM87.5886 360.197L141.589 391.388L195.589 360.197L141.589 329.005L87.5886 360.197ZM142.455 328.505L196.455 359.697L250.464 328.501L196.463 297.309L142.455 328.505ZM197.329 296.809L251.329 328L305.329 296.81L251.328 265.618L197.329 296.809ZM252.194 265.118L306.195 296.309L360.191 265.12L306.191 233.929L252.194 265.118ZM307.057 233.429L361.057 264.62L415.054 233.431L361.054 202.239L307.057 233.429ZM361.92 201.739L415.92 232.93L469.917 201.741L415.917 170.55L361.92 201.739ZM416.782 170.05L470.783 201.241L524.783 170.05L470.783 138.858L416.782 170.05ZM471.649 138.358L525.649 169.549L579.659 138.352L525.659 107.161L471.649 138.358ZM526.525 106.661L580.525 137.852L634.522 106.663L580.522 75.4716L526.525 106.661ZM581.391 138.352L635.388 107.163L689.396 138.359L635.399 169.548L581.391 138.352ZM526.515 170.05L580.525 138.853L634.533 170.048L580.523 201.245L526.515 170.05ZM471.648 201.741L525.649 170.55L579.657 201.745L525.656 232.937L471.648 201.741ZM416.786 233.431L470.783 202.241L524.79 233.437L470.794 264.626L416.786 233.431ZM361.923 265.12L415.92 233.931L469.928 265.126L415.93 296.316L361.923 265.12ZM307.06 296.81L361.057 265.62L415.065 296.816L361.068 328.005L307.06 296.81ZM252.195 328.501L306.195 297.31L360.202 328.505L306.203 359.696L252.195 328.501ZM197.321 360.197L251.329 329.001L305.337 360.196L251.329 391.392L197.321 360.197ZM142.455 391.888L196.455 360.697L250.463 391.893L196.462 423.084L142.455 391.888ZM197.328 423.584L251.328 454.775L305.329 423.584L251.329 392.393L197.328 423.584ZM252.194 391.893L306.195 423.084L360.203 391.888L306.203 360.696L252.194 391.893ZM307.069 360.196L361.069 391.388L415.068 360.197L361.068 329.005L307.069 360.196ZM361.934 328.505L415.934 359.697L469.931 328.508L415.93 297.316L361.934 328.505ZM416.796 296.816L470.797 328.007L524.794 296.818L470.794 265.626L416.796 296.816ZM471.659 265.126L525.66 296.318L579.656 265.128L525.656 233.937L471.659 265.126ZM526.522 233.437L580.522 264.628L634.523 233.437L580.523 202.245L526.522 233.437ZM581.389 201.745L635.389 232.937L689.399 201.74L635.399 170.548L581.389 201.745Z" fill="url(#paint0_radial_8_7233)" style=""/>
</g>
</g>
<path d="M154.672 114.231L161.809 110.11C163.881 108.914 167.239 108.914 169.311 110.11L184.183 118.696C186.255 119.892 186.255 121.831 184.183 123.027L169.413 131.554C167.341 132.75 167.341 134.688 169.413 135.884L192.955 149.475C195.027 150.671 198.385 150.671 200.457 149.475L220.794 137.735" stroke="#6F757E" style="stroke:#6F757E;stroke:color(display-p3 0.4353 0.4588 0.4941);stroke-opacity:1;" stroke-linejoin="round"/>
<path d="M293.696 178.294L280.074 186.158C278.003 187.354 278.003 189.293 280.074 190.489L314.105 210.134L331.12 219.957L339.627 224.869C341.699 226.064 341.699 228.003 339.627 229.199L294.061 255.505" stroke="#6F757E" style="stroke:#6F757E;stroke:color(display-p3 0.4353 0.4588 0.4941);stroke-opacity:1;" stroke-linejoin="round"/>
<path d="M253.683 154.886L199.377 186.237C198.342 186.835 198.342 187.804 199.377 188.402L217.858 199.071C218.894 199.669 218.894 200.638 217.858 201.236L174.252 226.41" stroke="#6F757E" style="stroke:#6F757E;stroke:color(display-p3 0.4353 0.4588 0.4941);stroke-opacity:1;" stroke-linejoin="round"/>
<path d="M296.147 259.061C298.438 257.794 298.448 255.739 296.174 254.472C293.901 253.205 290.202 253.205 287.911 254.472C285.619 255.739 285.61 257.794 287.883 259.061C290.157 260.337 293.856 260.337 296.147 259.061Z" fill="#5CC3C9" stroke="#6F757E" style="fill:#5CC3C9;fill:color(display-p3 0.3609 0.7635 0.7875);fill-opacity:1;stroke:#6F757E;stroke:color(display-p3 0.4353 0.4588 0.4941);stroke-opacity:1;" stroke-linejoin="round"/>
<path d="M179.731 227.596C182.022 226.329 182.031 224.274 179.758 223.007C177.485 221.74 173.786 221.74 171.494 223.007C169.203 224.274 169.194 226.329 171.467 227.596C173.741 228.872 177.439 228.872 179.731 227.596Z" fill="#FFC450" stroke="#6F757E" style="fill:#FFC450;fill:color(display-p3 1.0000 0.7686 0.3137);fill-opacity:1;stroke:#6F757E;stroke:color(display-p3 0.4353 0.4588 0.4941);stroke-opacity:1;" stroke-linejoin="round"/>
<path d="M155.304 117.794C157.596 116.527 157.605 114.472 155.331 113.205C153.058 111.937 149.359 111.937 147.068 113.205C144.776 114.472 144.767 116.527 147.041 117.794C149.314 119.069 153.013 119.069 155.304 117.794Z" fill="#90CB62" stroke="#6F757E" style="fill:#90CB62;fill:color(display-p3 0.5629 0.7967 0.3837);fill-opacity:1;stroke:#6F757E;stroke:color(display-p3 0.4353 0.4588 0.4941);stroke-opacity:1;" stroke-linejoin="round"/>
<path d="M297.47 180.588C299.761 179.321 299.77 177.266 297.497 175.999C295.224 174.731 291.525 174.731 289.234 175.999C286.942 177.266 286.933 179.321 289.206 180.588C291.48 181.863 295.179 181.863 297.47 180.588Z" fill="#90CB62" stroke="#6F757E" style="fill:#90CB62;fill:color(display-p3 0.5629 0.7967 0.3837);fill-opacity:1;stroke:#6F757E;stroke:color(display-p3 0.4353 0.4588 0.4941);stroke-opacity:1;" stroke-linejoin="round"/>
<path d="M256.862 157.44C259.153 156.172 259.162 154.118 256.889 152.85C254.615 151.583 250.917 151.583 248.625 152.85C246.334 154.118 246.325 156.172 248.598 157.44C250.872 158.715 254.57 158.715 256.862 157.44Z" fill="#FFC450" stroke="#6F757E" style="fill:#FFC450;fill:color(display-p3 1.0000 0.7686 0.3137);fill-opacity:1;stroke:#6F757E;stroke:color(display-p3 0.4353 0.4588 0.4941);stroke-opacity:1;" stroke-linejoin="round"/>
<path d="M224.913 139.326C227.204 138.059 227.213 136.004 224.94 134.737C222.667 133.47 218.968 133.47 216.677 134.737C214.385 136.004 214.376 138.059 216.649 139.326C218.923 140.602 222.622 140.602 224.913 139.326Z" fill="#5CC3C9" stroke="#6F757E" style="fill:#5CC3C9;fill:color(display-p3 0.3609 0.7635 0.7875);fill-opacity:1;stroke:#6F757E;stroke:color(display-p3 0.4353 0.4588 0.4941);stroke-opacity:1;" stroke-linejoin="round"/>
<path opacity="0.2" d="M462.424 175.422C460.122 185.135 452.583 193.94 440.622 200.883C410.501 218.393 361.339 218.393 331.017 200.883L194.353 122.004C164.04 104.504 163.866 76.0247 193.996 58.5153C224.126 41.0059 273.279 41.0151 303.592 58.5153L317.204 66.3666C356.909 51.3887 409.529 54.5161 443.447 74.0984C460.737 84.0775 471.211 97.3129 472.972 111.374C474.651 124.847 468.249 138.22 454.922 149.163C461.892 157.234 464.543 166.507 462.424 175.422Z" fill="#30839D" style="fill:#30839D;fill:color(display-p3 0.1882 0.5137 0.6157);fill-opacity:1;"/>
<path d="M462.426 131.052C460.124 140.765 452.584 149.57 440.624 156.513C410.503 174.023 361.341 174.023 331.018 156.513L194.355 77.6337C164.041 60.1335 163.867 31.6546 193.997 14.1452C224.128 -3.36419 273.28 -3.35502 303.594 14.1452L317.205 21.9965C356.911 7.0186 409.531 10.146 443.449 29.7283C460.738 39.7074 471.213 52.9428 472.974 67.0035C474.652 80.4772 468.25 93.8502 454.923 104.792C461.894 112.864 464.545 122.137 462.426 131.052Z" fill="#8FE3E8" stroke="#1A1B1D" style="fill:#8FE3E8;fill:color(display-p3 0.5608 0.8902 0.9098);fill-opacity:1;stroke:#1A1B1D;stroke:color(display-p3 0.1020 0.1059 0.1137);stroke-opacity:1;" stroke-linejoin="round"/>
<path d="M316.383 27.5111L316.3 57.4119L298.378 47.0659L298.461 17.165L316.383 27.5111Z" fill="#0A6191" stroke="#1A1B1D" style="fill:#0A6191;fill:color(display-p3 0.0401 0.3786 0.5667);fill-opacity:1;stroke:#1A1B1D;stroke:color(display-p3 0.1020 0.1059 0.1137);stroke-opacity:1;" stroke-linejoin="round"/>
<path d="M178.753 75.6081L178.836 45.7076C178.836 35.3616 185.651 25.0337 199.198 17.1641C226.457 1.32406 270.978 1.31488 298.421 17.1641L298.338 47.074C270.886 31.2247 226.375 31.2247 199.106 47.074C185.596 54.9253 178.818 65.2712 178.753 75.6081Z" fill="#0A6191" stroke="#1A1B1D" style="fill:#0A6191;fill:color(display-p3 0.0401 0.3786 0.5667);fill-opacity:1;stroke:#1A1B1D;stroke:color(display-p3 0.1020 0.1059 0.1137);stroke-opacity:1;" stroke-linejoin="round"/>
<path fill-rule="evenodd" clip-rule="evenodd" d="M465.834 101.076L465.916 71.3255C465.923 69.9857 465.843 68.6467 465.677 67.3172C464.045 54.2838 454.322 42.0119 438.308 32.7573C406.179 14.2082 355.975 11.5805 318.923 26.4876L318.888 26.4996L316.375 27.5085L316.292 57.4093L318.796 56.4004L318.796 56.4026C355.861 41.4797 406.114 44.1121 438.216 62.6672C454.24 71.9126 463.962 84.1849 465.595 97.2275C465.754 98.5041 465.834 99.7895 465.834 101.076Z" fill="#0A6191" style="fill:#0A6191;fill:color(display-p3 0.0401 0.3786 0.5667);fill-opacity:1;"/>
<path d="M465.916 71.3255L465.416 71.3228V71.3241L465.916 71.3255ZM465.834 101.076L465.334 101.076C465.334 101.352 465.557 101.575 465.833 101.576C466.109 101.576 466.333 101.353 466.334 101.077L465.834 101.076ZM465.677 67.3172L466.173 67.2553L466.173 67.2551L465.677 67.3172ZM438.308 32.7573L438.558 32.3244L438.558 32.3243L438.308 32.7573ZM318.923 26.4876L319.085 26.9606C319.094 26.9578 319.102 26.9547 319.11 26.9514L318.923 26.4876ZM318.888 26.4996L318.726 26.0265C318.718 26.0293 318.71 26.0323 318.702 26.0356L318.888 26.4996ZM316.375 27.5085L316.189 27.0445C316 27.1204 315.876 27.3034 315.875 27.5071L316.375 27.5085ZM316.292 57.4093L315.792 57.4079C315.792 57.5743 315.874 57.73 316.012 57.8233C316.15 57.9166 316.325 57.9353 316.479 57.8731L316.292 57.4093ZM318.796 56.4004L319.296 56.402C319.297 56.2356 319.215 56.0798 319.077 55.9865C318.939 55.8931 318.764 55.8745 318.609 55.9367L318.796 56.4004ZM318.796 56.4026L318.296 56.4011C318.296 56.5674 318.378 56.7232 318.516 56.8165C318.654 56.9098 318.829 56.9286 318.983 56.8664L318.796 56.4026ZM438.216 62.6672L437.966 63.1001L437.966 63.1002L438.216 62.6672ZM465.595 97.2275L466.091 97.1656L466.091 97.1654L465.595 97.2275ZM465.416 71.3241L465.334 101.074L466.334 101.077L466.416 71.3269L465.416 71.3241ZM465.181 67.3792C465.344 68.6872 465.423 70.0046 465.416 71.3228L466.416 71.3282C466.423 69.9668 466.342 68.6062 466.173 67.2553L465.181 67.3792ZM438.058 33.1902C453.995 42.4005 463.575 54.558 465.181 67.3794L466.173 67.2551C464.514 54.0095 454.649 41.6233 438.558 32.3244L438.058 33.1902ZM319.11 26.9514C356.032 12.0966 406.074 14.7246 438.058 33.1903L438.558 32.3243C406.285 13.6917 355.918 11.0644 318.737 26.0237L319.11 26.9514ZM319.05 26.9726L319.085 26.9606L318.761 26.0145L318.726 26.0265L319.05 26.9726ZM316.561 27.9725L319.074 26.9636L318.702 26.0356L316.189 27.0445L316.561 27.9725ZM316.792 57.4107L316.875 27.5099L315.875 27.5071L315.792 57.4079L316.792 57.4107ZM318.609 55.9367L316.106 56.9455L316.479 57.8731L318.983 56.8642L318.609 55.9367ZM319.296 56.4041L319.296 56.402L318.296 56.3989L318.296 56.4011L319.296 56.4041ZM438.466 62.2343C406.22 43.5956 355.804 40.9636 318.61 55.9388L318.983 56.8664C355.917 41.9958 406.008 44.6287 437.966 63.1001L438.466 62.2343ZM466.091 97.1654C464.432 83.9107 454.567 71.5239 438.466 62.2341L437.966 63.1002C453.913 72.3012 463.493 84.4591 465.099 97.2896L466.091 97.1654ZM466.334 101.076C466.334 99.7688 466.253 98.4628 466.091 97.1656L465.099 97.2895C465.255 98.5455 465.334 99.8101 465.334 101.076L466.334 101.076Z" fill="#1A1B1D" style="fill:#1A1B1D;fill:color(display-p3 0.1020 0.1059 0.1137);fill-opacity:1;"/>
<path d="M473.257 71.3503L473.175 101.26C473.175 113.239 466.754 124.942 454.831 134.72L454.913 104.81C466.855 95.0325 473.23 83.3565 473.257 71.3503Z" fill="#5CC3C9" stroke="#1A1B1D" style="fill:#5CC3C9;fill:color(display-p3 0.3609 0.7635 0.7875);fill-opacity:1;stroke:#1A1B1D;stroke:color(display-p3 0.1020 0.1059 0.1137);stroke-opacity:1;" stroke-linejoin="round"/>
<path fill-rule="evenodd" clip-rule="evenodd" d="M447.351 135.527L447.351 135.527L446.25 134.335L446.333 104.434L447.433 105.626L447.433 105.623C452.946 111.557 455.826 118.299 455.807 125.059L455.716 154.96C455.716 148.209 452.863 141.468 447.351 135.534L447.351 135.527Z" fill="#0A6191" style="fill:#0A6191;fill:color(display-p3 0.0401 0.3786 0.5667);fill-opacity:1;"/>
<path d="M447.351 135.527L447.851 135.528C447.852 135.258 447.638 135.037 447.369 135.027C447.099 135.017 446.871 135.223 446.852 135.492L447.351 135.527ZM447.351 135.527L446.983 135.866C447.119 136.013 447.328 136.065 447.517 135.999C447.705 135.933 447.836 135.761 447.85 135.562L447.351 135.527ZM446.25 134.335L445.75 134.334C445.75 134.46 445.797 134.581 445.883 134.674L446.25 134.335ZM446.333 104.434L446.7 104.095C446.561 103.944 446.343 103.894 446.151 103.968C445.96 104.043 445.833 104.227 445.833 104.433L446.333 104.434ZM447.433 105.626L447.066 105.965C447.205 106.117 447.423 106.167 447.615 106.092C447.806 106.018 447.933 105.833 447.933 105.628L447.433 105.626ZM447.433 105.623L447.8 105.283C447.66 105.132 447.442 105.083 447.251 105.158C447.06 105.232 446.934 105.416 446.933 105.622L447.433 105.623ZM455.807 125.059L456.307 125.061V125.06L455.807 125.059ZM455.716 154.96H455.216C455.216 155.235 455.439 155.459 455.715 155.46C455.991 155.46 456.215 155.237 456.216 154.961L455.716 154.96ZM447.351 135.534L446.851 135.532C446.851 135.659 446.898 135.781 446.985 135.874L447.351 135.534ZM446.852 135.492L446.852 135.493L447.85 135.562L447.85 135.561L446.852 135.492ZM447.718 135.188L446.618 133.996L445.883 134.674L446.983 135.866L447.718 135.188ZM446.75 134.336L446.833 104.435L445.833 104.433L445.75 134.334L446.75 134.336ZM445.965 104.773L447.066 105.965L447.801 105.287L446.7 104.095L445.965 104.773ZM447.933 105.628L447.933 105.625L446.933 105.622L446.933 105.625L447.933 105.628ZM447.067 105.963C452.51 111.823 455.325 118.447 455.307 125.058L456.307 125.06C456.326 118.151 453.381 111.292 447.8 105.283L447.067 105.963ZM455.307 125.058L455.216 154.958L456.216 154.961L456.307 125.061L455.307 125.058ZM456.216 154.96C456.216 148.062 453.3 141.203 447.717 135.193L446.985 135.874C452.427 141.732 455.216 148.356 455.216 154.96H456.216ZM447.851 135.535L447.851 135.528L446.851 135.525L446.851 135.532L447.851 135.535Z" fill="#1A1B1D" style="fill:#1A1B1D;fill:color(display-p3 0.1020 0.1059 0.1137);fill-opacity:1;"/>
<path d="M462.426 131.052C460.124 140.765 452.584 149.57 440.624 156.513C410.503 174.023 361.341 174.023 331.018 156.513L194.355 77.6338C164.041 60.1335 163.867 31.6546 193.997 14.1452C224.128 -3.36419 273.28 -3.35502 303.594 14.1452L317.205 21.9965C356.911 7.0186 409.531 10.146 443.449 29.7283C460.738 39.7074 471.213 52.9428 472.974 67.0035C474.652 80.4772 468.25 93.8502 454.923 104.792C461.894 112.864 464.545 122.137 462.426 131.052ZM336.191 153.514C363.643 169.354 408.155 169.354 435.424 153.514C446.247 147.222 453.071 139.252 455.153 130.465C457.17 121.962 454.419 113.139 447.43 105.608L446.329 104.416L447.714 103.334C460.913 93.0061 467.287 80.2115 465.682 67.2973C464.077 54.3831 454.327 41.9915 438.313 32.7369C406.211 14.1819 355.948 11.5589 318.893 26.4818L316.38 27.4903L298.458 17.1445C271.015 1.29522 226.494 1.30439 199.235 17.1445C171.975 32.9846 172.104 58.7763 199.555 74.6255L336.219 153.505" fill="white" style="fill:white;fill-opacity:1;"/>
<path d="M336.191 153.514C363.643 169.354 408.155 169.354 435.424 153.514C446.247 147.222 453.071 139.252 455.153 130.465C457.17 121.962 454.419 113.139 447.43 105.608L446.329 104.416L447.714 103.334C460.913 93.0061 467.287 80.2115 465.682 67.2973C464.077 54.3831 454.327 41.9915 438.313 32.7369C406.211 14.1819 355.948 11.5589 318.893 26.4818L316.38 27.4903L298.458 17.1445C271.015 1.29522 226.494 1.30439 199.235 17.1445C171.975 32.9846 172.104 58.7763 199.555 74.6255L336.219 153.505M462.426 131.052C460.124 140.765 452.584 149.57 440.624 156.513C410.503 174.023 361.341 174.023 331.018 156.513L194.355 77.6338C164.041 60.1335 163.867 31.6546 193.997 14.1452C224.128 -3.36419 273.28 -3.35502 303.594 14.1452L317.205 21.9965C356.911 7.0186 409.531 10.146 443.449 29.7283C460.738 39.7074 471.213 52.9428 472.974 67.0035C474.652 80.4772 468.25 93.8502 454.923 104.792C461.894 112.864 464.545 122.137 462.426 131.052Z" stroke="#1A1B1D" style="stroke:#1A1B1D;stroke:color(display-p3 0.1020 0.1059 0.1137);stroke-opacity:1;" stroke-linejoin="round"/>
<path opacity="0.2" fill-rule="evenodd" clip-rule="evenodd" d="M385.13 66.857C385.573 68.1772 386.68 69.4379 388.451 70.4603C390.75 71.7877 393.745 72.469 396.758 72.5043L405.03 138.073C403.287 138.014 401.531 138.118 399.835 138.382L397.286 135.194L397.245 135.143L397.193 135.105L360.869 108.185C365.133 105.239 364.868 100.847 360.074 98.0795C356.676 96.1177 351.863 95.4698 347.531 96.1359L323.856 72.2941C326.177 70.7183 327.451 68.8041 327.676 66.857L385.13 66.857ZM397.765 72.492C400.602 72.3895 403.39 71.7123 405.558 70.4603C410.283 67.7331 410.283 63.3115 405.558 60.5843C400.834 57.8571 393.175 57.8571 388.451 60.5843C385.942 62.033 384.765 63.96 384.922 65.857L327.7 65.857C327.545 63.5826 325.963 61.3345 322.956 59.5981C316.613 55.9366 306.33 55.9366 299.988 59.5981C295.937 61.9364 294.474 65.2026 295.597 68.2115L253.333 74.1761C252.963 73.8457 252.528 73.5327 252.027 73.2433C248.208 71.0391 242.018 71.0391 238.2 73.2433C234.382 75.4476 234.382 79.0213 238.2 81.2256C241.535 83.1512 246.682 83.3946 250.475 81.9557L284.01 119.836C282.408 120.282 280.907 120.888 279.579 121.655C273.236 125.316 273.236 131.253 279.579 134.914C285.921 138.576 296.204 138.576 302.546 134.914C302.934 134.69 303.298 134.458 303.638 134.219L341.513 148.31C340.391 150.286 341.19 152.546 343.911 154.117C347.764 156.341 354.011 156.341 357.864 154.117C359.594 153.118 360.547 151.841 360.723 150.535L388.145 149.236C388.742 151.004 390.227 152.693 392.6 154.062C398.943 157.724 409.226 157.724 415.568 154.062C421.91 150.401 421.91 144.465 415.568 140.803C412.896 139.261 409.526 138.368 406.044 138.125L397.765 72.492ZM398.715 138.582C396.481 139.032 394.385 139.773 392.6 140.803C389.07 142.841 387.505 145.584 387.904 148.246L360.707 149.534C360.493 148.267 359.545 147.033 357.864 146.062C354.011 143.838 347.764 143.838 343.911 146.062C343.175 146.487 342.579 146.963 342.124 147.47L304.566 133.497C307.615 130.871 308.117 127.551 306.072 124.697L341.068 108.295C341.269 108.429 341.479 108.56 341.7 108.687C346.735 111.594 354.874 111.616 359.956 108.754L396.546 135.869L398.715 138.582ZM346.339 96.3551C344.647 96.7193 343.06 97.2941 341.7 98.0795C337.206 100.674 336.692 104.696 340.159 107.617L305.421 123.898C304.681 123.091 303.723 122.334 302.546 121.655C300.418 120.426 297.845 119.61 295.127 119.206L309.76 75.5516C314.467 75.8379 319.348 74.9398 322.956 72.8574C322.966 72.8512 322.977 72.8451 322.988 72.8389L346.339 96.3551ZM296.041 69.1587C296.81 70.5109 298.125 71.7823 299.988 72.8574C302.46 74.2845 305.53 75.1553 308.733 75.47L294.116 119.075C291.112 118.745 287.978 118.907 285.101 119.561L251.441 81.5378C251.641 81.4392 251.837 81.3351 252.027 81.2256C254.909 79.5618 255.615 77.1176 254.146 75.0712L296.041 69.1587Z" fill="#30839D" style="fill:#30839D;fill:color(display-p3 0.1882 0.5137 0.6157);fill-opacity:1;"/>
<path d="M291.133 110.619L248.152 61.3365L242.718 54.7363L312.43 47.3679M291.133 110.619L350.73 84.3165M291.133 110.619L312.43 47.3679M291.133 110.619L350.029 133.759L407.455 127.285M350.73 84.3165L407.455 127.285M350.73 84.3165L312.43 47.3679M350.73 84.3165L398.022 45.3505M407.455 127.285L398.022 45.3505M398.022 45.3505L312.43 47.3679" stroke="#0A6191" style="stroke:#0A6191;stroke:color(display-p3 0.0401 0.3786 0.5667);stroke-opacity:1;"/>
<circle cx="12.9926" cy="12.9926" r="12.9926" transform="matrix(-1 8.74228e-08 8.74228e-08 1 257.596 41.2869)" fill="white" style="fill:white;fill-opacity:1;"/>
<path fill-rule="evenodd" clip-rule="evenodd" d="M231.731 56.055C234.112 59.0173 237.766 60.9132 241.862 60.9132C249.038 60.9132 254.855 55.0962 254.855 47.9206C254.855 47.3199 254.814 46.7286 254.735 46.1495C256.525 48.376 257.596 51.2049 257.596 54.2839C257.596 61.4595 251.779 67.2765 244.603 67.2765C238.029 67.2765 232.594 62.3928 231.731 56.055Z" fill="#8FE3E8" style="fill:#8FE3E8;fill:color(display-p3 0.5608 0.8902 0.9098);fill-opacity:1;"/>
<circle cx="12.9926" cy="12.9926" r="12.4926" transform="matrix(-1 8.74228e-08 8.74228e-08 1 257.596 41.2869)" stroke="#0A6191" style="stroke:#0A6191;stroke:color(display-p3 0.0401 0.3786 0.5667);stroke-opacity:1;"/>
<circle cx="16.2407" cy="16.2407" r="16.2407" transform="matrix(-1 8.74228e-08 8.74228e-08 1 307.242 90.9271)" fill="#90CB62" style="fill:#90CB62;fill:color(display-p3 0.5629 0.7967 0.3837);fill-opacity:1;"/>
<path fill-rule="evenodd" clip-rule="evenodd" d="M274.911 109.392C277.888 113.091 282.453 115.458 287.57 115.458C296.539 115.458 303.811 108.187 303.811 99.217C303.811 98.4625 303.759 97.7201 303.66 96.9929C305.9 99.7771 307.241 103.316 307.241 107.168C307.241 116.137 299.97 123.409 291.001 123.409C282.786 123.409 275.995 117.309 274.911 109.392Z" fill="#4D8622" style="fill:#4D8622;fill:color(display-p3 0.3020 0.5255 0.1333);fill-opacity:1;"/>
<circle cx="16.2407" cy="16.2407" r="15.7407" transform="matrix(-1 8.74228e-08 8.74228e-08 1 307.242 90.9271)" stroke="#0A6191" style="stroke:#0A6191;stroke:color(display-p3 0.0401 0.3786 0.5667);stroke-opacity:1;"/>
<circle cx="12.9926" cy="12.9926" r="12.9926" transform="matrix(-1 8.74228e-08 8.74228e-08 1 363.829 70.1143)" fill="#90CB62" style="fill:#90CB62;fill:color(display-p3 0.5629 0.7967 0.3837);fill-opacity:1;"/>
<path fill-rule="evenodd" clip-rule="evenodd" d="M337.963 84.8797C340.345 87.8418 343.998 89.7377 348.095 89.7377C355.27 89.7377 361.087 83.9207 361.087 76.7451C361.087 76.1443 361.047 75.553 360.968 74.9739C362.758 77.2004 363.829 80.0293 363.829 83.1084C363.829 90.284 358.012 96.101 350.836 96.101C344.261 96.101 338.827 91.2174 337.963 84.8797Z" fill="#4D8622" style="fill:#4D8622;fill:color(display-p3 0.3020 0.5255 0.1333);fill-opacity:1;"/>
<circle cx="12.9926" cy="12.9926" r="12.4926" transform="matrix(-1 8.74228e-08 8.74228e-08 1 363.829 70.1143)" stroke="#0A6191" style="stroke:#0A6191;stroke:color(display-p3 0.0401 0.3786 0.5667);stroke-opacity:1;"/>
<circle cx="9.10853" cy="9.10853" r="9.10853" transform="matrix(-1 8.74228e-08 8.74228e-08 1 359.946 123.82)" fill="#90CB62" style="fill:#90CB62;fill:color(display-p3 0.5629 0.7967 0.3837);fill-opacity:1;"/>
<path fill-rule="evenodd" clip-rule="evenodd" d="M341.814 134.175C343.483 136.249 346.043 137.576 348.913 137.576C353.943 137.576 358.021 133.498 358.021 128.468C358.021 128.044 357.992 127.627 357.936 127.219C359.193 128.781 359.946 130.766 359.946 132.927C359.946 137.957 355.868 142.035 350.837 142.035C346.231 142.035 342.422 138.615 341.814 134.175Z" fill="#4D8622" style="fill:#4D8622;fill:color(display-p3 0.3020 0.5255 0.1333);fill-opacity:1;"/>
<circle cx="9.10853" cy="9.10853" r="8.60853" transform="matrix(-1 8.74228e-08 8.74228e-08 1 359.946 123.82)" stroke="#0A6191" style="stroke:#0A6191;stroke:color(display-p3 0.0401 0.3786 0.5667);stroke-opacity:1;"/>
<circle cx="16.2407" cy="16.2407" r="16.2407" transform="matrix(-1 8.74228e-08 8.74228e-08 1 327.726 29.7971)" fill="white" style="fill:white;fill-opacity:1;"/>
<path fill-rule="evenodd" clip-rule="evenodd" d="M295.396 48.2625C298.373 51.9613 302.937 54.3283 308.055 54.3283C317.024 54.3283 324.296 47.0571 324.296 38.0876C324.296 37.3332 324.244 36.5907 324.145 35.8636C326.385 38.6478 327.726 42.1865 327.726 46.0385C327.726 55.008 320.455 62.2792 311.485 62.2792C303.27 62.2792 296.48 56.1797 295.396 48.2625Z" fill="#8FE3E8" style="fill:#8FE3E8;fill:color(display-p3 0.5608 0.8902 0.9098);fill-opacity:1;"/>
<circle cx="16.2407" cy="16.2407" r="15.7407" transform="matrix(-1 8.74228e-08 8.74228e-08 1 327.726 29.7971)" stroke="#0A6191" style="stroke:#0A6191;stroke:color(display-p3 0.0401 0.3786 0.5667);stroke-opacity:1;"/>
<circle cx="16.2407" cy="16.2407" r="16.2407" transform="matrix(-1 8.74228e-08 8.74228e-08 1 420.253 110.125)" fill="white" style="fill:white;fill-opacity:1;"/>
<path fill-rule="evenodd" clip-rule="evenodd" d="M388.282 130.423C391.248 133.622 395.487 135.625 400.194 135.625C409.164 135.625 416.435 128.354 416.435 119.384C416.435 117.984 416.258 116.625 415.924 115.328C418.61 118.226 420.253 122.105 420.253 126.367C420.253 135.337 412.981 142.608 404.012 142.608C396.443 142.608 390.083 137.43 388.282 130.423Z" fill="#8FE3E8" style="fill:#8FE3E8;fill:color(display-p3 0.5608 0.8902 0.9098);fill-opacity:1;"/>
<circle cx="16.2407" cy="16.2407" r="15.7407" transform="matrix(-1 8.74228e-08 8.74228e-08 1 420.253 110.125)" stroke="#0A6191" style="stroke:#0A6191;stroke:color(display-p3 0.0401 0.3786 0.5667);stroke-opacity:1;"/>
<circle cx="12.9926" cy="12.9926" r="12.9926" transform="matrix(-1 8.74228e-08 8.74228e-08 1 409.945 33.1516)" fill="#90CB62" style="fill:#90CB62;fill:color(display-p3 0.5629 0.7967 0.3837);fill-opacity:1;"/>
<path fill-rule="evenodd" clip-rule="evenodd" d="M384.08 47.917C386.461 50.8792 390.115 52.775 394.211 52.775C401.387 52.775 407.204 46.9581 407.204 39.7825C407.204 39.1817 407.163 38.5904 407.084 38.0112C408.874 40.2377 409.945 43.0667 409.945 46.1458C409.945 53.3214 404.128 59.1384 396.953 59.1384C390.378 59.1384 384.944 54.2547 384.08 47.917Z" fill="#4D8622" style="fill:#4D8622;fill:color(display-p3 0.3020 0.5255 0.1333);fill-opacity:1;"/>
<circle cx="12.9926" cy="12.9926" r="12.4926" transform="matrix(-1 8.74228e-08 8.74228e-08 1 409.945 33.1516)" stroke="#0A6191" style="stroke:#0A6191;stroke:color(display-p3 0.0401 0.3786 0.5667);stroke-opacity:1;"/>
<path d="M171.417 75.587L171.5 45.6771C171.5 57.2522 179.094 68.8366 194.347 77.6417L194.265 107.552C179.039 98.7465 171.417 87.1529 171.417 75.587Z" fill="#5CC3C9" stroke="#1A1B1D" style="fill:#5CC3C9;fill:color(display-p3 0.3609 0.7635 0.7875);fill-opacity:1;stroke:#1A1B1D;stroke:color(display-p3 0.1020 0.1059 0.1137);stroke-opacity:1;" stroke-linejoin="round"/>
<path d="M463.052 154.999L463.143 125.089C463.133 127.103 462.893 129.091 462.428 131.051C460.126 140.782 452.586 149.587 440.626 156.512C410.505 174.022 361.343 174.022 331.02 156.512L330.938 186.422C361.251 203.923 410.423 203.932 440.543 186.422C452.504 179.47 460.043 170.674 462.345 160.961V160.979C462.812 159.02 463.049 157.013 463.052 154.999Z" fill="#5CC3C9" stroke="#1A1B1D" style="fill:#5CC3C9;fill:color(display-p3 0.3609 0.7635 0.7875);fill-opacity:1;stroke:#1A1B1D;stroke:color(display-p3 0.1020 0.1059 0.1137);stroke-opacity:1;" stroke-linejoin="round"/>
<path d="M331.021 156.531L330.939 186.441L194.303 107.553L194.386 77.6426L331.021 156.531Z" fill="#5CC3C9" stroke="#1A1B1D" style="fill:#5CC3C9;fill:color(display-p3 0.3609 0.7635 0.7875);fill-opacity:1;stroke:#1A1B1D;stroke:color(display-p3 0.1020 0.1059 0.1137);stroke-opacity:1;" stroke-linejoin="round"/>
<path opacity="0.5" d="M462.426 131.052C460.124 140.765 452.584 149.57 440.624 156.513C410.503 174.023 361.341 174.023 331.018 156.513L194.355 77.6337C164.041 60.1335 163.867 31.6546 193.997 14.1452C224.128 -3.36419 273.28 -3.35502 303.594 14.1452L317.205 21.9965C356.911 7.0186 409.531 10.146 443.449 29.7283C460.738 39.7074 471.213 52.9428 472.974 67.0035C474.652 80.4772 468.25 93.8502 454.923 104.792C461.894 112.864 464.545 122.137 462.426 131.052Z" stroke="#1A1B1D" style="stroke:#1A1B1D;stroke:color(display-p3 0.1020 0.1059 0.1137);stroke-opacity:1;" stroke-linejoin="round"/>
<path d="M256.574 129.324C256.574 125.445 259.297 123.852 262.645 125.773C265.992 127.695 268.717 132.411 268.717 136.29C268.716 140.169 265.991 141.762 262.644 139.841C259.296 137.92 256.574 133.204 256.574 129.324Z" fill="#0A6191" stroke="#0A6191" style="fill:#0A6191;fill:color(display-p3 0.0401 0.3786 0.5667);fill-opacity:1;stroke:#0A6191;stroke:color(display-p3 0.0401 0.3786 0.5667);stroke-opacity:1;"/>
<path d="M249.932 144.716L263.378 136.946C263.884 136.654 264.197 136.029 264.2 135.142C264.207 133.358 262.953 131.187 261.4 130.292C260.618 129.842 259.91 129.8 259.398 130.098L245.952 137.868C246.465 137.572 247.173 137.612 247.954 138.062C249.508 138.957 250.761 141.129 250.755 142.913C250.751 143.799 250.439 144.422 249.932 144.716Z" fill="#FFC450" stroke="#1A1B1D" style="fill:#FFC450;fill:color(display-p3 1.0000 0.7686 0.3137);fill-opacity:1;stroke:#1A1B1D;stroke:color(display-p3 0.1020 0.1059 0.1137);stroke-opacity:1;" stroke-linejoin="round"/>
<path d="M249.923 144.728C248.787 145.388 246.975 144.389 245.875 142.496C244.776 140.604 244.805 138.535 245.94 137.875C247.076 137.215 248.888 138.214 249.987 140.107C251.087 141.999 251.058 144.068 249.923 144.728Z" fill="#EC9C00" stroke="#1A1B1D" style="fill:#EC9C00;fill:color(display-p3 0.9250 0.6105 0.0000);fill-opacity:1;stroke:#1A1B1D;stroke:color(display-p3 0.1020 0.1059 0.1137);stroke-opacity:1;" stroke-linejoin="round"/>
<path d="M290.782 149.042C290.782 145.163 293.505 143.57 296.853 145.492C300.2 147.413 302.925 152.129 302.924 156.008C302.924 159.887 300.199 161.481 296.852 159.559C293.504 157.638 290.782 152.922 290.782 149.042Z" fill="#0A6191" stroke="#0A6191" style="fill:#0A6191;fill:color(display-p3 0.0401 0.3786 0.5667);fill-opacity:1;stroke:#0A6191;stroke:color(display-p3 0.0401 0.3786 0.5667);stroke-opacity:1;"/>
<path d="M284.14 164.434L297.586 156.664C298.092 156.372 298.405 155.747 298.408 154.86C298.415 153.076 297.161 150.905 295.608 150.01C294.826 149.56 294.118 149.518 293.606 149.816L280.16 157.586C280.673 157.29 281.38 157.33 282.162 157.78C283.715 158.675 284.969 160.847 284.962 162.631C284.959 163.517 284.646 164.14 284.14 164.434Z" fill="#90CB62" stroke="#1A1B1D" style="fill:#90CB62;fill:color(display-p3 0.5629 0.7967 0.3837);fill-opacity:1;stroke:#1A1B1D;stroke:color(display-p3 0.1020 0.1059 0.1137);stroke-opacity:1;" stroke-linejoin="round"/>
<path d="M284.13 164.446C282.995 165.106 281.183 164.107 280.083 162.214C278.984 160.322 279.013 158.253 280.148 157.593C281.284 156.933 283.096 157.932 284.195 159.825C285.295 161.717 285.266 163.786 284.13 164.446Z" fill="#4D8622" stroke="#1A1B1D" style="fill:#4D8622;fill:color(display-p3 0.3020 0.5255 0.1333);fill-opacity:1;stroke:#1A1B1D;stroke:color(display-p3 0.1020 0.1059 0.1137);stroke-opacity:1;" stroke-linejoin="round"/>
<path d="M222.371 109.61C222.371 105.731 225.094 104.138 228.442 106.059C231.789 107.981 234.514 112.697 234.513 116.576C234.513 120.454 231.788 122.048 228.441 120.127C225.093 118.205 222.371 113.49 222.371 109.61Z" fill="#0A6191" stroke="#0A6191" style="fill:#0A6191;fill:color(display-p3 0.0401 0.3786 0.5667);fill-opacity:1;stroke:#0A6191;stroke:color(display-p3 0.0401 0.3786 0.5667);stroke-opacity:1;"/>
<path d="M215.729 125.003L229.175 117.233C229.681 116.941 229.994 116.316 229.997 115.429C230.004 113.645 228.75 111.474 227.197 110.579C226.415 110.129 225.707 110.087 225.195 110.385L211.749 118.155C212.262 117.859 212.969 117.899 213.751 118.349C215.304 119.244 216.558 121.416 216.551 123.2C216.548 124.086 216.235 124.709 215.729 125.003Z" fill="#8FE3E8" stroke="#1A1B1D" style="fill:#8FE3E8;fill:color(display-p3 0.5608 0.8902 0.9098);fill-opacity:1;stroke:#1A1B1D;stroke:color(display-p3 0.1020 0.1059 0.1137);stroke-opacity:1;" stroke-linejoin="round"/>
<path d="M215.718 125.016C214.582 125.676 212.77 124.676 211.671 122.784C210.571 120.891 210.6 118.822 211.735 118.163C212.871 117.503 214.683 118.502 215.783 120.395C216.882 122.287 216.853 124.356 215.718 125.016Z" fill="#5CC3C9" stroke="#1A1B1D" style="fill:#5CC3C9;fill:color(display-p3 0.3609 0.7635 0.7875);fill-opacity:1;stroke:#1A1B1D;stroke:color(display-p3 0.1020 0.1059 0.1137);stroke-opacity:1;" stroke-linejoin="round"/>
<path d="M462.426 131.052C460.124 140.765 452.584 149.57 440.624 156.513C410.503 174.023 361.341 174.023 331.018 156.513L194.355 77.6338C164.041 60.1335 163.867 31.6546 193.997 14.1452C224.128 -3.36419 273.28 -3.35502 303.594 14.1452L317.205 21.9965C356.911 7.0186 409.531 10.146 443.449 29.7283C460.738 39.7074 471.213 52.9428 472.974 67.0035C474.652 80.4772 468.25 93.8502 454.923 104.792C461.894 112.864 464.545 122.137 462.426 131.052ZM336.191 153.514C363.643 169.354 408.155 169.354 435.424 153.514C446.247 147.222 453.071 139.252 455.153 130.465C457.17 121.962 454.419 113.139 447.43 105.608L446.329 104.416L447.714 103.334C460.913 93.0061 467.287 80.2115 465.682 67.2973C464.077 54.3831 454.327 41.9915 438.313 32.7369C406.211 14.1819 355.948 11.5589 318.893 26.4818L316.38 27.4903L298.458 17.1445C271.015 1.29522 226.494 1.30439 199.235 17.1445C171.975 32.9846 172.104 58.7763 199.555 74.6255L336.219 153.505" fill="white" style="fill:white;fill-opacity:1;"/>
<path d="M336.191 153.514C363.643 169.354 408.155 169.354 435.424 153.514C446.247 147.222 453.071 139.252 455.153 130.465C457.17 121.962 454.419 113.139 447.43 105.608L446.329 104.416L447.714 103.334C460.913 93.0061 467.287 80.2115 465.682 67.2973C464.077 54.3831 454.327 41.9915 438.313 32.7369C406.211 14.1819 355.948 11.5589 318.893 26.4818L316.38 27.4903L298.458 17.1445C271.015 1.29522 226.494 1.30439 199.235 17.1445C171.975 32.9846 172.104 58.7763 199.555 74.6255L336.219 153.505M462.426 131.052C460.124 140.765 452.584 149.57 440.624 156.513C410.503 174.023 361.341 174.023 331.018 156.513L194.355 77.6338C164.041 60.1335 163.867 31.6546 193.997 14.1452C224.128 -3.36419 273.28 -3.35502 303.594 14.1452L317.205 21.9965C356.911 7.0186 409.531 10.146 443.449 29.7283C460.738 39.7074 471.213 52.9428 472.974 67.0035C474.652 80.4772 468.25 93.8502 454.923 104.792C461.894 112.864 464.545 122.137 462.426 131.052Z" stroke="#1A1B1D" style="stroke:#1A1B1D;stroke:color(display-p3 0.1020 0.1059 0.1137);stroke-opacity:1;" stroke-linejoin="round"/>
<path opacity="0.2" d="M238.796 225.995C251.793 218.492 272.864 218.492 285.86 225.995C298.857 233.498 298.857 245.662 285.86 253.165C272.864 260.668 251.793 260.668 238.796 253.165C225.8 245.662 225.8 233.498 238.796 225.995Z" fill="#4C99A4" style="fill:#4C99A4;fill:color(display-p3 0.2980 0.6000 0.6431);fill-opacity:1;"/>
<path d="M238.796 217.938C251.793 210.435 272.864 210.435 285.86 217.938C298.857 225.441 298.857 237.605 285.86 245.108C272.864 252.611 251.793 252.611 238.796 245.108C225.8 237.605 225.8 225.441 238.796 217.938Z" fill="#5CC3C9" stroke="white" style="fill:#5CC3C9;fill:color(display-p3 0.3609 0.7635 0.7875);fill-opacity:1;stroke:white;stroke-opacity:1;" stroke-linejoin="round"/>
<path d="M237.859 223.911L237.859 229.195C237.859 232.815 240.231 236.464 244.916 239.215C254.374 244.804 269.773 244.804 279.316 239.215C284.145 236.435 286.516 232.728 286.516 229.05L286.739 223.905C286.739 227.583 284.116 231.122 279.316 233.931C269.773 239.52 254.374 239.52 244.917 233.931C240.231 231.151 237.859 227.531 237.859 223.911Z" fill="#8FE3E8" stroke="#1A1B1D" style="fill:#8FE3E8;fill:color(display-p3 0.5608 0.8902 0.9098);fill-opacity:1;stroke:#1A1B1D;stroke:color(display-p3 0.1020 0.1059 0.1137);stroke-opacity:1;" stroke-miterlimit="10" stroke-linejoin="round"/>
<path d="M237.906 224.087C237.884 216.273 248.8 209.907 262.288 209.869C275.776 209.831 286.728 216.134 286.75 223.948C286.772 231.762 275.856 238.127 262.368 238.165C248.88 238.204 237.928 231.9 237.906 224.087Z" fill="white" stroke="#1A1B1D" style="fill:white;fill-opacity:1;stroke:#1A1B1D;stroke:color(display-p3 0.1020 0.1059 0.1137);stroke-opacity:1;"/>
<path d="M244.796 217.499L244.796 220.813C244.796 223.407 246.495 226.022 249.853 227.993C256.63 231.998 267.665 231.998 274.504 227.993C277.964 226.001 279.663 223.345 279.663 220.709L279.823 217.495C279.823 220.13 277.944 222.666 274.504 224.679C267.665 228.685 256.63 228.685 249.853 224.679C246.495 222.687 244.796 220.093 244.796 217.499Z" fill="#8FE3E8" stroke="#1A1B1D" style="fill:#8FE3E8;fill:color(display-p3 0.5608 0.8902 0.9098);fill-opacity:1;stroke:#1A1B1D;stroke:color(display-p3 0.1020 0.1059 0.1137);stroke-opacity:1;" stroke-miterlimit="10" stroke-linejoin="round"/>
<path d="M244.818 217.622C244.802 212.023 252.624 207.461 262.29 207.434C271.955 207.407 279.804 211.924 279.82 217.523C279.836 223.123 272.013 227.684 262.347 227.711C252.682 227.739 244.833 223.222 244.818 217.622Z" fill="white" stroke="#1A1B1D" style="fill:white;fill-opacity:1;stroke:#1A1B1D;stroke:color(display-p3 0.1020 0.1059 0.1137);stroke-opacity:1;"/>
<path d="M258.352 217.583C258.348 216.313 260.123 215.278 262.316 215.271C264.51 215.265 266.291 216.29 266.294 217.561C266.298 218.831 264.523 219.866 262.33 219.873C260.136 219.879 258.355 218.854 258.352 217.583Z" fill="#0A6191" stroke="#0A6191" style="fill:#0A6191;fill:color(display-p3 0.0401 0.3786 0.5667);fill-opacity:1;stroke:#0A6191;stroke:color(display-p3 0.0401 0.3786 0.5667);stroke-opacity:1;" stroke-miterlimit="10" stroke-linejoin="round"/>
<mask id="mask0_8_7233" style="mask-type:alpha" maskUnits="userSpaceOnUse" x="257" y="183" width="10" height="38">
<path d="M262.335 219.869C260.142 219.876 258.361 218.851 258.358 217.58C258.356 217.055 258.659 216.57 259.169 216.181L259.169 183.76L265.511 183.76L265.511 216.186C266.005 216.568 266.299 217.042 266.3 217.558C266.304 218.828 264.529 219.863 262.335 219.869Z" fill="#0056B3" stroke="#0056B3" style="fill:#0056B3;fill:color(display-p3 0.0000 0.3373 0.7020);fill-opacity:1;stroke:#0056B3;stroke:color(display-p3 0.0000 0.3373 0.7020);stroke-opacity:1;" stroke-miterlimit="10" stroke-linejoin="round"/>
</mask>
<g mask="url(#mask0_8_7233)">
<path d="M264.512 184.052L264.407 219.399C264.407 219.713 264.198 220.026 263.78 220.262C262.943 220.732 261.61 220.732 260.774 220.262C260.356 220.026 260.147 219.713 260.147 219.399L260.251 184.052C260.251 184.366 260.46 184.68 260.879 184.915C261.715 185.385 263.048 185.385 263.884 184.915C264.303 184.68 264.512 184.366 264.512 184.052Z" fill="white" stroke="#1A1B1D" style="fill:white;fill-opacity:1;stroke:#1A1B1D;stroke:color(display-p3 0.1020 0.1059 0.1137);stroke-opacity:1;" stroke-miterlimit="10" stroke-linejoin="round"/>
<path opacity="0.4" d="M264.512 155.13L264.407 190.477C264.407 190.791 264.198 191.104 263.78 191.34C262.943 191.81 261.61 191.81 260.774 191.34C260.356 191.104 260.147 190.791 260.147 190.477L260.251 155.13C260.251 155.444 260.46 155.758 260.879 155.993C261.715 156.463 263.048 156.463 263.884 155.993C264.303 155.758 264.512 155.444 264.512 155.13Z" fill="#4C99A4" style="fill:#4C99A4;fill:color(display-p3 0.2980 0.6000 0.6431);fill-opacity:1;"/>
<path d="M264.512 184.052L264.407 219.399C264.407 219.713 264.198 220.026 263.78 220.262C262.943 220.732 261.61 220.732 260.774 220.262C260.356 220.026 260.147 219.713 260.147 219.399L260.251 184.052C260.251 184.366 260.46 184.68 260.879 184.915C261.715 185.385 263.048 185.385 263.884 184.915C264.303 184.68 264.512 184.366 264.512 184.052Z" stroke="#1A1B1D" style="stroke:#1A1B1D;stroke:color(display-p3 0.1020 0.1059 0.1137);stroke-opacity:1;" stroke-miterlimit="10" stroke-linejoin="round"/>
</g>
<path d="M260.19 215.635C259.083 216.047 258.349 216.766 258.352 217.583C258.355 218.854 260.136 219.879 262.33 219.873C264.523 219.866 266.298 218.831 266.294 217.561C266.292 216.752 265.569 216.042 264.478 215.635" stroke="#1A1B1D" style="stroke:#1A1B1D;stroke:color(display-p3 0.1020 0.1059 0.1137);stroke-opacity:1;" stroke-miterlimit="10" stroke-linejoin="round"/>
<circle cx="262.331" cy="174.653" r="12.1511" transform="rotate(90 262.331 174.653)" fill="#5DB3BF" style="fill:#5DB3BF;fill:color(display-p3 0.3647 0.7020 0.7490);fill-opacity:1;"/>
<path opacity="0.5" fill-rule="evenodd" clip-rule="evenodd" d="M250.18 174.649C250.18 181.36 255.62 186.8 262.331 186.8C269.042 186.8 274.482 181.36 274.482 174.649C274.482 173.596 274.348 172.574 274.096 171.599C272.743 176.834 267.989 180.701 262.331 180.701C256.673 180.701 251.919 176.834 250.566 171.599C250.314 172.574 250.18 173.596 250.18 174.649Z" fill="#30839D" style="fill:#30839D;fill:color(display-p3 0.1882 0.5137 0.6157);fill-opacity:1;"/>
<circle cx="262.331" cy="174.653" r="11.6511" transform="rotate(90 262.331 174.653)" stroke="#1A1B1D" style="stroke:#1A1B1D;stroke:color(display-p3 0.1020 0.1059 0.1137);stroke-opacity:1;"/>
<path opacity="0.2" d="M92.7967 146.521C114.968 133.721 150.916 133.721 173.088 146.521C195.26 159.321 195.26 180.073 173.088 192.873C150.916 205.673 114.968 205.673 92.7967 192.873C70.6249 180.073 70.6249 159.321 92.7967 146.521Z" fill="#30839D" style="fill:#30839D;fill:color(display-p3 0.1882 0.5137 0.6157);fill-opacity:1;"/>
<path d="M92.7952 132.78C114.967 119.98 150.915 119.98 173.086 132.78C195.258 145.58 195.258 166.332 173.086 179.132C150.915 191.932 114.967 191.932 92.7952 179.132C70.6234 166.332 70.6234 145.58 92.7952 132.78Z" fill="white" stroke="#1A1B1D" style="fill:white;fill-opacity:1;stroke:#1A1B1D;stroke:color(display-p3 0.1020 0.1059 0.1137);stroke-opacity:1;" stroke-linejoin="round"/>
<path d="M180.107 155.551L183.281 151.902L176.222 152.14L180.107 155.551ZM133.039 128.378V128.732V128.378ZM85.7907 151.842C85.7454 152.035 85.9804 152.213 86.3155 152.24C86.6507 152.266 86.9591 152.13 87.0045 151.937L85.7907 151.842ZM165.888 136.587C173.577 141.025 178.006 146.631 179.179 152.416L180.395 152.334C179.192 146.397 174.645 140.642 166.755 136.087L165.888 136.587ZM100.19 136.587C109.261 131.35 121.149 128.732 133.039 128.732V128.024C120.838 128.024 108.634 130.712 99.3239 136.087L100.19 136.587ZM133.039 128.732C144.929 128.732 156.817 131.35 165.888 136.587L166.755 136.087C157.444 130.712 145.241 128.024 133.039 128.024V128.732ZM87.0045 151.937C88.3196 146.322 92.7142 140.902 100.19 136.587L99.3239 136.087C91.6521 140.516 87.1405 146.079 85.7907 151.842L87.0045 151.937Z" fill="#5CC3C9" style="fill:#5CC3C9;fill:color(display-p3 0.3609 0.7635 0.7875);fill-opacity:1;"/>
<path d="M85.9709 154.737L82.7976 158.385L89.8568 158.147L85.9709 154.737ZM133.039 181.909V181.556V181.909ZM180.288 158.445C180.333 158.252 180.098 158.074 179.763 158.048C179.428 158.021 179.119 158.157 179.074 158.351L180.288 158.445ZM100.19 173.7C92.5016 169.262 88.0721 163.656 86.8997 157.871L85.6832 157.953C86.8865 163.89 91.4338 169.645 99.3239 174.2L100.19 173.7ZM165.888 173.7C156.817 178.937 144.929 181.556 133.039 181.556V182.263C145.241 182.263 157.444 179.575 166.755 174.2L165.888 173.7ZM133.039 181.556C121.149 181.556 109.261 178.937 100.19 173.7L99.3239 174.2C108.634 179.575 120.838 182.263 133.039 182.263V181.556ZM179.074 158.351C177.759 163.965 173.364 169.385 165.888 173.7L166.755 174.2C174.426 169.771 178.938 164.208 180.288 158.445L179.074 158.351Z" fill="#FFC450" style="fill:#FFC450;fill:color(display-p3 1.0000 0.7686 0.3137);fill-opacity:1;"/>
<path opacity="0.2" d="M155.38 164.329C156.503 164.977 156.509 166.028 155.38 166.675L150.159 169.731C149.532 170.05 148.838 170.216 148.135 170.216C147.431 170.216 146.737 170.05 146.11 169.731L144.463 168.78C143.667 168.322 142.458 168.222 141.413 168.465C140.367 168.709 139.629 169.284 139.631 169.94V171.355C139.631 172.271 138.357 173.016 136.767 173.016H129.132C128.426 173.03 127.727 172.862 127.104 172.529C126.583 172.228 126.262 171.813 126.245 171.355V169.811C126.245 169.402 125.959 169.026 125.463 168.749C125.176 168.587 124.867 168.467 124.547 168.391C123.53 168.141 122.333 168.236 121.557 168.677L119.764 169.719C119.137 170.039 118.443 170.205 117.739 170.205C117.035 170.205 116.342 170.039 115.714 169.719L110.43 166.669C109.31 166.022 109.302 164.971 110.43 164.324L112.335 163.215C113.085 162.78 113.246 162.113 112.836 161.54C112.672 161.322 112.464 161.142 112.226 161.01C111.675 160.71 111.055 160.558 110.427 160.569H107.772C107.066 160.583 106.368 160.415 105.745 160.082C105.226 159.796 104.903 159.369 104.886 158.911L104.863 154.486C104.863 153.569 106.134 152.828 107.727 152.828H110.387C111.456 152.828 112.392 152.43 112.784 151.854C113.177 151.278 113.019 150.617 112.263 150.181L110.347 149.073C109.225 148.426 109.219 147.375 110.333 146.727L115.583 143.677C116.21 143.358 116.904 143.192 117.607 143.192C118.311 143.192 119.005 143.358 119.632 143.677L121.437 144.723C122.218 145.172 123.416 145.267 124.429 145.009C125.443 144.751 126.116 144.219 126.113 143.591V142.142C126.113 141.226 127.385 140.484 128.977 140.484H136.616C137.322 140.473 138.019 140.64 138.643 140.971C139.165 141.257 139.488 141.687 139.503 142.145V143.465C139.503 143.886 139.812 144.273 140.31 144.562C140.621 144.735 140.954 144.863 141.301 144.94C142.341 145.184 143.558 145.084 144.348 144.625L145.984 143.674C146.611 143.355 147.305 143.189 148.009 143.189C148.712 143.189 149.406 143.355 150.033 143.674L155.317 146.725C156.44 147.372 156.443 148.423 155.317 149.07L153.794 149.955C152.978 150.431 152.809 151.161 153.264 151.782C153.441 152.017 153.666 152.212 153.923 152.355C154.517 152.678 155.185 152.842 155.862 152.831H158.153C158.859 152.817 159.557 152.984 160.18 153.315C160.699 153.601 161.022 154.031 161.025 154.489L161.051 158.911C161.051 159.827 159.777 160.572 158.187 160.572H155.896C154.75 160.572 153.748 161.001 153.318 161.614C152.889 162.227 153.032 162.966 153.871 163.442L155.38 164.329ZM123.676 162.159C128.894 165.171 137.326 165.171 142.51 162.159C147.693 159.146 147.665 154.263 142.447 151.25C137.229 148.237 128.8 148.237 123.613 151.25C118.426 154.263 118.458 159.146 123.676 162.159Z" fill="#30839D" style="fill:#30839D;fill:color(display-p3 0.1882 0.5137 0.6157);fill-opacity:1;"/>
<path d="M126.103 130.754L126.077 140.093L126.066 138.644L126.092 129.304L126.103 130.754Z" fill="#6FA646" stroke="#1A1B1D" style="fill:#6FA646;fill:color(display-p3 0.4369 0.6500 0.2735);fill-opacity:1;stroke:#1A1B1D;stroke:color(display-p3 0.1020 0.1059 0.1137);stroke-opacity:1;" stroke-linejoin="round"/>
<path fill-rule="evenodd" clip-rule="evenodd" d="M156.128 135.07L156.102 144.404C156.102 144.825 155.816 145.246 155.269 145.569L155.269 145.562L155.268 145.567L153.747 146.451L153.747 146.453C153.528 146.553 153.341 146.71 153.204 146.908C153.067 147.105 152.985 147.336 152.968 147.575L152.996 138.236C152.996 137.821 153.254 137.417 153.772 137.113L153.772 137.114L155.294 136.227L155.295 136.233L155.295 136.23C155.848 135.911 156.126 135.492 156.128 135.07Z" fill="#6FA646" style="fill:#6FA646;fill:color(display-p3 0.4369 0.6500 0.2735);fill-opacity:1;"/>
<path d="M156.102 144.404L155.602 144.402V144.404H156.102ZM156.128 135.07L156.628 135.071C156.629 134.795 156.406 134.571 156.13 134.57C155.854 134.569 155.63 134.791 155.628 135.067L156.128 135.07ZM155.269 145.569L154.769 145.568C154.768 145.748 154.865 145.914 155.021 146.003C155.177 146.093 155.369 146.091 155.524 146L155.269 145.569ZM155.269 145.562L155.769 145.563C155.77 145.299 155.565 145.08 155.302 145.063C155.039 145.045 154.807 145.235 154.773 145.497L155.269 145.562ZM155.268 145.567L155.519 145.999C155.654 145.921 155.744 145.785 155.764 145.631L155.268 145.567ZM153.747 146.451L153.495 146.018C153.342 146.107 153.247 146.272 153.247 146.449L153.747 146.451ZM153.747 146.453L153.956 146.907C154.133 146.825 154.246 146.649 154.247 146.454L153.747 146.453ZM153.204 146.908L152.793 146.623H152.793L153.204 146.908ZM152.968 147.575L152.468 147.574C152.467 147.843 152.679 148.065 152.948 148.075C153.217 148.085 153.446 147.881 153.466 147.612L152.968 147.575ZM152.996 138.236L153.496 138.237V138.236H152.996ZM153.772 137.113L154.272 137.115C154.273 136.935 154.177 136.769 154.022 136.68C153.866 136.59 153.674 136.591 153.52 136.682L153.772 137.113ZM153.772 137.114L153.272 137.113C153.272 137.292 153.367 137.458 153.523 137.547C153.678 137.637 153.869 137.636 154.024 137.546L153.772 137.114ZM155.294 136.227L155.79 136.166C155.77 135.999 155.667 135.854 155.516 135.779C155.366 135.705 155.188 135.711 155.042 135.795L155.294 136.227ZM155.295 136.233L154.798 136.294C154.831 136.556 155.061 136.747 155.325 136.732C155.588 136.716 155.794 136.498 155.795 136.234L155.295 136.233ZM155.295 136.23L155.045 135.797C154.89 135.886 154.795 136.05 154.795 136.229L155.295 136.23ZM156.602 144.405L156.628 135.071L155.628 135.068L155.602 144.402L156.602 144.405ZM155.524 146C156.154 145.627 156.602 145.069 156.602 144.404H155.602C155.602 144.58 155.478 144.865 155.014 145.139L155.524 146ZM154.769 145.56L154.769 145.568L155.769 145.571L155.769 145.563L154.769 145.56ZM155.764 145.631L155.765 145.627L154.773 145.497L154.773 145.502L155.764 145.631ZM153.998 146.883L155.519 145.999L155.017 145.134L153.495 146.018L153.998 146.883ZM153.247 146.449L153.247 146.451L154.247 146.454L154.247 146.452L153.247 146.449ZM153.537 145.999C153.238 146.136 152.981 146.352 152.793 146.623L153.615 147.193C153.701 147.069 153.819 146.97 153.956 146.907L153.537 145.999ZM152.793 146.623C152.605 146.894 152.493 147.21 152.469 147.538L153.466 147.612C153.477 147.462 153.529 147.317 153.615 147.193L152.793 146.623ZM153.468 147.577L153.496 138.237L152.496 138.234L152.468 147.574L153.468 147.577ZM153.496 138.236C153.496 138.052 153.607 137.789 154.025 137.545L153.52 136.682C152.901 137.044 152.496 137.589 152.496 138.236H153.496ZM153.272 137.112L153.272 137.113L154.272 137.115L154.272 137.115L153.272 137.112ZM155.042 135.795L153.521 136.682L154.024 137.546L155.546 136.659L155.042 135.795ZM155.791 136.171L155.79 136.166L154.798 136.288L154.798 136.294L155.791 136.171ZM154.795 136.229L154.795 136.231L155.795 136.234L155.795 136.231L154.795 136.229ZM155.628 135.067C155.627 135.25 155.506 135.53 155.045 135.797L155.545 136.663C156.19 136.291 156.624 135.734 156.628 135.072L155.628 135.067Z" fill="#1A1B1D" style="fill:#1A1B1D;fill:color(display-p3 0.1020 0.1059 0.1137);fill-opacity:1;"/>
<path fill-rule="evenodd" clip-rule="evenodd" d="M109.464 144.388L109.49 135.048C109.49 135.475 109.776 135.907 110.349 136.228L110.349 136.241L112.256 137.34L112.256 137.342C112.459 137.436 112.633 137.582 112.761 137.766C112.891 137.952 112.968 138.169 112.984 138.395L112.956 147.732C112.956 147.344 112.717 146.965 112.227 146.679L112.227 146.679L110.311 145.571L110.31 145.562C109.741 145.236 109.464 144.812 109.464 144.388Z" fill="#6FA646" style="fill:#6FA646;fill:color(display-p3 0.4369 0.6500 0.2735);fill-opacity:1;"/>
<path d="M109.49 135.048H109.99C109.99 134.772 109.766 134.549 109.49 134.548C109.214 134.548 108.99 134.771 108.99 135.047L109.49 135.048ZM109.464 144.388L108.964 144.386V144.388H109.464ZM110.349 136.228L110.849 136.23C110.849 136.048 110.751 135.881 110.593 135.792L110.349 136.228ZM110.349 136.241L109.849 136.24C109.848 136.419 109.944 136.585 110.099 136.675L110.349 136.241ZM112.256 137.34L112.756 137.342C112.756 137.162 112.661 136.996 112.505 136.907L112.256 137.34ZM112.256 137.342L111.756 137.34C111.755 137.536 111.868 137.714 112.045 137.796L112.256 137.342ZM112.761 137.766L113.171 137.48H113.171L112.761 137.766ZM112.984 138.395L113.484 138.397C113.484 138.384 113.484 138.371 113.483 138.359L112.984 138.395ZM112.956 147.732H112.456C112.456 148.008 112.679 148.232 112.955 148.232C113.231 148.232 113.455 148.009 113.456 147.733L112.956 147.732ZM112.227 146.679L112.479 146.247C112.324 146.157 112.134 146.157 111.979 146.245C111.823 146.334 111.728 146.499 111.727 146.678L112.227 146.679ZM112.227 146.679L111.977 147.112C112.131 147.202 112.321 147.202 112.476 147.113C112.631 147.024 112.726 146.86 112.727 146.681L112.227 146.679ZM110.311 145.571L109.815 145.634C109.835 145.789 109.926 145.926 110.061 146.004L110.311 145.571ZM110.31 145.562L110.806 145.499C110.786 145.343 110.694 145.206 110.558 145.128L110.31 145.562ZM108.99 135.047L108.964 144.386L109.964 144.389L109.99 135.05L108.99 135.047ZM110.593 135.792C110.115 135.524 109.99 135.232 109.99 135.048H108.99C108.99 135.719 109.437 136.291 110.104 136.665L110.593 135.792ZM110.849 136.243L110.849 136.23L109.849 136.227L109.849 136.24L110.849 136.243ZM112.505 136.907L110.598 135.808L110.099 136.675L112.006 137.773L112.505 136.907ZM112.756 137.343L112.756 137.342L111.756 137.339L111.756 137.34L112.756 137.343ZM112.045 137.796C112.168 137.852 112.274 137.941 112.351 138.052L113.171 137.48C112.993 137.224 112.749 137.02 112.466 136.888L112.045 137.796ZM112.351 138.052C112.429 138.164 112.476 138.295 112.486 138.432L113.483 138.359C113.46 138.043 113.352 137.74 113.171 137.48L112.351 138.052ZM112.484 138.394L112.456 147.73L113.456 147.733L113.484 138.397L112.484 138.394ZM113.456 147.732C113.456 147.114 113.072 146.593 112.479 146.247L111.975 147.111C112.363 147.338 112.456 147.574 112.456 147.732H113.456ZM112.727 146.681L112.727 146.681L111.727 146.678L111.727 146.678L112.727 146.681ZM110.061 146.004L111.977 147.112L112.477 146.247L110.561 145.138L110.061 146.004ZM109.814 145.625L109.815 145.634L110.807 145.508L110.806 145.499L109.814 145.625ZM108.964 144.388C108.964 145.053 109.4 145.617 110.061 145.996L110.558 145.128C110.082 144.855 109.964 144.571 109.964 144.388H108.964Z" fill="#1A1B1D" style="fill:#1A1B1D;fill:color(display-p3 0.1020 0.1059 0.1137);fill-opacity:1;"/>
<path d="M146.375 143.894L146.349 153.231C146.349 151.246 145.043 149.256 142.417 147.741C137.201 144.728 128.77 144.728 123.583 147.741C121.005 149.236 119.719 151.195 119.714 153.157L119.74 143.817C119.74 141.855 121.034 139.899 123.609 138.401C128.795 135.388 137.227 135.388 142.442 138.401C145.069 139.916 146.38 141.907 146.375 143.894Z" fill="#6FA646" stroke="#1A1B1D" style="fill:#6FA646;fill:color(display-p3 0.4369 0.6500 0.2735);fill-opacity:1;stroke:#1A1B1D;stroke:color(display-p3 0.1020 0.1059 0.1137);stroke-opacity:1;" stroke-linejoin="round"/>
<path d="M104.884 146.067L104.858 155.407L104.836 150.982L104.861 141.642L104.884 146.067Z" fill="#6FA646" stroke="#1A1B1D" style="fill:#6FA646;fill:color(display-p3 0.4369 0.6500 0.2735);fill-opacity:1;stroke:#1A1B1D;stroke:color(display-p3 0.1020 0.1059 0.1137);stroke-opacity:1;" stroke-linejoin="round"/>
<path d="M107.772 147.727L107.773 147.716C107.066 147.73 106.368 147.562 105.745 147.229C105.215 146.917 104.886 146.516 104.886 146.057L104.86 155.397C104.874 155.852 105.198 156.268 105.719 156.568C106.339 156.9 107.033 157.067 107.735 157.055L107.735 157.064H110.393C111.021 157.053 111.642 157.204 112.195 157.502C112.434 157.634 112.642 157.815 112.805 158.035C112.943 158.218 113.021 158.441 113.025 158.671L113.051 149.331C113.048 149.101 112.97 148.878 112.831 148.695C112.667 148.477 112.459 148.297 112.221 148.165C111.669 147.866 111.05 147.714 110.422 147.724L107.772 147.727Z" fill="#6FA646" stroke="#1A1B1D" style="fill:#6FA646;fill:color(display-p3 0.4369 0.6500 0.2735);fill-opacity:1;stroke:#1A1B1D;stroke:color(display-p3 0.1020 0.1059 0.1137);stroke-opacity:1;" stroke-linejoin="round"/>
<path d="M161.02 146.064L161.02 146.077C161.02 146.072 161.02 146.068 161.02 146.064Z" fill="#6FA646" style="fill:#6FA646;fill:color(display-p3 0.4369 0.6500 0.2735);fill-opacity:1;"/>
<path d="M158.135 157.065C159.724 157.062 160.992 156.319 160.992 155.404L161.02 146.077C161.012 146.987 159.739 147.717 158.176 147.717L158.161 147.745L158.161 147.725H155.881L155.881 147.803L155.864 147.726C154.719 147.726 153.728 148.155 153.287 148.768C153.137 148.967 153.054 149.207 153.049 149.456L153.021 158.792C153.028 158.545 153.111 158.306 153.258 158.108C153.691 157.495 154.69 157.065 155.836 157.065L155.853 156.993L155.853 157.065L158.135 157.065Z" fill="#6FA646" style="fill:#6FA646;fill:color(display-p3 0.4369 0.6500 0.2735);fill-opacity:1;"/>
<path d="M161.02 146.077L161.02 146.064C161.02 146.068 161.02 146.072 161.02 146.077ZM161.02 146.077L160.992 155.404C160.992 156.319 159.724 157.062 158.135 157.065L155.853 157.065L155.853 156.993L155.836 157.065C154.69 157.065 153.691 157.495 153.258 158.108C153.111 158.306 153.028 158.545 153.021 158.792L153.049 149.456C153.054 149.207 153.137 148.967 153.287 148.768C153.728 148.155 154.719 147.726 155.864 147.726L155.881 147.803L155.881 147.725H158.161L158.161 147.745L158.176 147.717C159.739 147.717 161.012 146.987 161.02 146.077Z" stroke="#1A1B1D" style="stroke:#1A1B1D;stroke:color(display-p3 0.1020 0.1059 0.1137);stroke-opacity:1;" stroke-linejoin="round"/>
<path d="M156.202 161.999L156.228 152.668C156.225 153.087 155.947 153.506 155.397 153.825L155.397 153.829L150.148 156.876L150.122 166.215L155.372 163.165C155.915 162.841 156.202 162.42 156.202 161.999Z" fill="#6FA646" stroke="#1A1B1D" style="fill:#6FA646;fill:color(display-p3 0.4369 0.6500 0.2735);fill-opacity:1;stroke:#1A1B1D;stroke:color(display-p3 0.1020 0.1059 0.1137);stroke-opacity:1;" stroke-linejoin="round"/>
<path d="M126.225 166.292L126.251 156.956C126.248 156.546 125.95 156.171 125.469 155.896C125.182 155.735 124.873 155.615 124.553 155.538C123.536 155.278 122.339 155.372 121.563 155.825L121.563 155.833L119.77 156.876L119.741 166.215L121.537 165.173L121.542 165.158C122.318 164.72 123.512 164.626 124.524 164.875C124.845 164.95 125.153 165.069 125.44 165.23C125.939 165.511 126.225 165.886 126.225 166.292Z" fill="#6FA646" stroke="#1A1B1D" style="fill:#6FA646;fill:color(display-p3 0.4369 0.6500 0.2735);fill-opacity:1;stroke:#1A1B1D;stroke:color(display-p3 0.1020 0.1059 0.1137);stroke-opacity:1;" stroke-linejoin="round"/>
<path d="M144.447 155.924C143.65 155.465 142.445 155.36 141.396 155.609C140.348 155.858 139.615 156.428 139.615 157.084L139.589 166.403C139.589 166.41 139.589 166.416 139.589 166.423L139.589 166.403C139.599 165.753 140.336 165.203 141.371 164.948C142.416 164.69 143.625 164.802 144.421 165.263L146.068 166.214L146.082 166.22C146.709 166.539 147.403 166.706 148.107 166.706C148.811 166.706 149.282 166.801 150.132 166.22L150.157 156.88C149.53 157.2 148.837 157.367 148.133 157.367C147.429 157.368 146.735 157.202 146.108 156.883L146.093 156.944L146.093 156.874L144.447 155.924Z" fill="#6FA646" style="fill:#6FA646;fill:color(display-p3 0.4369 0.6500 0.2735);fill-opacity:1;"/>
<path d="M139.589 166.403L139.615 157.084C139.615 156.428 140.348 155.858 141.396 155.609C142.445 155.36 143.65 155.465 144.447 155.924L146.093 156.874L146.093 156.944L146.108 156.883C146.735 157.202 147.429 157.368 148.133 157.367C148.837 157.367 149.53 157.2 150.157 156.88L150.132 166.22C149.282 166.801 148.811 166.706 148.107 166.706C147.403 166.706 146.709 166.539 146.082 166.22L146.068 166.214L144.421 165.263C143.625 164.802 142.416 164.69 141.371 164.948C140.336 165.203 139.599 165.753 139.589 166.403ZM139.589 166.403C139.589 166.41 139.589 166.416 139.589 166.423L139.589 166.403Z" stroke="#1A1B1D" style="stroke:#1A1B1D;stroke:color(display-p3 0.1020 0.1059 0.1137);stroke-opacity:1;" stroke-linejoin="round"/>
<path d="M109.562 161.983L109.588 152.644C109.588 153.073 109.874 153.503 110.433 153.827L115.717 156.877L115.717 156.882C116.344 157.201 117.038 157.368 117.742 157.368C118.446 157.368 119.139 157.202 119.767 156.882L119.741 166.219C119.113 166.54 118.419 166.707 117.715 166.707C117.01 166.707 116.316 166.54 115.688 166.219L115.688 166.216L110.407 163.166L110.407 163.163C109.843 162.839 109.559 162.41 109.562 161.983Z" fill="#6FA646" stroke="#1A1B1D" style="fill:#6FA646;fill:color(display-p3 0.4369 0.6500 0.2735);fill-opacity:1;stroke:#1A1B1D;stroke:color(display-p3 0.1020 0.1059 0.1137);stroke-opacity:1;" stroke-linejoin="round"/>
<path d="M126.251 158.505L126.226 167.841L126.217 166.298L126.243 156.958L126.251 158.505Z" fill="#6FA646" stroke="#1A1B1D" style="fill:#6FA646;fill:color(display-p3 0.4369 0.6500 0.2735);fill-opacity:1;stroke:#1A1B1D;stroke:color(display-p3 0.1020 0.1059 0.1137);stroke-opacity:1;" stroke-linejoin="round"/>
<path d="M129.129 160.16C128.427 160.172 127.734 160.004 127.116 159.673C126.58 159.358 126.256 158.957 126.256 158.498L126.231 167.838C126.233 168.296 126.554 168.711 127.075 169.012C127.699 169.343 128.397 169.51 129.103 169.496L136.741 169.499C138.327 169.494 139.597 168.753 139.597 167.838L139.623 158.51C139.615 159.421 138.341 160.16 136.759 160.16L129.129 160.16Z" fill="#6FA646" stroke="#1A1B1D" style="fill:#6FA646;fill:color(display-p3 0.4369 0.6500 0.2735);fill-opacity:1;stroke:#1A1B1D;stroke:color(display-p3 0.1020 0.1059 0.1137);stroke-opacity:1;" stroke-linejoin="round"/>
<path d="M155.38 151.481C156.503 152.128 156.509 153.179 155.38 153.827L150.159 156.883C149.532 157.202 148.838 157.368 148.134 157.368C147.431 157.368 146.737 157.202 146.109 156.883L144.463 155.932C143.666 155.473 142.458 155.373 141.413 155.617C140.367 155.86 139.628 156.436 139.631 157.092V158.506C139.631 159.423 138.357 160.168 136.767 160.168H129.132C128.425 160.182 127.727 160.014 127.104 159.681C126.583 159.38 126.262 158.965 126.245 158.506V156.963C126.245 156.553 125.959 156.178 125.463 155.9C125.176 155.739 124.867 155.619 124.547 155.542C123.53 155.293 122.333 155.388 121.557 155.829L119.764 156.871C119.136 157.19 118.443 157.357 117.739 157.357C117.035 157.357 116.341 157.19 115.714 156.871L110.43 153.821C109.31 153.174 109.302 152.123 110.43 151.475L112.335 150.367C113.085 149.932 113.245 149.264 112.836 148.692C112.672 148.474 112.464 148.293 112.226 148.162C111.674 147.862 111.055 147.71 110.427 147.721H107.772C107.066 147.735 106.368 147.567 105.745 147.234C105.226 146.947 104.903 146.521 104.885 146.062L104.862 141.638C104.862 140.721 106.134 139.979 107.726 139.979H110.387C111.455 139.979 112.392 139.581 112.784 139.006C113.177 138.43 113.019 137.768 112.263 137.333L110.347 136.225C109.224 135.577 109.219 134.526 110.333 133.879L115.582 130.829C116.21 130.51 116.903 130.343 117.607 130.343C118.311 130.343 119.005 130.51 119.632 130.829L121.436 131.874C122.218 132.324 123.415 132.418 124.429 132.161C125.443 131.903 126.116 131.37 126.113 130.743V129.294C126.113 128.377 127.385 127.636 128.977 127.636H136.615C137.322 127.624 138.019 127.792 138.643 128.122C139.164 128.409 139.488 128.838 139.502 129.297V130.617C139.502 131.038 139.812 131.425 140.31 131.714C140.62 131.887 140.954 132.014 141.301 132.092C142.34 132.335 143.558 132.235 144.348 131.777L145.983 130.826C146.611 130.507 147.305 130.341 148.008 130.341C148.712 130.341 149.406 130.507 150.033 130.826L155.317 133.876C156.44 134.523 156.443 135.575 155.317 136.222L153.794 137.107C152.977 137.582 152.808 138.313 153.264 138.934C153.441 139.169 153.666 139.364 153.922 139.507C154.517 139.83 155.185 139.993 155.861 139.982H158.153C158.859 139.969 159.556 140.135 160.18 140.466C160.699 140.753 161.022 141.182 161.025 141.64L161.051 146.062C161.051 146.979 159.776 147.724 158.187 147.724H155.896C154.75 147.724 153.748 148.153 153.318 148.766C152.889 149.379 153.032 150.118 153.871 150.593L155.38 151.481ZM123.676 149.31C128.894 152.323 137.326 152.323 142.509 149.31C147.693 146.297 147.665 141.414 142.446 138.401C137.228 135.388 128.8 135.388 123.613 138.401C118.426 141.414 118.458 146.297 123.676 149.31Z" fill="#BCF194" stroke="#1A1B1D" style="fill:#BCF194;fill:color(display-p3 0.7384 0.9458 0.5793);fill-opacity:1;stroke:#1A1B1D;stroke:color(display-p3 0.1020 0.1059 0.1137);stroke-opacity:1;" stroke-linejoin="round"/>
<rect opacity="0.2" width="140.135" height="88.6005" rx="11" transform="matrix(0.866044 0.499967 -0.866044 0.499967 88.2913 199.596)" fill="#30839D" style="fill:#30839D;fill:color(display-p3 0.1882 0.5137 0.6157);fill-opacity:1;"/>
<rect width="140.203" height="88.6005" rx="11" transform="matrix(0.866044 0.499967 -0.866044 0.499967 88.2596 186.443)" fill="#5CC3C9" stroke="white" style="fill:#5CC3C9;fill:color(display-p3 0.3609 0.7635 0.7875);fill-opacity:1;stroke:white;stroke-opacity:1;" stroke-linejoin="round"/>
<path d="M70.6722 189.595C73.7955 187.792 78.8595 187.792 81.9828 189.595L175.839 243.778C178.962 245.581 178.962 248.505 175.839 250.308L146.031 267.516C142.907 269.319 137.843 269.319 134.72 267.516L40.8642 213.333C37.7409 211.53 37.7409 208.606 40.8642 206.803L70.6722 189.595Z" fill="white" stroke="#1A1B1D" style="fill:white;fill-opacity:1;stroke:#1A1B1D;stroke:color(display-p3 0.1020 0.1059 0.1137);stroke-opacity:1;" stroke-linejoin="round"/>
<path d="M177.533 265.82L146.772 283.578C143.649 285.381 138.585 285.381 135.462 283.578L39.1693 227.989C37.4631 227.004 36.689 225.684 36.8468 224.396L38.538 209.769C38.3946 211.049 39.1698 212.356 40.8637 213.334L134.72 267.517C135.14 267.76 135.596 267.97 136.078 268.147C139.172 269.287 143.328 269.077 146.03 267.517L175.838 250.309C177.331 249.447 178.11 248.329 178.176 247.201L179.779 261.839C180.16 263.246 179.411 264.736 177.533 265.82Z" fill="#8FE3E8" style="fill:#8FE3E8;fill:color(display-p3 0.5608 0.8902 0.9098);fill-opacity:1;"/>
<path d="M146.772 283.578L177.533 265.82C179.411 264.736 180.16 263.246 179.779 261.839L178.176 247.201C178.11 248.329 177.331 249.447 175.838 250.309L146.03 267.517M146.772 283.578C143.649 285.381 138.585 285.381 135.462 283.578M146.772 283.578L146.03 267.517M135.462 283.578L39.1693 227.989C37.4631 227.004 36.689 225.684 36.8468 224.396L38.5402 209.75M135.462 283.578L136.078 268.147M40.8637 206.804C39.4426 207.625 38.668 208.677 38.5402 209.75M146.03 267.517C143.328 269.077 139.172 269.287 136.078 268.147M136.078 268.147C135.596 267.97 135.14 267.76 134.72 267.517L40.8637 213.334C39.1615 212.351 38.387 211.036 38.5402 209.75" stroke="#1A1B1D" style="stroke:#1A1B1D;stroke:color(display-p3 0.1020 0.1059 0.1137);stroke-opacity:1;" stroke-linejoin="round"/>
<path d="M72.1331 213.302C71.7672 213.513 71.3545 213.664 70.8948 213.756C70.4446 213.843 69.9708 213.867 69.4737 213.829C68.9765 213.791 68.4606 213.689 67.9259 213.521C67.4006 213.358 66.8753 213.125 66.35 212.822C65.759 212.481 65.2806 212.129 64.9148 211.766C64.5583 211.409 64.3473 211.048 64.2816 210.686C64.2066 210.317 64.2911 209.949 64.535 209.581C64.7789 209.213 65.201 208.844 65.8014 208.476L61.9179 206.234C60.8579 206.846 60.1356 207.496 59.7509 208.183C59.3757 208.877 59.249 209.594 59.3709 210.336C59.521 211.105 59.9384 211.866 60.6232 212.619C61.3267 213.371 62.1897 214.043 63.2121 214.633C64.2533 215.235 65.3368 215.719 66.4624 216.088C67.5975 216.45 68.7278 216.675 69.8535 216.762C70.9698 216.854 72.0532 216.803 73.1039 216.608C74.1732 216.413 75.1582 216.055 76.0588 215.536C77.1 214.934 77.7802 214.266 78.0991 213.529C78.4181 212.793 78.4744 212.018 78.2681 211.206C78.0992 210.686 77.8366 210.161 77.4802 209.63C77.1237 209.099 76.6922 208.574 76.1857 208.054C75.7073 207.572 75.3086 207.12 74.9897 206.698C74.6802 206.281 74.4691 205.893 74.3566 205.536C74.2346 205.184 74.23 204.862 74.3425 204.569C74.4645 204.282 74.7178 204.028 75.1024 203.806C75.4682 203.595 75.8763 203.44 76.3266 203.343C76.7956 203.245 77.2881 203.21 77.804 203.237C78.3106 203.27 78.8265 203.367 79.3518 203.53C79.8959 203.692 80.4306 203.925 80.9559 204.228C81.5281 204.559 81.9455 204.892 82.2081 205.228C82.4895 205.563 82.6396 205.894 82.6584 206.219C82.6583 206.543 82.5364 206.858 82.2925 207.161C82.0579 207.469 81.7202 207.762 81.2793 208.038L85.1347 210.264C86.054 209.733 86.72 209.143 87.1328 208.493C87.5456 207.843 87.7144 207.172 87.6394 206.479C87.555 205.791 87.222 205.1 86.6405 204.407C86.0683 203.719 85.2475 203.067 84.1781 202.449C83.1463 201.854 82.0535 201.38 80.8997 201.028C79.7553 200.67 78.6109 200.448 77.4664 200.362C76.322 200.275 75.2151 200.329 74.1457 200.524C73.0763 200.719 72.1101 201.065 71.2471 201.564C70.4966 201.997 69.9384 202.476 69.5726 203.001C69.2161 203.532 69.0472 204.106 69.066 204.723C69.0847 205.341 69.3004 206.023 69.7131 206.77C70.1352 207.523 70.759 208.317 71.5845 209.151C72.1192 209.687 72.5131 210.163 72.7664 210.58C73.0384 210.997 73.1932 211.374 73.2307 211.709C73.2494 212.045 73.1603 212.34 72.9633 212.595C72.7757 212.855 72.4989 213.09 72.1331 213.302Z" fill="#0A6191" style="fill:#0A6191;fill:color(display-p3 0.0401 0.3786 0.5667);fill-opacity:1;"/>
<path d="M105.913 219.043L109.135 217.183L92.616 207.646L89.3937 209.506L95.627 213.105L78.3617 223.071L82.3296 225.362L99.5949 215.396L105.913 219.043Z" fill="#0A6191" style="fill:#0A6191;fill:color(display-p3 0.0401 0.3786 0.5667);fill-opacity:1;"/>
<path d="M105.387 233.735L102.305 236.895L106.47 239.3L120.373 223.671L116.785 221.6L89.5855 229.551L93.7504 231.956L99.2381 230.185L105.387 233.735ZM103.572 228.805L113.267 225.694L107.821 231.258L103.572 228.805Z" fill="#0A6191" style="fill:#0A6191;fill:color(display-p3 0.0401 0.3786 0.5667);fill-opacity:1;"/>
<path d="M123.083 240.053L119.284 246.698L123.519 249.143L123.702 249.037L127.755 241.613C128.571 241.792 129.378 241.911 130.175 241.971C130.982 242.036 131.784 242.027 132.581 241.946C133.36 241.865 134.124 241.705 134.875 241.467C135.644 241.229 136.394 240.899 137.126 240.476C138.139 239.891 138.852 239.274 139.265 238.624C139.687 237.98 139.833 237.322 139.701 236.65C139.561 235.973 139.162 235.294 138.505 234.611C137.858 233.924 136.967 233.252 135.832 232.597L128.965 228.632L108.478 240.459L112.432 242.742L120.086 238.323L123.083 240.053ZM123.295 236.471L129.711 232.767L132.624 234.449C133.168 234.763 133.585 235.08 133.876 235.399C134.167 235.719 134.336 236.033 134.382 236.341C134.439 236.688 134.336 237.029 134.073 237.365C133.829 237.701 133.435 238.026 132.891 238.34C132.441 238.6 131.967 238.797 131.47 238.933C130.982 239.073 130.485 239.149 129.978 239.16C129.359 239.182 128.726 239.108 128.079 238.941C127.45 238.773 126.831 238.513 126.221 238.161L123.295 236.471Z" fill="#0A6191" style="fill:#0A6191;fill:color(display-p3 0.0401 0.3786 0.5667);fill-opacity:1;"/>
<path d="M158.242 249.255L161.464 247.395L144.945 237.858L141.723 239.718L147.956 243.317L130.691 253.284L134.659 255.574L151.924 245.608L158.242 249.255Z" fill="#0A6191" style="fill:#0A6191;fill:color(display-p3 0.0401 0.3786 0.5667);fill-opacity:1;"/>
<path d="M297.269 180.814C299.558 179.412 299.567 177.139 297.296 175.737C295.024 174.336 291.328 174.336 289.039 175.737C286.749 177.139 286.74 179.412 289.012 180.814C291.283 182.225 294.979 182.225 297.269 180.814Z" stroke="#1A1B1D" style="stroke:#1A1B1D;stroke:color(display-p3 0.1020 0.1059 0.1137);stroke-opacity:1;" stroke-linejoin="round"/>
<path d="M256.845 157.593C259.135 156.366 259.144 154.377 256.872 153.15C254.601 151.924 250.905 151.924 248.615 153.15C246.325 154.377 246.316 156.366 248.588 157.593C250.86 158.828 254.555 158.828 256.845 157.593Z" stroke="#1A1B1D" style="stroke:#1A1B1D;stroke:color(display-p3 0.1020 0.1059 0.1137);stroke-opacity:1;" stroke-linejoin="round"/>
<path d="M224.5 139.489C226.79 138.087 226.799 135.814 224.527 134.413C222.255 133.011 218.56 133.011 216.27 134.413C213.98 135.814 213.971 138.087 216.243 139.489C218.514 140.901 222.21 140.901 224.5 139.489Z" stroke="#1A1B1D" style="stroke:#1A1B1D;stroke:color(display-p3 0.1020 0.1059 0.1137);stroke-opacity:1;" stroke-linejoin="round"/>
<defs>
<radialGradient id="paint0_radial_8_7233" cx="0" cy="0" r="1" gradientUnits="userSpaceOnUse" gradientTransform="translate(285.654 153.756) rotate(-134.751) scale(223.342 386.871)">
<stop offset="0.0546285" stop-color="#7AD1FF" style="stop-color:#7AD1FF;stop-color:color(display-p3 0.4784 0.8196 1.0000);stop-opacity:1;"/>
<stop offset="1" stop-color="#7AD1FF" stop-opacity="0" style="stop-color:none;stop-opacity:0;"/>
</radialGradient>
<clipPath id="clip0_8_7233">
<rect width="502.425" height="338.098" fill="white" style="fill:white;fill-opacity:1;" transform="translate(0 1)"/>
</clipPath>
<clipPath id="clip1_8_7233">
<rect width="502.425" height="338.098" fill="white" style="fill:white;fill-opacity:1;" transform="translate(0.117798 1)"/>
</clipPath>
</defs>
</svg>
