<?xml version="1.0" encoding="UTF-8"?>
<svg width="640px" height="640px" viewBox="0 0 640 640" version="1.1" xmlns="http://www.w3.org/2000/svg" xmlns:xlink="http://www.w3.org/1999/xlink">
    <!-- Generator: Sketch 53.2 (72643) - https://sketchapp.com -->
    <title>dotnet-logo</title>
    <desc>Created with Sketch.</desc>
    <defs>
        <linearGradient x1="49.997%" y1="-19.516%" x2="49.997%" y2="129.625%" id="linearGradient-1">
            <stop stop-color="#0994DC" offset="0%"></stop>
            <stop stop-color="#66CEF5" offset="35.001%"></stop>
            <stop stop-color="#66CEF5" offset="35.001%"></stop>
            <stop stop-color="#127BCA" offset="84.616%"></stop>
            <stop stop-color="#127BCA" offset="84.616%"></stop>
            <stop stop-color="#127BCA" offset="100%"></stop>
        </linearGradient>
        <linearGradient x1="50.001%" y1="-19.516%" x2="50.001%" y2="129.624%" id="linearGradient-2">
            <stop stop-color="#0E76BC" offset="0%"></stop>
            <stop stop-color="#36AEE8" offset="36%"></stop>
            <stop stop-color="#36AEE8" offset="36%"></stop>
            <stop stop-color="#00ADEF" offset="84.616%"></stop>
            <stop stop-color="#00ADEF" offset="84.616%"></stop>
            <stop stop-color="#00ADEF" offset="100%"></stop>
        </linearGradient>
        <linearGradient x1="49.999%" y1="110.922%" x2="49.999%" y2="-6.214%" id="linearGradient-3">
            <stop stop-color="#1C63B7" offset="0%"></stop>
            <stop stop-color="#33BDF2" offset="50%"></stop>
            <stop stop-color="#33BDF2" stop-opacity="0.42" offset="100%"></stop>
        </linearGradient>
        <linearGradient x1="50.001%" y1="-19.515%" x2="50.001%" y2="129.627%" id="linearGradient-4">
            <stop stop-color="#166AB8" offset="0%"></stop>
            <stop stop-color="#36AEE8" offset="39.999%"></stop>
            <stop stop-color="#36AEE8" offset="39.999%"></stop>
            <stop stop-color="#0798DD" offset="84.616%"></stop>
            <stop stop-color="#0798DD" offset="84.616%"></stop>
            <stop stop-color="#0798DD" offset="100%"></stop>
        </linearGradient>
        <linearGradient x1="49.999%" y1="-19.521%" x2="49.999%" y2="129.627%" id="linearGradient-5">
            <stop stop-color="#124379" offset="0%"></stop>
            <stop stop-color="#1487CB" offset="39%"></stop>
            <stop stop-color="#1487CB" offset="39%"></stop>
            <stop stop-color="#165197" offset="78.023%"></stop>
            <stop stop-color="#165197" offset="78.023%"></stop>
            <stop stop-color="#165197" offset="100%"></stop>
        </linearGradient>
        <linearGradient x1="0%" y1="50.001%" x2="100%" y2="50.001%" id="linearGradient-6">
            <stop stop-color="#33BDF2" stop-opacity="0.698" offset="0%"></stop>
            <stop stop-color="#1DACD8" offset="100%"></stop>
        </linearGradient>
        <linearGradient x1="50.01%" y1="94.686%" x2="50.01%" y2="-3.025%" id="linearGradient-7">
            <stop stop-color="#136AB4" offset="0%"></stop>
            <stop stop-color="#59CAF5" stop-opacity="0.549" offset="60%"></stop>
            <stop stop-color="#59CAF5" stop-opacity="0.235" offset="100%"></stop>
        </linearGradient>
        <linearGradient x1="-0.001%" y1="50%" x2="99.999%" y2="50%" id="linearGradient-8">
            <stop stop-color="#05A1E6" stop-opacity="0.247" offset="0%"></stop>
            <stop stop-color="#05A1E6" offset="100%"></stop>
        </linearGradient>
        <linearGradient x1="49.998%" y1="124.314%" x2="49.998%" y2="-9.421%" id="linearGradient-9">
            <stop stop-color="#318ED5" offset="0%"></stop>
            <stop stop-color="#38A7E4" offset="100%"></stop>
        </linearGradient>
        <linearGradient x1="49.999%" y1="91.2%" x2="49.999%" y2="-76.785%" id="linearGradient-10">
            <stop stop-color="#05A1E6" offset="0%"></stop>
            <stop stop-color="#05A1E6" stop-opacity="0.549" offset="100%"></stop>
        </linearGradient>
        <linearGradient x1="50%" y1="100.01%" x2="50%" y2="0.01%" id="linearGradient-11">
            <stop stop-color="#1959A6" offset="0%"></stop>
            <stop stop-color="#05A1E6" offset="50%"></stop>
            <stop stop-color="#05A1E6" offset="50%"></stop>
            <stop stop-color="#7EC5EA" offset="91.759%"></stop>
            <stop stop-color="#7EC5EA" offset="100%"></stop>
        </linearGradient>
        <linearGradient x1="59.7978858%" y1="94.568%" x2="38.47819%" y2="5.755%" id="linearGradient-12">
            <stop stop-color="#165096" offset="0%"></stop>
            <stop stop-color="#0D82CA" offset="100%"></stop>
        </linearGradient>
        <linearGradient x1="49.995%" y1="76.998%" x2="49.995%" y2="-3.299%" id="linearGradient-13">
            <stop stop-color="#05A1E6" offset="0%"></stop>
            <stop stop-color="#0495D6" offset="87.363%"></stop>
            <stop stop-color="#0495D6" offset="100%"></stop>
        </linearGradient>
        <linearGradient x1="65.2534813%" y1="-4.161%" x2="34.2728143%" y2="105.844%" id="linearGradient-14">
            <stop stop-color="#38A7E4" stop-opacity="0.329" offset="0%"></stop>
            <stop stop-color="#0E88D3" offset="96.153%"></stop>
            <stop stop-color="#0E88D3" offset="96.153%"></stop>
            <stop stop-color="#0E88D3" offset="100%"></stop>
        </linearGradient>
        <linearGradient x1="50.017%" y1="-0.296%" x2="50.017%" y2="101.882%" id="linearGradient-15">
            <stop stop-color="#168CD4" offset="0%"></stop>
            <stop stop-color="#1C87CC" offset="50%"></stop>
            <stop stop-color="#154B8D" offset="100%"></stop>
        </linearGradient>
        <linearGradient x1="16.674%" y1="205.662078%" x2="87.813%" y2="-19.87958%" id="linearGradient-16">
            <stop stop-color="#97D6EE" offset="0%"></stop>
            <stop stop-color="#55C1EA" offset="70.329%"></stop>
            <stop stop-color="#55C1EA" offset="100%"></stop>
        </linearGradient>
        <linearGradient x1="6.89%" y1="6.27272972%" x2="75.783%" y2="116.812667%" id="linearGradient-17">
            <stop stop-color="#7ACCEC" offset="0%"></stop>
            <stop stop-color="#3FB7ED" offset="100%"></stop>
        </linearGradient>
        <linearGradient x1="49.997%" y1="6.363%" x2="49.997%" y2="127.961%" id="linearGradient-18">
            <stop stop-color="#1DA7E7" offset="0%"></stop>
            <stop stop-color="#37ABE7" stop-opacity="0" offset="100%"></stop>
        </linearGradient>
    </defs>
    <g id="dotnet-logo" stroke="none" stroke-width="1" fill="none" fill-rule="evenodd">
        <g id="neo4j-icon" fill="#FFFFFF" fill-rule="nonzero">
            <circle id="lg" cx="320" cy="320" r="320"></circle>
        </g>
        <g id="dotnet-logo-vector" transform="translate(140.000000, 147.000000)" fill-rule="nonzero">
            <path d="M302.652683,180.880659 C302.652683,180.280689 302.484271,179.852338 302.1432,179.573282 C301.762502,179.271901 301.105834,179.111444 300.191594,179.111444 L298.878259,179.111444 L298.878259,182.672198 L300.463319,182.672198 C301.928084,182.672198 302.651268,182.072228 302.651268,180.880659 L302.652683,180.880659 Z M304.700524,188.303548 L302.894688,188.303548 L301.742689,185.79902 C301.158198,184.543269 300.532665,183.915393 299.850523,183.915393 L298.878259,183.915393 L298.878259,188.303548 L297.389434,188.303548 L297.389434,177.861274 L300.371329,177.861274 C301.695986,177.861274 302.69231,178.144515 303.374452,178.734719 C303.954697,179.242601 304.243404,179.892801 304.243404,180.702063 C304.243404,181.422028 304.00706,182.027579 303.531542,182.52988 C303.068761,183.036366 302.402187,183.379605 301.551632,183.556806 L301.551632,183.601455 C302.141784,183.738192 302.731936,184.37723 303.306521,185.529731 L304.700524,188.309129 L304.700524,188.303548 L304.700524,188.303548 Z M307.998016,183.185661 C307.998016,181.130414 307.287569,179.396081 305.869506,178.020335 C304.445783,176.645985 302.709292,175.955321 300.661451,175.955321 C298.547094,175.955321 296.787961,176.645985 295.393957,178.032893 C293.998538,179.425382 293.303659,181.148553 293.303659,183.185661 C293.303659,185.268814 294.028258,187.008728 295.463303,188.395636 C296.881366,189.781149 298.617856,190.466231 300.660036,190.466231 C302.69231,190.466231 304.427384,189.775568 305.858184,188.371916 C307.287569,186.990589 307.999431,185.256256 307.999431,183.185661 L307.998016,183.185661 Z M309,183.139617 C309,185.446015 308.196148,187.381268 306.581368,188.937005 C304.966588,190.506694 302.986678,191.288051 300.62041,191.288051 C298.235743,191.288051 296.255833,190.517857 294.682095,189.005373 C293.106941,187.470566 292.325733,185.542289 292.325733,183.202405 C292.325733,180.914146 293.125339,178.99145 294.721721,177.411993 C296.319519,175.835327 298.310751,175.049785 300.689756,175.049785 C303.022059,175.049785 304.97791,175.803236 306.56297,177.303162 C308.190487,178.843551 309,180.782989 309,183.139617 L309,183.139617 Z M82.6265197,212.259106 L77.4920569,212.259106 L77.4920569,183.293098 C77.4920569,181.004839 77.644902,178.221256 77.9166266,174.935372 L77.803408,174.935372 C77.3222291,176.856672 76.8820918,178.249161 76.4943182,179.111444 L61.5735242,212.259106 L59.0728087,212.259106 L44.1222949,179.351432 C43.7019709,178.431943 43.2604184,176.954342 42.8146202,174.933977 L42.7042321,174.933977 C42.8599077,176.664123 42.9490673,179.465845 42.9490673,183.350304 L42.9490673,212.259106 L38,212.259106 L38,169.124031 L44.7718865,169.124031 L58.1939495,199.200683 C59.2072558,201.466617 59.8610931,203.191183 60.1795204,204.366009 L60.3918052,204.366009 C61.2664188,202.007986 61.9598826,200.240166 62.486349,199.075108 L76.1985346,169.124031 L82.6236892,169.124031 L82.6236892,212.257711 L82.6251044,212.257711 L82.6265197,212.259106 Z M98.4162663,212.257711 L93.4275725,212.257711 L93.4275725,181.455514 L98.4162663,181.455514 L98.4162663,212.257711 Z M99.279558,170.41327 C99.279558,171.320202 98.9540546,172.079234 98.3129543,172.701529 C97.6817607,173.323824 96.9005525,173.636366 95.9863125,173.636366 C95.0947161,173.636366 94.3191688,173.336381 93.6823143,172.736411 C93.0454598,172.130859 92.7341087,171.360665 92.7341087,170.41327 C92.7341087,169.523081 93.0482902,168.764049 93.6823143,168.148731 C94.2922822,167.547844 95.1242048,167.217852 95.9863125,167.234823 C96.9005525,167.234823 97.6817607,167.532017 98.3129543,168.148731 C98.9554698,168.764049 99.279558,169.523081 99.279558,170.41327 L99.279558,170.41327 Z M129.595249,210.831735 C127.199261,212.281431 124.339076,213 121.034509,213 C116.555299,213 112.949287,211.534956 110.193829,208.606264 C107.51904,205.765474 106.171739,202.095888 106.171739,197.598902 C106.171739,192.554965 107.636505,188.469586 110.587264,185.365088 C113.522456,182.25501 117.469539,180.703459 122.435589,180.703459 C125.150004,180.703459 127.55873,181.228084 129.664595,182.266172 L129.664595,187.328247 C127.332292,185.713908 124.866958,184.914413 122.220473,184.914413 C119.037616,184.914413 116.450571,186.009708 114.442357,188.196111 C112.353474,190.432745 111.293465,193.422829 111.293465,197.153807 C111.293465,200.738281 112.260069,203.57349 114.181954,205.667805 C116.1095,207.750957 118.673901,208.794627 121.909122,208.794627 C124.640521,208.794627 127.199261,207.910019 129.593834,206.147781 L129.593834,210.831735 L129.595249,210.831735 Z M153.458896,186.453407 C152.578621,185.785068 151.310573,185.459967 149.637768,185.459967 C147.60691,185.459967 145.898725,186.355737 144.516043,188.16402 C142.947965,190.184385 142.166757,192.980525 142.166757,196.552442 L142.166757,212.256316 L137.165326,212.256316 L137.165326,181.454119 L142.166757,181.454119 L142.166757,187.805433 L142.287052,187.805433 C143.022973,185.556242 144.156574,183.82749 145.672288,182.601039 C147.09035,181.482025 148.693808,180.916936 150.458603,180.916936 C151.790337,180.916936 152.779584,181.059255 153.45748,181.336916 L153.45748,186.453407 L153.458896,186.453407 Z M181.329065,196.912424 C181.329065,192.969363 180.426147,189.956954 178.62031,187.890545 C176.866838,185.905062 174.417071,184.911622 171.263933,184.911622 C168.156083,184.911622 165.661028,185.916224 163.797167,187.925427 C161.824334,190.069972 160.839332,193.10052 160.839332,197.032418 C160.839332,200.718747 161.777631,203.611162 163.669797,205.676176 C165.552055,207.753748 168.085321,208.791836 171.263933,208.791836 C174.551518,208.791836 177.069216,207.737005 178.792969,205.637109 C180.484171,203.583257 181.329065,200.678284 181.329065,196.912424 L181.329065,196.912424 Z M186.456452,196.738014 C186.456452,201.646608 185.051126,205.589669 182.248966,208.544872 C179.436899,211.512632 175.651153,212.995814 170.893142,212.995814 C166.205893,212.995814 162.47251,211.512632 159.735451,208.544872 C157.055001,205.685943 155.706284,201.908921 155.706284,197.212409 C155.706284,191.854535 157.229074,187.723111 160.284561,184.790233 C163.109365,182.069437 166.888035,180.699273 171.623402,180.699273 C176.282347,180.699273 179.922324,182.13083 182.54475,184.967434 C185.143116,187.819385 186.456452,191.745703 186.456452,196.738014 L186.456452,196.738014 Z M211.256982,204.017189 C211.256982,206.538459 210.3017,208.627193 208.385476,210.293157 C206.296593,212.095859 203.426502,212.998605 199.814829,212.998605 C196.856994,212.998605 194.264288,212.387472 192.065017,211.142883 L192.065017,205.842215 C194.513369,207.805373 197.216463,208.793231 200.18562,208.793231 C204.144025,208.793231 206.129596,207.356093 206.129596,204.490189 C206.129596,203.286062 205.693704,202.287042 204.814845,201.518243 C203.935986,200.729909 202.2278,199.788096 199.687458,198.685825 C197.070694,197.557043 195.206833,196.398961 194.108613,195.194834 C192.788201,193.767463 192.123042,191.914532 192.123042,189.631854 C192.123042,187.074306 193.158992,184.946504 195.208248,183.251239 C197.26175,181.551789 199.901158,180.700668 203.14204,180.700668 C205.625773,180.700668 207.847688,181.180644 209.821937,182.144783 L209.821937,187.109188 C207.761358,185.642749 205.406412,184.911622 202.731623,184.911622 C201.075801,184.911622 199.745483,185.319044 198.75482,186.111563 C197.754251,186.920825 197.250428,187.953332 197.250428,189.214665 C197.250428,190.579249 197.672167,191.639662 198.507154,192.398694 C199.247321,193.10052 200.821059,193.957221 203.194404,194.954846 C205.862117,196.057117 207.789663,197.198456 208.964306,198.367701 C210.487096,199.846697 211.256982,201.72893 211.256982,204.017189 L211.256982,204.017189 Z M241.818923,196.912424 C241.818923,192.969363 240.916005,189.956954 239.104508,187.890545 C237.356696,185.905062 234.901268,184.911622 231.753791,184.911622 C228.645941,184.911622 226.150887,185.916224 224.275704,187.925427 C222.308531,190.069972 221.32919,193.10052 221.32919,197.032418 C221.32919,200.718747 222.267489,203.611162 224.142672,205.676176 C226.04616,207.753748 228.582256,208.791836 231.753791,208.791836 C235.047037,208.791836 237.559074,207.737005 239.282827,205.637109 C240.972614,203.583257 241.818923,200.678284 241.818923,196.912424 L241.818923,196.912424 Z M246.957632,196.738014 C246.957632,201.646608 245.539569,205.589669 242.733163,208.544872 C239.931004,211.512632 236.146672,212.995814 231.388661,212.995814 C226.694336,212.995814 222.960953,211.512632 220.223894,208.544872 C217.544859,205.685943 216.196143,201.908921 216.196143,197.212409 C216.196143,191.854535 217.728839,187.723111 220.767343,184.790233 C223.592147,182.069437 227.377893,180.699273 232.117506,180.699273 C236.777866,180.699273 240.410767,182.13083 243.028947,184.967434 C245.632974,187.819385 246.957632,191.745703 246.957632,196.738014 L246.957632,196.738014 Z M268.992799,170.989521 C268.009212,170.452338 266.916653,170.178863 265.671248,170.178863 C262.169964,170.178863 260.433474,172.352709 260.433474,176.707377 L260.433474,181.454119 L267.75447,181.454119 L267.75447,185.631587 L260.433474,185.631587 L260.433474,212.256316 L255.426382,212.256316 L255.426382,185.630191 L250.1136,185.630191 L250.1136,181.452724 L255.426382,181.452724 L255.426382,176.460413 C255.426382,173.069883 256.48073,170.410479 258.621976,168.493365 C260.456117,166.827401 262.702091,166 265.369804,166 C266.916653,166 268.1196,166.182782 268.992799,166.537183 L268.992799,170.988125 L268.992799,170.989521 Z M288.731043,211.946564 C287.550739,212.614903 285.975586,212.945584 284.031057,212.945584 C278.579582,212.945584 275.853845,209.915036 275.853845,203.855336 L275.853845,185.635773 L270.49436,185.635773 L270.49436,181.452724 L275.853845,181.452724 L275.853845,173.937747 C277.450227,173.441027 279.111709,172.899659 280.865182,172.340151 L280.865182,181.452724 L288.731043,181.452724 L288.731043,185.635773 L280.865182,185.635773 L280.865182,203.016773 C280.865182,205.081787 281.207668,206.560784 281.923776,207.41609 C282.648375,208.300698 283.828679,208.73463 285.495822,208.73463 C286.739811,208.73463 287.816803,208.405344 288.731043,207.74119 L288.731043,211.946564 L288.731043,211.946564 Z" id="Shape" fill="#000000"></path>
            <path d="M17.8828575,335.930497 C17.8828575,338.388241 17.0074431,340.513551 15.2381696,342.309267 C13.4731525,344.099301 11.3321472,345 8.81940988,345 C6.36484439,345 4.27633549,344.099301 2.56523376,342.309267 C0.852713214,340.513551 0,338.388241 0,335.930497 C0,333.401719 0.852713214,331.270727 2.56523376,329.504845 C4.27633549,327.731859 6.36484439,326.855311 8.81940988,326.855311 C11.3321472,326.855311 13.4731525,327.744645 15.2381696,329.540361 C17.0074431,331.334657 17.8828575,333.46707 17.8828575,335.930497 L17.8828575,335.930497 Z M130.135955,343.15314 L113.785427,343.15314 L54.4317633,251.372723 C53.0038994,249.084257 51.7989817,246.663689 50.8336257,244.144397 L50.3455502,244.144397 C50.7683598,246.602142 50.984021,251.877058 50.984021,259.959202 L50.984021,343.15314 L37.5051932,343.15314 L37.5051932,228.004262 L54.9992929,228.004262 L112.578008,318.338445 C114.870827,321.922774 116.437209,324.48991 117.23175,326.03701 L117.552405,326.03701 C117.017508,322.724027 116.739419,317.076898 116.739419,309.105566 L116.739419,228.004262 L130.137373,228.004262 L130.137373,343.15314 L130.135955,343.15314 Z M216.549429,343.15314 L155.599589,343.15314 L155.599589,228.004262 L213.903323,228.004262 L213.903323,240.206324 L169.068485,240.206324 L169.068485,278.5102 L210.614489,278.5102 L210.614489,290.717944 L169.067066,290.717944 L169.067066,330.945396 L216.54801,330.945396 L216.54801,343.15314 L216.549429,343.15314 Z M308.998581,240.207744 L275.873298,240.207744 L275.873298,343.154561 L262.398726,343.154561 L262.398726,240.207744 L229.211014,240.207744 L229.211014,228 L309,228 L309,240.207744 L308.998581,240.207744 Z" id="Shape" fill="#000000"></path>
            <g id="Group">
                <path d="M125.363577,29.3307227 C138.351296,69.0630845 143.272003,139.942238 181.254419,139.942238 C184.145618,139.942238 187.067997,139.658699 190.000296,139.100127 C155.473145,131.04761 151.380115,60.9396836 130.312629,24.6338942 C128.632082,26.1671367 126.981611,27.7330444 125.36216,29.3307227" id="Path" fill="url(#linearGradient-1)"></path>
                <path d="M130.312629,24.6338942 C151.381532,60.9396836 155.473145,131.04761 190.000296,139.100127 C192.712921,138.602515 195.431215,137.848301 198.155178,136.897026 C167.164077,121.709244 158.598191,53.6286228 134.670686,20.8543154 C133.193759,22.0864148 131.740802,23.3469828 130.312629,24.6353119" id="Path" fill="url(#linearGradient-2)"></path>
                <path d="M160.6688,3.04095897 C157.78327,3.04095897 154.855223,3.32449827 151.917254,3.88307069 C144.231484,5.3319565 136.42383,8.64227781 128.553816,13.6509995 C130.703791,15.7732912 132.748889,18.2018052 134.673521,20.8528977 C142.678173,14.2081542 150.630387,9.29867128 158.554256,6.34702719 C161.445999,5.26466821 164.426379,4.43597307 167.4617,3.87031142 C165.24086,3.31143856 162.958823,3.03282218 160.6688,3.04095897" id="Path" fill="#14559A"></path>
                <path d="M222.347709,122.895856 C225.649423,120.257223 228.829258,117.469505 231.877328,114.54137 C218.679855,74.9933089 213.956146,3.10050222 175.707286,3.10050222 C172.971985,3.10050222 170.212591,3.35568759 167.458866,3.86605833 C202.299229,12.5338547 206.762163,88.3579338 222.349127,122.895856" id="Path" fill="url(#linearGradient-3)"></path>
                <path d="M167.460283,3.86747603 C165.239334,3.30934432 162.957331,3.03120836 160.667383,3.03954128 L175.708703,3.09483144 C172.973402,3.09483144 170.214008,3.35001681 167.460283,3.86605833" id="Path" fill="#3092C4"></path>
                <path d="M221.680183,131.297125 C220.184979,129.870922 218.76489,128.305785 217.367478,126.635739 C210.933143,131.192216 204.524319,134.64856 198.15376,136.897026 C200.427537,138.014156 202.835296,138.834621 205.317981,139.3383 C207.326619,139.745153 209.371282,139.947498 211.420678,139.942238 C218.567892,139.942238 224.218485,139.095873 229.030064,136.787864 C226.379798,135.35599 223.952041,133.498808 221.680183,131.297125" id="Path" fill="#1969BC"></path>
                <path d="M158.551422,6.35269797 C189.756528,22.6788908 192.469153,96.6145981 217.368895,126.635739 C219.063414,125.438216 220.72232,124.191048 222.343458,122.895856 C206.756494,88.3579338 202.299229,12.5281839 167.465952,3.86605833 C164.428714,4.43794531 161.44623,5.26988638 158.551422,6.35269797" id="Path" fill="url(#linearGradient-4)"></path>
                <path d="M134.670686,20.8543154 C158.596774,53.6286228 167.164077,121.707826 198.155178,136.897026 C204.525736,134.64856 210.935977,131.192216 217.368895,126.635739 C192.469153,96.6145981 189.756528,22.6788908 158.551422,6.35269797 C150.62897,9.29867128 142.675339,14.2081542 134.670686,20.8528977" id="Path" fill="url(#linearGradient-5)"></path>
                <path d="M110.054395,28.3737776 C106.30434,36.8558557 102.473502,48.0046209 97.8419145,62.5572753 C107.052651,49.5768463 116.233624,38.391221 125.363577,29.3321404 C124.106472,25.4646644 122.755829,21.8991577 121.300309,18.7206822 C117.380938,21.733784 113.627294,24.9566588 110.055813,28.3751953" id="Path" fill="url(#linearGradient-6)"></path>
                <path d="M124.625187,16.273738 C123.504738,17.0714374 122.397246,17.8871919 121.303143,18.7206822 C122.758663,21.89774 124.10222,25.4632467 125.360742,29.3307227 C126.982573,27.7360047 128.632516,26.1701496 130.309794,24.6338942 C128.542478,21.5957706 126.664616,18.7901493 124.625187,16.273738" id="Path" fill="#2B74B1"></path>
                <path d="M128.552399,13.6524172 C127.223935,14.4969891 125.914079,15.3704987 124.62377,16.2723203 C126.664616,18.7887316 128.541061,21.5943529 130.315463,24.6381473 C131.74054,23.3449376 133.193569,22.0828893 134.673521,20.8528977 C132.750306,18.2032229 130.705208,15.7732912 128.553816,13.6509995" id="Path" fill="#125A9E"></path>
                <path d="M341.405578,0.0155946614 C323.75651,68.1004686 286.893724,122.785275 255.987659,136.572374 L255.930968,136.572374 C255.368318,136.827559 254.811338,137.060061 254.261443,137.285475 C254.184911,137.332259 254.115466,137.33793 254.057358,137.364866 C253.895791,137.43008 253.745562,137.481117 253.582578,137.546331 C253.506046,137.591697 253.438018,137.607292 253.368573,137.634228 C253.107798,137.727796 252.852692,137.80577 252.597586,137.907844 C252.48704,137.954628 252.383581,137.982982 252.278704,138.019842 C252.153398,138.06803 252.025673,138.109672 251.896045,138.144599 C251.77983,138.189965 251.657947,138.22399 251.524725,138.275027 C251.414179,138.320393 251.297964,138.340241 251.194504,138.385608 C250.967744,138.450822 250.760825,138.506112 250.534064,138.584085 C250.440525,138.584085 250.354073,138.635122 250.256282,138.660641 C250.115974,138.706007 249.958659,138.738614 249.80843,138.781145 C249.70497,138.826511 249.618518,138.842106 249.507972,138.864789 C249.352074,138.910155 249.177751,138.952686 249.020436,138.989546 L248.429441,139.119974 C249.844915,139.641984 251.342692,139.905138 252.851275,139.896872 C282.15726,139.896872 311.704179,87.3627108 360.595202,0 L341.398492,0 L341.405578,0.0155946614 L341.405578,0.0155946614 Z" id="Path" fill="url(#linearGradient-7)"></path>
                <path d="M91.4784425,5.80404943 C91.4968668,5.80404943 91.5209601,5.75868314 91.5308809,5.75868314 C91.5549742,5.75868314 91.5904056,5.75868314 91.6017436,5.71331686 L91.6385922,5.71331686 C91.8001592,5.656609 91.9503882,5.59281265 92.1133724,5.53185171 C92.1558901,5.53185171 92.1771489,5.53185171 92.2069112,5.48648542 C92.2480116,5.48648542 92.2876947,5.43970143 92.3287951,5.43403065 C92.5017001,5.37874048 92.6760224,5.31352645 92.8390067,5.25398319 L92.8659345,5.25398319 C93.2542622,5.13773208 93.6142448,4.99312704 93.9898172,4.85844587 C94.0436729,4.85844587 94.094694,4.81307958 94.1584705,4.81307958 C94.3143684,4.76204251 94.4773527,4.70675235 94.6403369,4.66989224 C94.7154514,4.62310826 94.7905659,4.62310826 94.8600114,4.59900741 C95.0272474,4.54938804 95.1902316,4.49268018 95.3461296,4.45582007 C95.4169923,4.45582007 95.4793515,4.40903609 95.5317899,4.404783 C96.0703466,4.25592486 96.6046515,4.11699061 97.1432081,3.98798023 C97.2183226,3.98798023 97.282099,3.94119624 97.3628825,3.93694315 C97.5187805,3.89157687 97.6647577,3.86605833 97.833411,3.84337519 C97.9028565,3.7980089 97.9836399,3.7980089 98.0644234,3.77390806 C98.2203214,3.72854177 98.3719676,3.72287098 98.5406209,3.68601087 L98.6497495,3.68601087 C98.975718,3.61937914 99.3059383,3.56550667 99.6304895,3.50454572 L99.8274879,3.50454572 C99.9833858,3.45917944 100.122277,3.45350865 100.279592,3.42515472 C100.364627,3.42515472 100.452497,3.37978843 100.534698,3.37978843 C100.679258,3.37978843 100.823818,3.33300445 100.968378,3.31457439 C101.044909,3.31457439 101.118607,3.31457439 101.206476,3.26779041 C101.548035,3.22242412 101.900931,3.20399407 102.260914,3.17564014 C101.224798,3.07144701 100.184282,3.01703943 99.142954,3.01260504 C66.1407692,3.01260504 20.6695805,64.2670173 0.187420649,143.592807 L4.13447402,143.592807 C10.6892754,131.899646 16.5779672,120.83736 21.9635338,110.452734 C36.3075651,54.2651686 65.5256808,15.9476678 91.4798597,5.79554325" id="Path" fill="url(#linearGradient-8)"></path>
                <path d="M110.055813,28.3737776 C113.626755,24.9551929 117.37993,21.7323146 121.298891,18.7192645 C120.501911,16.9457345 119.608167,15.217323 118.621698,13.5418369 C115.602946,17.2065823 112.843552,22.042345 110.055813,28.3737776" id="Path" fill="#0D82CA"></path>
                <path d="M112.76702,6.26905388 C114.921247,8.0780346 116.852964,10.5646742 118.620281,13.54609 C119.177262,12.8613426 119.739912,12.2290499 120.32382,11.6378705 C117.87197,9.34829066 115.224539,7.46984281 112.34893,6.05498171 C112.465145,6.11877805 112.58136,6.17123282 112.701826,6.2222699 C112.701826,6.2222699 112.747179,6.26763618 112.76702,6.26763618" id="Path" fill="#0D82CA"></path>
                <path d="M21.9606993,110.459822 C52.0546782,52.4519348 66.3122569,15.7392664 91.4784425,5.80121404 C65.5299325,15.9604271 36.3061478,54.2779278 21.9621165,110.459822" id="Path" fill="url(#linearGradient-9)"></path>
                <path d="M120.322403,11.6364528 C119.737077,12.233303 119.181513,12.8599249 118.618863,13.5446723 C119.605917,15.2202903 120.501516,16.9481577 121.301726,18.7206822 C122.395839,17.8876681 123.503331,17.0723863 124.62377,16.2751557 C123.300062,14.6303136 121.862752,13.0802828 120.322403,11.6364528" id="Path" fill="#127BCA"></path>
                <path d="M35.6230312,143.339039 C35.4373709,143.385823 35.2517106,143.385823 35.0773883,143.404253 L34.9739287,143.404253 C34.8166135,143.404253 34.6536292,143.451037 34.5090693,143.451037 L34.4339548,143.451037 C34.0569652,143.496403 33.6856445,143.496403 33.3270792,143.524757 L33.2108643,143.524757 C63.6690776,142.672722 77.5907671,127.418307 84.5012993,105.293736 C89.7522267,88.5209689 94.0635144,74.3907879 97.8433318,62.5345922 C85.0852081,80.4968067 72.2703942,101.908277 59.3861349,125.894284 C53.1728919,137.454181 43.7254743,142.282855 35.621614,143.317774" id="Path" fill="url(#linearGradient-10)"></path>
                <path d="M35.6230312,143.327697 C43.7254743,142.295614 53.1728919,137.472611 59.3861349,125.904208 C72.2703942,101.925289 85.0922944,80.5081483 97.8362455,62.5459338 C102.473502,47.9861908 106.300088,36.8430964 110.055813,28.3610183 C84.6515283,52.5497558 59.1480362,92.7698052 35.621614,143.316356" id="Path" fill="url(#linearGradient-11)"></path>
                <path d="M21.9606993,110.46124 C16.5751327,120.844449 10.6864409,131.906735 4.13163951,143.601313 L15.612817,143.601313 C17.0627558,132.439192 19.182544,121.374413 21.9606993,110.466911" id="Path" fill="#05A1E6"></path>
                <path d="M101.205059,3.29756204 C101.11152,3.29756204 101.042075,3.34292832 100.961291,3.34292832 C100.8224,3.38971231 100.67784,3.38971231 100.531863,3.40388927 C100.446828,3.40388927 100.364627,3.40388927 100.276757,3.45067326 C100.12086,3.49603955 99.9762996,3.50029263 99.8246534,3.53006426 C99.7552079,3.53006426 99.6857624,3.53006426 99.627655,3.57543055 C99.2974347,3.63072071 98.9728835,3.69168166 98.6497495,3.74697182 L98.5392037,3.74697182 C98.3705504,3.79375581 98.2189042,3.81785665 98.0630062,3.84053979 C97.9822227,3.88590608 97.9014392,3.88590608 97.8249075,3.90433613 C97.6690095,3.95112012 97.5131115,3.96955017 97.3614653,3.9979041 C97.2806818,4.04327039 97.2169053,4.04327039 97.1417909,4.04752348 C96.6032342,4.17795156 96.0689293,4.31688581 95.5303727,4.46574394 C95.4736825,4.46574394 95.4141578,4.51111023 95.3447123,4.52103411 C95.1831454,4.5664004 95.0258301,4.61318438 94.8571768,4.66422145 C94.7877314,4.71100544 94.7069479,4.71100544 94.6375024,4.72943549 C94.4760004,4.77415002 94.31535,4.82188751 94.1556359,4.87262284 C94.0932768,4.87262284 94.0408383,4.91798913 93.9827309,4.91798913 C93.6114103,5.05692338 93.2457587,5.19727533 92.8631,5.31210875 C92.701533,5.36314582 92.5272107,5.42835986 92.3528884,5.48932081 C92.2834429,5.5346871 92.2210838,5.54602867 92.1403003,5.57721799 C91.977316,5.62825507 91.8143318,5.69346911 91.6641028,5.75301236 C91.6074126,5.79979634 91.5478879,5.80404943 91.5082048,5.82815027 C66.3420193,15.7662027 52.0830233,52.4774533 21.9904616,110.485341 C19.2098488,121.392696 17.0905002,132.458125 15.6439966,143.621161 L17.2554148,143.621161 C21.7934632,143.621161 23.0746612,143.574377 28.2958262,143.574377 L33.3568415,143.574377 C33.7154069,143.52901 34.0867275,143.52901 34.4622999,143.499239 L34.5331626,143.499239 C34.6890606,143.499239 34.8449586,143.453872 34.9966048,143.453872 L35.1071506,143.453872 C35.2743866,143.453872 35.465716,143.408506 35.6513763,143.388658 C59.1777985,92.8421078 84.6798733,52.6220583 110.085575,28.4333208 C112.877566,22.103306 115.631291,17.2675433 118.645791,13.6084686 C116.882727,10.6284706 114.952426,8.13616016 112.796782,6.32717944 C112.796782,6.32717944 112.738675,6.32717944 112.734423,6.28039545 C112.611122,6.23077608 112.496325,6.16981513 112.374441,6.11027187 C112.252557,6.04364014 112.14768,5.99260306 112.020127,5.92880672 C111.901656,5.87889823 111.785767,5.82306507 111.6729,5.76151854 C111.522671,5.71473455 111.400787,5.64952051 111.267565,5.58997726 C111.157019,5.54319328 111.059229,5.49640929 110.948683,5.45104301 C110.724207,5.36387826 110.502092,5.27074986 110.282573,5.1717568 C110.183365,5.12639051 110.091244,5.10087197 109.999122,5.06542956 C109.830512,5.00402633 109.663681,4.93784043 109.498832,4.86695205 C109.418048,4.82016807 109.325927,4.81024419 109.232388,4.77763717 C108.995706,4.69824617 108.763277,4.61460208 108.543602,4.54088186 L108.485495,4.54088186 C108.219051,4.45298468 107.958276,4.38777064 107.686163,4.31405042 C107.622387,4.26726644 107.569948,4.26726644 107.506172,4.25734256 C107.268073,4.19354622 107.059737,4.12974988 106.834393,4.06878893 C106.777703,4.06878893 106.723848,4.02200494 106.678495,4.02200494 C106.124202,3.87996323 105.564968,3.75796206 105.001884,3.65623925 C104.945193,3.65623925 104.887086,3.60945526 104.828978,3.60945526 C104.589092,3.5617653 104.34752,3.5229883 104.104761,3.49320415 C104.045237,3.44783786 104.011223,3.44783786 103.960202,3.44783786 C103.67479,3.40408428 103.388432,3.36674221 103.101345,3.33583984 L102.951116,3.33583984 C102.718687,3.29047355 102.504681,3.28622046 102.290676,3.26211962 C101.925024,3.30748591 101.577797,3.32733366 101.234821,3.35994068" id="Path" fill="url(#linearGradient-12)"></path>
                <path d="M272.466075,37.7078913 C266.676591,56.2612852 261.986896,71.5667365 257.906621,84.1601345 C273.794042,62.2907484 289.443365,34.7789303 304.345794,3.0310351 C286.96317,8.49200198 277.688657,20.9932496 272.466075,37.7078913" id="Path" fill="url(#linearGradient-13)"></path>
                <path d="M258.411164,135.412698 C257.600494,135.826665 256.788407,136.219367 255.987659,136.572374 C286.893724,122.785275 323.75651,68.1004686 341.405578,0.0155946614 L337.828428,0.0155946614 C297.280781,72.4712269 284.239207,120.976295 258.411164,135.412698" id="Path" fill="url(#linearGradient-14)"></path>
                <path d="M238.230879,129.326527 C244.954333,121.116647 250.432022,107.160842 257.909456,84.1601345 C249.284046,96.0120771 240.601945,106.198226 231.912759,114.507346 C231.912759,114.552712 231.912759,114.552712 231.867407,114.581066 C233.762276,120.263193 235.842805,125.277586 238.213872,129.325109" id="Path" fill="#079AE1"></path>
                <path d="M238.230879,129.326527 C235.942013,132.119389 233.518508,134.248769 230.82289,135.825248 C230.231895,136.16833 229.635231,136.491565 229.027229,136.789281 C231.951629,138.373406 235.15229,139.382556 238.456222,139.762191 C238.966434,139.813228 239.470976,139.860012 239.998195,139.896872 L240.091734,139.896872 C240.328415,139.896872 240.577852,139.896872 240.832958,139.942238 L243.348584,139.942238 C243.440706,139.942238 243.537079,139.942238 243.630618,139.896872 C243.810609,139.896872 244.000521,139.896872 244.186182,139.850088 L244.461129,139.850088 C244.651041,139.850088 244.859377,139.804722 245.063462,139.784874 L245.108814,139.784874 C245.169756,139.784874 245.23495,139.739508 245.294475,139.739508 C245.507063,139.692724 245.730989,139.674294 245.937908,139.641687 L246.129237,139.641687 C246.364502,139.59632 246.609687,139.566549 246.852037,139.521182 L246.969669,139.521182 C247.455787,139.427614 247.930568,139.336882 248.412434,139.21496 C244.42428,137.754733 241.085229,134.30973 238.211037,129.4045" id="Path" fill="#1969BC"></path>
                <path d="M181.254419,139.942238 C184.147036,139.942238 187.067997,139.658699 190.001713,139.095873 C192.714338,138.603933 195.432632,137.848301 198.156595,136.898444 C200.428363,138.014439 202.833632,138.834868 205.313729,139.339717 C207.324794,139.746187 209.371815,139.948055 211.423513,139.942238 L181.254419,139.942238 L181.254419,139.942238 Z" id="Path" fill="#1E5CB3"></path>
                <path d="M211.423513,139.942238 C218.565057,139.942238 224.22132,139.095873 229.025812,136.787864 C231.950511,138.372986 235.151648,139.383097 238.456222,139.763609 C238.966434,139.813228 239.470976,139.860012 239.998195,139.896872 L240.091734,139.896872 C240.328415,139.896872 240.577852,139.896872 240.832958,139.943656 L241.700318,139.943656 L211.403671,139.943656 L211.423513,139.943656 L211.423513,139.942238 Z" id="Path" fill="#1E5CB3"></path>
                <path d="M241.717325,139.942238 L243.369843,139.942238 C243.467634,139.942238 243.559755,139.942238 243.653294,139.896872 C243.833285,139.896872 244.023197,139.896872 244.215944,139.850088 L244.489474,139.850088 C244.679386,139.850088 244.887723,139.804722 245.086138,139.786292 L245.137159,139.786292 C245.198101,139.786292 245.257626,139.740925 245.318568,139.740925 C245.531156,139.694141 245.753665,139.675711 245.960584,139.641687 C246.031447,139.641687 246.08672,139.641687 246.160417,139.59632 C246.397098,139.550954 246.642283,139.526853 246.886051,139.481487 L247.002266,139.481487 C247.488384,139.387919 247.963164,139.295769 248.443614,139.175264 C249.85912,139.697155 251.356875,139.960304 252.865447,139.952162 L241.725828,139.997528 L241.717325,139.942238 L241.717325,139.942238 Z" id="Path" fill="#1D60B5"></path>
                <path d="M231.885831,114.582483 L231.885831,114.535699 C228.838325,117.463912 225.658958,120.251634 222.35763,122.890185 C220.733817,124.183791 219.07354,125.430924 217.378816,126.630068 C218.774811,128.300115 220.1949,129.865252 221.691521,131.292872 C223.963379,133.494555 226.391136,135.350319 229.039984,136.782193 C229.643735,136.484477 230.244651,136.161242 230.831394,135.819577 C233.531263,134.243098 235.954768,132.115136 238.243634,129.320856 C235.873985,125.273333 233.793455,120.25894 231.897169,114.576813" id="Path" fill="#175FAB"></path>
                <path d="M326.503149,0.0155946614 L308.502601,0.0155946614 C307.530365,0.0623786456 306.585056,0.0949856649 305.652503,0.154528917 C305.211737,1.10013248 304.759633,2.04573604 304.324536,2.99701038 C289.423523,34.7449056 273.774201,62.2567237 257.886779,84.1261097 C250.415015,107.1254 244.933075,121.081204 238.20962,129.291085 C241.083812,134.196314 244.428532,137.64557 248.403931,139.107215 C248.520145,139.060431 248.613684,139.060431 248.717144,139.03633 L248.782338,139.03633 C248.851783,139.03633 248.926897,138.990964 249.002012,138.990964 C249.163579,138.94418 249.337901,138.915826 249.500885,138.866207 C249.604345,138.819423 249.690798,138.81517 249.795674,138.781145 C249.947321,138.735779 250.103219,138.703172 250.242109,138.666311 C250.335648,138.619527 250.42777,138.60535 250.519891,138.58692 C250.752321,138.511783 250.960657,138.456492 251.181749,138.387025 C251.285209,138.341659 251.395755,138.301963 251.511969,138.275027 C251.639522,138.229661 251.767075,138.197054 251.88329,138.141764 C252.016512,138.09498 252.149734,138.070879 252.265949,138.02126 C252.369408,137.974476 252.478537,137.946122 252.577745,137.905008 C252.838519,137.81144 253.093625,137.733467 253.3544,137.631393 C253.425263,137.631393 253.494708,137.566179 253.569823,137.552002 C253.725721,137.486788 253.888705,137.435751 254.044603,137.366284 C254.101293,137.3195 254.172156,137.315247 254.24727,137.291146 C254.792913,137.064314 255.354146,136.831812 255.916796,136.578044 L255.974903,136.578044 C256.791628,136.214389 257.597896,135.827675 258.392739,135.418369 C284.225034,120.981965 297.268026,72.4768977 337.815673,0.0212654474 L326.490394,0.0212654474 L326.504566,0.0155946614 L326.503149,0.0155946614 Z" id="Path" fill="url(#linearGradient-15)"></path>
                <path d="M102.260914,3.19974098 C102.32469,3.19974098 102.382797,3.19974098 102.445157,3.24510727 C102.602472,3.24510727 102.759787,3.24510727 102.915685,3.29614434 L103.071583,3.29614434 C103.356451,3.34151063 103.639902,3.36702916 103.930439,3.40814236 C103.982878,3.40814236 104.029647,3.40814236 104.074999,3.45350865 C104.313098,3.49887494 104.556866,3.53857044 104.799216,3.57401285 C104.851655,3.57401285 104.9211,3.62079684 104.979207,3.62079684 C105.536188,3.73137716 106.104507,3.84762827 106.648733,3.99081562 C106.699754,3.99081562 106.75361,4.0375996 106.798962,4.0375996 C107.031392,4.09288977 107.239728,4.1623569 107.472158,4.22757093 C107.543021,4.22757093 107.592624,4.27293722 107.656401,4.28427879 C107.929931,4.35374592 108.185037,4.42321305 108.450063,4.51111023 C108.462819,4.51111023 108.478408,4.51111023 108.509588,4.55647652 C108.736349,4.62594365 108.967361,4.71384083 109.204043,4.79323183 C109.298999,4.83859812 109.385451,4.85844587 109.471904,4.88112902 C109.634888,4.95201384 109.814879,5.02006327 109.970777,5.08527731 C110.062899,5.08527731 110.15502,5.15049135 110.254228,5.18451607 C110.468234,5.28091943 110.693577,5.36881661 110.914669,5.46096688 C111.030884,5.50775087 111.128674,5.56020564 111.240637,5.60131883 C111.36819,5.66653287 111.499995,5.72607612 111.638886,5.77144241 C111.7551,5.82815027 111.882653,5.88769352 111.993199,5.9387306 C112.115083,6.00536233 112.229881,6.05498171 112.347513,6.12019575 C115.221705,7.53505685 117.870553,9.41917548 120.322403,11.7045022 C121.200376,10.7797585 122.14542,9.92113489 123.149825,9.13563618 C117.788352,5.3305388 111.715417,3.16146317 104.707095,3.16146317 C103.895008,3.16146317 103.084338,3.20824716 102.260914,3.26920811" id="Path" fill="#7DCBEC"></path>
                <path d="M120.322403,11.6364528 C121.862746,13.0802893 123.300055,14.6303197 124.62377,16.2751557 C125.912588,15.3702378 127.222493,14.4957501 128.552399,13.6524172 C126.884323,11.9720612 125.075438,10.4377047 123.145574,9.06616906 C122.141225,9.85016214 121.197486,10.7088916 120.322403,11.6350351" id="Path" fill="#5EC5ED"></path>
                <path d="M102.259496,8.91164014 C103.081504,8.98110727 103.893591,9.01087889 104.705677,9.01087889 C111.712583,9.01087889 117.786935,6.84180326 123.148408,3.04237667 C128.806088,7.50812061 135.64434,9.06758675 145.144196,9.06758675 L99.1401195,9.06758675 C100.20306,9.06758675 101.239073,9.00379041 102.259496,8.91164014" id="Path" fill="url(#linearGradient-16)" transform="translate(122.142158, 6.054982) scale(-1, 1) rotate(-180.000000) translate(-122.142158, -6.054982) "></path>
                <path d="M145.144196,13.6524172 C135.64434,13.6524172 128.806088,12.0929511 123.148408,7.62720712 C125.075767,6.25467133 126.883119,4.72088336 128.550982,3.04237667 C136.426664,8.05109837 144.228649,11.3685082 151.921506,12.817394 C154.804221,13.3657685 157.731597,13.6453086 160.665965,13.6524172 L145.144196,13.6524172 L145.144196,13.6524172 Z" id="Path" fill="url(#linearGradient-17)" transform="translate(141.907187, 8.347397) scale(-1, 1) rotate(-180.000000) translate(-141.907187, -8.347397) "></path>
                <path d="M257.906621,84.171476 C261.992565,71.5681542 266.670922,56.266956 272.471744,37.7078913 C277.701413,20.9861611 286.956083,8.48633119 304.338708,3.0310351 C304.797899,2.09677311 305.231578,1.13415719 305.678013,0.18997133 C277.34143,1.88837173 264.097188,16.3077627 257.431841,37.6611073 C245.776341,74.9408542 238.71558,99.1069086 231.917011,114.505928 C240.600528,106.203897 249.282628,96.0106594 257.906621,84.171476" id="Path" fill="url(#linearGradient-18)"></path>
                <path d="M299.48036,130.011274 L296.268862,130.011274 L296.268862,139.996111 L294.959319,139.996111 L294.959319,130.011274 L291.735065,130.011274 L291.735065,128.823245 L299.478943,128.823245 L299.478943,130.011274 L299.48036,130.011274 Z M312.628229,139.993275 L311.324355,139.993275 L311.324355,132.490826 C311.324355,131.899646 311.369707,131.175203 311.430649,130.32175 C311.29601,130.832121 311.185464,131.186545 311.083422,131.413376 L307.280928,139.993275 L306.643164,139.993275 L302.830749,131.477173 C302.717369,131.240417 302.606823,130.856221 302.486357,130.323168 L302.441005,130.323168 C302.486357,130.772577 302.501946,131.499856 302.501946,132.509256 L302.501946,139.994693 L301.249094,139.994693 L301.249094,128.821827 L302.976727,128.821827 L306.40223,136.619158 C306.661588,137.204666 306.824572,137.656912 306.906773,137.958881 L306.956377,137.958881 C307.183138,137.343601 307.370215,136.885685 307.494934,136.583715 L310.9913,128.821827 L312.636732,128.821827 L312.636732,139.993275 L312.628229,139.993275 L312.628229,139.993275 Z" id="Shape" fill="#000000"></path>
            </g>
        </g>
    </g>
</svg>