<?xml version="1.0" encoding="UTF-8"?>
<svg width="650px" height="650px" viewBox="0 0 650 650" version="1.1" xmlns="http://www.w3.org/2000/svg" xmlns:xlink="http://www.w3.org/1999/xlink">
    <!-- Generator: Sketch 53.2 (72643) - https://sketchapp.com -->
    <title>go-logo3</title>
    <desc>Created with Sketch.</desc>
    <g id="go-logo3" stroke="none" stroke-width="1" fill="none" fill-rule="evenodd">
        <circle id="lg" fill="#FFFFFF" fill-rule="nonzero" cx="325" cy="325" r="320"></circle>
        <g id="Go-Logo_Blue" transform="translate(64.000000, 227.000000)" fill="#00ACD7" fill-rule="nonzero">
            <path d="M39.0152284,59.7368421 C38,59.7368421 37.7461929,59.2105263 38.2538071,58.4210526 L43.5837563,51.3157895 C44.0913706,50.5263158 45.3604061,50 46.3756345,50 L136.984772,50 C138,50 138.253807,50.7894737 137.746193,51.5789474 L133.431472,58.4210526 C132.923858,59.2105263 131.654822,60 130.893401,60 L39.0152284,59.7368421 Z" id="Path"></path>
            <path d="M1.01971689,83 C0,83 -0.254929221,82.4594595 0.254929221,81.6486486 L5.60844287,74.3513514 C6.11830131,73.5405405 7.39294742,73 8.41266431,73 L124.660389,73 C125.680106,73 126.189965,73.8108108 125.935035,74.6216216 L123.895602,81.1081081 C123.640672,82.1891892 122.620955,82.7297297 121.601239,82.7297297 L1.01971689,83 Z" id="Path"></path>
            <path d="M63.004329,106.736842 C62,106.736842 61.7489177,105.947368 62.2510823,105.157895 L65.7662338,98.5789474 C66.2683983,97.7894737 67.2727273,97 68.2770563,97 L118.493506,97 C119.497835,97 120,97.7894737 120,98.8421053 L119.497835,105.157895 C119.497835,106.210526 118.493506,107 117.74026,107 L63.004329,106.736842 Z" id="Path"></path>
            <g id="CXHf1q_3_" transform="translate(137.000000, 0.000000)">
                <g id="Group">
                    <path d="M188.618952,54.9437398 C172.582523,59.0230894 161.637023,62.0826016 145.855141,66.1619512 C142.036943,67.1817886 141.782397,67.436748 138.473292,63.6123577 C134.655095,59.2780488 131.855084,56.4734959 126.509607,53.9239024 C110.473178,46.0201626 94.945842,48.3147967 80.4366919,57.7482927 C63.1275304,68.9665041 54.2184031,85.5388618 54.4729496,106.190569 C54.7274961,126.587317 68.7275532,143.414634 88.8367262,146.219187 C106.145888,148.513821 120.655038,142.394797 132.10963,129.39187 C134.400549,126.587317 136.43692,123.527805 138.982385,119.958374 C129.818712,119.958374 118.364119,119.958374 89.8549122,119.958374 C84.5094358,119.958374 83.2367033,116.643902 85.0185288,112.309593 C88.3276332,104.405854 94.4367491,91.1479675 98.0004,84.5190244 C98.7640394,82.9892683 100.545865,80.4396748 104.364062,80.4396748 C117.345933,80.4396748 165.200674,80.4396748 197.018986,80.4396748 C196.509893,87.3235772 196.509893,94.2074797 195.491707,101.091382 C192.691696,119.448455 185.81894,136.275772 174.618894,151.063415 C156.291547,175.284553 132.364177,190.327154 102.073144,194.406504 C77.1275875,197.720976 53.9638566,192.876748 33.6001371,177.579187 C14.7636966,163.301463 4.07274389,144.434472 1.27273247,120.978211 C-2.03637195,93.1876423 6.10911584,68.201626 22.9091844,46.275122 C40.9819854,22.5639024 64.9093558,7.52130081 94.1822026,2.16715447 C118.109573,-2.16715447 141.018757,0.637398374 161.637023,14.6601626 C175.127987,23.5837398 184.800754,35.8217886 191.164417,50.6094309 C192.691696,52.904065 191.67351,54.1788618 188.618952,54.9437398 Z" id="Path"></path>
                    <path d="M272.873841,195.93626 C249.71011,195.426341 228.582751,188.797398 210.764497,173.499837 C195.746253,160.496911 186.328033,143.924553 183.273475,124.292683 C178.691638,95.4822764 186.58258,69.9863415 203.891741,47.2949593 C222.473635,22.8188618 244.873727,10.0708943 275.164759,4.71674797 C301.128502,0.127479675 325.564965,2.67707317 347.71051,17.7196748 C367.819683,31.4874797 380.292461,50.0995122 383.601566,74.5756098 C387.928856,108.995122 378.001543,137.04065 354.328719,161.006829 C337.52865,178.089106 316.910384,188.797398 293.23756,193.641626 C286.364805,194.916423 279.49205,195.171382 272.873841,195.93626 Z M333.455906,92.9326829 C333.20136,89.6182114 333.20136,87.0686179 332.692267,84.5190244 C328.11043,59.2780488 304.946699,45.0003252 280.764782,50.6094309 C257.091958,55.9635772 241.819169,71.0061789 236.219146,94.9723577 C231.637309,114.859187 241.310076,135.000976 259.637423,143.159675 C273.63748,149.278699 287.637538,148.513821 301.128502,141.629919 C321.237675,131.176585 332.183174,114.859187 333.455906,92.9326829 Z" id="Shape"></path>
                </g>
            </g>
        </g>
    </g>
</svg>