<svg width="64" height="64" viewBox="0 0 64 64" fill="none" xmlns="http://www.w3.org/2000/svg">
<path d="M35.2032 36.5257C35.2032 35.7893 35.8001 35.1923 36.5365 35.1923H48.6045C49.3408 35.1923 49.9378 35.7893 49.9378 36.5257C49.9378 37.262 49.3408 37.859 48.6045 37.859H36.5365C35.8001 37.859 35.2032 37.262 35.2032 36.5257Z" fill="#151E29"/>
<path d="M36.5365 47.26C35.8001 47.26 35.2032 47.857 35.2032 48.5934C35.2032 49.3297 35.8001 49.9267 36.5365 49.9267H41.062C41.7984 49.9267 42.3953 49.3297 42.3953 48.5934C42.3953 47.857 41.7984 47.26 41.062 47.26H36.5365Z" fill="#151E29"/>
<path fill-rule="evenodd" clip-rule="evenodd" d="M29.1693 33.5085C29.1693 31.1058 31.117 29.1581 33.5196 29.1581H51.6216C54.0242 29.1581 55.9719 31.1058 55.9719 33.5085V51.6104C55.9719 54.013 54.0242 55.9607 51.6216 55.9607H33.5196C31.117 55.9607 29.1693 54.013 29.1693 51.6104V33.5085ZM33.5196 31.8248C32.5898 31.8248 31.836 32.5786 31.836 33.5085V51.6104C31.836 52.5403 32.5898 53.2941 33.5196 53.2941H51.6216C52.5514 53.2941 53.3052 52.5403 53.3052 51.6104V33.5085C53.3052 32.5786 52.5514 31.8248 51.6216 31.8248H33.5196Z" fill="#151E29"/>
<path d="M28.5577 8.56224C25.5386 7.78147 22.3596 7.87666 19.3926 8.83667C16.4256 9.79668 13.7934 11.5818 11.8039 13.9832C9.81448 16.3845 8.55004 19.3028 8.15857 22.3966C7.76711 25.4903 8.26481 28.6316 9.59344 31.4528C10.9221 34.274 13.0267 36.6585 15.661 38.3272C18.2954 39.996 21.3505 40.88 24.4689 40.8759C25.2053 40.8749 25.8014 40.2771 25.8004 39.5408C25.7995 38.8044 25.2017 38.2082 24.4653 38.2092C21.8534 38.2127 19.2945 37.4723 17.088 36.0745C14.8816 34.6768 13.1188 32.6796 12.006 30.3166C10.8931 27.9536 10.4763 25.3226 10.8041 22.7313C11.132 20.14 12.1911 17.6958 13.8574 15.6844C15.5238 13.6731 17.7285 12.1779 20.2135 11.3738C22.6986 10.5697 25.3613 10.49 27.89 11.144C30.4188 11.7979 32.7089 13.1585 34.4926 15.0665C36.2763 16.9746 37.4798 19.3511 37.9621 21.9181C38.0455 22.3621 38.3481 22.7336 38.7659 22.9052C39.1838 23.0769 39.6601 23.0253 40.0315 22.7681C40.9663 22.1208 42.0222 21.6688 43.1358 21.4392C44.2494 21.2096 45.3979 21.207 46.5126 21.4316C47.6272 21.6563 48.685 22.1035 49.6228 22.7466C50.5605 23.3897 51.3588 24.2154 51.97 25.1742C52.3657 25.7952 53.19 25.9777 53.811 25.582C54.4319 25.1862 54.6145 24.3619 54.2187 23.741C53.4148 22.4796 52.3645 21.3934 51.131 20.5474C49.8974 19.7014 48.5057 19.1131 47.0394 18.8175C45.5731 18.522 44.0622 18.5254 42.5972 18.8275C41.7481 19.0026 40.9246 19.2759 40.1428 19.6406C39.4131 17.263 38.1501 15.074 36.4407 13.2455C34.3111 10.9674 31.5768 9.343 28.5577 8.56224Z" fill="#151E29"/>
<path d="M36.5352 41.2262C35.7988 41.2262 35.2019 41.8231 35.2019 42.5595C35.2019 43.2959 35.7988 43.8928 36.5352 43.8928H48.6032C49.3395 43.8928 49.9365 43.2959 49.9365 42.5595C49.9365 41.8231 49.3395 41.2262 48.6032 41.2262H36.5352Z" fill="#151E29"/>
</svg>
