<svg width="64" height="64" viewBox="0 0 64 64" fill="none" xmlns="http://www.w3.org/2000/svg">
<path d="M10.6666 18.6667V45.3333C10.6666 51.2244 20.2179 56 32 56C43.782 56 53.3333 51.2244 53.3333 45.3333V18.6667M10.6666 18.6667C10.6666 24.5577 20.2179 29.3333 32 29.3333C43.782 29.3333 53.3333 24.5577 53.3333 18.6667M10.6666 18.6667C10.6666 12.7756 20.2179 8 32 8C43.782 8 53.3333 12.7756 53.3333 18.6667M53.3333 32C53.3333 37.891 43.782 42.6667 32 42.6667C20.2179 42.6667 10.6666 37.891 10.6666 32" stroke="#151E29" stroke-width="3"/>
</svg>
