<svg width="47" height="36" viewBox="0 0 47 36" fill="none" xmlns="http://www.w3.org/2000/svg">
<path d="M20.5577 0.562238C17.5386 -0.218529 14.3596 -0.12334 11.3926 0.836668C8.42563 1.79668 5.79342 3.5818 3.80395 5.98316C1.81448 8.38452 0.55004 11.3028 0.158575 14.3966C-0.232891 17.4903 0.26481 20.6316 1.59344 23.4528C2.92208 26.274 5.02669 28.6585 7.66103 30.3272C10.2954 31.996 13.3505 32.88 16.4689 32.8759C17.2053 32.8749 17.8014 32.2771 17.8004 31.5408C17.7995 30.8044 17.2017 30.2082 16.4653 30.2092C13.8534 30.2127 11.2945 29.4723 9.08805 28.0745C6.88158 26.6768 5.1188 24.6796 4.00596 22.3166C2.89313 19.9536 2.47626 17.3226 2.80415 14.7313C3.13203 12.14 4.1911 9.69575 5.85744 7.68442C7.52378 5.67309 9.72846 4.17791 12.2135 3.37383C14.6986 2.56974 17.3613 2.49002 19.89 3.14397C22.4188 3.79792 24.7089 5.15851 26.4926 7.06654C28.2763 8.97457 29.4798 11.3511 29.9621 13.9181C30.0455 14.3621 30.3481 14.7336 30.7659 14.9052C31.1838 15.0769 31.6601 15.0253 32.0315 14.7681C32.9663 14.1208 34.0222 13.6688 35.1358 13.4392C36.2494 13.2096 37.3979 13.207 38.5126 13.4316C39.6272 13.6563 40.685 14.1035 41.6228 14.7466C42.5605 15.3897 43.3588 16.2154 43.97 17.1742C44.3657 17.7952 45.19 17.9777 45.811 17.582C46.4319 17.1862 46.6145 16.3619 46.2187 15.741C45.4148 14.4796 44.3645 13.3934 43.131 12.5474C41.8974 11.7014 40.5057 11.1131 39.0394 10.8175C37.5731 10.522 36.0622 10.5254 34.5972 10.8275C33.7481 11.0026 32.9246 11.2759 32.1428 11.6406C31.4131 9.26295 30.1501 7.074 28.4407 5.24546C26.3111 2.96743 23.5768 1.343 20.5577 0.562238Z" fill="#151E29"/>
<path d="M28.5352 33.2262C27.7988 33.2262 27.2019 33.8231 27.2019 34.5595C27.2019 35.2959 27.7988 35.8928 28.5352 35.8928H40.6032C41.3395 35.8928 41.9365 35.2959 41.9365 34.5595C41.9365 33.8231 41.3395 33.2262 40.6032 33.2262H28.5352Z" fill="#151E29"/>
</svg>
