<svg width="64" height="64" viewBox="0 0 64 64" fill="none" xmlns="http://www.w3.org/2000/svg">
<path fill-rule="evenodd" clip-rule="evenodd" d="M46 7.33334C44.7177 7.33334 43.4429 7.41743 42.246 7.58269C41.0516 7.7476 39.9398 7.99263 38.9787 8.31299C38.0314 8.62877 37.1805 9.03405 36.5412 9.54846C35.9113 10.0554 35.3334 10.8028 35.3334 11.7778V30.4445C35.3334 31.4578 35.951 32.2107 36.5751 32.7024C37.2143 33.2061 38.0567 33.6015 38.9789 33.909C40.8372 34.5285 43.3195 34.889 46 34.889C48.6806 34.889 51.1629 34.5285 53.0212 33.909C53.9433 33.6015 54.7858 33.2061 55.425 32.7024C56.0491 32.2107 56.6667 31.4578 56.6667 30.4445V11.7778C56.6667 10.8028 56.0888 10.0554 55.4588 9.54846C54.8196 9.03405 53.9687 8.62877 53.0213 8.31299C52.0603 7.99263 50.9485 7.7476 49.7541 7.58269C48.5572 7.41743 47.2824 7.33334 46 7.33334ZM38 30.3857V24.1998C38.3115 24.3376 38.6398 24.4626 38.9789 24.5756C40.8372 25.1951 43.3195 25.5556 46 25.5556C48.6806 25.5556 51.1629 25.1951 53.0212 24.5756C53.3603 24.4626 53.6886 24.3376 54 24.1998V30.3857C53.9766 30.4214 53.9161 30.4964 53.7746 30.6078C53.4692 30.8485 52.9447 31.1235 52.1778 31.3792C50.6579 31.8859 48.4735 32.2223 46 32.2223C43.5265 32.2223 41.3422 31.8859 39.8223 31.3792C39.0554 31.1235 38.5308 30.8485 38.2254 30.6078C38.084 30.4964 38.0235 30.4214 38 30.3857ZM54 14.8665C53.6898 15.004 53.3618 15.1291 53.0213 15.2426C52.0603 15.5629 50.9485 15.808 49.7541 15.9729C48.5572 16.1381 47.2824 16.2222 46 16.2222C44.7177 16.2222 43.4429 16.1381 42.246 15.9729C41.0516 15.808 39.9398 15.5629 38.9787 15.2426C38.6383 15.1291 38.3103 15.004 38 14.8665V21.0523C38.0235 21.0881 38.084 21.1631 38.2254 21.2745C38.5308 21.5151 39.0554 21.7902 39.8223 22.0458C41.3422 22.5525 43.5265 22.889 46 22.889C48.4735 22.889 50.6579 22.5525 52.1778 22.0458C52.9447 21.7902 53.4692 21.5151 53.7746 21.2745C53.9161 21.1631 53.9766 21.0881 54 21.0523V14.8665ZM42.6107 10.2243C43.6785 10.0769 44.831 10 46 10C47.1691 10 48.3216 10.0769 49.3894 10.2243C50.4597 10.3721 51.4058 10.5854 52.1781 10.8428C52.9641 11.1048 53.4881 11.3855 53.787 11.626C53.863 11.6871 53.9153 11.7384 53.9505 11.7778C53.9153 11.8172 53.863 11.8685 53.787 11.9296C53.4881 12.1701 52.9641 12.4508 52.1781 12.7128C51.4058 12.9702 50.4597 13.1835 49.3894 13.3313C48.3216 13.4787 47.1691 13.5556 46 13.5556C44.831 13.5556 43.6785 13.4787 42.6107 13.3313C41.5403 13.1835 40.5943 12.9702 39.822 12.7128C39.036 12.4508 38.5119 12.1701 38.2131 11.9296C38.1371 11.8685 38.0848 11.8172 38.0496 11.7778C38.0848 11.7384 38.1371 11.6871 38.2131 11.626C38.5119 11.3855 39.036 11.1048 39.822 10.8428C40.5943 10.5854 41.5403 10.3721 42.6107 10.2243ZM54.0132 30.3615C54.0134 30.3615 54.0126 30.3641 54.01 30.369C54.0108 30.3668 54.0114 30.365 54.012 30.3638C54.0122 30.3633 54.0118 30.3641 54.012 30.3638L54.0132 30.3615ZM37.9901 30.369C37.9884 30.364 37.9871 30.3615 37.9869 30.3615C37.9868 30.3615 37.9867 30.361 37.9869 30.3615C37.9872 30.3626 37.9883 30.3656 37.9901 30.369Z" fill="black"/>
<path fill-rule="evenodd" clip-rule="evenodd" d="M8.66671 32.2222C7.93033 32.2222 7.33337 32.8191 7.33337 33.5555V49.1111C7.33337 49.8474 7.93033 50.4444 8.66671 50.4444H19.7774V54H14.8894C14.153 54 13.556 54.597 13.556 55.3333C13.556 56.0697 14.153 56.6667 14.8894 56.6667H21.0984L21.1107 56.6667L21.1231 56.6667H27.3338C28.0702 56.6667 28.6671 56.0697 28.6671 55.3333C28.6671 54.597 28.0702 54 27.3338 54H22.4441V50.4444H33.5556C34.292 50.4444 34.8889 49.8474 34.8889 49.1111V33.5555C34.8889 32.8191 34.292 32.2222 33.5556 32.2222H8.66671ZM10 47.7777V34.8888H32.2223V47.7777H10Z" fill="black"/>
<path d="M26.7201 9.27935C26.1994 8.75865 25.3552 8.75865 24.8345 9.27935C24.3138 9.80005 24.3138 10.6443 24.8345 11.165L27.225 13.5555H21.1115C19.1076 13.5555 17.1859 14.3515 15.7689 15.7685C14.352 17.1854 13.5559 19.1072 13.5559 21.111V22.5589L11.1654 20.1683C10.6447 19.6476 9.80051 19.6476 9.27981 20.1683C8.75911 20.689 8.75911 21.5333 9.27981 22.054L13.9465 26.7206C14.4672 27.2413 15.3114 27.2413 15.8321 26.7206C15.8474 26.7054 15.8622 26.6898 15.8766 26.674L20.4985 22.0541C21.0194 21.5335 21.0196 20.6893 20.499 20.1684C19.9784 19.6476 19.1342 19.6474 18.6133 20.168L16.2226 22.5577V21.111C16.2226 19.8144 16.7377 18.5709 17.6545 17.6541C18.5714 16.7372 19.8149 16.2222 21.1115 16.2222H27.225L24.8345 18.6127C24.3138 19.1334 24.3138 19.9776 24.8345 20.4983C25.3552 21.019 26.1994 21.019 26.7201 20.4983L31.3585 15.8599C31.6169 15.6167 31.7782 15.2716 31.7782 14.8888C31.7782 14.506 31.6169 14.1609 31.3585 13.9177L26.7201 9.27935Z" fill="black"/>
</svg>
