<svg width="64" height="64" viewBox="0 0 64 64" fill="none" xmlns="http://www.w3.org/2000/svg">
<path d="M51.808 41.1418C51.0634 40.3973 50.1152 39.8898 49.0827 39.6833L42.7159 38.41C39.227 37.7122 35.605 38.1972 32.4226 39.7884L31.5763 40.2116C28.3939 41.8028 24.7719 42.2878 21.283 41.59L16.1317 40.5598C14.3831 40.2101 12.5754 40.7574 11.3145 42.0183M21.3328 10.6667H42.6661L39.9995 13.3333V27.1242C39.9995 28.5387 40.5614 29.8952 41.5616 30.8954L54.8949 44.2288C58.2547 47.5886 55.8751 53.3333 51.1237 53.3333H12.8753C8.12378 53.3333 5.74423 47.5886 9.10404 44.2288L22.4374 30.8954C23.4376 29.8952 23.9995 28.5387 23.9995 27.1242V13.3333L21.3328 10.6667Z" stroke="#151E29" stroke-width="3" stroke-linecap="round" stroke-linejoin="round"/>
</svg>
