<svg width="64" height="64" viewBox="0 0 64 64" fill="none" xmlns="http://www.w3.org/2000/svg">
<path d="M20.6219 16.1927C17.4563 16.1927 14.8901 18.759 14.8901 21.9246C14.8901 25.0902 17.4563 27.6564 20.6219 27.6564C23.7875 27.6564 26.3538 25.0902 26.3538 21.9246C26.3538 18.759 23.7875 16.1927 20.6219 16.1927ZM13.5413 21.9246C13.5413 18.014 16.7114 14.8439 20.6219 14.8439C24.5324 14.8439 27.7026 18.014 27.7026 21.9246C27.7026 25.8351 24.5324 29.0052 20.6219 29.0052C16.7114 29.0052 13.5413 25.8351 13.5413 21.9246Z" fill="#151E29"/>
<path d="M20.6219 16.1927C17.4563 16.1927 14.8901 18.759 14.8901 21.9246C14.8901 25.0902 17.4563 27.6564 20.6219 27.6564C23.7875 27.6564 26.3538 25.0902 26.3538 21.9246C26.3538 18.759 23.7875 16.1927 20.6219 16.1927ZM13.5413 21.9246C13.5413 18.014 16.7114 14.8439 20.6219 14.8439C24.5324 14.8439 27.7026 18.014 27.7026 21.9246C27.7026 25.8351 24.5324 29.0052 20.6219 29.0052C16.7114 29.0052 13.5413 25.8351 13.5413 21.9246Z" stroke="black"/>
<path d="M27.9936 40.6649C25.4684 40.6649 23.4213 42.7119 23.4213 45.2371C23.4213 47.7623 25.4684 49.8094 27.9936 49.8094C30.5187 49.8094 32.5658 47.7623 32.5658 45.2371C32.5658 42.7119 30.5187 40.6649 27.9936 40.6649ZM22.0725 45.2371C22.0725 41.967 24.7235 39.3161 27.9936 39.3161C31.2637 39.3161 33.9146 41.967 33.9146 45.2371C33.9146 48.5072 31.2637 51.1582 27.9936 51.1582C24.7235 51.1582 22.0725 48.5072 22.0725 45.2371Z" fill="#151E29"/>
<path d="M27.9936 40.6649C25.4684 40.6649 23.4213 42.7119 23.4213 45.2371C23.4213 47.7623 25.4684 49.8094 27.9936 49.8094C30.5187 49.8094 32.5658 47.7623 32.5658 45.2371C32.5658 42.7119 30.5187 40.6649 27.9936 40.6649ZM22.0725 45.2371C22.0725 41.967 24.7235 39.3161 27.9936 39.3161C31.2637 39.3161 33.9146 41.967 33.9146 45.2371C33.9146 48.5072 31.2637 51.1582 27.9936 51.1582C24.7235 51.1582 22.0725 48.5072 22.0725 45.2371Z" stroke="black"/>
<path d="M43.8442 20.9973C40.6786 20.9973 38.1124 23.5635 38.1124 26.7292C38.1124 29.8948 40.6786 32.461 43.8442 32.461C47.0098 32.461 49.576 29.8948 49.576 26.7292C49.576 23.5635 47.0098 20.9973 43.8442 20.9973ZM36.7635 26.7292C36.7635 22.8186 39.9337 19.6485 43.8442 19.6485C47.7547 19.6485 50.9249 22.8186 50.9249 26.7292C50.9249 30.6397 47.7547 33.8098 43.8442 33.8098C39.9337 33.8098 36.7635 30.6397 36.7635 26.7292Z" fill="#151E29"/>
<path d="M43.8442 20.9973C40.6786 20.9973 38.1124 23.5635 38.1124 26.7292C38.1124 29.8948 40.6786 32.461 43.8442 32.461C47.0098 32.461 49.576 29.8948 49.576 26.7292C49.576 23.5635 47.0098 20.9973 43.8442 20.9973ZM36.7635 26.7292C36.7635 22.8186 39.9337 19.6485 43.8442 19.6485C47.7547 19.6485 50.9249 22.8186 50.9249 26.7292C50.9249 30.6397 47.7547 33.8098 43.8442 33.8098C39.9337 33.8098 36.7635 30.6397 36.7635 26.7292Z" stroke="black"/>
<path d="M41.8424 14.1906C41.1092 14.1906 40.5148 14.785 40.5148 15.5182C40.5148 16.2514 41.1092 16.8457 41.8424 16.8457C42.5756 16.8457 43.1699 16.2514 43.1699 15.5182C43.1699 14.785 42.5756 14.1906 41.8424 14.1906ZM39.166 15.5182C39.166 14.0401 40.3643 12.8418 41.8424 12.8418C43.3205 12.8418 44.5187 14.0401 44.5187 15.5182C44.5187 16.9963 43.3205 18.1945 41.8424 18.1945C40.3643 18.1945 39.166 16.9963 39.166 15.5182Z" fill="#151E29"/>
<path d="M41.8424 14.1906C41.1092 14.1906 40.5148 14.785 40.5148 15.5182C40.5148 16.2514 41.1092 16.8457 41.8424 16.8457C42.5756 16.8457 43.1699 16.2514 43.1699 15.5182C43.1699 14.785 42.5756 14.1906 41.8424 14.1906ZM39.166 15.5182C39.166 14.0401 40.3643 12.8418 41.8424 12.8418C43.3205 12.8418 44.5187 14.0401 44.5187 15.5182C44.5187 16.9963 43.3205 18.1945 41.8424 18.1945C40.3643 18.1945 39.166 16.9963 39.166 15.5182Z" stroke="black"/>
<path d="M27.9969 32.9588C27.645 32.9588 27.3597 33.2441 27.3597 33.5961C27.3597 33.948 27.645 34.2333 27.9969 34.2333C28.3489 34.2333 28.6342 33.948 28.6342 33.5961C28.6342 33.2441 28.3489 32.9588 27.9969 32.9588ZM26.0109 33.5961C26.0109 32.4992 26.9001 31.61 27.9969 31.61C29.0938 31.61 29.983 32.4992 29.983 33.5961C29.983 34.6929 29.0938 35.5821 27.9969 35.5821C26.9001 35.5821 26.0109 34.6929 26.0109 33.5961Z" fill="#151E29"/>
<path d="M27.9969 32.9588C27.645 32.9588 27.3597 33.2441 27.3597 33.5961C27.3597 33.948 27.645 34.2333 27.9969 34.2333C28.3489 34.2333 28.6342 33.948 28.6342 33.5961C28.6342 33.2441 28.3489 32.9588 27.9969 32.9588ZM26.0109 33.5961C26.0109 32.4992 26.9001 31.61 27.9969 31.61C29.0938 31.61 29.983 32.4992 29.983 33.5961C29.983 34.6929 29.0938 35.5821 27.9969 35.5821C26.9001 35.5821 26.0109 34.6929 26.0109 33.5961Z" stroke="black"/>
<path d="M33.8961 37.8775C33.5441 37.8775 33.2588 38.1629 33.2588 38.5148C33.2588 38.8668 33.5442 39.1521 33.8961 39.1521C34.248 39.1521 34.5334 38.8668 34.5334 38.5148C34.5334 38.1629 34.248 37.8775 33.8961 37.8775ZM31.91 38.5148C31.91 37.4179 32.7992 36.5287 33.8961 36.5287C34.993 36.5287 35.8822 37.4179 35.8822 38.5148C35.8822 39.6117 34.993 40.5009 33.8961 40.5009C32.7992 40.5009 31.91 39.6117 31.91 38.5148Z" fill="#151E29"/>
<path d="M33.8961 37.8775C33.5441 37.8775 33.2588 38.1629 33.2588 38.5148C33.2588 38.8668 33.5442 39.1521 33.8961 39.1521C34.248 39.1521 34.5334 38.8668 34.5334 38.5148C34.5334 38.1629 34.248 37.8775 33.8961 37.8775ZM31.91 38.5148C31.91 37.4179 32.7992 36.5287 33.8961 36.5287C34.993 36.5287 35.8822 37.4179 35.8822 38.5148C35.8822 39.6117 34.993 40.5009 33.8961 40.5009C32.7992 40.5009 31.91 39.6117 31.91 38.5148Z" stroke="black"/>
<path d="M52.8531 14.5909C51.4565 14.5909 50.3244 15.7231 50.3244 17.1196C50.3244 18.5162 51.4565 19.6484 52.8531 19.6484C54.2497 19.6484 55.3818 18.5162 55.3818 17.1196C55.3818 15.7231 54.2497 14.5909 52.8531 14.5909ZM48.9756 17.1196C48.9756 14.9781 50.7116 13.2421 52.8531 13.2421C54.9946 13.2421 56.7306 14.9781 56.7306 17.1196C56.7306 19.2611 54.9946 20.9972 52.8531 20.9972C50.7116 20.9972 48.9756 19.2611 48.9756 17.1196Z" fill="#151E29"/>
<path d="M52.8531 14.5909C51.4565 14.5909 50.3244 15.7231 50.3244 17.1196C50.3244 18.5162 51.4565 19.6484 52.8531 19.6484C54.2497 19.6484 55.3818 18.5162 55.3818 17.1196C55.3818 15.7231 54.2497 14.5909 52.8531 14.5909ZM48.9756 17.1196C48.9756 14.9781 50.7116 13.2421 52.8531 13.2421C54.9946 13.2421 56.7306 14.9781 56.7306 17.1196C56.7306 19.2611 54.9946 20.9972 52.8531 20.9972C50.7116 20.9972 48.9756 19.2611 48.9756 17.1196Z" stroke="black"/>
<path d="M21.2712 35.5823C20.1949 35.5823 19.3223 36.4549 19.3223 37.5312C19.3223 38.6076 20.1949 39.4801 21.2712 39.4801C22.3476 39.4801 23.2201 38.6076 23.2201 37.5312C23.2201 36.4549 22.3476 35.5823 21.2712 35.5823ZM17.9735 37.5312C17.9735 35.7099 19.45 34.2335 21.2712 34.2335C23.0925 34.2335 24.569 35.7099 24.569 37.5312C24.569 39.3525 23.0925 40.8289 21.2712 40.8289C19.45 40.8289 17.9735 39.3525 17.9735 37.5312Z" fill="#151E29"/>
<path d="M21.2712 35.5823C20.1949 35.5823 19.3223 36.4549 19.3223 37.5312C19.3223 38.6076 20.1949 39.4801 21.2712 39.4801C22.3476 39.4801 23.2201 38.6076 23.2201 37.5312C23.2201 36.4549 22.3476 35.5823 21.2712 35.5823ZM17.9735 37.5312C17.9735 35.7099 19.45 34.2335 21.2712 34.2335C23.0925 34.2335 24.569 35.7099 24.569 37.5312C24.569 39.3525 23.0925 40.8289 21.2712 40.8289C19.45 40.8289 17.9735 39.3525 17.9735 37.5312Z" stroke="black"/>
<path d="M9.01046 24.8011C7.61389 24.8011 6.48174 25.9333 6.48174 27.3299C6.48174 28.7264 7.61389 29.8586 9.01046 29.8586C10.407 29.8586 11.5392 28.7264 11.5392 27.3299C11.5392 25.9333 10.407 24.8011 9.01046 24.8011ZM5.13293 27.3299C5.13293 25.1884 6.86896 23.4523 9.01046 23.4523C11.152 23.4523 12.888 25.1884 12.888 27.3299C12.888 29.4714 11.152 31.2074 9.01046 31.2074C6.86896 31.2074 5.13293 29.4714 5.13293 27.3299Z" fill="#151E29"/>
<path d="M9.01046 24.8011C7.61389 24.8011 6.48174 25.9333 6.48174 27.3299C6.48174 28.7264 7.61389 29.8586 9.01046 29.8586C10.407 29.8586 11.5392 28.7264 11.5392 27.3299C11.5392 25.9333 10.407 24.8011 9.01046 24.8011ZM5.13293 27.3299C5.13293 25.1884 6.86896 23.4523 9.01046 23.4523C11.152 23.4523 12.888 25.1884 12.888 27.3299C12.888 29.4714 11.152 31.2074 9.01046 31.2074C6.86896 31.2074 5.13293 29.4714 5.13293 27.3299Z" stroke="black"/>
<path d="M56.4566 24.0002C55.7234 24.0002 55.1291 24.5946 55.1291 25.3278C55.1291 26.0609 55.7234 26.6553 56.4566 26.6553C57.1898 26.6553 57.7842 26.0609 57.7842 25.3278C57.7842 24.5946 57.1898 24.0002 56.4566 24.0002ZM53.7803 25.3278C53.7803 23.8496 54.9785 22.6514 56.4566 22.6514C57.9347 22.6514 59.133 23.8496 59.133 25.3278C59.133 26.8059 57.9347 28.0041 56.4566 28.0041C54.9785 28.0041 53.7803 26.8059 53.7803 25.3278Z" fill="#151E29"/>
<path d="M56.4566 24.0002C55.7234 24.0002 55.1291 24.5946 55.1291 25.3278C55.1291 26.0609 55.7234 26.6553 56.4566 26.6553C57.1898 26.6553 57.7842 26.0609 57.7842 25.3278C57.7842 24.5946 57.1898 24.0002 56.4566 24.0002ZM53.7803 25.3278C53.7803 23.8496 54.9785 22.6514 56.4566 22.6514C57.9347 22.6514 59.133 23.8496 59.133 25.3278C59.133 26.8059 57.9347 28.0041 56.4566 28.0041C54.9785 28.0041 53.7803 26.8059 53.7803 25.3278Z" stroke="black"/>
<path d="M10.2118 14.7914C9.47857 14.7914 8.88421 15.3858 8.88421 16.119C8.88421 16.8521 9.47857 17.4465 10.2118 17.4465C10.9449 17.4465 11.5393 16.8521 11.5393 16.119C11.5393 15.3858 10.9449 14.7914 10.2118 14.7914ZM7.5354 16.119C7.5354 14.6408 8.73365 13.4426 10.2118 13.4426C11.6899 13.4426 12.8881 14.6408 12.8881 16.119C12.8881 17.5971 11.6899 18.7953 10.2118 18.7953C8.73365 18.7953 7.5354 17.5971 7.5354 16.119Z" fill="#151E29"/>
<path d="M10.2118 14.7914C9.47857 14.7914 8.88421 15.3858 8.88421 16.119C8.88421 16.8521 9.47857 17.4465 10.2118 17.4465C10.9449 17.4465 11.5393 16.8521 11.5393 16.119C11.5393 15.3858 10.9449 14.7914 10.2118 14.7914ZM7.5354 16.119C7.5354 14.6408 8.73365 13.4426 10.2118 13.4426C11.6899 13.4426 12.8881 14.6408 12.8881 16.119C12.8881 17.5971 11.6899 18.7953 10.2118 18.7953C8.73365 18.7953 7.5354 17.5971 7.5354 16.119Z" stroke="black"/>
<path d="M53.2536 31.2073C52.5204 31.2073 51.9261 31.8016 51.9261 32.5348C51.9261 33.268 52.5204 33.8624 53.2536 33.8624C53.9868 33.8624 54.5812 33.268 54.5812 32.5348C54.5812 31.8016 53.9868 31.2073 53.2536 31.2073ZM50.5773 32.5348C50.5773 31.0567 51.7755 29.8585 53.2536 29.8585C54.7317 29.8585 55.93 31.0567 55.93 32.5348C55.93 34.0129 54.7317 35.2112 53.2536 35.2112C51.7755 35.2112 50.5773 34.0129 50.5773 32.5348Z" fill="#151E29"/>
<path d="M53.2536 31.2073C52.5204 31.2073 51.9261 31.8016 51.9261 32.5348C51.9261 33.268 52.5204 33.8624 53.2536 33.8624C53.9868 33.8624 54.5812 33.268 54.5812 32.5348C54.5812 31.8016 53.9868 31.2073 53.2536 31.2073ZM50.5773 32.5348C50.5773 31.0567 51.7755 29.8585 53.2536 29.8585C54.7317 29.8585 55.93 31.0567 55.93 32.5348C55.93 34.0129 54.7317 35.2112 53.2536 35.2112C51.7755 35.2112 50.5773 34.0129 50.5773 32.5348Z" stroke="black"/>
</svg>
