<svg width="64" height="64" viewBox="0 0 64 64" fill="none" xmlns="http://www.w3.org/2000/svg">
<path fill-rule="evenodd" clip-rule="evenodd" d="M53.7085 8.72156H10.3138L10.3097 8.72156C8.99434 8.72562 7.73403 9.24993 6.80393 10.18C5.87384 11.1101 5.34951 12.3704 5.34546 13.6858V50.5689C5.34546 51.818 5.84164 53.0158 6.72484 53.899C7.60804 54.7822 8.80592 55.2784 10.055 55.2784H53.6863L53.6904 55.2784C55.0058 55.2744 56.2661 54.7501 57.1962 53.82C58.1263 52.8899 58.6506 51.6295 58.6547 50.3142L58.6547 50.3101L58.6547 13.6719L58.6547 13.6678C58.6506 12.3572 58.1282 11.1015 57.2015 10.1748C56.2748 9.24804 55.019 8.72562 53.7085 8.72156ZM55.988 18.85V13.676L55.988 13.6745C55.9857 13.0689 55.7441 12.4887 55.3159 12.0604C54.8876 11.6322 54.3076 11.3906 53.702 11.3882H10.3161C9.70579 11.3906 9.12113 11.6341 8.68955 12.0656C8.25797 12.4972 8.01449 13.0819 8.01213 13.6922V18.85H55.988ZM8.01213 21.5166H55.988V50.306L55.988 50.3075C55.9857 50.9179 55.7422 51.5027 55.3106 51.9343C54.8789 52.366 54.2941 52.6095 53.6837 52.6118H10.055C9.51317 52.6118 8.99357 52.3965 8.61046 52.0134C8.22735 51.6303 8.01213 51.1107 8.01213 50.5689V21.5166Z" fill="black"/>
<path d="M36.5694 30.9081C36.8987 30.2495 36.6317 29.4486 35.9731 29.1193C35.3145 28.7899 34.5136 29.0569 34.1842 29.7156L27.4319 43.2202C27.1026 43.8789 27.3696 44.6798 28.0282 45.0091C28.6868 45.3384 29.4877 45.0714 29.817 44.4128L36.5694 30.9081Z" fill="black"/>
<path d="M22.8141 29.3691C23.3348 29.8898 23.3348 30.734 22.8141 31.2547L17.0046 37.0642L22.8141 42.8737C23.3348 43.3944 23.3348 44.2387 22.8141 44.7594C22.2934 45.2801 21.4492 45.2801 20.9285 44.7594L14.1762 38.007C13.6555 37.4863 13.6555 36.6421 14.1762 36.1214L20.9285 29.3691C21.4492 28.8484 22.2934 28.8484 22.8141 29.3691Z" fill="black"/>
<path d="M41.1866 29.3691C41.7073 28.8484 42.5515 28.8484 43.0722 29.3691L49.8245 36.1214C50.3452 36.6421 50.3452 37.4863 49.8245 38.007L43.0722 44.7594C42.5515 45.2801 41.7073 45.2801 41.1866 44.7594C40.6659 44.2387 40.6659 43.3944 41.1866 42.8737L46.9961 37.0642L41.1866 31.2547C40.6659 30.734 40.6659 29.8898 41.1866 29.3691Z" fill="black"/>
</svg>
