<?xml version="1.0" encoding="UTF-8"?>
<svg width="640px" height="640px" viewBox="0 0 640 640" version="1.1" xmlns="http://www.w3.org/2000/svg" xmlns:xlink="http://www.w3.org/1999/xlink">
    <!-- Generator: Sketch 53.2 (72643) - https://sketchapp.com -->
    <title>java-logo</title>
    <desc>Created with Sketch.</desc>
    <g id="java-logo" stroke="none" stroke-width="1" fill="none" fill-rule="evenodd">
        <g id="neo4j-icon" fill="#FFFFFF" fill-rule="nonzero">
            <circle id="lg" cx="320" cy="320" r="320"></circle>
        </g>
        <g id="java-logo-vector-1" transform="translate(87.000000, 87.000000)" fill-rule="nonzero">
            <polygon id="Path" fill-opacity="0" fill="#FFFFFF" points="0 0 466 0 466 466 0 466"></polygon>
            <path d="M193.628117,245.918571 C193.628117,245.918571 182.510061,252.398063 201.548887,254.586917 C224.620545,257.225635 236.405105,256.845911 261.8216,252.030432 C261.8216,252.030432 268.513202,256.226744 277.853914,259.857097 C220.860594,284.316635 148.868523,258.442203 193.628117,245.918571 Z M186.661221,214 C186.661221,214 174.188423,223.246397 193.244153,225.219993 C217.890305,227.769222 237.344489,227.977224 271.029495,221.485639 C271.029495,221.485639 275.680532,226.214048 283,228.797137 C214.101376,248.980548 137.366502,230.386173 186.661221,214 Z" id="Shape" fill="#3174B9"></path>
            <path d="M246.888264,160.127564 C260.950046,176.381707 243.202424,191 243.202424,191 C243.202424,191 278.891023,172.503236 262.499307,149.331919 C247.195216,127.733349 235.456117,117.003236 299,80 C298.997583,79.9975729 199.252708,105.006188 246.888264,160.127564 Z" id="Path" fill="#CA3132"></path>
            <path d="M322.648062,269.44995 C322.648062,269.44995 330.894436,276.248865 313.564468,281.506532 C280.610428,291.487146 176.381392,294.497058 147.429554,281.903337 C137.029637,277.373952 156.542184,271.095239 162.68099,269.769329 C169.083544,268.385351 172.737307,268.636983 172.737307,268.636983 C161.163831,260.487963 97.9295325,284.642259 140.622907,291.57183 C257.040027,310.446684 352.841211,283.074396 322.648062,269.44995 Z M200.638991,180.812415 C200.638991,180.812415 147.62797,193.406136 181.869295,197.983911 C196.331906,199.917126 225.140981,199.47193 251.99735,197.219336 C273.939286,195.378063 295.963492,191.439048 295.963492,191.439048 C295.963492,191.439048 288.232517,194.756241 282.630887,198.57428 C228.789905,212.735864 124.79558,206.14019 154.73708,191.664065 C180.052093,179.418758 200.638991,180.812415 200.638991,180.812415 L200.638991,180.812415 Z M295.743299,233.962514 C350.469895,205.532885 325.16698,178.206567 307.500673,181.889112 C303.181489,182.791601 301.243301,183.570694 301.243301,183.570694 C301.243301,183.570694 302.854828,181.04953 305.918182,179.965575 C340.861224,167.686395 367.729691,216.190971 294.652004,235.399722 C294.64959,235.399722 295.491649,234.639986 295.743299,233.962514 Z" id="Shape" fill="#3174B9"></path>
            <path d="M262.247296,20 C262.247296,20 292.46831,50.3166299 233.575582,96.9201923 C186.346047,134.318202 222.807702,155.634923 233.561103,180 C205.987414,155.063961 185.762043,133.108537 199.329282,112.679711 C219.248172,82.69211 274.441402,68.1495146 262.247296,20 Z" id="Path" fill="#CA3132"></path>
            <path d="M205.392047,311.105659 C258.109044,314.386595 339.078912,309.28318 341,285 C341,285 337.313259,294.204585 297.426995,301.506322 C252.425925,309.75121 196.913514,308.791512 164,303.503722 C164,303.503722 170.744453,308.935703 205.392047,311.105659 Z" id="Path" fill="#3174B9"></path>
            <path d="M338.356951,355.590311 L336.75745,355.590311 L336.75745,354.699968 L341.073678,354.699968 L341.073678,355.590311 L339.474178,355.590311 L339.474178,360.037214 L338.356951,360.037214 L338.356951,355.590311 Z M346.970019,355.811694 L346.950631,355.811694 L345.360824,360.034807 L344.631355,360.034807 L343.051242,355.811694 L343.031855,355.811694 L343.031855,360.034807 L341.970368,360.034807 L341.970368,354.697562 L343.528669,354.697562 L344.992454,358.473098 L346.45624,354.697562 L348,354.697562 L348,360.034807 L346.972442,360.034807 L346.972442,355.811694 L346.970019,355.811694 L346.970019,355.811694 Z M196.849627,405.702185 C191.888752,409.971018 186.64433,412.372538 181.935497,412.372538 C175.227289,412.372538 171.587214,408.370807 171.587214,401.967557 C171.587214,395.034913 175.484179,389.962364 191.081732,389.962364 L196.847204,389.962364 L196.847204,405.702185 L196.849627,405.702185 L196.849627,405.702185 Z M210.542321,421.040148 L210.542321,373.558396 C210.542321,361.423261 203.572376,353.414987 186.770351,353.414987 C176.967352,353.414987 168.373672,355.818913 161.386763,358.882174 L163.398256,367.292306 C168.901992,365.285425 176.017345,363.42533 183.001831,363.42533 C192.681232,363.42533 196.847204,367.292306 196.847204,375.298174 L196.847204,381.301974 L192.009927,381.301974 C168.49727,381.301974 157.88725,390.359409 157.88725,403.976844 C157.88725,415.710121 164.879006,422.380475 178.040956,422.380475 C186.501344,422.380475 192.821794,418.91295 198.722982,413.837995 L199.796586,421.040148 L210.542321,421.040148 L210.542321,421.040148 Z M256.241989,421.040148 L239.168533,421.040148 L218.610105,354.622966 L233.524235,354.622966 L246.283886,395.43677 L249.124212,407.699441 C255.560989,389.962364 260.12926,371.955778 262.414607,354.622966 L276.916744,354.622966 C273.03432,376.491715 266.040141,400.5021 256.241989,421.040148 L256.241989,421.040148 Z M321.765769,405.702185 C316.790353,409.971018 311.54593,412.372538 306.846791,412.372538 C300.138583,412.372538 296.503355,408.370807 296.503355,401.967557 C296.503355,395.034913 300.402743,389.962364 315.990602,389.962364 L321.765769,389.962364 L321.765769,405.702185 L321.765769,405.702185 Z M335.463309,421.040148 L335.463309,373.558396 C335.463309,361.423261 328.471553,353.414987 311.686492,353.414987 C301.873799,353.414987 293.282542,355.818913 286.295633,358.882174 L288.307127,367.292306 C293.810862,365.285425 300.940757,363.42533 307.927666,363.42533 C317.592526,363.42533 321.763345,367.292306 321.763345,375.298174 L321.763345,381.301974 L316.926068,381.301974 C293.410987,381.301974 282.808238,390.359409 282.808238,403.976844 C282.808238,415.710121 289.785453,422.380475 302.949826,422.380475 C311.417485,422.380475 317.728242,418.91295 323.64397,413.837995 L324.722421,421.040148 L335.463309,421.040148 L335.463309,421.040148 Z M142.873757,432.325847 C138.971945,437.987947 132.661188,442.470945 125.761525,445 L119,437.092792 C124.25654,434.414544 128.759376,430.090364 130.855691,426.066976 C132.661188,422.481541 133.414892,417.871008 133.414892,406.835567 L133.414892,331 L147.967923,331 L147.967923,405.788813 C147.967923,420.549256 146.780415,426.514554 142.873757,432.325847 L142.873757,432.325847 Z" id="Shape" fill="#CA3132"></path>
        </g>
    </g>
</svg>