<?xml version="1.0" encoding="UTF-8"?>
<svg width="640px" height="640px" viewBox="0 0 640 640" version="1.1" xmlns="http://www.w3.org/2000/svg" xmlns:xlink="http://www.w3.org/1999/xlink">
    <!-- Generator: Sketch 53.2 (72643) - https://sketchapp.com -->
    <title>js-logo</title>
    <desc>Created with Sketch.</desc>
    <g id="js-logo" stroke="none" stroke-width="1" fill="none" fill-rule="evenodd">
        <g id="neo4j-icon" fill="#FFFFFF" fill-rule="nonzero">
            <circle id="lg" cx="320" cy="320" r="320"></circle>
        </g>
        <g id="javascript-logo-vector" transform="translate(149.000000, 149.000000)" fill-rule="nonzero">
            <polygon id="Path" fill="#F7DF1E" points="0 0 342 0 342 342 0 342"></polygon>
            <path d="M91.0013333,286.615816 L117.120559,270.778253 C122.16041,279.729629 126.744274,287.303767 137.739948,287.303767 C148.279636,287.303767 154.926106,283.17339 154.926106,267.106065 L154.926106,157.838098 L187.001156,157.838098 L187.001156,267.560246 C187.001156,300.845044 167.527066,315.995993 139.114574,315.995993 C113.455335,315.995993 98.5611093,302.681806 91,286.613145 M204.423306,283.172055 L230.539865,268.022442 C237.415662,279.27144 246.351397,287.534865 262.158929,287.534865 C275.450535,287.534865 283.92495,280.877104 283.92495,271.69463 C283.92495,260.67673 275.218542,256.773444 260.554976,250.348116 L252.53788,246.901683 C229.395899,237.03393 214.045688,224.637457 214.045688,198.468608 C214.045688,174.364948 232.374478,156 261.014963,156 C281.406358,156 296.069924,163.117286 306.608278,181.71066 L281.633018,197.780657 C276.133181,187.910232 270.178691,184.008282 261.013629,184.008282 C251.619241,184.008282 245.662084,189.976757 245.662084,197.780657 C245.662084,207.42132 251.619241,211.325942 265.3655,217.294416 L273.383929,220.736842 C300.649788,232.445365 316,244.380978 316,271.236441 C316,300.162437 293.318005,316 262.845575,316 C233.061124,316 213.815028,301.7681 204.421973,283.17339" id="Shape" fill="#000000"></path>
        </g>
    </g>
</svg>