<?xml version="1.0" encoding="UTF-8"?>
<svg width="640px" height="640px" viewBox="0 0 640 640" version="1.1" xmlns="http://www.w3.org/2000/svg" xmlns:xlink="http://www.w3.org/1999/xlink">
    <!-- Generator: Sketch 53.2 (72643) - https://sketchapp.com -->
    <title>neo4j-logo</title>
    <desc>Created with Sketch.</desc>
    <g id="neo4j-logo" stroke="none" stroke-width="1" fill="none" fill-rule="evenodd">
        <g id="neo4j-icon" fill="#FFFFFF" fill-rule="nonzero">
            <circle id="lg" cx="320" cy="320" r="320"></circle>
        </g>
        <g id="Neo4j-icon-color" transform="translate(105.000000, 144.000000)">
            <path d="M251,0 C177.396221,0 128,42.7487545 128,125.740206 L128,184.87205 C135.222606,181.435766 143.280195,179.450358 151.803983,179.450358 C160.44606,179.450358 168.594105,181.48436 175.886293,185.003947 L175.886293,125.740206 C175.886293,71.9189829 205.632573,44.2551657 251,44.2551657 C296.367427,44.2551657 326.120665,71.9189829 326.120665,125.740206 L326.120665,255 L374,255 L374,125.740206 C374,42.2489315 324.603779,0 251,0" id="Fill-1" fill="#0A0B09"></path>
            <path d="M150.034182,194.538559 C140.793928,194.538559 132.283717,197.64665 125.421317,202.840708 L80.3603072,172.051833 C81.3545557,168.519595 81.9246842,164.813527 81.9246842,160.968394 C81.9246842,138.384324 63.5415165,120 40.9588657,120 C18.3762149,120 0,138.384324 0,160.968394 C0,183.559418 18.3762149,201.936789 40.9588657,201.936789 C50.2060719,201.936789 58.7162826,198.814791 65.578683,193.627686 L110.639693,224.423515 C109.645444,227.955752 109.075316,231.66182 109.075316,235.506953 C109.075316,239.352086 109.645444,243.051201 110.639693,246.583439 L65.578683,277.372314 C58.7162826,272.185209 50.2060719,269.070164 40.9588657,269.070164 C18.3762149,269.070164 0,287.447535 0,310.038559 C0,332.629583 18.3762149,351 40.9588657,351 C63.5415165,351 81.9246842,332.629583 81.9246842,310.038559 C81.9246842,306.193426 81.3545557,302.487358 80.3603072,298.95512 L125.421317,268.166245 C132.283717,273.35335 140.793928,276.461441 150.034182,276.461441 C172.623785,276.461441 191,258.091024 191,235.506953 C191,212.915929 172.623785,194.538559 150.034182,194.538559" id="Fill-3" fill="#4776AE"></path>
        </g>
    </g>
</svg>