<?xml version="1.0" encoding="UTF-8"?>
<svg width="640px" height="640px" viewBox="0 0 640 640" version="1.1" xmlns="http://www.w3.org/2000/svg" xmlns:xlink="http://www.w3.org/1999/xlink">
    <!-- Generator: Sketch 53.2 (72643) - https://sketchapp.com -->
    <title>python-logo</title>
    <desc>Created with Sketch.</desc>
    <defs>
        <linearGradient x1="13.0570123%" y1="12.039%" x2="79.5605737%" y2="78.201%" id="linearGradient-1">
            <stop stop-color="#387EB8" offset="0%"></stop>
            <stop stop-color="#366994" offset="100%"></stop>
        </linearGradient>
        <linearGradient x1="19.2096736%" y1="20.579%" x2="90.6342147%" y2="88.429%" id="linearGradient-2">
            <stop stop-color="#FFE052" offset="0%"></stop>
            <stop stop-color="#FFC331" offset="100%"></stop>
        </linearGradient>
    </defs>
    <g id="python-logo" stroke="none" stroke-width="1" fill="none" fill-rule="evenodd">
        <g id="neo4j-icon" fill="#FFFFFF" fill-rule="nonzero">
            <circle id="lg" cx="320" cy="320" r="320"></circle>
        </g>
        <g id="python-logo-vector" transform="translate(131.000000, 131.000000)" fill-rule="nonzero">
            <path d="M188.098627,0 C91.9030448,0 97.9093336,41.7714107 97.9093336,41.7714107 L98.0161648,85.0478699 L189.813862,85.0478699 L189.813862,98.0406135 L61.5555581,98.0406135 C61.5555581,98.0406135 0,91.0502351 0,188.239523 C0,285.431782 53.7272034,281.98488 53.7272034,281.98488 L85.7914085,281.98488 L85.7914085,236.883939 C85.7914085,236.883939 84.0628199,183.085512 138.660995,183.085512 L229.707906,183.085512 C229.707906,183.085512 280.860773,183.913066 280.860773,133.582342 L280.860773,50.3634103 C280.860773,50.3634103 288.629777,0 188.098627,0 Z M137.4814,29.1025571 C141.862479,29.0986103 146.065253,30.8395466 149.163145,33.9415452 C152.261037,37.0435439 153.999668,41.2518895 153.995727,45.6387762 C153.999668,50.025663 152.261037,54.2340086 149.163145,57.3360072 C146.065253,60.4380058 141.862479,62.1789422 137.4814,62.1749954 C133.100321,62.1789422 128.897547,60.4380058 125.799655,57.3360072 C122.701763,54.2340086 120.963131,50.025663 120.967073,45.6387762 C120.963131,41.2518895 122.701763,37.0435439 125.799655,33.9415452 C128.897547,30.8395466 133.100321,29.0986103 137.4814,29.1025571 L137.4814,29.1025571 Z" id="Shape" fill="url(#linearGradient-1)"></path>
            <path d="M190.90281,377 C287.098416,377 281.092126,335.228589 281.092126,335.228589 L280.985295,291.953616 L189.186091,291.953616 L189.186091,278.960872 L317.444427,278.960872 C317.444427,278.960872 379,285.951251 379,188.758991 C379,91.568218 325.272783,95.0151208 325.272783,95.0151208 L293.20857,95.0151208 L293.20857,140.114576 C293.20857,140.114576 294.937159,193.913003 240.338971,193.913003 L149.292038,193.913003 C149.292038,193.913003 98.1391576,193.085449 98.1391576,243.417659 L98.1391576,326.638076 C98.1391576,326.638076 90.3716354,377 190.901326,377 L190.90281,377 Z M241.52005,347.900414 C237.13897,347.904361 232.936195,346.163425 229.838302,343.061426 C226.74041,339.959428 225.001778,335.751082 225.005719,331.364195 C225.001384,326.977051 226.739841,322.768324 229.837777,319.666003 C232.935712,316.563683 237.138713,314.822543 241.52005,314.82649 C245.90113,314.822544 250.103905,316.56348 253.201798,319.665479 C256.299691,322.767477 258.038323,326.975823 258.034381,331.36271 C258.038323,335.749596 256.299691,339.957942 253.201798,343.059941 C250.103905,346.161939 245.90113,347.902876 241.52005,347.898929 L241.52005,347.900414 Z" id="Shape" fill="url(#linearGradient-2)"></path>
        </g>
    </g>
</svg>