<?xml version="1.0" encoding="UTF-8"?>
<svg width="640px" height="640px" viewBox="0 0 640 640" version="1.1" xmlns="http://www.w3.org/2000/svg" xmlns:xlink="http://www.w3.org/1999/xlink">
    <!-- Generator: Sketch 53.2 (72643) - https://sketchapp.com -->
    <title>spring-logo</title>
    <desc>Created with Sketch.</desc>
    <g id="spring-logo" stroke="none" stroke-width="1" fill="none" fill-rule="evenodd">
        <g id="neo4j-icon" fill="#FFFFFF" fill-rule="nonzero">
            <circle id="lg" cx="320" cy="320" r="320"></circle>
        </g>
        <g id="spring-logo-vector" transform="translate(119.000000, 119.000000)" fill="#77BC1F" fill-rule="nonzero">
            <path d="M365.587024,20.9347741 C359.932807,34.4377034 352.760328,47.2602526 344.121941,59.036063 C306.322452,21.2487957 255.015666,0 201.562372,0 C90.9910136,0 0,91.0662674 0,201.758886 C0,256.974352 22.6168688,309.834657 62.61522,347.935946 L70.0494685,354.5304 C106.383049,385.147507 152.402095,402 199.887048,402 C305.013605,402 393.386926,319.621664 400.873528,214.633772 C406.370684,163.238901 391.292771,98.2364275 365.587024,20.9347741 Z M91.252783,349.087358 C88.0068435,353.117302 83.0332265,355.472465 77.8501941,355.472465 C68.3741449,355.472465 60.6257732,347.674261 60.6257732,338.201276 C60.6257732,328.728291 68.4264988,320.930087 77.8501941,320.930087 C81.7767338,320.930087 85.6509196,322.290848 88.6874437,324.80302 C96.0693383,330.769431 97.2211233,341.707851 91.252783,349.087358 Z M364.749363,288.690535 C315.013193,355.001432 208.787205,332.653561 140.674829,335.846114 C140.674829,335.846114 128.581087,336.578831 116.434991,338.567634 C116.434991,338.567634 120.989777,336.631168 126.905764,334.38068 C174.70484,317.737534 197.321709,314.492644 226.378103,299.576618 C281.08789,271.733368 335.16943,210.813175 346.425511,147.433147 C325.588673,208.405676 262.449915,260.794949 204.913019,282.096081 C165.49056,296.645749 94.289307,310.776722 94.289307,310.776722 L91.4098446,309.258951 C42.9301675,285.654993 41.4642594,180.614764 129.575811,146.70043 C168.160608,131.83674 205.070081,140.001302 246.743756,130.057284 C291.244539,119.485223 342.708386,86.0942586 363.649931,42.5499284 C387.104462,112.210389 415.323194,221.280562 364.749363,288.690535 L364.749363,288.690535 Z" id="Shape"></path>
        </g>
    </g>
</svg>