<svg width="274" height="282" viewBox="0 0 274 282" fill="none" xmlns="http://www.w3.org/2000/svg">
  <path d="M291.827 98.7562C289.747 101.984 287.761 105.279 286.003 108.694C276.095 127.92 270.193 146.726 273.043 166.723C279.518 212.148 323.891 226.736 331.304 265.68C336.256 300.424 312.157 332.625 277.481 337.605C240.385 343.531 212.643 302.295 165.89 309.009C117.338 315.983 104.031 363.111 66.7576 367.873C32.0813 372.853 -0.045637 348.724 -4.99756 313.98C-9.94949 279.236 14.1484 247.032 48.8247 242.052C85.9208 236.126 113.037 277.452 160.415 270.647C205.906 262.526 241.143 217.043 234.755 172.226C227.778 123.276 180.796 110.274 176.063 72.9282C171.111 38.1846 195.209 5.98023 229.885 1.00001C283.233 -7.06072 321.26 53.0869 291.827 98.7562Z" fill="#F5F6F6"/>
  </svg>
