<svg width="236" height="228" viewBox="0 0 236 228" fill="none" xmlns="http://www.w3.org/2000/svg">
  <path d="M274.195 32.0463C272.115 35.2741 270.129 38.5695 268.371 41.9838C258.463 61.2098 252.561 80.0156 255.412 100.013C261.886 145.438 306.26 160.026 313.672 198.971C318.624 233.714 294.525 265.915 259.849 270.895C222.753 276.821 195.011 235.585 148.259 242.3C99.7066 249.273 86.3989 296.401 49.1258 301.163C14.4495 306.143 -17.6775 282.014 -22.6294 247.27C-27.5813 212.527 -3.48348 180.322 31.1928 175.342C68.289 169.416 95.4056 210.742 142.783 203.938C188.274 195.816 223.511 150.333 217.123 105.516C210.147 56.5659 163.164 43.564 158.431 6.21827C153.479 -28.5253 177.577 -60.7297 212.253 -65.7099C265.601 -73.7706 303.628 -13.623 274.195 32.0463Z" fill="#F5F6F6"/>
  </svg>
