<svg xmlns="http://www.w3.org/2000/svg" version="1.1" id="Layer_1" x="0px" y="0px" viewBox="0 0 612 110.5" style="enable-background:new 0 0 612 110.5;" xml:space="preserve">
<style type="text/css">
	.st0{fill:#CCCCCC;}
	.st1{fill:#ECECEC;}
</style>
  <polygon class="st0" points="425.4,101.9 325.6,82.4 269.1,92.7 269.1,92.7 16.7,75.5 16.7,74.3 204.4,62.3 204.4,63.5 26.2,74.9  268.9,91.5 297.8,49.7 298.8,50.5 270.6,91.2 325.6,81.2 325.7,81.2 424.6,100.5 443.7,60.4 396.1,79.9 395.7,78.7 442.2,59.7  368.3,47.1 368.5,45.9 444.5,58.8 444.6,58.5 445.6,59 446.8,59.1 446.4,59.3 512,91.4 594.4,75.2 594.6,76.4 511.8,92.8  511.6,92.7 445.2,60.1 "/>
  <circle class="st1" cx="444.6" cy="59.5" r="16.3"/>
  <circle class="st1" cx="511.9" cy="92.3" r="16.3"/>
  <circle class="st1" cx="16.7" cy="74.8" r="16.3"/>
  <circle class="st1" cx="204.4" cy="63.1" r="16.3"/>
  <circle class="st1" cx="269.1" cy="92.3" r="16.3"/>
  <circle class="st1" cx="594.5" cy="75.8" r="16.3"/>
  <circle class="st1" cx="298.3" cy="50.1" r="9.1"/>
  <circle class="st1" cx="325.3" cy="82" r="9.1"/>
  <circle class="st1" cx="368.4" cy="46.5" r="9.1"/>
  <circle class="st1" cx="396" cy="79.3" r="9.1"/>
  <circle class="st1" cx="424.9" cy="101.4" r="9.1"/>
</svg>
