<?xml version="1.0" encoding="UTF-8"?>
<svg width="15px" height="18px" viewBox="0 0 15 18" version="1.1" xmlns="http://www.w3.org/2000/svg" xmlns:xlink="http://www.w3.org/1999/xlink">
    <title>info</title>
    <g id="Page-1" stroke="none" stroke-width="1" fill="none" fill-rule="evenodd">
        <g id="info" transform="translate(1.000000, 1.000000)" stroke="#1565C0">
            <path d="M5,6.5032217 C4.998712,5.8962476 5.36334733,5.34831978 5.92374627,5.11514307 C6.4841452,4.88196635 7.12983583,5.00950707 7.5594898,5.438245 C7.9891437,5.86698293 8.11806293,6.51240062 7.88608381,7.07329704 C7.65410478,7.63419346 7.10695763,8 6.49998303,8" id="Shape"></path>
            <path d="M6.3125,9.3125 C6.5196068,9.3125 6.6875,9.4803932 6.6875,9.6875" id="Shape"></path>
            <path d="M6.31251068,9.6895 C6.31144238,9.5893526 6.35047908,9.492939 6.42092138,9.4217454 C6.49136358,9.3505517 6.58735758,9.3105 6.68751068,9.3105" id="Shape"></path>
            <path d="M6.6875,9.6875 C6.4803932,9.6875 6.3125,9.5196068 6.3125,9.3125" id="Shape"></path>
            <path d="M6.6875,9.3125 C6.6875,9.5196068 6.5196068,9.6875 6.3125,9.6875" id="Shape"></path>
            <path d="M13,6.42896634 C13,12.07217 7.99355556,15.2373645 6.76794444,15.9295498 C6.60168037,16.0234834 6.39759741,16.0234834 6.23133333,15.9295498 C5.00572222,15.2366501 0,12.0707414 0,6.42896634 C0,2.87834621 2.91014916,0 6.5,0 C10.0898508,0 13,2.87834621 13,6.42896634 L13,6.42896634 Z" id="Shape"></path>
        </g>
    </g>
</svg>