<svg id="Layer_1" data-name="Layer 1" xmlns="http://www.w3.org/2000/svg" width="751" height="272" viewBox="0 0 751 272"><defs><style>.cls-1{opacity:0.3;}.cls-2{fill:none;stroke:#fff;stroke-width:0.75px;}.cls-3{fill:#fff;}</style></defs><title>marquee-pattern-3</title><g class="cls-1"><path class="cls-2" d="M173,1c4,6,29,41,31,90"/><path class="cls-2" d="M200,92c-5-6-30-40-35-89"/><path class="cls-2" d="M206,91c2-7,15-43,52-70"/><path class="cls-2" d="M209,98c7,1,65,12,106,54"/><path class="cls-2" d="M207,101c4,1,47,60,52,116"/><path class="cls-2" d="M205,102c0,3,7,69,48,118"/><path class="cls-2" d="M208,100c5,6,46,46,104,58"/><path class="cls-2" d="M209,93c6-4,37-25,55-68"/><path class="cls-2" d="M203,102s-1,69-48,131"/><path class="cls-2" d="M201,101s-46,52-52,130"/><path class="cls-2" d="M198,96s-48-9-101,16"/><path class="cls-2" d="M199,99s-42,25-100,20"/><line class="cls-2" x1="16" y1="119" x2="70" y2="118"/><line class="cls-2" x1="15" y1="123" x2="136" y2="235"/><line class="cls-2" x1="14" y1="124" x2="165" y2="333"/><line class="cls-2" x1="398" y1="204" x2="186" y2="337"/><line class="cls-2" x1="398" y1="191" x2="339" y2="167"/><line class="cls-2" x1="360" y1="98" x2="404" y2="184"/><line class="cls-2" x1="370" y1="90" x2="447" y2="135"/><line class="cls-2" x1="373" y1="80" x2="468" y2="85"/><line class="cls-2" x1="372" y1="72" x2="493" y2="37"/><line class="cls-2" x1="367" y1="63" x2="431" y2="6"/><line class="cls-2" x1="357" y1="57" x2="376" y2="-4"/><line class="cls-2" x1="494" y1="94" x2="542" y2="131"/><line class="cls-2" x1="473" y1="141" x2="539" y2="140"/><line class="cls-2" x1="468" y1="153" x2="543" y2="243"/><line class="cls-2" x1="664" y1="179" x2="568" y2="184"/><line class="cls-2" x1="666" y1="185" x2="564" y2="246"/><line class="cls-2" x1="717" y1="222" x2="566" y2="251"/><line class="cls-2" x1="760" y1="274" x2="566" y2="255"/><line class="cls-2" x1="685" y1="315" x2="565" y2="259"/><line class="cls-2" x1="595" y1="342" x2="558" y2="266"/><path class="cls-2" d="M544,265s-35,53-107,81"/><path class="cls-2" d="M539,259s-59,21-103,83"/><line class="cls-2" x1="692" y1="180" x2="829" y2="202"/><line class="cls-2" x1="683" y1="88" x2="679" y2="164"/><line class="cls-2" x1="691" y1="86" x2="704" y2="121"/><line class="cls-2" x1="704" y1="76" x2="736" y2="95"/><line class="cls-2" x1="706" y1="70" x2="863" y2="108"/><line class="cls-2" x1="706" y1="64" x2="868" y2="57"/><line class="cls-2" x1="706" y1="60" x2="845" y2="24"/><line class="cls-2" x1="703" y1="54" x2="778" y2="9"/><line class="cls-2" x1="695" y1="46" x2="731" y2="-13"/><line class="cls-2" x1="665" y1="52" x2="642" y2="34"/><line class="cls-2" x1="667" y1="80" x2="654" y2="91"/><circle class="cls-3" cx="684" cy="65" r="23"/><circle class="cls-3" cx="204" cy="97" r="6"/><circle class="cls-3" cx="350" cy="78" r="23"/><circle class="cls-3" cx="552" cy="254" r="14"/><circle class="cls-3" cx="147" cy="245" r="14"/><circle class="cls-3" cx="10" cy="119" r="6"/><circle class="cls-3" cx="85" cy="118" r="14"/><circle class="cls-3" cx="269" cy="12" r="14"/><circle class="cls-3" cx="262" cy="231" r="14"/><circle class="cls-3" cx="165" cy="-11" r="14"/><circle class="cls-3" cx="326" cy="162" r="14"/><circle class="cls-3" cx="482" cy="86" r="14"/><circle class="cls-3" cx="442" cy="-3" r="14"/><circle class="cls-3" cx="411" cy="197" r="14"/><circle class="cls-3" cx="459" cy="142" r="14"/><circle class="cls-3" cx="507" cy="34" r="14"/><circle class="cls-3" cx="553" cy="139" r="14"/><circle class="cls-3" cx="678" cy="178" r="14"/><circle class="cls-3" cx="731" cy="219" r="14"/><circle class="cls-3" cx="554" cy="185" r="14"/><circle class="cls-3" cx="748" cy="102" r="14"/><circle class="cls-3" cx="630" cy="26" r="14"/><circle class="cls-3" cx="643" cy="100" r="14"/><circle class="cls-3" cx="709" cy="135" r="14"/><circle class="cls-3" cx="178" cy="280" r="14"/></g></svg>