<svg width="184" height="70" viewBox="0 0 184 70" fill="none" xmlns="http://www.w3.org/2000/svg">
  <path d="M64.0583 42.8186C66.4595 43.9882 68.8995 45.0869 71.4029 46.019C85.5001 51.272 98.9758 53.793 112.551 50.1711C143.387 41.9439 149.793 10.0922 176.076 1.75301C199.661 -4.5396 223.893 9.44086 230.199 32.9774C237.359 58.1069 211.174 80.6754 219.677 112.409C228.507 145.363 262.155 150.657 268.526 176.005C274.833 199.542 260.825 223.725 237.239 230.017C213.654 236.31 189.42 222.33 183.114 198.793C175.954 173.664 202.253 151.52 193.636 119.362C184.266 88.6166 149.94 68.0419 119.517 76.1589C86.2878 85.0245 81.193 118.547 55.7925 124.903C32.2072 131.196 7.9736 117.216 1.66701 93.6796C-8.31085 57.5029 30.0844 26.2671 64.0583 42.8186Z" fill="#F5F6F6"/>
  </svg>
