<svg width="639" height="304" viewBox="0 0 639 304" fill="none" xmlns="http://www.w3.org/2000/svg">
<g clip-path="url(#clip0_2057_8100)">
<g clip-path="url(#clip1_2057_8100)">
<path fill-rule="evenodd" clip-rule="evenodd" d="M905.483 126.931L975.491 167.368L905.488 207.802L835.481 167.365L905.483 126.931ZM905.483 125.931L835.467 85.4883L905.904 44.803L905.038 44.3029L834.601 84.9882L764.595 44.5518L835.031 3.86728L834.165 3.36719L763.729 44.0517L693.728 3.61766L764.165 -37.0683L763.3 -37.5684L692.862 3.11754L622.859 -37.3172L693.294 -78.0018L692.428 -78.502L621.993 -37.8173L551.988 -78.2528L622.427 -118.939L621.561 -119.439L551.123 -78.7529L481.117 -119.189L551.554 -159.875L550.688 -160.375L480.251 -119.689L410.232 -160.133L480.667 -200.818L479.801 -201.318L409.366 -160.634L339.364 -201.068L409.802 -241.754L408.936 -242.254L338.498 -201.568L268.06 -242.254L267.194 -241.754L337.632 -201.068L267.63 -160.634L197.195 -201.318L196.329 -200.818L266.764 -160.133L196.745 -119.689L126.308 -160.375L125.442 -159.875L195.879 -119.189L125.872 -78.7519L55.4348 -119.437L54.5691 -118.937L125.006 -78.2518L55.0034 -37.8173L-15.4323 -78.502L-16.2981 -78.0018L54.1375 -37.3172L-15.8655 3.11755L-86.3034 -37.5684L-87.1692 -37.0683L-16.7314 3.61766L-86.7332 44.0517L-157.169 3.36719L-158.034 3.86728L-87.599 44.5518L-157.604 84.9876L-228.04 44.3029L-228.906 44.803L-158.47 85.4878L-228.487 125.931L-298.923 85.2463L-299.788 85.7464L-229.353 126.431L-299.36 166.868L-369.796 126.184L-370.661 126.684L-300.226 167.368L-370.658 208.051L-369.793 208.551L-299.36 167.868L-229.358 208.302L-299.793 248.987L-298.927 249.487L-228.492 208.802L-158.473 249.247L-228.906 289.93L-228.041 290.43L-157.607 249.747L-87.6015 290.183L-158.033 330.866L-157.168 331.366L-86.7357 290.683L-16.7313 331.119L-87.1662 371.803L-86.3004 372.303L-15.8655 331.619L54.1376 372.054L-16.2951 412.736L-15.4293 413.237L55.0034 372.554L125.005 412.988L54.5701 453.672L55.4359 454.172L125.871 413.488L195.877 453.924L125.443 494.608L126.309 495.108L196.743 454.424L266.759 494.867L196.324 535.551L197.19 536.051L267.625 495.367L337.632 535.804L267.197 576.488L268.063 576.989L338.498 536.304L408.933 576.989L409.799 576.488L339.364 535.804L409.371 495.367L479.806 536.051L480.672 535.551L410.237 494.867L480.254 454.424L550.689 495.108L551.555 494.608L481.12 453.924L551.125 413.488L621.56 454.172L622.426 453.672L551.991 412.988L621.993 372.554L692.426 413.237L693.291 412.736L622.859 372.054L692.862 331.619L763.297 372.303L764.162 371.803L693.728 331.119L763.73 290.684L834.164 331.368L835.03 330.867L764.596 290.184L834.603 249.747L905.037 290.43L905.903 289.93L835.469 249.247L905.488 208.803L975.923 249.487L976.789 248.987L906.354 208.302L976.356 167.868L1046.79 208.551L1047.65 208.051L977.222 167.368L1047.66 126.684L1046.79 126.184L976.356 166.868L906.349 126.431L976.785 85.7464L975.919 85.2463L905.483 125.931ZM-298.494 167.368L-228.492 207.802L-158.485 167.365L-228.487 126.931L-298.494 167.368ZM-227.621 126.431L-157.619 166.865L-87.602 126.422L-157.604 85.9879L-227.621 126.431ZM-156.738 85.4877L-86.7361 125.922L-16.7312 85.4861L-86.7332 45.0519L-156.738 85.4877ZM-85.8674 44.5518L-15.8654 84.9859L54.1365 44.5519L-15.8655 4.11777L-85.8674 44.5518ZM-14.9997 3.61765L55.0023 44.0518L125.005 3.61703L55.0034 -36.8171L-14.9997 3.61765ZM55.8692 -37.3172L125.871 3.11693L195.874 -37.3176L125.872 -77.7517L55.8692 -37.3172ZM126.738 -78.2518L196.74 -37.8177L266.747 -78.255L196.745 -118.689L126.738 -78.2518ZM197.611 -119.189L267.613 -78.7551L337.632 -119.199L267.63 -159.633L197.611 -119.189ZM268.496 -160.133L338.498 -119.699L408.5 -160.133L338.498 -200.568L268.496 -160.133ZM339.364 -119.199L409.366 -159.633L479.385 -119.189L409.383 -78.7551L339.364 -119.199ZM268.479 -78.255L338.498 -118.699L408.517 -78.255L338.498 -37.8108L268.479 -78.255ZM197.605 -37.3176L267.613 -77.7549L337.632 -37.3107L267.625 3.12657L197.605 -37.3176ZM126.737 3.61703L196.74 -36.8175L266.759 3.62666L196.756 44.0612L126.737 3.61703ZM55.8681 44.5519L125.871 4.11714L195.891 44.5613L125.887 84.996L55.8681 44.5519ZM-14.9995 85.4861L55.0023 45.052L125.022 85.4962L55.0198 125.93L-14.9995 85.4861ZM-85.8703 126.422L-15.8654 85.9861L54.154 126.43L-15.851 166.866L-85.8703 126.422ZM-156.753 167.365L-86.7361 126.922L-16.7168 167.366L-86.7341 207.809L-156.753 167.365ZM-227.627 208.302L-157.619 167.865L-87.6 208.309L-157.607 248.747L-227.627 208.302ZM-156.741 249.247L-86.7357 289.683L-16.7284 249.246L-86.7342 208.81L-156.741 249.247ZM-85.8683 208.309L-15.8626 248.746L54.1548 208.303L-15.851 167.866L-85.8683 208.309ZM-14.9851 167.366L55.0206 207.803L125.026 167.367L55.0198 126.93L-14.9851 167.366ZM55.8856 126.43L125.891 166.867L195.893 126.433L125.887 85.9963L55.8856 126.43ZM126.753 85.4962L196.759 125.932L266.762 85.4977L196.756 45.0614L126.753 85.4962ZM197.622 44.5613L267.628 84.9976L337.631 44.563L267.625 4.12677L197.622 44.5613ZM268.491 3.62669L338.496 44.063L408.504 3.62569L338.498 -36.8106L268.491 3.62669ZM339.364 -37.3107L409.37 3.12556L479.389 -37.3186L409.383 -77.7549L339.364 -37.3107ZM410.249 -78.255L480.255 -37.8187L550.257 -78.2528L480.251 -118.689L410.249 -78.255ZM481.121 -37.3186L551.123 -77.7527L621.127 -37.3172L551.125 3.11691L481.121 -37.3186ZM410.236 3.62569L480.255 -36.8185L550.259 3.61703L480.24 44.0612L410.236 3.62569ZM339.362 44.5631L409.37 4.12579L479.374 44.5613L409.366 84.9986L339.362 44.5631ZM268.494 85.4977L338.496 45.0632L408.501 85.4987L338.498 125.933L268.494 85.4977ZM197.625 126.433L267.628 85.9978L337.632 126.433L267.629 166.868L197.625 126.433ZM126.757 167.367L196.759 126.933L266.763 167.368L196.762 207.802L126.757 167.367ZM55.8864 208.303L125.891 167.867L195.896 208.302L125.891 248.738L55.8864 208.303ZM-14.9968 249.246L55.0206 208.803L125.025 249.238L55.0076 289.681L-14.9968 249.246ZM-85.8699 290.183L-15.8626 249.746L54.1417 290.181L-15.8655 330.619L-85.8699 290.183ZM-14.9997 331.119L55.0034 371.553L125.011 331.116L55.0076 290.682L-14.9997 331.119ZM55.8734 290.181L125.876 330.616L195.894 290.173L125.891 249.738L55.8734 290.181ZM126.757 249.238L196.76 289.673L266.765 249.237L196.762 208.802L126.757 249.238ZM197.627 208.302L267.63 248.737L337.632 208.303L267.629 167.868L197.627 208.302ZM268.495 167.368L338.498 207.803L408.501 167.368L338.498 126.933L268.495 167.368ZM339.364 126.433L409.367 166.868L479.37 126.434L409.367 85.9988L339.364 126.433ZM410.232 85.4987L480.235 125.933L550.243 85.4962L480.24 45.0614L410.232 85.4987ZM481.106 44.5613L551.109 84.996L621.128 44.5519L551.125 4.11716L481.106 44.5613ZM551.991 3.61703L621.994 44.0518L691.996 3.61763L621.993 -36.8171L551.991 3.61703ZM622.86 44.5519L692.862 4.11775L762.863 44.5518L692.862 84.9859L622.86 44.5519ZM551.975 85.4962L621.994 45.052L691.996 85.4861L621.976 125.93L551.975 85.4962ZM481.101 126.434L551.109 85.9963L621.111 126.43L551.103 166.868L481.101 126.434ZM410.233 167.368L480.236 126.934L550.237 167.368L480.235 207.802L410.233 167.368ZM339.364 208.303L409.367 167.868L479.369 208.302L409.366 248.737L339.364 208.303ZM268.496 249.237L338.498 208.803L408.5 249.237L338.498 289.671L268.496 249.237ZM197.626 290.173L267.63 249.737L337.632 290.171L267.627 330.607L197.626 290.173ZM126.742 331.116L196.76 290.673L266.762 331.107L196.744 371.55L126.742 331.116ZM55.8692 372.054L125.876 331.616L195.878 372.05L125.871 412.488L55.8692 372.054ZM126.737 412.988L196.743 453.424L266.75 412.987L196.744 372.55L126.737 412.988ZM197.61 372.05L267.616 412.487L337.633 372.044L267.627 331.607L197.61 372.05ZM268.493 331.107L338.499 371.544L408.504 331.108L338.498 290.671L268.493 331.107ZM339.364 290.171L409.37 330.608L479.372 290.174L409.366 249.737L339.364 290.171ZM410.232 249.237L480.237 289.674L550.241 249.239L480.235 208.802L410.232 249.237ZM481.1 208.302L551.106 248.739L621.109 208.304L551.103 167.868L481.1 208.302ZM551.969 167.368L621.975 207.804L691.982 167.367L621.976 126.93L551.969 167.368ZM622.842 126.43L692.848 166.867L762.867 126.423L692.861 85.9862L622.842 126.43ZM693.727 85.4861L763.733 125.922L833.735 85.4883L763.729 45.0519L693.727 85.4861ZM764.599 126.423L834.601 85.9884L904.618 126.431L834.615 166.865L764.599 126.423ZM693.714 167.367L763.733 126.923L833.75 167.365L763.73 207.809L693.714 167.367ZM622.841 208.304L692.848 167.867L762.864 208.309L692.857 248.747L622.841 208.304ZM551.972 249.239L621.975 208.804L691.991 249.247L621.989 289.681L551.972 249.239ZM481.103 290.174L551.106 249.739L621.123 290.181L551.12 330.616L481.103 290.174ZM410.236 331.108L480.237 290.674L550.254 331.116L480.252 371.55L410.236 331.108ZM339.365 372.044L409.37 331.608L479.386 372.05L409.381 412.486L339.365 372.044ZM268.482 412.987L338.499 372.544L408.515 412.986L338.498 453.429L268.482 412.987ZM197.609 453.924L267.616 413.487L337.632 453.929L267.625 494.367L197.609 453.924ZM268.491 494.867L338.498 535.304L408.505 494.867L338.498 454.43L268.491 494.867ZM339.364 453.929L409.371 494.367L479.389 453.924L409.381 413.486L339.364 453.929ZM410.247 412.986L480.254 453.424L550.259 412.988L480.252 372.55L410.247 412.986ZM481.118 372.05L551.125 412.488L621.127 372.054L551.12 331.616L481.118 372.05ZM551.985 331.116L621.993 371.553L691.996 331.119L621.989 290.682L551.985 331.116ZM622.854 290.181L692.862 330.619L762.864 290.184L692.857 249.747L622.854 290.181ZM693.723 249.247L763.73 289.684L833.738 249.247L763.73 208.81L693.723 249.247ZM764.596 208.309L834.603 248.747L904.623 208.302L834.615 167.865L764.596 208.309Z" fill="url(#paint0_radial_2057_8100)"/>
</g>
<path d="M250.904 111.243L260.124 105.92C262.8 104.376 267.138 104.376 269.814 105.92L289.026 117.011C291.701 118.556 291.701 121.06 289.026 122.605L269.946 133.619C267.27 135.164 267.27 137.669 269.946 139.213L300.357 156.77C303.033 158.314 307.371 158.314 310.047 156.77L336.317 141.604" stroke="#6F757E" stroke-linejoin="round"/>
<path d="M430.487 193.996L412.892 204.154C410.216 205.699 410.216 208.203 412.892 209.748L456.85 235.125L478.829 247.813L489.818 254.158C492.494 255.702 492.494 258.207 489.818 259.752L430.958 293.732" stroke="#6F757E" stroke-linejoin="round"/>
<path d="M378.801 163.758L308.652 204.255C307.315 205.027 307.315 206.279 308.652 207.052L332.524 220.833C333.862 221.605 333.862 222.858 332.524 223.63L276.197 256.148" stroke="#6F757E" stroke-linejoin="round"/>
<path d="M433.653 298.327C436.613 296.69 436.625 294.035 433.688 292.399C430.752 290.762 425.974 290.762 423.014 292.399C420.054 294.035 420.042 296.69 422.979 298.327C425.916 299.974 430.693 299.974 433.653 298.327Z" fill="#5CC3C9" stroke="#6F757E" stroke-linejoin="round"/>
<path d="M283.274 257.682C286.234 256.045 286.246 253.391 283.309 251.754C280.373 250.117 275.595 250.117 272.635 251.754C269.675 253.391 269.663 256.045 272.6 257.682C275.537 259.33 280.314 259.33 283.274 257.682Z" fill="#FFC450" stroke="#6F757E" stroke-linejoin="round"/>
<path d="M251.722 115.846C254.682 114.209 254.693 111.555 251.757 109.918C248.82 108.281 244.042 108.281 241.082 109.918C238.122 111.555 238.111 114.209 241.047 115.846C243.984 117.494 248.762 117.494 251.722 115.846Z" fill="#90CB62" stroke="#6F757E" stroke-linejoin="round"/>
<path d="M435.362 196.959C438.322 195.323 438.334 192.668 435.397 191.031C432.461 189.395 427.683 189.395 424.723 191.031C421.763 192.668 421.751 195.323 424.688 196.959C427.625 198.607 432.402 198.607 435.362 196.959Z" fill="#90CB62" stroke="#6F757E" stroke-linejoin="round"/>
<path d="M382.907 167.057C385.867 165.42 385.879 162.766 382.942 161.129C380.006 159.492 375.228 159.492 372.268 161.129C369.308 162.766 369.296 165.42 372.233 167.057C375.169 168.705 379.947 168.705 382.907 167.057Z" fill="#FFC450" stroke="#6F757E" stroke-linejoin="round"/>
<path d="M341.638 143.661C344.598 142.024 344.609 139.369 341.673 137.733C338.736 136.096 333.958 136.096 330.998 137.733C328.038 139.369 328.027 142.024 330.963 143.661C333.9 145.308 338.678 145.308 341.638 143.661Z" fill="#5CC3C9" stroke="#6F757E" stroke-linejoin="round"/>
<path opacity="0.2" d="M648.44 190.286C645.466 202.833 635.727 214.206 620.277 223.175C581.369 245.793 517.865 245.793 478.696 223.175L302.163 121.284C263.006 98.6779 262.781 61.8907 301.701 39.2732C340.621 16.6556 404.114 16.6675 443.271 39.2732L460.853 49.415C512.142 30.0675 580.113 34.1072 623.927 59.4023C646.26 72.2928 659.79 89.3894 662.065 107.552C664.233 124.957 655.963 142.231 638.748 156.365C647.753 166.792 651.177 178.77 648.44 190.286Z" fill="#30839D"/>
<path d="M648.442 132.971C645.468 145.518 635.729 156.892 620.279 165.861C581.371 188.478 517.867 188.478 478.698 165.861L302.165 63.9691C263.008 41.3635 262.783 4.57623 301.703 -18.0413C340.623 -40.6588 404.116 -40.647 443.273 -18.0413L460.855 -7.89948C512.144 -27.247 580.115 -23.2073 623.929 2.08789C646.262 14.9783 659.792 32.0749 662.067 50.2377C664.235 67.6422 655.965 84.9165 638.75 99.051C647.755 109.477 651.179 121.455 648.442 132.971Z" fill="#8FE3E8" stroke="#09090A" stroke-linejoin="round"/>
<path d="M459.792 -0.776258L459.686 37.8477L436.535 24.4833L436.642 -14.1406L459.792 -0.776258Z" fill="#0A6191" stroke="#09090A" stroke-linejoin="round"/>
<path d="M282.012 61.3523L282.118 22.7288C282.118 9.36443 290.921 -3.97638 308.421 -14.1418C343.632 -34.603 401.142 -34.6149 436.59 -14.1418L436.484 24.4938C401.023 4.02075 343.526 4.02075 308.302 24.4938C290.85 34.6356 282.095 47.9998 282.012 61.3523Z" fill="#0A6191" stroke="#09090A" stroke-linejoin="round"/>
<path fill-rule="evenodd" clip-rule="evenodd" d="M652.844 94.2507L652.95 55.8205C652.959 54.0899 652.856 52.3603 652.642 50.6429C650.533 33.8071 637.974 17.9551 617.288 6.0006C575.791 -17.9573 510.949 -21.3535 463.09 -2.10469L463.029 -2.08369L459.782 -0.780427L459.676 37.8435L462.91 36.5403L462.91 36.5441C510.787 17.2676 575.702 20.6681 617.169 44.6362C637.867 56.5789 650.426 72.4315 652.535 89.2791C652.741 90.9283 652.844 92.5888 652.844 94.2507Z" fill="#0A6191"/>
<path d="M652.95 55.8205L652.45 55.8179V55.8192L652.95 55.8205ZM652.844 94.2507L652.344 94.2506C652.344 94.5265 652.567 94.7503 652.843 94.7507C653.119 94.7511 653.343 94.528 653.344 94.2521L652.844 94.2507ZM652.642 50.6429L653.138 50.581L653.138 50.5807L652.642 50.6429ZM617.288 6.0006L617.538 5.56768L617.538 5.56758L617.288 6.0006ZM463.09 -2.10469L463.252 -1.63163C463.26 -1.63447 463.269 -1.63753 463.277 -1.64081L463.09 -2.10469ZM463.029 -2.08369L462.867 -2.55676C462.859 -2.55395 462.85 -2.55093 462.842 -2.5477L463.029 -2.08369ZM459.782 -0.780427L459.596 -1.24443C459.407 -1.16853 459.283 -0.985527 459.282 -0.781808L459.782 -0.780427ZM459.676 37.8435L459.176 37.8422C459.175 38.0085 459.258 38.1642 459.395 38.2575C459.533 38.3508 459.708 38.3695 459.863 38.3073L459.676 37.8435ZM462.91 36.5403L463.41 36.5419C463.411 36.3754 463.328 36.2197 463.191 36.1263C463.053 36.033 462.878 36.0143 462.723 36.0765L462.91 36.5403ZM462.91 36.5441L462.41 36.5425C462.41 36.7089 462.492 36.8647 462.63 36.958C462.767 37.0513 462.943 37.07 463.097 37.0079L462.91 36.5441ZM617.169 44.6362L616.919 45.0691L616.919 45.0693L617.169 44.6362ZM652.535 89.2791L653.031 89.2172L653.031 89.217L652.535 89.2791ZM652.45 55.8192L652.344 94.2493L653.344 94.2521L653.45 55.8219L652.45 55.8192ZM652.146 50.7048C652.357 52.4008 652.459 54.1088 652.45 55.8179L653.45 55.8232C653.459 54.0709 653.355 52.3198 653.138 50.581L652.146 50.7048ZM617.037 6.43351C637.647 18.3436 650.063 34.0813 652.146 50.705L653.138 50.5807C651.002 33.5329 638.301 17.5665 617.538 5.56768L617.037 6.43351ZM463.277 -1.64081C511.006 -20.8374 575.685 -17.4409 617.038 6.43361L617.538 5.56758C575.896 -18.4738 510.893 -21.8696 462.904 -2.56858L463.277 -1.64081ZM463.191 -1.61062L463.252 -1.63163L462.928 -2.57776L462.867 -2.55676L463.191 -1.61062ZM459.969 -0.316422L463.215 -1.61969L462.842 -2.5477L459.596 -1.24443L459.969 -0.316422ZM460.176 37.8449L460.282 -0.779047L459.282 -0.781808L459.176 37.8422L460.176 37.8449ZM462.723 36.0765L459.489 37.3798L459.863 38.3073L463.097 37.0041L462.723 36.0765ZM463.41 36.5456L463.41 36.5419L462.41 36.5388L462.41 36.5425L463.41 36.5456ZM617.419 44.2034C575.807 20.1516 510.73 16.7515 462.723 36.0803L463.097 37.0079C510.844 17.7837 575.596 21.1846 616.919 45.0691L617.419 44.2034ZM653.031 89.217C650.896 72.1573 638.194 56.1902 617.419 44.2032L616.919 45.0693C637.54 56.9675 649.956 72.7057 652.039 89.3412L653.031 89.217ZM653.344 94.2508C653.344 92.5682 653.24 90.887 653.031 89.2172L652.039 89.3411C652.242 90.9697 652.344 92.6094 652.344 94.2506L653.344 94.2508Z" fill="#09090A"/>
<path d="M662.433 55.8516L662.327 94.4872C662.327 109.96 654.033 125.078 638.631 137.708L638.738 99.0725C654.163 86.4427 662.398 71.3604 662.433 55.8516Z" fill="#5CC3C9" stroke="#09090A" stroke-linejoin="round"/>
<path fill-rule="evenodd" clip-rule="evenodd" d="M628.969 138.749L628.969 138.752L627.547 137.212L627.654 98.5879L629.075 100.128L629.075 100.125C636.196 107.791 639.916 116.499 639.892 125.231L639.774 163.855C639.774 155.135 636.089 146.427 628.969 138.761L628.969 138.749Z" fill="#0A6191"/>
<path d="M628.969 138.749L629.469 138.751C629.47 138.481 629.256 138.259 628.987 138.25C628.717 138.24 628.489 138.446 628.47 138.715L628.969 138.749ZM628.969 138.752L628.601 139.091C628.737 139.238 628.946 139.29 629.134 139.224C629.323 139.158 629.454 138.986 629.467 138.787L628.969 138.752ZM627.547 137.212L627.047 137.21C627.047 137.337 627.094 137.458 627.179 137.551L627.547 137.212ZM627.654 98.5879L628.021 98.2487C627.881 98.0977 627.664 98.0474 627.472 98.122C627.28 98.1966 627.154 98.3809 627.154 98.5865L627.654 98.5879ZM629.075 100.128L628.708 100.467C628.847 100.618 629.065 100.669 629.257 100.594C629.448 100.519 629.575 100.335 629.575 100.129L629.075 100.128ZM629.075 100.125L629.442 99.7847C629.302 99.6343 629.084 99.5846 628.893 99.6594C628.702 99.7342 628.576 99.9183 628.575 100.124L629.075 100.125ZM639.892 125.231L640.392 125.233V125.232L639.892 125.231ZM639.774 163.855H639.274C639.274 164.13 639.497 164.354 639.773 164.355C640.049 164.355 640.273 164.132 640.274 163.856L639.774 163.855ZM628.969 138.761L628.469 138.76C628.468 138.887 628.516 139.009 628.602 139.102L628.969 138.761ZM628.47 138.715L628.47 138.718L629.467 138.787L629.468 138.784L628.47 138.715ZM629.336 138.413L627.914 136.873L627.179 137.551L628.601 139.091L629.336 138.413ZM628.047 137.213L628.153 98.5893L627.154 98.5865L627.047 137.21L628.047 137.213ZM627.286 98.927L628.708 100.467L629.443 99.7889L628.021 98.2487L627.286 98.927ZM629.575 100.129L629.575 100.126L628.575 100.124L628.575 100.127L629.575 100.129ZM628.709 100.465C635.76 108.056 639.416 116.647 639.392 125.23L640.392 125.232C640.417 116.351 636.631 107.525 629.442 99.7847L628.709 100.465ZM639.392 125.23L639.274 163.853L640.274 163.856L640.392 125.233L639.392 125.23ZM640.274 163.855C640.274 154.987 636.526 146.162 629.335 138.421L628.602 139.102C635.653 146.691 639.274 155.282 639.274 163.855H640.274ZM629.469 138.763L629.469 138.751L628.469 138.748L628.469 138.76L629.469 138.763Z" fill="#09090A"/>
<path d="M648.442 132.971C645.468 145.518 635.729 156.892 620.279 165.861C581.371 188.478 517.867 188.478 478.698 165.861L302.165 63.9692C263.008 41.3635 262.783 4.57624 301.703 -18.0413C340.623 -40.6588 404.116 -40.647 443.273 -18.0413L460.855 -7.89947C512.144 -27.247 580.115 -23.2073 623.929 2.08789C646.262 14.9783 659.792 32.0749 662.067 50.2377C664.235 67.6422 655.965 84.9166 638.75 99.051C647.755 109.477 651.179 121.455 648.442 132.971ZM485.38 161.987C520.84 182.448 578.338 182.448 613.562 161.987C627.542 153.859 636.357 143.563 639.046 132.213C641.653 121.23 638.098 109.832 629.07 100.105L627.649 98.5651L629.438 97.1668C646.487 83.8262 654.721 67.299 652.648 50.6172C650.574 33.9354 637.98 17.9288 617.294 5.97431C575.826 -17.9939 510.9 -21.3822 463.035 -2.10571L459.789 -0.802914L436.638 -14.167C401.189 -34.6401 343.68 -34.6282 308.468 -14.167C273.256 6.2942 273.422 39.6102 308.882 60.0833L485.415 161.975" fill="white"/>
<path d="M485.38 161.987C520.84 182.448 578.338 182.448 613.562 161.987C627.542 153.859 636.357 143.563 639.046 132.213C641.653 121.23 638.098 109.832 629.07 100.105L627.649 98.5651L629.438 97.1668C646.487 83.8262 654.721 67.299 652.648 50.6172C650.574 33.9354 637.98 17.9288 617.294 5.97431C575.826 -17.9939 510.9 -21.3822 463.035 -2.10571L459.789 -0.802912L436.638 -14.167C401.189 -34.6401 343.68 -34.6282 308.468 -14.167C273.256 6.2942 273.422 39.6102 308.882 60.0833L485.415 161.975M648.442 132.971C645.468 145.518 635.729 156.892 620.279 165.861C581.371 188.478 517.867 188.478 478.698 165.861L302.165 63.9692C263.008 41.3635 262.783 4.57624 301.703 -18.0413C340.623 -40.6588 404.116 -40.647 443.273 -18.0413L460.855 -7.89947C512.144 -27.247 580.115 -23.2073 623.929 2.08789C646.262 14.9783 659.792 32.0749 662.067 50.2377C664.235 67.6422 655.965 84.9166 638.75 99.051C647.755 109.477 651.179 121.455 648.442 132.971Z" stroke="#09090A" stroke-linejoin="round"/>
<path opacity="0.2" fill-rule="evenodd" clip-rule="evenodd" d="M548.549 49.9027C549.087 51.661 550.533 53.3449 552.886 54.7032C555.893 56.4395 559.822 57.32 563.764 57.3448L574.449 142.046C572.093 141.957 569.715 142.098 567.425 142.466L564.184 138.413L564.144 138.362L564.092 138.324L517.129 103.521C522.769 99.7145 522.47 93.9819 516.23 90.3798C511.794 87.8188 505.492 86.9912 499.85 87.8971L469.323 57.1553C472.459 55.065 474.149 52.5024 474.396 49.9027L548.549 49.9027ZM564.77 57.3325C568.486 57.2184 572.145 56.342 574.984 54.7032C581.086 51.1804 581.086 45.4688 574.984 41.946C568.882 38.4232 558.988 38.4232 552.886 41.946C549.58 43.8545 548.065 46.4055 548.341 48.9027L474.42 48.9027C474.278 45.9155 472.232 42.9528 468.283 40.6729C460.09 35.9433 446.807 35.9433 438.615 40.6729C433.32 43.7294 431.447 48.0132 432.996 51.938L378.488 59.6305C377.982 59.1566 377.373 58.7089 376.661 58.298C371.729 55.4507 363.733 55.4507 358.801 58.298C353.869 61.1453 353.869 65.7617 358.801 68.609C363.152 71.1211 369.889 71.4168 374.802 69.4962L418.132 118.441C416.004 119.02 414.01 119.818 412.251 120.833C404.059 125.563 404.059 133.231 412.251 137.961C420.444 142.69 433.727 142.69 441.92 137.961C442.475 137.64 442.993 137.306 443.473 136.96L492.329 155.136C490.771 157.718 491.778 160.702 495.352 162.765C500.329 165.638 508.398 165.638 513.375 162.765C515.675 161.438 516.912 159.729 517.086 157.991L552.443 156.317C553.182 158.653 555.116 160.889 558.245 162.695C566.438 167.425 579.721 167.425 587.914 162.695C596.107 157.965 596.107 150.297 587.914 145.567C584.425 143.553 580.013 142.397 575.464 142.098L564.77 57.3325ZM566.305 142.666C563.36 143.245 560.594 144.212 558.245 145.567C553.622 148.237 551.607 151.842 552.203 155.327L517.07 156.991C516.843 155.303 515.611 153.652 513.375 152.361C508.398 149.487 500.329 149.487 495.352 152.361C494.344 152.942 493.54 153.598 492.94 154.296L444.401 136.238C448.496 132.792 449.158 128.396 446.386 124.642L491.538 103.481C491.84 103.687 492.159 103.888 492.496 104.082C499.045 107.863 509.662 107.866 516.217 104.09L563.444 139.088L566.305 142.666ZM498.659 88.1164C496.409 88.5846 494.298 89.3391 492.496 90.3798C486.637 93.7617 486.015 99.0217 490.629 102.802L445.735 123.843C444.766 122.759 443.494 121.742 441.92 120.833C439.132 119.224 435.755 118.162 432.189 117.648L451.087 61.2712C457.213 61.6696 463.585 60.5127 468.283 57.8005C468.341 57.7672 468.398 57.7337 468.455 57.7001L498.659 88.1164ZM433.44 52.8852C434.421 54.6833 436.146 56.3753 438.615 57.8005C441.846 59.6659 445.869 60.7956 450.059 61.1896L431.178 117.517C427.196 117.062 423.03 117.278 419.223 118.165L375.768 69.0783C376.075 68.9316 376.374 68.7751 376.661 68.609C380.447 66.4235 381.327 63.1958 379.301 60.5257L433.44 52.8852Z" fill="#30839D"/>
<path d="M427.176 106.575L371.657 42.9154L364.637 34.3897L454.686 24.8716M427.176 106.575L504.16 72.5995M427.176 106.575L454.686 24.8716M427.176 106.575L503.255 136.467L577.433 128.104M504.16 72.5995L577.433 128.104M504.16 72.5995L454.686 24.8716M504.16 72.5995L565.249 22.2656M577.433 128.104L565.249 22.2656M565.249 22.2656L454.686 24.8716" stroke="#0A6191"/>
<circle cx="16.783" cy="16.783" r="16.783" transform="matrix(-1 8.74228e-08 8.74228e-08 1 383.856 17.0176)" fill="white"/>
<path fill-rule="evenodd" clip-rule="evenodd" d="M350.444 36.0957C353.52 39.922 358.24 42.3708 363.532 42.3708C372.801 42.3708 380.315 34.8568 380.315 25.5879C380.315 24.8114 380.262 24.0473 380.16 23.2988C382.472 26.1749 383.856 29.8292 383.856 33.8067C383.856 43.0756 376.342 50.5896 367.073 50.5896C358.58 50.5896 351.561 44.2818 350.444 36.0957Z" fill="#8FE3E8"/>
<circle cx="16.783" cy="16.783" r="16.283" transform="matrix(-1 8.74228e-08 8.74228e-08 1 383.856 17.0176)" stroke="#0A6191"/>
<circle cx="20.9787" cy="20.9787" r="20.9787" transform="matrix(-1 8.74228e-08 8.74228e-08 1 447.984 81.1406)" fill="#90CB62"/>
<path fill-rule="evenodd" clip-rule="evenodd" d="M406.222 104.994C410.067 109.772 415.964 112.829 422.574 112.829C434.16 112.829 443.553 103.437 443.553 91.8507C443.553 90.8757 443.486 89.9162 443.357 88.9766C446.252 92.573 447.984 97.1443 447.984 102.12C447.984 113.706 438.592 123.099 427.006 123.099C416.394 123.099 407.623 115.221 406.222 104.994Z" fill="#4D8622"/>
<circle cx="20.9787" cy="20.9787" r="20.4787" transform="matrix(-1 8.74228e-08 8.74228e-08 1 447.984 81.1406)" stroke="#0A6191"/>
<circle cx="16.783" cy="16.783" r="16.783" transform="matrix(-1 8.74228e-08 8.74228e-08 1 521.08 54.2539)" fill="#90CB62"/>
<path fill-rule="evenodd" clip-rule="evenodd" d="M487.669 73.3281C490.745 77.1544 495.465 79.6033 500.756 79.6033C510.025 79.6033 517.539 72.0893 517.539 62.8203C517.539 62.0438 517.486 61.2797 517.384 60.5313C519.696 63.4073 521.08 67.0616 521.08 71.0391C521.08 80.3081 513.566 87.8221 504.297 87.8221C495.805 87.8221 488.785 81.5142 487.669 73.3281Z" fill="#4D8622"/>
<circle cx="16.783" cy="16.783" r="16.283" transform="matrix(-1 8.74228e-08 8.74228e-08 1 521.08 54.2539)" stroke="#0A6191"/>
<circle cx="11.7658" cy="11.7658" r="11.7658" transform="matrix(-1 8.74228e-08 8.74228e-08 1 516.064 123.629)" fill="#90CB62"/>
<path fill-rule="evenodd" clip-rule="evenodd" d="M492.642 137.005C494.799 139.684 498.106 141.398 501.812 141.398C508.31 141.398 513.578 136.131 513.578 129.633C513.578 129.085 513.541 128.547 513.468 128.02C515.092 130.037 516.064 132.601 516.064 135.392C516.064 141.89 510.797 147.158 504.299 147.158C498.348 147.158 493.429 142.74 492.642 137.005Z" fill="#4D8622"/>
<circle cx="11.7658" cy="11.7658" r="11.2658" transform="matrix(-1 8.74228e-08 8.74228e-08 1 516.064 123.629)" stroke="#0A6191"/>
<circle cx="20.9787" cy="20.9787" r="20.9787" transform="matrix(-1 8.74228e-08 8.74228e-08 1 474.445 2.17578)" fill="white"/>
<path fill-rule="evenodd" clip-rule="evenodd" d="M432.683 26.0295C436.528 30.8072 442.425 33.8645 449.035 33.8645C460.621 33.8645 470.014 24.4721 470.014 12.8858C470.014 11.9108 469.947 10.9514 469.818 10.0117C472.713 13.6082 474.445 18.1795 474.445 23.1554C474.445 34.7416 465.053 44.1341 453.467 44.1341C442.855 44.1341 434.084 36.2559 432.683 26.0295Z" fill="#8FE3E8"/>
<circle cx="20.9787" cy="20.9787" r="20.4787" transform="matrix(-1 8.74228e-08 8.74228e-08 1 474.445 2.17578)" stroke="#0A6191"/>
<circle cx="20.9787" cy="20.9787" r="20.9787" transform="matrix(-1 8.74228e-08 8.74228e-08 1 593.965 105.938)" fill="white"/>
<path fill-rule="evenodd" clip-rule="evenodd" d="M552.667 132.157C556.498 136.29 561.974 138.876 568.055 138.876C579.641 138.876 589.033 129.484 589.033 117.898C589.033 116.089 588.804 114.334 588.374 112.66C591.844 116.403 593.965 121.413 593.965 126.919C593.965 138.505 584.572 147.898 572.986 147.898C563.208 147.898 554.993 141.209 552.667 132.157Z" fill="#8FE3E8"/>
<circle cx="20.9787" cy="20.9787" r="20.4787" transform="matrix(-1 8.74228e-08 8.74228e-08 1 593.965 105.938)" stroke="#0A6191"/>
<circle cx="16.783" cy="16.783" r="16.783" transform="matrix(-1 8.74228e-08 8.74228e-08 1 580.65 6.50781)" fill="#90CB62"/>
<path fill-rule="evenodd" clip-rule="evenodd" d="M547.239 25.582C550.315 29.4083 555.035 31.8572 560.326 31.8572C569.595 31.8572 577.109 24.3432 577.109 15.0742C577.109 14.2977 577.057 13.5336 576.955 12.7852C579.267 15.6612 580.65 19.3155 580.65 23.293C580.65 32.562 573.136 40.076 563.867 40.076C555.375 40.076 548.356 33.7681 547.239 25.582Z" fill="#4D8622"/>
<circle cx="16.783" cy="16.783" r="16.283" transform="matrix(-1 8.74228e-08 8.74228e-08 1 580.65 6.50781)" stroke="#0A6191"/>
<path d="M272.535 61.3251L272.642 22.6895C272.642 37.6414 282.452 52.6054 302.155 63.9793L302.048 102.615C282.381 91.241 272.535 76.2652 272.535 61.3251Z" fill="#5CC3C9" stroke="#09090A" stroke-linejoin="round"/>
<path d="M649.25 163.905L649.369 125.27C649.355 127.871 649.045 130.439 648.445 132.971C645.471 145.541 635.732 156.915 620.282 165.86C581.374 188.478 517.869 188.478 478.7 165.86L478.594 204.496C517.751 227.102 581.267 227.114 620.175 204.496C635.625 195.516 645.364 184.153 648.338 171.606V171.63C648.94 169.099 649.246 166.507 649.25 163.905Z" fill="#5CC3C9" stroke="#09090A" stroke-linejoin="round"/>
<path d="M478.701 165.884L478.595 204.52L302.098 102.616L302.204 63.9805L478.701 165.884Z" fill="#5CC3C9" stroke="#09090A" stroke-linejoin="round"/>
<path opacity="0.5" d="M648.442 132.971C645.468 145.518 635.729 156.892 620.279 165.861C581.371 188.478 517.867 188.478 478.698 165.861L302.165 63.9691C263.008 41.3635 262.783 4.57623 301.703 -18.0413C340.623 -40.6588 404.116 -40.647 443.273 -18.0413L460.855 -7.89947C512.144 -27.247 580.115 -23.2073 623.929 2.08789C646.262 14.9783 659.792 32.0749 662.067 50.2377C664.235 67.6422 655.965 84.9165 638.75 99.051C647.755 109.477 651.179 121.455 648.442 132.971Z" stroke="#09090A" stroke-linejoin="round"/>
<path d="M382.535 130.739C382.536 125.729 386.053 123.671 390.377 126.153C394.702 128.635 398.221 134.727 398.22 139.737C398.22 144.748 394.7 146.807 390.376 144.325C386.052 141.843 382.535 135.751 382.535 130.739Z" fill="#0A6191" stroke="#0A6191"/>
<path d="M373.956 150.621L391.324 140.584C391.978 140.206 392.382 139.399 392.386 138.254C392.395 135.949 390.775 133.144 388.769 131.988C387.76 131.407 386.844 131.353 386.183 131.738L368.815 141.775C369.477 141.393 370.391 141.444 371.401 142.026C373.407 143.182 375.027 145.987 375.018 148.291C375.014 149.436 374.61 150.241 373.956 150.621Z" fill="#FFC450" stroke="#09090A" stroke-linejoin="round"/>
<path d="M373.943 150.636C372.477 151.488 370.136 150.198 368.716 147.753C367.295 145.308 367.333 142.636 368.799 141.783C370.266 140.931 372.607 142.222 374.027 144.667C375.448 147.111 375.41 149.784 373.943 150.636Z" fill="#EC9C00" stroke="#09090A" stroke-linejoin="round"/>
<path d="M426.722 156.21C426.723 151.2 430.241 149.142 434.565 151.624C438.889 154.106 442.409 160.198 442.408 165.208C442.407 170.218 438.888 172.277 434.564 169.795C430.24 167.313 426.723 161.222 426.722 156.21Z" fill="#0A6191" stroke="#0A6191"/>
<path d="M418.143 176.092L435.512 166.054C436.166 165.677 436.57 164.869 436.574 163.724C436.582 161.42 434.963 158.615 432.957 157.459C431.947 156.878 431.032 156.824 430.371 157.208L413.002 167.246C413.665 166.863 414.579 166.914 415.588 167.496C417.595 168.652 419.214 171.457 419.206 173.762C419.201 174.907 418.798 175.712 418.143 176.092Z" fill="#90CB62" stroke="#09090A" stroke-linejoin="round"/>
<path d="M418.131 176.107C416.664 176.959 414.324 175.668 412.903 173.224C411.483 170.779 411.52 168.106 412.987 167.254C414.454 166.402 416.794 167.693 418.215 170.137C419.635 172.582 419.598 175.255 418.131 176.107Z" fill="#4D8622" stroke="#09090A" stroke-linejoin="round"/>
<path d="M338.353 105.273C338.354 100.262 341.872 98.2042 346.196 100.686C350.52 103.168 354.039 109.26 354.039 114.27C354.038 119.281 350.519 121.34 346.195 118.858C341.87 116.376 338.354 110.285 338.353 105.273Z" fill="#0A6191" stroke="#0A6191"/>
<path d="M329.774 125.158L347.142 115.121C347.796 114.743 348.2 113.936 348.205 112.791C348.213 110.486 346.594 107.681 344.587 106.525C343.578 105.944 342.663 105.89 342.001 106.275L324.633 116.312C325.296 115.93 326.21 115.981 327.219 116.563C329.226 117.719 330.845 120.524 330.837 122.828C330.832 123.973 330.428 124.778 329.774 125.158Z" fill="#8FE3E8" stroke="#09090A" stroke-linejoin="round"/>
<path d="M329.76 125.173C328.293 126.026 325.952 124.735 324.532 122.29C323.111 119.846 323.149 117.173 324.616 116.321C326.082 115.468 328.423 116.759 329.844 119.204C331.264 121.648 331.227 124.321 329.76 125.173Z" fill="#5CC3C9" stroke="#09090A" stroke-linejoin="round"/>
<path d="M648.442 132.971C645.468 145.518 635.729 156.892 620.279 165.861C581.371 188.478 517.867 188.478 478.698 165.861L302.165 63.9692C263.008 41.3635 262.783 4.57624 301.703 -18.0413C340.623 -40.6588 404.116 -40.647 443.273 -18.0413L460.855 -7.89947C512.144 -27.247 580.115 -23.2073 623.929 2.08789C646.262 14.9783 659.792 32.0749 662.067 50.2377C664.235 67.6422 655.965 84.9166 638.75 99.051C647.755 109.477 651.179 121.455 648.442 132.971ZM485.38 161.987C520.84 182.448 578.338 182.448 613.562 161.987C627.542 153.859 636.357 143.563 639.046 132.213C641.653 121.23 638.098 109.832 629.07 100.105L627.649 98.5651L629.438 97.1668C646.487 83.8262 654.721 67.299 652.648 50.6172C650.574 33.9354 637.98 17.9288 617.294 5.97431C575.826 -17.9939 510.9 -21.3822 463.035 -2.10571L459.789 -0.802914L436.638 -14.167C401.189 -34.6401 343.68 -34.6282 308.468 -14.167C273.256 6.2942 273.422 39.6102 308.882 60.0833L485.415 161.975" fill="white"/>
<path d="M485.38 161.987C520.84 182.448 578.338 182.448 613.562 161.987C627.542 153.859 636.357 143.563 639.046 132.213C641.653 121.23 638.098 109.832 629.07 100.105L627.649 98.5651L629.438 97.1668C646.487 83.8262 654.721 67.299 652.648 50.6172C650.574 33.9354 637.98 17.9288 617.294 5.97431C575.826 -17.9939 510.9 -21.3822 463.035 -2.10571L459.789 -0.802912L436.638 -14.167C401.189 -34.6401 343.68 -34.6282 308.468 -14.167C273.256 6.2942 273.422 39.6102 308.882 60.0833L485.415 161.975M648.442 132.971C645.468 145.518 635.729 156.892 620.279 165.861C581.371 188.478 517.867 188.478 478.698 165.861L302.165 63.9692C263.008 41.3635 262.783 4.57624 301.703 -18.0413C340.623 -40.6588 404.116 -40.647 443.273 -18.0413L460.855 -7.89947C512.144 -27.247 580.115 -23.2073 623.929 2.08789C646.262 14.9783 659.792 32.0749 662.067 50.2377C664.235 67.6422 655.965 84.9166 638.75 99.051C647.755 109.477 651.179 121.455 648.442 132.971Z" stroke="#09090A" stroke-linejoin="round"/>
<path opacity="0.2" d="M359.571 255.614C376.359 245.923 403.578 245.923 420.365 255.614C437.153 265.306 437.153 281.019 420.365 290.711C403.578 300.402 376.359 300.402 359.571 290.711C342.784 281.019 342.784 265.306 359.571 255.614Z" fill="#4C99A4"/>
<path d="M359.571 245.206C376.359 235.515 403.578 235.515 420.365 245.206C437.153 254.898 437.153 270.611 420.365 280.303C403.578 289.994 376.359 289.994 359.571 280.303C342.784 270.611 342.784 254.898 359.571 245.206Z" fill="#5CC3C9" stroke="white" stroke-linejoin="round"/>
<path d="M358.361 252.922L358.361 259.747C358.361 264.423 361.424 269.136 367.477 272.69C379.693 279.91 399.586 279.91 411.912 272.69C418.149 269.099 421.213 264.311 421.213 259.56L421.5 252.914C421.5 257.665 418.113 262.236 411.912 265.865C399.586 273.084 379.693 273.084 367.477 265.865C361.424 262.274 358.361 257.598 358.361 252.922Z" fill="#8FE3E8" stroke="#09090A" stroke-miterlimit="10" stroke-linejoin="round"/>
<path d="M358.421 253.147C358.392 243.054 372.493 234.832 389.916 234.782C407.339 234.733 421.486 242.875 421.515 252.968C421.543 263.062 407.442 271.284 390.02 271.334C372.597 271.383 358.45 263.241 358.421 253.147Z" fill="white" stroke="#09090A"/>
<path d="M367.321 244.638L367.321 248.919C367.321 252.269 369.516 255.647 373.853 258.194C382.607 263.367 396.862 263.367 405.696 258.194C410.165 255.62 412.36 252.189 412.36 248.785L412.566 244.633C412.566 248.037 410.139 251.313 405.696 253.913C396.862 259.087 382.607 259.087 373.853 253.913C369.516 251.34 367.321 247.989 367.321 244.638Z" fill="#8FE3E8" stroke="#09090A" stroke-miterlimit="10" stroke-linejoin="round"/>
<path d="M367.349 244.797C367.329 237.564 377.433 231.672 389.919 231.637C402.404 231.601 412.542 237.436 412.562 244.669C412.583 251.902 402.478 257.794 389.993 257.83C377.508 257.865 367.37 252.03 367.349 244.797Z" fill="white" stroke="#09090A"/>
<path d="M384.832 244.747C384.827 243.105 387.12 241.768 389.953 241.76C392.786 241.752 395.087 243.076 395.091 244.718C395.096 246.359 392.803 247.696 389.97 247.704C387.137 247.712 384.836 246.388 384.832 244.747Z" fill="#0A6191" stroke="#0A6191" stroke-miterlimit="10" stroke-linejoin="round"/>
<mask id="mask0_2057_8100" style="mask-type:alpha" maskUnits="userSpaceOnUse" x="384" y="200" width="12" height="49">
<path d="M389.978 247.702C387.144 247.71 384.844 246.386 384.839 244.745C384.837 244.066 385.228 243.44 385.888 242.937L385.888 201.058L394.079 201.058L394.079 242.944C394.718 243.437 395.097 244.05 395.099 244.716C395.104 246.357 392.811 247.694 389.978 247.702Z" fill="#0056B3" stroke="#0056B3" stroke-miterlimit="10" stroke-linejoin="round"/>
</mask>
<g mask="url(#mask0_2057_8100)">
<path d="M392.789 201.436L392.654 247.094C392.654 247.499 392.384 247.905 391.843 248.208C390.763 248.816 389.041 248.816 387.961 248.208C387.42 247.905 387.15 247.499 387.15 247.094L387.285 201.436C387.285 201.841 387.556 202.246 388.096 202.55C389.176 203.157 390.898 203.157 391.978 202.55C392.519 202.246 392.789 201.841 392.789 201.436Z" fill="white" stroke="#09090A" stroke-miterlimit="10" stroke-linejoin="round"/>
<path opacity="0.4" d="M392.789 164.076L392.654 209.735C392.654 210.14 392.384 210.545 391.843 210.849C390.763 211.457 389.041 211.457 387.961 210.849C387.42 210.545 387.15 210.14 387.15 209.735L387.285 164.076C387.285 164.481 387.556 164.886 388.096 165.19C389.176 165.798 390.898 165.798 391.978 165.19C392.519 164.886 392.789 164.481 392.789 164.076Z" fill="#4C99A4"/>
<path d="M392.789 201.436L392.654 247.094C392.654 247.499 392.384 247.905 391.843 248.208C390.763 248.816 389.041 248.816 387.961 248.208C387.42 247.905 387.15 247.499 387.15 247.094L387.285 201.436C387.285 201.841 387.556 202.246 388.096 202.55C389.176 203.157 390.898 203.157 391.978 202.55C392.519 202.246 392.789 201.841 392.789 201.436Z" stroke="#09090A" stroke-miterlimit="10" stroke-linejoin="round"/>
</g>
<path d="M387.205 242.23C385.776 242.762 384.829 243.691 384.832 244.747C384.836 246.388 387.137 247.712 389.97 247.704C392.803 247.696 395.096 246.359 395.091 244.718C395.088 243.673 394.155 242.756 392.745 242.23" stroke="#09090A" stroke-miterlimit="10" stroke-linejoin="round"/>
<circle cx="389.972" cy="189.292" r="15.6961" transform="rotate(90 389.972 189.292)" fill="#5DB3BF"/>
<path opacity="0.5" fill-rule="evenodd" clip-rule="evenodd" d="M374.774 185.348C376.522 192.11 382.663 197.105 389.972 197.105C397.28 197.105 403.422 192.11 405.17 185.348C405.495 186.606 405.668 187.926 405.668 189.286C405.668 197.955 398.641 204.982 389.972 204.982C381.303 204.982 374.276 197.955 374.276 189.286C374.276 187.926 374.449 186.606 374.774 185.348Z" fill="#30839D"/>
<circle cx="389.972" cy="189.292" r="15.1961" transform="rotate(90 389.972 189.292)" stroke="#09090A"/>
<path opacity="0.2" d="M170.978 152.953C199.618 136.419 246.053 136.419 274.693 152.953C303.333 169.487 303.333 196.294 274.693 212.828C246.053 229.362 199.618 229.362 170.978 212.828C142.338 196.294 142.338 169.487 170.978 152.953Z" fill="#30839D"/>
<path d="M170.976 135.203C199.616 118.669 246.051 118.669 274.691 135.203C303.331 151.737 303.331 178.544 274.691 195.078C246.051 211.612 199.616 211.612 170.976 195.078C142.336 178.544 142.336 151.737 170.976 135.203Z" fill="white" stroke="#09090A" stroke-linejoin="round"/>
<path d="M283.761 164.617L287.017 160.993L279.953 161.177L283.761 164.617ZM222.961 129.517L222.961 129.871L222.961 129.517ZM162.105 159.84C162.06 160.034 162.295 160.212 162.63 160.238C162.965 160.264 163.274 160.128 163.319 159.935L162.105 159.84ZM265.52 140.048C275.884 146.031 281.678 153.653 282.902 161.469L284.122 161.406C282.873 153.431 276.961 145.653 266.386 139.548L265.52 140.048ZM180.402 140.048C192.154 133.263 207.557 129.871 222.961 129.871V129.164C207.245 129.164 191.527 132.625 179.536 139.548L180.402 140.048ZM222.961 129.871C238.365 129.871 253.767 133.263 265.52 140.048L266.386 139.548C254.395 132.625 238.677 129.164 222.961 129.164V129.871ZM163.319 159.935C165.023 152.661 170.717 145.639 180.402 140.048L179.536 139.548C169.655 145.252 163.844 152.418 162.105 159.84L163.319 159.935Z" fill="#5CC3C9"/>
<path d="M162.161 163.567L158.905 167.19L165.969 167.006L162.161 163.567ZM222.961 198.666L222.961 198.313L222.961 198.666ZM283.816 168.343C283.862 168.15 283.627 167.972 283.292 167.946C282.956 167.92 282.648 168.055 282.603 168.249L283.816 168.343ZM180.402 188.136C170.037 182.152 164.244 174.53 163.019 166.714L161.8 166.778C163.049 174.753 168.961 182.531 179.536 188.636L180.402 188.136ZM265.52 188.136C253.767 194.921 238.365 198.313 222.961 198.313V199.02C238.677 199.02 254.395 195.558 266.386 188.636L265.52 188.136ZM222.961 198.313C207.557 198.313 192.154 194.921 180.402 188.136L179.536 188.636C191.527 195.558 207.245 199.02 222.961 199.02V198.313ZM282.603 168.249C280.899 175.523 275.205 182.545 265.52 188.136L266.386 188.636C276.267 182.931 282.078 175.766 283.816 168.343L282.603 168.249Z" fill="#FFC450"/>
<path opacity="0.2" d="M251.82 175.959C253.27 176.795 253.277 178.153 251.82 178.989L245.075 182.936C244.265 183.349 243.369 183.564 242.46 183.564C241.551 183.564 240.655 183.349 239.844 182.936L237.717 181.708C236.689 181.116 235.128 180.987 233.777 181.301C232.427 181.616 231.472 182.359 231.476 183.206V185.034C231.476 186.218 229.83 187.18 227.777 187.18H217.914C217.001 187.198 216.099 186.981 215.294 186.551C214.621 186.162 214.207 185.626 214.185 185.034V183.04C214.185 182.511 213.815 182.026 213.175 181.667C212.803 181.459 212.405 181.304 211.991 181.205C210.677 180.883 209.131 181.005 208.129 181.575L205.813 182.922C205.002 183.334 204.106 183.549 203.197 183.549C202.288 183.549 201.392 183.334 200.582 182.922L193.756 178.982C192.309 178.145 192.298 176.788 193.756 175.952L196.216 174.52C197.185 173.958 197.393 173.096 196.864 172.356C196.652 172.074 196.384 171.841 196.076 171.671C195.363 171.284 194.563 171.088 193.752 171.102H190.323C189.41 171.12 188.508 170.903 187.704 170.473C187.034 170.103 186.616 169.552 186.594 168.96L186.564 163.244C186.564 162.06 188.207 161.102 190.264 161.102H193.7C195.08 161.102 196.29 160.588 196.797 159.844C197.304 159.1 197.1 158.246 196.124 157.683L193.649 156.252C192.198 155.416 192.191 154.058 193.63 153.222L200.411 149.282C201.222 148.87 202.118 148.655 203.027 148.655C203.936 148.655 204.832 148.87 205.642 149.282L207.973 150.632C208.983 151.213 210.529 151.335 211.839 151.002C213.149 150.669 214.018 149.981 214.014 149.171V147.299C214.014 146.115 215.657 145.157 217.714 145.157H227.581C228.493 145.142 229.394 145.359 230.2 145.786C230.873 146.156 231.291 146.711 231.31 147.303V149.008C231.31 149.552 231.709 150.051 232.353 150.425C232.754 150.649 233.185 150.813 233.633 150.913C234.976 151.228 236.548 151.098 237.569 150.506L239.682 149.278C240.492 148.866 241.388 148.651 242.297 148.651C243.206 148.651 244.102 148.866 244.913 149.278L251.738 153.218C253.189 154.054 253.192 155.412 251.738 156.248L249.77 157.391C248.716 158.005 248.498 158.949 249.086 159.752C249.315 160.054 249.605 160.306 249.937 160.491C250.705 160.908 251.567 161.12 252.441 161.106H255.401C256.313 161.088 257.214 161.303 258.02 161.731C258.69 162.101 259.108 162.656 259.111 163.248L259.145 168.96C259.145 170.143 257.498 171.105 255.445 171.105H252.486C251.006 171.105 249.711 171.66 249.156 172.452C248.601 173.244 248.786 174.198 249.87 174.812L251.82 175.959ZM210.866 173.155C217.607 177.047 228.498 177.047 235.194 173.155C241.89 169.263 241.853 162.955 235.113 159.063C228.372 155.172 217.485 155.172 210.785 159.063C204.085 162.955 204.126 169.263 210.866 173.155Z" fill="#30839D"/>
<path d="M214.001 132.587L213.968 144.651L213.953 142.779L213.986 130.715L214.001 132.587Z" fill="#6FA646" stroke="#09090A" stroke-linejoin="round"/>
<path fill-rule="evenodd" clip-rule="evenodd" d="M252.786 138.162L252.752 150.219C252.752 150.763 252.383 151.307 251.676 151.725L251.676 151.714L251.675 151.721L249.709 152.863L249.709 152.866C249.427 152.996 249.185 153.199 249.008 153.454C248.831 153.709 248.726 154.006 248.703 154.316L248.74 142.252C248.74 141.715 249.073 141.194 249.743 140.802L249.743 140.803L251.708 139.657L251.709 139.664L251.709 139.661C252.424 139.248 252.783 138.707 252.786 138.162Z" fill="#6FA646"/>
<path d="M252.752 150.219L252.252 150.218V150.219H252.752ZM252.786 138.162L253.286 138.163C253.286 137.888 253.064 137.663 252.788 137.662C252.512 137.661 252.287 137.883 252.286 138.159L252.786 138.162ZM251.676 151.725L251.176 151.724C251.175 151.903 251.272 152.07 251.428 152.159C251.584 152.248 251.776 152.247 251.93 152.155L251.676 151.725ZM251.676 151.714L252.176 151.716C252.177 151.452 251.972 151.233 251.709 151.216C251.446 151.198 251.214 151.388 251.18 151.65L251.676 151.714ZM251.675 151.721L251.926 152.154C252.06 152.076 252.151 151.94 252.171 151.786L251.675 151.721ZM249.709 152.863L249.458 152.431C249.305 152.52 249.21 152.684 249.209 152.862L249.709 152.863ZM249.709 152.866L249.919 153.32C250.095 153.238 250.209 153.062 250.209 152.867L249.709 152.866ZM249.008 153.454L249.419 153.739H249.419L249.008 153.454ZM248.703 154.316L248.203 154.314C248.202 154.584 248.415 154.805 248.684 154.816C248.953 154.826 249.182 154.622 249.202 154.353L248.703 154.316ZM248.74 142.252L249.24 142.253V142.252H248.74ZM249.743 140.802L250.243 140.803C250.243 140.624 250.147 140.458 249.992 140.368C249.836 140.279 249.645 140.28 249.49 140.37L249.743 140.802ZM249.743 140.803L249.243 140.801C249.242 140.98 249.338 141.146 249.493 141.236C249.648 141.325 249.839 141.325 249.994 141.235L249.743 140.803ZM251.708 139.657L252.205 139.596C252.184 139.429 252.081 139.284 251.93 139.209C251.78 139.135 251.602 139.141 251.457 139.225L251.708 139.657ZM251.709 139.664L251.213 139.725C251.245 139.987 251.476 140.179 251.739 140.163C252.003 140.148 252.208 139.93 252.209 139.666L251.709 139.664ZM251.709 139.661L251.459 139.228C251.305 139.317 251.21 139.481 251.209 139.659L251.709 139.661ZM253.252 150.221L253.286 138.163L252.286 138.161L252.252 150.218L253.252 150.221ZM251.93 152.155C252.72 151.688 253.252 151.007 253.252 150.219H252.252C252.252 150.519 252.045 150.926 251.421 151.295L251.93 152.155ZM251.176 151.713L251.176 151.724L252.176 151.726L252.176 151.716L251.176 151.713ZM252.171 151.786L252.172 151.779L251.18 151.65L251.179 151.656L252.171 151.786ZM249.96 153.295L251.926 152.154L251.424 151.289L249.458 152.431L249.96 153.295ZM249.209 152.862L249.209 152.864L250.209 152.867L250.209 152.864L249.209 152.862ZM249.5 152.412C249.137 152.579 248.825 152.84 248.598 153.169L249.419 153.739C249.545 153.557 249.718 153.412 249.919 153.32L249.5 152.412ZM248.598 153.169C248.37 153.497 248.234 153.88 248.204 154.279L249.202 154.353C249.218 154.133 249.293 153.92 249.419 153.739L248.598 153.169ZM249.203 154.318L249.24 142.253L248.24 142.25L248.203 154.314L249.203 154.318ZM249.24 142.252C249.24 141.947 249.426 141.566 249.995 141.233L249.49 140.37C248.72 140.821 248.24 141.484 248.24 142.252H249.24ZM249.243 140.8L249.243 140.801L250.243 140.804L250.243 140.803L249.243 140.8ZM251.457 139.225L249.491 140.371L249.994 141.235L251.96 140.089L251.457 139.225ZM252.205 139.603L252.205 139.596L251.212 139.718L251.213 139.725L252.205 139.603ZM251.209 139.659L251.209 139.663L252.209 139.666L252.209 139.662L251.209 139.659ZM252.286 138.159C252.284 138.465 252.082 138.868 251.459 139.228L251.959 140.094C252.766 139.628 253.281 138.949 253.286 138.165L252.286 138.159Z" fill="#09090A"/>
<path fill-rule="evenodd" clip-rule="evenodd" d="M192.508 150.199L192.541 138.135C192.541 138.686 192.911 139.245 193.651 139.659L193.651 139.677L196.114 141.096L196.114 141.097C196.376 141.218 196.602 141.407 196.767 141.645C196.934 141.885 197.034 142.165 197.055 142.457L197.018 154.518C197.018 154.017 196.711 153.528 196.077 153.158L196.077 153.16L193.602 151.728L193.6 151.715C192.866 151.295 192.508 150.747 192.508 150.199Z" fill="#6FA646"/>
<path d="M192.541 138.135H193.041C193.041 137.859 192.817 137.635 192.542 137.635C192.266 137.634 192.042 137.858 192.041 138.133L192.541 138.135ZM192.508 150.199L192.008 150.197V150.199H192.508ZM193.651 139.659L194.151 139.66C194.151 139.479 194.053 139.311 193.895 139.223L193.651 139.659ZM193.651 139.677L193.151 139.675C193.15 139.855 193.246 140.021 193.401 140.11L193.651 139.677ZM196.114 141.096L196.614 141.098C196.615 140.918 196.519 140.752 196.364 140.663L196.114 141.096ZM196.114 141.097L195.614 141.095C195.613 141.29 195.727 141.468 195.904 141.55L196.114 141.097ZM196.767 141.645L196.357 141.93L196.357 141.93L196.767 141.645ZM197.055 142.457L197.555 142.459C197.555 142.446 197.555 142.433 197.554 142.421L197.055 142.457ZM197.018 154.518H196.518C196.518 154.794 196.742 155.017 197.017 155.018C197.293 155.018 197.517 154.795 197.518 154.519L197.018 154.518ZM196.077 153.158L196.329 152.726C196.174 152.636 195.984 152.635 195.829 152.724C195.673 152.813 195.578 152.978 195.577 153.157L196.077 153.158ZM196.077 153.16L195.827 153.593C195.981 153.682 196.171 153.682 196.326 153.594C196.481 153.505 196.576 153.34 196.577 153.162L196.077 153.16ZM193.602 151.728L193.106 151.791C193.126 151.946 193.217 152.083 193.352 152.161L193.602 151.728ZM193.6 151.715L194.096 151.652C194.077 151.497 193.985 151.359 193.849 151.282L193.6 151.715ZM192.041 138.133L192.008 150.197L193.008 150.2L193.041 138.136L192.041 138.133ZM193.895 139.223C193.25 138.861 193.041 138.442 193.041 138.135H192.041C192.041 138.93 192.572 139.628 193.406 140.095L193.895 139.223ZM194.151 139.678L194.151 139.66L193.151 139.657L193.151 139.675L194.151 139.678ZM196.364 140.663L193.9 139.244L193.401 140.11L195.864 141.529L196.364 140.663ZM196.614 141.098L196.614 141.098L195.614 141.094L195.614 141.095L196.614 141.098ZM195.904 141.55C196.086 141.635 196.242 141.766 196.357 141.93L197.177 141.359C196.961 141.049 196.667 140.802 196.324 140.643L195.904 141.55ZM196.357 141.93C196.473 142.097 196.542 142.292 196.557 142.494L197.554 142.421C197.526 142.039 197.396 141.673 197.177 141.359L196.357 141.93ZM196.555 142.456L196.518 154.516L197.518 154.519L197.555 142.459L196.555 142.456ZM197.518 154.518C197.518 153.787 197.065 153.155 196.329 152.726L195.825 153.59C196.356 153.9 196.518 154.247 196.518 154.518H197.518ZM196.577 153.162L196.577 153.16L195.577 153.157L195.577 153.159L196.577 153.162ZM193.352 152.161L195.827 153.593L196.327 152.727L193.852 151.296L193.352 152.161ZM193.104 151.779L193.106 151.791L194.098 151.665L194.096 151.652L193.104 151.779ZM192.008 150.199C192.008 150.988 192.524 151.675 193.352 152.149L193.849 151.282C193.207 150.914 193.008 150.505 193.008 150.199H192.008Z" fill="#09090A"/>
<path d="M240.187 149.561L240.153 161.622C240.153 159.058 238.466 156.487 235.074 154.53C228.337 150.638 217.446 150.638 210.746 154.53C207.416 156.461 205.755 158.991 205.748 161.526L205.781 149.462C205.781 146.927 207.453 144.401 210.779 142.466C217.479 138.574 228.37 138.574 235.107 142.466C238.5 144.423 240.194 146.994 240.187 149.561Z" fill="#6FA646" stroke="#09090A" stroke-linejoin="round"/>
<path d="M186.592 152.368L186.559 164.432L186.529 158.716L186.562 146.652L186.592 152.368Z" fill="#6FA646" stroke="#09090A" stroke-linejoin="round"/>
<path d="M190.323 154.512L190.323 154.497C189.41 154.516 188.508 154.299 187.704 153.869C187.019 153.465 186.594 152.947 186.594 152.355L186.56 164.42C186.579 165.008 186.997 165.544 187.67 165.933C188.471 166.361 189.367 166.577 190.275 166.562L190.275 166.572H193.708C194.519 166.559 195.321 166.754 196.035 167.139C196.344 167.309 196.613 167.543 196.823 167.827C197.002 168.064 197.102 168.351 197.108 168.648L197.141 156.584C197.137 156.287 197.037 155.999 196.856 155.763C196.645 155.481 196.377 155.248 196.068 155.078C195.356 154.691 194.556 154.495 193.745 154.509L190.323 154.512Z" fill="#6FA646" stroke="#09090A" stroke-linejoin="round"/>
<path d="M259.105 152.363L259.105 152.379C259.105 152.374 259.105 152.369 259.105 152.363Z" fill="#6FA646"/>
<path d="M255.378 166.573C257.431 166.57 259.068 165.609 259.068 164.427L259.105 152.379C259.094 153.556 257.45 154.498 255.431 154.498L255.412 154.535L255.412 154.509H252.467L252.467 154.609L252.445 154.509C250.965 154.509 249.685 155.064 249.115 155.856C248.922 156.112 248.815 156.423 248.808 156.744L248.771 168.804C248.781 168.485 248.888 168.176 249.078 167.92C249.637 167.128 250.928 166.573 252.408 166.573L252.43 166.48L252.43 166.573L255.378 166.573Z" fill="#6FA646"/>
<path d="M259.105 152.379L259.105 152.363C259.105 152.369 259.105 152.374 259.105 152.379ZM259.105 152.379L259.068 164.427C259.068 165.609 257.431 166.57 255.378 166.573L252.43 166.573L252.43 166.48L252.408 166.573C250.928 166.573 249.637 167.128 249.078 167.92C248.888 168.176 248.781 168.485 248.771 168.804L248.808 156.744C248.815 156.423 248.922 156.112 249.115 155.856C249.685 155.064 250.965 154.509 252.445 154.509L252.467 154.609L252.467 154.509H255.412L255.412 154.535L255.431 154.498C257.45 154.498 259.094 153.556 259.105 152.379Z" stroke="#09090A" stroke-linejoin="round"/>
<path d="M252.881 172.948L252.914 160.895C252.911 161.436 252.552 161.977 251.841 162.39L251.841 162.394L245.06 166.33L245.027 178.394L251.808 174.454C252.511 174.036 252.881 173.492 252.881 172.948Z" fill="#6FA646" stroke="#09090A" stroke-linejoin="round"/>
<path d="M214.159 178.495L214.192 166.434C214.188 165.905 213.804 165.421 213.182 165.066C212.811 164.857 212.412 164.702 211.998 164.603C210.685 164.266 209.139 164.389 208.136 164.973L208.136 164.984L205.82 166.331L205.783 178.395L208.103 177.048L208.109 177.03C209.112 176.463 210.655 176.342 211.961 176.663C212.376 176.76 212.774 176.915 213.145 177.122C213.789 177.485 214.159 177.969 214.159 178.495Z" fill="#6FA646" stroke="#09090A" stroke-linejoin="round"/>
<path d="M237.696 165.1C236.668 164.508 235.11 164.371 233.756 164.693C232.402 165.015 231.455 165.751 231.455 166.598L231.422 178.637C231.422 178.645 231.422 178.654 231.422 178.662L231.422 178.637C231.434 177.797 232.386 177.087 233.723 176.757C235.073 176.424 236.634 176.568 237.663 177.164L239.79 178.392L239.809 178.4C240.619 178.813 241.515 179.028 242.424 179.028C243.333 179.028 243.942 179.151 245.04 178.4L245.073 166.335C244.263 166.748 243.367 166.964 242.458 166.964C241.549 166.965 240.652 166.751 239.842 166.339L239.823 166.417L239.823 166.328L237.696 165.1Z" fill="#6FA646"/>
<path d="M231.422 178.637L231.455 166.598C231.455 165.751 232.402 165.015 233.756 164.693C235.11 164.371 236.668 164.508 237.696 165.1L239.823 166.328L239.823 166.417L239.842 166.339C240.652 166.751 241.549 166.965 242.458 166.964C243.367 166.964 244.263 166.748 245.073 166.335L245.04 178.4C243.942 179.151 243.333 179.028 242.424 179.028C241.515 179.028 240.619 178.813 239.809 178.4L239.79 178.392L237.663 177.164C236.634 176.568 235.073 176.424 233.723 176.757C232.386 177.087 231.434 177.797 231.422 178.637ZM231.422 178.637C231.422 178.645 231.422 178.654 231.422 178.662L231.422 178.637Z" stroke="#09090A" stroke-linejoin="round"/>
<path d="M192.635 172.927L192.668 160.863C192.668 161.418 193.038 161.973 193.759 162.391L200.585 166.331L200.585 166.338C201.395 166.751 202.291 166.966 203.201 166.966C204.11 166.966 205.006 166.751 205.816 166.339L205.783 178.399C204.972 178.813 204.075 179.029 203.165 179.029C202.255 179.029 201.358 178.813 200.548 178.399L200.547 178.395L193.726 174.455L193.726 174.451C192.997 174.033 192.631 173.479 192.635 172.927Z" fill="#6FA646" stroke="#09090A" stroke-linejoin="round"/>
<path d="M214.193 168.435L214.159 180.496L214.148 178.502L214.182 166.438L214.193 168.435Z" fill="#6FA646" stroke="#09090A" stroke-linejoin="round"/>
<path d="M217.91 170.572C217.003 170.587 216.108 170.37 215.309 169.943C214.617 169.536 214.199 169.018 214.199 168.426L214.166 180.49C214.17 181.082 214.584 181.618 215.257 182.007C216.063 182.434 216.964 182.65 217.876 182.632L227.743 182.636C229.791 182.629 231.432 181.672 231.432 180.49L231.465 168.441C231.455 169.618 229.81 170.572 227.765 170.572L217.91 170.572Z" fill="#6FA646" stroke="#09090A" stroke-linejoin="round"/>
<path d="M251.82 159.361C253.27 160.197 253.278 161.555 251.82 162.391L245.076 166.339C244.265 166.751 243.369 166.966 242.46 166.966C241.551 166.966 240.655 166.751 239.845 166.339L237.717 165.11C236.689 164.518 235.128 164.389 233.777 164.704C232.427 165.018 231.473 165.762 231.476 166.609V168.436C231.476 169.62 229.83 170.582 227.777 170.582H217.914C217.001 170.6 216.099 170.384 215.295 169.953C214.621 169.565 214.207 169.028 214.185 168.436V166.442C214.185 165.913 213.815 165.429 213.175 165.07C212.804 164.862 212.405 164.706 211.991 164.607C210.678 164.285 209.131 164.408 208.129 164.977L205.813 166.324C205.003 166.736 204.106 166.951 203.197 166.951C202.288 166.951 201.392 166.736 200.582 166.324L193.756 162.384C192.31 161.548 192.299 160.19 193.756 159.354L196.216 157.922C197.186 157.36 197.393 156.498 196.864 155.758C196.652 155.477 196.384 155.244 196.076 155.074C195.364 154.686 194.563 154.49 193.752 154.504H190.323C189.41 154.522 188.509 154.305 187.704 153.875C187.034 153.505 186.616 152.954 186.594 152.362L186.564 146.646C186.564 145.462 188.207 144.504 190.264 144.504H193.701C195.081 144.504 196.29 143.99 196.797 143.246C197.304 142.503 197.101 141.648 196.124 141.086L193.649 139.654C192.199 138.818 192.191 137.46 193.63 136.624L200.412 132.684C201.222 132.272 202.118 132.057 203.027 132.057C203.936 132.057 204.832 132.272 205.643 132.684L207.973 134.035C208.983 134.615 210.53 134.737 211.839 134.405C213.149 134.072 214.018 133.383 214.015 132.573V130.701C214.015 129.517 215.657 128.559 217.714 128.559H227.581C228.493 128.545 229.394 128.761 230.2 129.188C230.873 129.558 231.291 130.113 231.31 130.705V132.411C231.31 132.954 231.709 133.454 232.353 133.827C232.754 134.051 233.185 134.215 233.633 134.316C234.976 134.63 236.548 134.501 237.569 133.909L239.682 132.681C240.492 132.268 241.388 132.053 242.297 132.053C243.206 132.053 244.103 132.268 244.913 132.681L251.739 136.621C253.189 137.457 253.192 138.814 251.739 139.65L249.77 140.794C248.716 141.408 248.498 142.351 249.086 143.154C249.315 143.457 249.605 143.709 249.937 143.894C250.705 144.311 251.568 144.522 252.441 144.508H255.401C256.313 144.491 257.214 144.706 258.02 145.133C258.69 145.503 259.108 146.058 259.112 146.65L259.145 152.362C259.145 153.546 257.499 154.508 255.445 154.508H252.486C251.006 154.508 249.711 155.063 249.156 155.854C248.601 156.646 248.786 157.6 249.87 158.215L251.82 159.361ZM210.866 156.557C217.607 160.449 228.498 160.449 235.194 156.557C241.89 152.665 241.853 146.358 235.113 142.466C228.372 138.574 217.485 138.574 210.785 142.466C204.085 146.358 204.126 152.665 210.866 156.557Z" fill="#BCF194" stroke="#09090A" stroke-linejoin="round"/>
<rect opacity="0.2" width="181.018" height="114.448" rx="11" transform="matrix(0.866044 0.499967 -0.866044 0.499967 165.158 221.512)" fill="#30839D"/>
<rect width="181.106" height="114.448" rx="11" transform="matrix(0.866044 0.499967 -0.866044 0.499967 165.117 204.523)" fill="#5CC3C9" stroke="white" stroke-linejoin="round"/>
<path d="M142.399 208.595C146.434 206.265 152.975 206.265 157.01 208.595L278.247 278.585C282.281 280.914 282.281 284.69 278.247 287.019L239.743 309.248C235.708 311.577 229.167 311.577 225.132 309.248L103.895 239.257C99.8608 236.928 99.8608 233.152 103.895 230.823L142.399 208.595Z" fill="white" stroke="#09090A" stroke-linejoin="round"/>
<path d="M280.435 307.057L240.701 329.996C236.666 332.325 230.125 332.325 226.09 329.996L101.706 258.189C99.5019 256.917 98.5019 255.212 98.7058 253.548L100.89 234.654C100.705 236.307 101.707 237.996 103.895 239.259L225.132 309.249C225.675 309.563 226.264 309.834 226.887 310.064C230.883 311.536 236.251 311.264 239.742 309.249L278.246 287.021C280.174 285.907 281.181 284.464 281.266 283.006L283.337 301.915C283.829 303.732 282.862 305.657 280.435 307.057Z" fill="#8FE3E8"/>
<path d="M240.701 329.996L280.435 307.057C282.862 305.657 283.829 303.732 283.337 301.915L281.266 283.006C281.181 284.464 280.174 285.907 278.246 287.021L239.742 309.249M240.701 329.996C236.666 332.325 230.125 332.325 226.09 329.996M240.701 329.996L239.742 309.249M226.09 329.996L101.706 258.189C99.5019 256.916 98.5019 255.212 98.7058 253.548L100.893 234.63M226.09 329.996L226.887 310.064M103.895 230.824C102.059 231.884 101.058 233.243 100.893 234.63M239.742 309.249C236.251 311.264 230.883 311.536 226.887 310.064M226.887 310.064C226.264 309.834 225.675 309.563 225.132 309.249L103.895 239.259C101.696 237.989 100.695 236.29 100.893 234.63" stroke="#09090A" stroke-linejoin="round"/>
<path d="M144.286 239.217C143.814 239.49 143.28 239.686 142.687 239.805C142.105 239.917 141.493 239.948 140.851 239.899C140.209 239.85 139.542 239.717 138.852 239.5C138.173 239.29 137.495 238.99 136.816 238.598C136.053 238.157 135.435 237.702 134.962 237.234C134.502 236.772 134.229 236.307 134.144 235.838C134.047 235.362 134.156 234.887 134.471 234.411C134.787 233.935 135.332 233.46 136.107 232.984L131.091 230.088C129.722 230.878 128.789 231.718 128.292 232.606C127.807 233.501 127.643 234.428 127.801 235.387C127.995 236.38 128.534 237.363 129.418 238.335C130.327 239.308 131.442 240.175 132.763 240.938C134.108 241.714 135.507 242.34 136.961 242.816C138.427 243.285 139.888 243.575 141.342 243.687C142.784 243.806 144.183 243.74 145.54 243.488C146.922 243.236 148.194 242.774 149.357 242.103C150.702 241.326 151.581 240.463 151.993 239.511C152.405 238.56 152.478 237.56 152.211 236.51C151.993 235.839 151.654 235.16 151.193 234.475C150.733 233.789 150.175 233.11 149.521 232.439C148.903 231.816 148.388 231.232 147.976 230.687C147.576 230.148 147.304 229.648 147.158 229.186C147.001 228.731 146.995 228.315 147.14 227.937C147.298 227.567 147.625 227.238 148.122 226.951C148.594 226.678 149.121 226.479 149.703 226.353C150.309 226.227 150.945 226.182 151.612 226.217C152.266 226.259 152.932 226.385 153.611 226.594C154.314 226.804 155.004 227.105 155.683 227.497C156.422 227.924 156.961 228.354 157.301 228.788C157.664 229.221 157.858 229.648 157.882 230.068C157.882 230.488 157.725 230.893 157.409 231.285C157.107 231.684 156.67 232.061 156.101 232.418L161.081 235.293C162.268 234.608 163.129 233.845 163.662 233.006C164.195 232.167 164.413 231.299 164.316 230.404C164.207 229.515 163.777 228.624 163.026 227.728C162.287 226.84 161.227 225.997 159.845 225.199C158.512 224.43 157.101 223.818 155.61 223.363C154.132 222.901 152.654 222.614 151.175 222.502C149.697 222.39 148.267 222.46 146.886 222.712C145.505 222.964 144.257 223.411 143.142 224.055C142.172 224.614 141.451 225.233 140.979 225.912C140.518 226.598 140.3 227.339 140.324 228.136C140.349 228.934 140.627 229.815 141.16 230.781C141.706 231.753 142.511 232.778 143.578 233.855C144.268 234.548 144.777 235.163 145.104 235.702C145.456 236.241 145.656 236.727 145.704 237.161C145.728 237.594 145.613 237.976 145.359 238.304C145.116 238.64 144.759 238.944 144.286 239.217Z" fill="#0A6191"/>
<path d="M187.92 246.634L192.083 244.231L170.745 231.912L166.582 234.314L174.634 238.963L152.332 251.837L157.457 254.796L179.76 241.922L187.92 246.634Z" fill="#0A6191"/>
<path d="M187.241 265.612L183.261 269.694L188.641 272.8L206.599 252.612L201.964 249.936L166.83 260.208L172.21 263.314L179.299 261.027L187.241 265.612ZM184.897 259.243L197.42 255.225L190.386 262.412L184.897 259.243Z" fill="#0A6191"/>
<path d="M210.101 273.773L205.193 282.356L210.664 285.515L210.9 285.378L216.135 275.788C217.189 276.019 218.231 276.173 219.261 276.25C220.303 276.334 221.339 276.324 222.369 276.219C223.375 276.114 224.362 275.907 225.332 275.6C226.325 275.292 227.295 274.865 228.24 274.32C229.549 273.564 230.47 272.767 231.003 271.927C231.548 271.095 231.736 270.245 231.566 269.378C231.385 268.503 230.87 267.625 230.022 266.744C229.186 265.855 228.034 264.988 226.568 264.141L217.699 259.021L191.234 274.297L196.341 277.246L206.229 271.538L210.101 273.773ZM210.373 269.146L218.662 264.361L222.424 266.534C223.127 266.939 223.666 267.349 224.042 267.761C224.417 268.174 224.635 268.58 224.696 268.979C224.769 269.426 224.635 269.867 224.296 270.301C223.981 270.734 223.472 271.154 222.769 271.56C222.188 271.896 221.576 272.151 220.933 272.326C220.303 272.508 219.661 272.605 219.007 272.619C218.207 272.647 217.389 272.553 216.553 272.336C215.741 272.119 214.941 271.783 214.154 271.329L210.373 269.146Z" fill="#0A6191"/>
<path d="M255.516 285.66L259.678 283.257L238.34 270.938L234.178 273.341L242.23 277.989L219.927 290.863L225.053 293.823L247.355 280.949L255.516 285.66Z" fill="#0A6191"/>
<path d="M435.102 197.25C438.06 195.439 438.072 192.503 435.137 190.692C432.203 188.881 427.429 188.881 424.471 190.692C421.514 192.503 421.502 195.439 424.436 197.25C427.371 199.073 432.145 199.073 435.102 197.25Z" stroke="#09090A" stroke-linejoin="round"/>
<path d="M382.885 167.255C385.843 165.67 385.855 163.101 382.92 161.517C379.986 159.932 375.212 159.932 372.254 161.517C369.297 163.101 369.285 165.67 372.219 167.255C375.154 168.85 379.928 168.85 382.885 167.255Z" stroke="#09090A" stroke-linejoin="round"/>
<path d="M341.104 143.871C344.062 142.06 344.073 139.124 341.139 137.313C338.205 135.502 333.431 135.502 330.473 137.313C327.515 139.124 327.504 142.06 330.438 143.871C333.372 145.694 338.147 145.694 341.104 143.871Z" stroke="#09090A" stroke-linejoin="round"/>
</g>
<defs>
<radialGradient id="paint0_radial_2057_8100" cx="0" cy="0" r="1" gradientUnits="userSpaceOnUse" gradientTransform="translate(382.829 146.325) rotate(-134.751) scale(288.447 499.646)">
<stop offset="0.0546285" stop-color="#7AD1FF"/>
<stop offset="1" stop-color="#7AD1FF" stop-opacity="0"/>
</radialGradient>
<clipPath id="clip0_2057_8100">
<rect width="639" height="438" fill="white" transform="translate(0 -67)"/>
</clipPath>
<clipPath id="clip1_2057_8100">
<rect width="649" height="436.733" fill="white" transform="translate(14 -51)"/>
</clipPath>
</defs>
</svg>
